<svg width="1166" height="54" viewBox="0 0 1166 54" fill="none" xmlns="http://www.w3.org/2000/svg">
<g id="Group 2049">
<path id="Termos" d="M4.14258 40.4688V49H3.0293V40.4688H4.14258ZM6.88477 40.4688V41.3945H0.292969V40.4688H6.88477ZM9.83125 49.1172C9.38984 49.1172 8.98945 49.043 8.63008 48.8945C8.27461 48.7422 7.96797 48.5293 7.71016 48.2559C7.45625 47.9824 7.26094 47.6582 7.12422 47.2832C6.9875 46.9082 6.91914 46.498 6.91914 46.0527V45.8066C6.91914 45.291 6.99531 44.832 7.14766 44.4297C7.3 44.0234 7.50703 43.6797 7.76875 43.3984C8.03047 43.1172 8.32734 42.9043 8.65938 42.7598C8.99141 42.6152 9.33516 42.543 9.69063 42.543C10.1438 42.543 10.5344 42.6211 10.8625 42.7773C11.1945 42.9336 11.466 43.1523 11.677 43.4336C11.8879 43.7109 12.0441 44.0391 12.1457 44.418C12.2473 44.793 12.298 45.2031 12.298 45.6484V46.1348H7.56367V45.25H11.2141V45.168C11.1984 44.8867 11.1398 44.6133 11.0383 44.3477C10.9406 44.082 10.7844 43.8633 10.5695 43.6914C10.3547 43.5195 10.0617 43.4336 9.69063 43.4336C9.44453 43.4336 9.21797 43.4863 9.01094 43.5918C8.80391 43.6934 8.62617 43.8457 8.47773 44.0488C8.3293 44.252 8.21406 44.5 8.13203 44.793C8.05 45.0859 8.00898 45.4238 8.00898 45.8066V46.0527C8.00898 46.3535 8.05 46.6367 8.13203 46.9023C8.21797 47.1641 8.34102 47.3945 8.50117 47.5938C8.66523 47.793 8.8625 47.9492 9.09297 48.0625C9.32734 48.1758 9.59297 48.2324 9.88984 48.2324C10.2727 48.2324 10.5969 48.1543 10.8625 47.998C11.1281 47.8418 11.3605 47.6328 11.5598 47.3711L12.216 47.8926C12.0793 48.0996 11.9055 48.2969 11.6945 48.4844C11.4836 48.6719 11.2238 48.8242 10.9152 48.9414C10.6105 49.0586 10.2492 49.1172 9.83125 49.1172ZM14.4477 43.6562V49H13.3637V42.6602H14.4184L14.4477 43.6562ZM16.4281 42.625L16.4223 43.6328C16.3324 43.6133 16.2465 43.6016 16.1645 43.5977C16.0863 43.5898 15.9965 43.5859 15.8949 43.5859C15.6449 43.5859 15.4242 43.625 15.2328 43.7031C15.0414 43.7812 14.8793 43.8906 14.7465 44.0312C14.6137 44.1719 14.5082 44.3398 14.4301 44.5352C14.3559 44.7266 14.307 44.9375 14.2836 45.168L13.9789 45.3438C13.9789 44.9609 14.016 44.6016 14.0902 44.2656C14.1684 43.9297 14.2875 43.6328 14.4477 43.375C14.6078 43.1133 14.8109 42.9102 15.057 42.7656C15.307 42.6172 15.6039 42.543 15.9477 42.543C16.0258 42.543 16.1156 42.5527 16.2172 42.5723C16.3188 42.5879 16.3891 42.6055 16.4281 42.625ZM18.3082 43.9199V49H17.2184V42.6602H18.2496L18.3082 43.9199ZM18.0855 45.5898L17.5816 45.5723C17.5855 45.1387 17.6422 44.7383 17.7516 44.3711C17.8609 44 18.023 43.6777 18.2379 43.4043C18.4527 43.1309 18.7203 42.9199 19.0406 42.7715C19.3609 42.6191 19.732 42.543 20.1539 42.543C20.4508 42.543 20.7242 42.5859 20.9742 42.6719C21.2242 42.7539 21.441 42.8848 21.6246 43.0645C21.8082 43.2441 21.9508 43.4746 22.0523 43.7559C22.1539 44.0371 22.2047 44.377 22.2047 44.7754V49H21.1207V44.8281C21.1207 44.4961 21.0641 44.2305 20.9508 44.0312C20.8414 43.832 20.6852 43.6875 20.482 43.5977C20.2789 43.5039 20.0406 43.457 19.7672 43.457C19.4469 43.457 19.1793 43.5137 18.9645 43.627C18.7496 43.7402 18.5777 43.8965 18.4488 44.0957C18.3199 44.2949 18.2262 44.5234 18.1676 44.7812C18.1129 45.0352 18.0855 45.3047 18.0855 45.5898ZM22.193 44.9922L21.4664 45.2148C21.4703 44.8672 21.527 44.5332 21.6363 44.2129C21.7496 43.8926 21.9117 43.6074 22.1227 43.3574C22.3375 43.1074 22.6012 42.9102 22.9137 42.7656C23.2262 42.6172 23.5836 42.543 23.9859 42.543C24.3258 42.543 24.6266 42.5879 24.8883 42.6777C25.1539 42.7676 25.3766 42.9062 25.5562 43.0938C25.7398 43.2773 25.8785 43.5137 25.9723 43.8027C26.066 44.0918 26.1129 44.4355 26.1129 44.834V49H25.023V44.8223C25.023 44.4668 24.9664 44.1914 24.8531 43.9961C24.7437 43.7969 24.5875 43.6582 24.3844 43.5801C24.1852 43.498 23.9469 43.457 23.6695 43.457C23.4312 43.457 23.2203 43.498 23.0367 43.5801C22.8531 43.6621 22.6988 43.7754 22.5738 43.9199C22.4488 44.0605 22.3531 44.2227 22.2867 44.4062C22.2242 44.5898 22.193 44.7852 22.193 44.9922ZM27.2664 45.9004V45.7656C27.2664 45.3086 27.3328 44.8848 27.4656 44.4941C27.5984 44.0996 27.7898 43.7578 28.0398 43.4688C28.2898 43.1758 28.5926 42.9492 28.948 42.7891C29.3035 42.625 29.702 42.543 30.1434 42.543C30.5887 42.543 30.9891 42.625 31.3445 42.7891C31.7039 42.9492 32.0086 43.1758 32.2586 43.4688C32.5125 43.7578 32.7059 44.0996 32.8387 44.4941C32.9715 44.8848 33.0379 45.3086 33.0379 45.7656V45.9004C33.0379 46.3574 32.9715 46.7812 32.8387 47.1719C32.7059 47.5625 32.5125 47.9043 32.2586 48.1973C32.0086 48.4863 31.7059 48.7129 31.3504 48.877C30.9988 49.0371 30.6004 49.1172 30.1551 49.1172C29.7098 49.1172 29.3094 49.0371 28.9539 48.877C28.5984 48.7129 28.2938 48.4863 28.0398 48.1973C27.7898 47.9043 27.5984 47.5625 27.4656 47.1719C27.3328 46.7812 27.2664 46.3574 27.2664 45.9004ZM28.3504 45.7656V45.9004C28.3504 46.2168 28.3875 46.5156 28.4617 46.7969C28.5359 47.0742 28.6473 47.3203 28.7957 47.5352C28.948 47.75 29.1375 47.9199 29.3641 48.0449C29.5906 48.166 29.8543 48.2266 30.1551 48.2266C30.452 48.2266 30.7117 48.166 30.9344 48.0449C31.1609 47.9199 31.3484 47.75 31.4969 47.5352C31.6453 47.3203 31.7566 47.0742 31.8309 46.7969C31.909 46.5156 31.948 46.2168 31.948 45.9004V45.7656C31.948 45.4531 31.909 45.1582 31.8309 44.8809C31.7566 44.5996 31.6434 44.3516 31.491 44.1367C31.3426 43.918 31.1551 43.7461 30.9285 43.6211C30.7059 43.4961 30.4441 43.4336 30.1434 43.4336C29.8465 43.4336 29.5848 43.4961 29.3582 43.6211C29.1355 43.7461 28.948 43.918 28.7957 44.1367C28.6473 44.3516 28.5359 44.5996 28.4617 44.8809C28.3875 45.1582 28.3504 45.4531 28.3504 45.7656ZM37.8887 47.3184C37.8887 47.1621 37.8535 47.0176 37.7832 46.8848C37.7168 46.748 37.5781 46.625 37.3672 46.5156C37.1602 46.4023 36.8477 46.3047 36.4297 46.2227C36.0781 46.1484 35.7598 46.0605 35.4746 45.959C35.1934 45.8574 34.9531 45.7344 34.7539 45.5898C34.5586 45.4453 34.4082 45.2754 34.3027 45.0801C34.1973 44.8848 34.1445 44.6562 34.1445 44.3945C34.1445 44.1445 34.1992 43.9082 34.3086 43.6855C34.4219 43.4629 34.5801 43.2656 34.7832 43.0938C34.9902 42.9219 35.2383 42.7871 35.5273 42.6895C35.8164 42.5918 36.1387 42.543 36.4941 42.543C37.002 42.543 37.4355 42.6328 37.7949 42.8125C38.1543 42.9922 38.4297 43.2324 38.6211 43.5332C38.8125 43.8301 38.9082 44.1602 38.9082 44.5234H37.8242C37.8242 44.3477 37.7715 44.1777 37.666 44.0137C37.5645 43.8457 37.4141 43.707 37.2148 43.5977C37.0195 43.4883 36.7793 43.4336 36.4941 43.4336C36.1934 43.4336 35.9492 43.4805 35.7617 43.5742C35.5781 43.6641 35.4434 43.7793 35.3574 43.9199C35.2754 44.0605 35.2344 44.209 35.2344 44.3652C35.2344 44.4824 35.2539 44.5879 35.293 44.6816C35.3359 44.7715 35.4102 44.8555 35.5156 44.9336C35.6211 45.0078 35.7695 45.0781 35.9609 45.1445C36.1523 45.2109 36.3965 45.2773 36.6934 45.3438C37.2129 45.4609 37.6406 45.6016 37.9766 45.7656C38.3125 45.9297 38.5625 46.1309 38.7266 46.3691C38.8906 46.6074 38.9727 46.8965 38.9727 47.2363C38.9727 47.5137 38.9141 47.7676 38.7969 47.998C38.6836 48.2285 38.5176 48.4277 38.2988 48.5957C38.084 48.7598 37.8262 48.8887 37.5254 48.9824C37.2285 49.0723 36.8945 49.1172 36.5234 49.1172C35.9648 49.1172 35.4922 49.0176 35.1055 48.8184C34.7188 48.6191 34.4258 48.3613 34.2266 48.0449C34.0273 47.7285 33.9277 47.3945 33.9277 47.043H35.0176C35.0332 47.3398 35.1191 47.5762 35.2754 47.752C35.4316 47.9238 35.623 48.0469 35.8496 48.1211C36.0762 48.1914 36.3008 48.2266 36.5234 48.2266C36.8203 48.2266 37.0684 48.1875 37.2676 48.1094C37.4707 48.0312 37.625 47.9238 37.7305 47.7871C37.8359 47.6504 37.8887 47.4941 37.8887 47.3184Z" fill="#121212"/>
<path id="Valor e Prazo" d="M269.744 47.7051L272.258 40.4688H273.482L270.324 49H269.451L269.744 47.7051ZM267.395 40.4688L269.885 47.7051L270.195 49H269.322L266.17 40.4688H267.395ZM277.736 47.916V44.6523C277.736 44.4023 277.685 44.1855 277.583 44.002C277.486 43.8145 277.337 43.6699 277.138 43.5684C276.939 43.4668 276.693 43.416 276.4 43.416C276.126 43.416 275.886 43.4629 275.679 43.5566C275.476 43.6504 275.316 43.7734 275.198 43.9258C275.085 44.0781 275.029 44.2422 275.029 44.418H273.945C273.945 44.1914 274.003 43.9668 274.12 43.7441C274.238 43.5215 274.405 43.3203 274.624 43.1406C274.847 42.957 275.113 42.8125 275.421 42.707C275.734 42.5977 276.081 42.543 276.464 42.543C276.925 42.543 277.331 42.6211 277.683 42.7773C278.038 42.9336 278.316 43.1699 278.515 43.4863C278.718 43.7988 278.82 44.1914 278.82 44.6641V47.6172C278.82 47.8281 278.837 48.0527 278.872 48.291C278.911 48.5293 278.968 48.7344 279.042 48.9062V49H277.911C277.857 48.875 277.814 48.709 277.782 48.502C277.751 48.291 277.736 48.0957 277.736 47.916ZM277.923 45.1562L277.935 45.918H276.839C276.53 45.918 276.255 45.9434 276.013 45.9941C275.771 46.041 275.568 46.1133 275.404 46.2109C275.239 46.3086 275.114 46.4316 275.029 46.5801C274.943 46.7246 274.9 46.8945 274.9 47.0898C274.9 47.2891 274.945 47.4707 275.034 47.6348C275.124 47.7988 275.259 47.9297 275.439 48.0273C275.622 48.1211 275.847 48.168 276.113 48.168C276.445 48.168 276.738 48.0977 276.991 47.957C277.245 47.8164 277.446 47.6445 277.595 47.4414C277.747 47.2383 277.829 47.041 277.841 46.8496L278.304 47.3711C278.277 47.5352 278.202 47.7168 278.081 47.916C277.96 48.1152 277.798 48.3066 277.595 48.4902C277.396 48.6699 277.157 48.8203 276.88 48.9414C276.607 49.0586 276.298 49.1172 275.954 49.1172C275.525 49.1172 275.148 49.0332 274.823 48.8652C274.503 48.6973 274.253 48.4727 274.073 48.1914C273.898 47.9062 273.81 47.5879 273.81 47.2363C273.81 46.8965 273.876 46.5977 274.009 46.3398C274.142 46.0781 274.333 45.8613 274.583 45.6895C274.833 45.5137 275.134 45.3809 275.486 45.291C275.837 45.2012 276.23 45.1562 276.663 45.1562H277.923ZM281.502 40V49H280.413V40H281.502ZM282.755 45.9004V45.7656C282.755 45.3086 282.822 44.8848 282.955 44.4941C283.087 44.0996 283.279 43.7578 283.529 43.4688C283.779 43.1758 284.082 42.9492 284.437 42.7891C284.793 42.625 285.191 42.543 285.632 42.543C286.078 42.543 286.478 42.625 286.834 42.7891C287.193 42.9492 287.498 43.1758 287.748 43.4688C288.002 43.7578 288.195 44.0996 288.328 44.4941C288.461 44.8848 288.527 45.3086 288.527 45.7656V45.9004C288.527 46.3574 288.461 46.7812 288.328 47.1719C288.195 47.5625 288.002 47.9043 287.748 48.1973C287.498 48.4863 287.195 48.7129 286.839 48.877C286.488 49.0371 286.089 49.1172 285.644 49.1172C285.199 49.1172 284.798 49.0371 284.443 48.877C284.087 48.7129 283.783 48.4863 283.529 48.1973C283.279 47.9043 283.087 47.5625 282.955 47.1719C282.822 46.7812 282.755 46.3574 282.755 45.9004ZM283.839 45.7656V45.9004C283.839 46.2168 283.877 46.5156 283.951 46.7969C284.025 47.0742 284.136 47.3203 284.285 47.5352C284.437 47.75 284.627 47.9199 284.853 48.0449C285.08 48.166 285.343 48.2266 285.644 48.2266C285.941 48.2266 286.201 48.166 286.423 48.0449C286.65 47.9199 286.837 47.75 286.986 47.5352C287.134 47.3203 287.246 47.0742 287.32 46.7969C287.398 46.5156 287.437 46.2168 287.437 45.9004V45.7656C287.437 45.4531 287.398 45.1582 287.32 44.8809C287.246 44.5996 287.132 44.3516 286.98 44.1367C286.832 43.918 286.644 43.7461 286.418 43.6211C286.195 43.4961 285.933 43.4336 285.632 43.4336C285.336 43.4336 285.074 43.4961 284.847 43.6211C284.625 43.7461 284.437 43.918 284.285 44.1367C284.136 44.3516 284.025 44.5996 283.951 44.8809C283.877 45.1582 283.839 45.4531 283.839 45.7656ZM290.77 43.6562V49H289.686V42.6602H290.741L290.77 43.6562ZM292.751 42.625L292.745 43.6328C292.655 43.6133 292.569 43.6016 292.487 43.5977C292.409 43.5898 292.319 43.5859 292.218 43.5859C291.968 43.5859 291.747 43.625 291.555 43.7031C291.364 43.7812 291.202 43.8906 291.069 44.0312C290.936 44.1719 290.831 44.3398 290.753 44.5352C290.679 44.7266 290.63 44.9375 290.606 45.168L290.302 45.3438C290.302 44.9609 290.339 44.6016 290.413 44.2656C290.491 43.9297 290.61 43.6328 290.77 43.375C290.93 43.1133 291.134 42.9102 291.38 42.7656C291.63 42.6172 291.927 42.543 292.27 42.543C292.348 42.543 292.438 42.5527 292.54 42.5723C292.641 42.5879 292.712 42.6055 292.751 42.625ZM298.96 49.1172C298.519 49.1172 298.118 49.043 297.759 48.8945C297.404 48.7422 297.097 48.5293 296.839 48.2559C296.585 47.9824 296.39 47.6582 296.253 47.2832C296.116 46.9082 296.048 46.498 296.048 46.0527V45.8066C296.048 45.291 296.124 44.832 296.277 44.4297C296.429 44.0234 296.636 43.6797 296.898 43.3984C297.159 43.1172 297.456 42.9043 297.788 42.7598C298.12 42.6152 298.464 42.543 298.82 42.543C299.273 42.543 299.663 42.6211 299.991 42.7773C300.323 42.9336 300.595 43.1523 300.806 43.4336C301.017 43.7109 301.173 44.0391 301.275 44.418C301.376 44.793 301.427 45.2031 301.427 45.6484V46.1348H296.693V45.25H300.343V45.168C300.327 44.8867 300.269 44.6133 300.167 44.3477C300.07 44.082 299.913 43.8633 299.698 43.6914C299.484 43.5195 299.191 43.4336 298.82 43.4336C298.573 43.4336 298.347 43.4863 298.14 43.5918C297.933 43.6934 297.755 43.8457 297.607 44.0488C297.458 44.252 297.343 44.5 297.261 44.793C297.179 45.0859 297.138 45.4238 297.138 45.8066V46.0527C297.138 46.3535 297.179 46.6367 297.261 46.9023C297.347 47.1641 297.47 47.3945 297.63 47.5938C297.794 47.793 297.991 47.9492 298.222 48.0625C298.456 48.1758 298.722 48.2324 299.019 48.2324C299.402 48.2324 299.726 48.1543 299.991 47.998C300.257 47.8418 300.489 47.6328 300.689 47.3711L301.345 47.8926C301.208 48.0996 301.034 48.2969 300.823 48.4844C300.612 48.6719 300.353 48.8242 300.044 48.9414C299.739 49.0586 299.378 49.1172 298.96 49.1172ZM308.58 45.6543H306.3V44.7344H308.58C309.021 44.7344 309.379 44.6641 309.652 44.5234C309.925 44.3828 310.125 44.1875 310.25 43.9375C310.379 43.6875 310.443 43.4023 310.443 43.082C310.443 42.7891 310.379 42.5137 310.25 42.2559C310.125 41.998 309.925 41.791 309.652 41.6348C309.379 41.4746 309.021 41.3945 308.58 41.3945H306.564V49H305.433V40.4688H308.58C309.224 40.4688 309.769 40.5801 310.214 40.8027C310.66 41.0254 310.998 41.334 311.228 41.7285C311.459 42.1191 311.574 42.5664 311.574 43.0703C311.574 43.6172 311.459 44.084 311.228 44.4707C310.998 44.8574 310.66 45.1523 310.214 45.3555C309.769 45.5547 309.224 45.6543 308.58 45.6543ZM313.723 43.6562V49H312.639V42.6602H313.694L313.723 43.6562ZM315.704 42.625L315.698 43.6328C315.608 43.6133 315.522 43.6016 315.44 43.5977C315.362 43.5898 315.272 43.5859 315.171 43.5859C314.921 43.5859 314.7 43.625 314.509 43.7031C314.317 43.7812 314.155 43.8906 314.022 44.0312C313.889 44.1719 313.784 44.3398 313.706 44.5352C313.632 44.7266 313.583 44.9375 313.559 45.168L313.255 45.3438C313.255 44.9609 313.292 44.6016 313.366 44.2656C313.444 43.9297 313.563 43.6328 313.723 43.375C313.884 43.1133 314.087 42.9102 314.333 42.7656C314.583 42.6172 314.88 42.543 315.223 42.543C315.302 42.543 315.391 42.5527 315.493 42.5723C315.595 42.5879 315.665 42.6055 315.704 42.625ZM320.01 47.916V44.6523C320.01 44.4023 319.959 44.1855 319.857 44.002C319.76 43.8145 319.611 43.6699 319.412 43.5684C319.213 43.4668 318.967 43.416 318.674 43.416C318.4 43.416 318.16 43.4629 317.953 43.5566C317.75 43.6504 317.59 43.7734 317.473 43.9258C317.359 44.0781 317.303 44.2422 317.303 44.418H316.219C316.219 44.1914 316.277 43.9668 316.395 43.7441C316.512 43.5215 316.68 43.3203 316.898 43.1406C317.121 42.957 317.387 42.8125 317.695 42.707C318.008 42.5977 318.355 42.543 318.738 42.543C319.199 42.543 319.605 42.6211 319.957 42.7773C320.312 42.9336 320.59 43.1699 320.789 43.4863C320.992 43.7988 321.094 44.1914 321.094 44.6641V47.6172C321.094 47.8281 321.111 48.0527 321.146 48.291C321.186 48.5293 321.242 48.7344 321.316 48.9062V49H320.186C320.131 48.875 320.088 48.709 320.057 48.502C320.025 48.291 320.01 48.0957 320.01 47.916ZM320.197 45.1562L320.209 45.918H319.113C318.805 45.918 318.529 45.9434 318.287 45.9941C318.045 46.041 317.842 46.1133 317.678 46.2109C317.514 46.3086 317.389 46.4316 317.303 46.5801C317.217 46.7246 317.174 46.8945 317.174 47.0898C317.174 47.2891 317.219 47.4707 317.309 47.6348C317.398 47.7988 317.533 47.9297 317.713 48.0273C317.896 48.1211 318.121 48.168 318.387 48.168C318.719 48.168 319.012 48.0977 319.266 47.957C319.52 47.8164 319.721 47.6445 319.869 47.4414C320.021 47.2383 320.104 47.041 320.115 46.8496L320.578 47.3711C320.551 47.5352 320.477 47.7168 320.355 47.916C320.234 48.1152 320.072 48.3066 319.869 48.4902C319.67 48.6699 319.432 48.8203 319.154 48.9414C318.881 49.0586 318.572 49.1172 318.229 49.1172C317.799 49.1172 317.422 49.0332 317.098 48.8652C316.777 48.6973 316.527 48.4727 316.348 48.1914C316.172 47.9062 316.084 47.5879 316.084 47.2363C316.084 46.8965 316.15 46.5977 316.283 46.3398C316.416 46.0781 316.607 45.8613 316.857 45.6895C317.107 45.5137 317.408 45.3809 317.76 45.291C318.111 45.2012 318.504 45.1562 318.938 45.1562H320.197ZM327.321 48.1094V49H322.71V48.1094H327.321ZM327.152 43.4277L322.956 49H322.294V48.2031L326.46 42.6602H327.152V43.4277ZM326.671 42.6602V43.5566H322.341V42.6602H326.671ZM327.971 45.9004V45.7656C327.971 45.3086 328.037 44.8848 328.17 44.4941C328.303 44.0996 328.495 43.7578 328.745 43.4688C328.995 43.1758 329.297 42.9492 329.653 42.7891C330.008 42.625 330.407 42.543 330.848 42.543C331.293 42.543 331.694 42.625 332.049 42.7891C332.409 42.9492 332.713 43.1758 332.963 43.4688C333.217 43.7578 333.411 44.0996 333.543 44.4941C333.676 44.8848 333.743 45.3086 333.743 45.7656V45.9004C333.743 46.3574 333.676 46.7812 333.543 47.1719C333.411 47.5625 333.217 47.9043 332.963 48.1973C332.713 48.4863 332.411 48.7129 332.055 48.877C331.704 49.0371 331.305 49.1172 330.86 49.1172C330.414 49.1172 330.014 49.0371 329.659 48.877C329.303 48.7129 328.998 48.4863 328.745 48.1973C328.495 47.9043 328.303 47.5625 328.17 47.1719C328.037 46.7812 327.971 46.3574 327.971 45.9004ZM329.055 45.7656V45.9004C329.055 46.2168 329.092 46.5156 329.166 46.7969C329.241 47.0742 329.352 47.3203 329.5 47.5352C329.653 47.75 329.842 47.9199 330.069 48.0449C330.295 48.166 330.559 48.2266 330.86 48.2266C331.157 48.2266 331.416 48.166 331.639 48.0449C331.866 47.9199 332.053 47.75 332.202 47.5352C332.35 47.3203 332.461 47.0742 332.536 46.7969C332.614 46.5156 332.653 46.2168 332.653 45.9004V45.7656C332.653 45.4531 332.614 45.1582 332.536 44.8809C332.461 44.5996 332.348 44.3516 332.196 44.1367C332.047 43.918 331.86 43.7461 331.633 43.6211C331.411 43.4961 331.149 43.4336 330.848 43.4336C330.551 43.4336 330.289 43.4961 330.063 43.6211C329.84 43.7461 329.653 43.918 329.5 44.1367C329.352 44.3516 329.241 44.5996 329.166 44.8809C329.092 45.1582 329.055 45.4531 329.055 45.7656Z" fill="#121212"/>
<path id="Expectativas" opacity="0.5" d="M553.41 48.0801V49H548.893V48.0801H553.41ZM549.121 40.4688V49H547.99V40.4688H549.121ZM552.812 44.1367V45.0566H548.893V44.1367H552.812ZM553.352 40.4688V41.3945H548.893V40.4688H553.352ZM555.179 42.6602L556.568 44.9688L557.974 42.6602H559.245L557.171 45.7891L559.31 49H558.056L556.591 46.6211L555.126 49H553.866L555.999 45.7891L553.931 42.6602H555.179ZM561.284 43.8789V51.4375H560.194V42.6602H561.19L561.284 43.8789ZM565.555 45.7773V45.9004C565.555 46.3613 565.5 46.7891 565.391 47.1836C565.282 47.5742 565.121 47.9141 564.911 48.2031C564.704 48.4922 564.448 48.7168 564.143 48.877C563.838 49.0371 563.489 49.1172 563.094 49.1172C562.692 49.1172 562.336 49.0508 562.028 48.918C561.719 48.7852 561.457 48.5918 561.243 48.3379C561.028 48.084 560.856 47.7793 560.727 47.4238C560.602 47.0684 560.516 46.668 560.469 46.2227V45.5664C560.516 45.0977 560.604 44.6777 560.733 44.3066C560.862 43.9355 561.032 43.6191 561.243 43.3574C561.457 43.0918 561.717 42.8906 562.022 42.7539C562.327 42.6133 562.678 42.543 563.077 42.543C563.475 42.543 563.829 42.6211 564.137 42.7773C564.446 42.9297 564.705 43.1484 564.916 43.4336C565.127 43.7188 565.286 44.0605 565.391 44.459C565.5 44.8535 565.555 45.293 565.555 45.7773ZM564.465 45.9004V45.7773C564.465 45.4609 564.432 45.1641 564.366 44.8867C564.299 44.6055 564.196 44.3594 564.055 44.1484C563.918 43.9336 563.743 43.7656 563.528 43.6445C563.313 43.5195 563.057 43.457 562.76 43.457C562.487 43.457 562.248 43.5039 562.045 43.5977C561.846 43.6914 561.676 43.8184 561.536 43.9785C561.395 44.1348 561.28 44.3145 561.19 44.5176C561.104 44.7168 561.039 44.9238 560.996 45.1387V46.6562C561.075 46.9297 561.184 47.1875 561.325 47.4297C561.465 47.668 561.653 47.8613 561.887 48.0098C562.121 48.1543 562.416 48.2266 562.772 48.2266C563.065 48.2266 563.317 48.166 563.528 48.0449C563.743 47.9199 563.918 47.75 564.055 47.5352C564.196 47.3203 564.299 47.0742 564.366 46.7969C564.432 46.5156 564.465 46.2168 564.465 45.9004ZM569.369 49.1172C568.927 49.1172 568.527 49.043 568.168 48.8945C567.812 48.7422 567.505 48.5293 567.248 48.2559C566.994 47.9824 566.798 47.6582 566.662 47.2832C566.525 46.9082 566.457 46.498 566.457 46.0527V45.8066C566.457 45.291 566.533 44.832 566.685 44.4297C566.837 44.0234 567.045 43.6797 567.306 43.3984C567.568 43.1172 567.865 42.9043 568.197 42.7598C568.529 42.6152 568.873 42.543 569.228 42.543C569.681 42.543 570.072 42.6211 570.4 42.7773C570.732 42.9336 571.004 43.1523 571.214 43.4336C571.425 43.7109 571.582 44.0391 571.683 44.418C571.785 44.793 571.836 45.2031 571.836 45.6484V46.1348H567.101V45.25H570.752V45.168C570.736 44.8867 570.677 44.6133 570.576 44.3477C570.478 44.082 570.322 43.8633 570.107 43.6914C569.892 43.5195 569.599 43.4336 569.228 43.4336C568.982 43.4336 568.755 43.4863 568.548 43.5918C568.341 43.6934 568.164 43.8457 568.015 44.0488C567.867 44.252 567.752 44.5 567.67 44.793C567.587 45.0859 567.546 45.4238 567.546 45.8066V46.0527C567.546 46.3535 567.587 46.6367 567.67 46.9023C567.755 47.1641 567.879 47.3945 568.039 47.5938C568.203 47.793 568.4 47.9492 568.63 48.0625C568.865 48.1758 569.13 48.2324 569.427 48.2324C569.81 48.2324 570.134 48.1543 570.4 47.998C570.666 47.8418 570.898 47.6328 571.097 47.3711L571.754 47.8926C571.617 48.0996 571.443 48.2969 571.232 48.4844C571.021 48.6719 570.761 48.8242 570.453 48.9414C570.148 49.0586 569.787 49.1172 569.369 49.1172ZM575.438 48.2266C575.696 48.2266 575.934 48.1738 576.153 48.0684C576.372 47.9629 576.552 47.8184 576.692 47.6348C576.833 47.4473 576.913 47.2344 576.932 46.9961H577.964C577.944 47.3711 577.817 47.7207 577.583 48.0449C577.352 48.3652 577.05 48.625 576.675 48.8242C576.3 49.0195 575.888 49.1172 575.438 49.1172C574.962 49.1172 574.546 49.0332 574.19 48.8652C573.839 48.6973 573.546 48.4668 573.311 48.1738C573.081 47.8809 572.907 47.5449 572.79 47.166C572.677 46.7832 572.62 46.3789 572.62 45.9531V45.707C572.62 45.2812 572.677 44.8789 572.79 44.5C572.907 44.1172 573.081 43.7793 573.311 43.4863C573.546 43.1934 573.839 42.9629 574.19 42.7949C574.546 42.627 574.962 42.543 575.438 42.543C575.934 42.543 576.368 42.6445 576.739 42.8477C577.11 43.0469 577.401 43.3203 577.612 43.668C577.827 44.0117 577.944 44.4023 577.964 44.8398H576.932C576.913 44.5781 576.839 44.3418 576.71 44.1309C576.585 43.9199 576.413 43.752 576.194 43.627C575.979 43.498 575.727 43.4336 575.438 43.4336C575.106 43.4336 574.827 43.5 574.6 43.6328C574.378 43.7617 574.2 43.9375 574.067 44.1602C573.938 44.3789 573.845 44.623 573.786 44.8926C573.731 45.1582 573.704 45.4297 573.704 45.707V45.9531C573.704 46.2305 573.731 46.5039 573.786 46.7734C573.841 47.043 573.932 47.2871 574.061 47.5059C574.194 47.7246 574.372 47.9004 574.595 48.0332C574.821 48.1621 575.102 48.2266 575.438 48.2266ZM581.637 42.6602V43.4922H578.209V42.6602H581.637ZM579.369 41.1191H580.453V47.4297C580.453 47.6445 580.486 47.8066 580.553 47.916C580.619 48.0254 580.705 48.0977 580.811 48.1328C580.916 48.168 581.029 48.1855 581.15 48.1855C581.24 48.1855 581.334 48.1777 581.432 48.1621C581.533 48.1426 581.609 48.127 581.66 48.1152L581.666 49C581.58 49.0273 581.467 49.0527 581.326 49.0762C581.189 49.1035 581.023 49.1172 580.828 49.1172C580.562 49.1172 580.318 49.0645 580.096 48.959C579.873 48.8535 579.695 48.6777 579.562 48.4316C579.434 48.1816 579.369 47.8457 579.369 47.4238V41.1191ZM586.446 47.916V44.6523C586.446 44.4023 586.396 44.1855 586.294 44.002C586.196 43.8145 586.048 43.6699 585.849 43.5684C585.65 43.4668 585.404 43.416 585.111 43.416C584.837 43.416 584.597 43.4629 584.39 43.5566C584.187 43.6504 584.027 43.7734 583.909 43.9258C583.796 44.0781 583.739 44.2422 583.739 44.418H582.655C582.655 44.1914 582.714 43.9668 582.831 43.7441C582.948 43.5215 583.116 43.3203 583.335 43.1406C583.558 42.957 583.823 42.8125 584.132 42.707C584.445 42.5977 584.792 42.543 585.175 42.543C585.636 42.543 586.042 42.6211 586.394 42.7773C586.749 42.9336 587.027 43.1699 587.226 43.4863C587.429 43.7988 587.53 44.1914 587.53 44.6641V47.6172C587.53 47.8281 587.548 48.0527 587.583 48.291C587.622 48.5293 587.679 48.7344 587.753 48.9062V49H586.622C586.568 48.875 586.525 48.709 586.493 48.502C586.462 48.291 586.446 48.0957 586.446 47.916ZM586.634 45.1562L586.646 45.918H585.55C585.241 45.918 584.966 45.9434 584.724 45.9941C584.482 46.041 584.279 46.1133 584.114 46.2109C583.95 46.3086 583.825 46.4316 583.739 46.5801C583.654 46.7246 583.611 46.8945 583.611 47.0898C583.611 47.2891 583.655 47.4707 583.745 47.6348C583.835 47.7988 583.97 47.9297 584.15 48.0273C584.333 48.1211 584.558 48.168 584.823 48.168C585.155 48.168 585.448 48.0977 585.702 47.957C585.956 47.8164 586.157 47.6445 586.306 47.4414C586.458 47.2383 586.54 47.041 586.552 46.8496L587.015 47.3711C586.987 47.5352 586.913 47.7168 586.792 47.916C586.671 48.1152 586.509 48.3066 586.306 48.4902C586.107 48.6699 585.868 48.8203 585.591 48.9414C585.318 49.0586 585.009 49.1172 584.665 49.1172C584.236 49.1172 583.859 49.0332 583.534 48.8652C583.214 48.6973 582.964 48.4727 582.784 48.1914C582.609 47.9062 582.521 47.5879 582.521 47.2363C582.521 46.8965 582.587 46.5977 582.72 46.3398C582.853 46.0781 583.044 45.8613 583.294 45.6895C583.544 45.5137 583.845 45.3809 584.196 45.291C584.548 45.2012 584.941 45.1562 585.374 45.1562H586.634ZM591.69 42.6602V43.4922H588.262V42.6602H591.69ZM589.422 41.1191H590.506V47.4297C590.506 47.6445 590.539 47.8066 590.606 47.916C590.672 48.0254 590.758 48.0977 590.864 48.1328C590.969 48.168 591.082 48.1855 591.204 48.1855C591.293 48.1855 591.387 48.1777 591.485 48.1621C591.586 48.1426 591.662 48.127 591.713 48.1152L591.719 49C591.633 49.0273 591.52 49.0527 591.379 49.0762C591.243 49.1035 591.077 49.1172 590.881 49.1172C590.616 49.1172 590.371 49.0645 590.149 48.959C589.926 48.8535 589.748 48.6777 589.616 48.4316C589.487 48.1816 589.422 47.8457 589.422 47.4238V41.1191ZM593.939 42.6602V49H592.849V42.6602H593.939ZM592.767 40.9785C592.767 40.8027 592.82 40.6543 592.925 40.5332C593.035 40.4121 593.195 40.3516 593.406 40.3516C593.613 40.3516 593.771 40.4121 593.88 40.5332C593.994 40.6543 594.05 40.8027 594.05 40.9785C594.05 41.1465 593.994 41.291 593.88 41.4121C593.771 41.5293 593.613 41.5879 593.406 41.5879C593.195 41.5879 593.035 41.5293 592.925 41.4121C592.82 41.291 592.767 41.1465 592.767 40.9785ZM597.407 48.0215L599.141 42.6602H600.249L597.97 49H597.243L597.407 48.0215ZM595.96 42.6602L597.747 48.0508L597.87 49H597.143L594.846 42.6602H595.96ZM604.736 47.916V44.6523C604.736 44.4023 604.686 44.1855 604.584 44.002C604.486 43.8145 604.338 43.6699 604.139 43.5684C603.939 43.4668 603.693 43.416 603.4 43.416C603.127 43.416 602.887 43.4629 602.68 43.5566C602.477 43.6504 602.316 43.7734 602.199 43.9258C602.086 44.0781 602.029 44.2422 602.029 44.418H600.945C600.945 44.1914 601.004 43.9668 601.121 43.7441C601.238 43.5215 601.406 43.3203 601.625 43.1406C601.848 42.957 602.113 42.8125 602.422 42.707C602.734 42.5977 603.082 42.543 603.465 42.543C603.926 42.543 604.332 42.6211 604.684 42.7773C605.039 42.9336 605.316 43.1699 605.516 43.4863C605.719 43.7988 605.82 44.1914 605.82 44.6641V47.6172C605.82 47.8281 605.838 48.0527 605.873 48.291C605.912 48.5293 605.969 48.7344 606.043 48.9062V49H604.912C604.857 48.875 604.814 48.709 604.783 48.502C604.752 48.291 604.736 48.0957 604.736 47.916ZM604.924 45.1562L604.936 45.918H603.84C603.531 45.918 603.256 45.9434 603.014 45.9941C602.771 46.041 602.568 46.1133 602.404 46.2109C602.24 46.3086 602.115 46.4316 602.029 46.5801C601.943 46.7246 601.9 46.8945 601.9 47.0898C601.9 47.2891 601.945 47.4707 602.035 47.6348C602.125 47.7988 602.26 47.9297 602.439 48.0273C602.623 48.1211 602.848 48.168 603.113 48.168C603.445 48.168 603.738 48.0977 603.992 47.957C604.246 47.8164 604.447 47.6445 604.596 47.4414C604.748 47.2383 604.83 47.041 604.842 46.8496L605.305 47.3711C605.277 47.5352 605.203 47.7168 605.082 47.916C604.961 48.1152 604.799 48.3066 604.596 48.4902C604.396 48.6699 604.158 48.8203 603.881 48.9414C603.607 49.0586 603.299 49.1172 602.955 49.1172C602.525 49.1172 602.148 49.0332 601.824 48.8652C601.504 48.6973 601.254 48.4727 601.074 48.1914C600.898 47.9062 600.811 47.5879 600.811 47.2363C600.811 46.8965 600.877 46.5977 601.01 46.3398C601.143 46.0781 601.334 45.8613 601.584 45.6895C601.834 45.5137 602.135 45.3809 602.486 45.291C602.838 45.2012 603.23 45.1562 603.664 45.1562H604.924ZM611.017 47.3184C611.017 47.1621 610.982 47.0176 610.911 46.8848C610.845 46.748 610.706 46.625 610.495 46.5156C610.288 46.4023 609.976 46.3047 609.558 46.2227C609.206 46.1484 608.888 46.0605 608.603 45.959C608.321 45.8574 608.081 45.7344 607.882 45.5898C607.687 45.4453 607.536 45.2754 607.431 45.0801C607.325 44.8848 607.273 44.6562 607.273 44.3945C607.273 44.1445 607.327 43.9082 607.437 43.6855C607.55 43.4629 607.708 43.2656 607.911 43.0938C608.118 42.9219 608.366 42.7871 608.655 42.6895C608.945 42.5918 609.267 42.543 609.622 42.543C610.13 42.543 610.564 42.6328 610.923 42.8125C611.282 42.9922 611.558 43.2324 611.749 43.5332C611.941 43.8301 612.036 44.1602 612.036 44.5234H610.952C610.952 44.3477 610.9 44.1777 610.794 44.0137C610.693 43.8457 610.542 43.707 610.343 43.5977C610.148 43.4883 609.907 43.4336 609.622 43.4336C609.321 43.4336 609.077 43.4805 608.89 43.5742C608.706 43.6641 608.571 43.7793 608.486 43.9199C608.404 44.0605 608.362 44.209 608.362 44.3652C608.362 44.4824 608.382 44.5879 608.421 44.6816C608.464 44.7715 608.538 44.8555 608.644 44.9336C608.749 45.0078 608.898 45.0781 609.089 45.1445C609.28 45.2109 609.525 45.2773 609.821 45.3438C610.341 45.4609 610.769 45.6016 611.105 45.7656C611.441 45.9297 611.691 46.1309 611.855 46.3691C612.019 46.6074 612.101 46.8965 612.101 47.2363C612.101 47.5137 612.042 47.7676 611.925 47.998C611.812 48.2285 611.646 48.4277 611.427 48.5957C611.212 48.7598 610.954 48.8887 610.654 48.9824C610.357 49.0723 610.023 49.1172 609.652 49.1172C609.093 49.1172 608.62 49.0176 608.234 48.8184C607.847 48.6191 607.554 48.3613 607.355 48.0449C607.155 47.7285 607.056 47.3945 607.056 47.043H608.146C608.161 47.3398 608.247 47.5762 608.404 47.752C608.56 47.9238 608.751 48.0469 608.978 48.1211C609.204 48.1914 609.429 48.2266 609.652 48.2266C609.948 48.2266 610.196 48.1875 610.396 48.1094C610.599 48.0312 610.753 47.9238 610.859 47.7871C610.964 47.6504 611.017 47.4941 611.017 47.3184Z" fill="#121212"/>
<path id="Dados" opacity="0.5" d="M846.299 49H844.518L844.529 48.0801H846.299C846.908 48.0801 847.416 47.9531 847.822 47.6992C848.229 47.4414 848.533 47.082 848.736 46.6211C848.943 46.1562 849.047 45.6133 849.047 44.9922V44.4707C849.047 43.9824 848.988 43.5488 848.871 43.1699C848.754 42.7871 848.582 42.4648 848.355 42.2031C848.129 41.9375 847.852 41.7363 847.523 41.5996C847.199 41.4629 846.826 41.3945 846.404 41.3945H844.482V40.4688H846.404C846.963 40.4688 847.473 40.5625 847.934 40.75C848.395 40.9336 848.791 41.2012 849.123 41.5527C849.459 41.9004 849.717 42.3223 849.896 42.8184C850.076 43.3105 850.166 43.8652 850.166 44.4824V44.9922C850.166 45.6094 850.076 46.166 849.896 46.6621C849.717 47.1543 849.457 47.5742 849.117 47.9219C848.781 48.2695 848.375 48.5371 847.898 48.7246C847.426 48.9082 846.893 49 846.299 49ZM845.121 40.4688V49H843.99V40.4688H845.121ZM855.239 47.916V44.6523C855.239 44.4023 855.189 44.1855 855.087 44.002C854.989 43.8145 854.841 43.6699 854.642 43.5684C854.443 43.4668 854.196 43.416 853.904 43.416C853.63 43.416 853.39 43.4629 853.183 43.5566C852.98 43.6504 852.82 43.7734 852.702 43.9258C852.589 44.0781 852.532 44.2422 852.532 44.418H851.448C851.448 44.1914 851.507 43.9668 851.624 43.7441C851.741 43.5215 851.909 43.3203 852.128 43.1406C852.351 42.957 852.616 42.8125 852.925 42.707C853.238 42.5977 853.585 42.543 853.968 42.543C854.429 42.543 854.835 42.6211 855.187 42.7773C855.542 42.9336 855.82 43.1699 856.019 43.4863C856.222 43.7988 856.323 44.1914 856.323 44.6641V47.6172C856.323 47.8281 856.341 48.0527 856.376 48.291C856.415 48.5293 856.472 48.7344 856.546 48.9062V49H855.415C855.361 48.875 855.318 48.709 855.286 48.502C855.255 48.291 855.239 48.0957 855.239 47.916ZM855.427 45.1562L855.439 45.918H854.343C854.034 45.918 853.759 45.9434 853.517 45.9941C853.275 46.041 853.071 46.1133 852.907 46.2109C852.743 46.3086 852.618 46.4316 852.532 46.5801C852.446 46.7246 852.404 46.8945 852.404 47.0898C852.404 47.2891 852.448 47.4707 852.538 47.6348C852.628 47.7988 852.763 47.9297 852.943 48.0273C853.126 48.1211 853.351 48.168 853.616 48.168C853.948 48.168 854.241 48.0977 854.495 47.957C854.749 47.8164 854.95 47.6445 855.099 47.4414C855.251 47.2383 855.333 47.041 855.345 46.8496L855.808 47.3711C855.78 47.5352 855.706 47.7168 855.585 47.916C855.464 48.1152 855.302 48.3066 855.099 48.4902C854.9 48.6699 854.661 48.8203 854.384 48.9414C854.111 49.0586 853.802 49.1172 853.458 49.1172C853.029 49.1172 852.652 49.0332 852.327 48.8652C852.007 48.6973 851.757 48.4727 851.577 48.1914C851.402 47.9062 851.314 47.5879 851.314 47.2363C851.314 46.8965 851.38 46.5977 851.513 46.3398C851.646 46.0781 851.837 45.8613 852.087 45.6895C852.337 45.5137 852.638 45.3809 852.989 45.291C853.341 45.2012 853.734 45.1562 854.167 45.1562H855.427ZM861.825 47.7695V40H862.914V49H861.918L861.825 47.7695ZM857.559 45.9004V45.7773C857.559 45.293 857.618 44.8535 857.735 44.459C857.856 44.0605 858.026 43.7188 858.245 43.4336C858.467 43.1484 858.731 42.9297 859.036 42.7773C859.344 42.6211 859.688 42.543 860.067 42.543C860.465 42.543 860.813 42.6133 861.11 42.7539C861.411 42.8906 861.664 43.0918 861.871 43.3574C862.082 43.6191 862.248 43.9355 862.37 44.3066C862.491 44.6777 862.575 45.0977 862.621 45.5664V46.1055C862.579 46.5703 862.495 46.9883 862.37 47.3594C862.248 47.7305 862.082 48.0469 861.871 48.3086C861.664 48.5703 861.411 48.7715 861.11 48.9121C860.809 49.0488 860.457 49.1172 860.055 49.1172C859.684 49.1172 859.344 49.0371 859.036 48.877C858.731 48.7168 858.467 48.4922 858.245 48.2031C858.026 47.9141 857.856 47.5742 857.735 47.1836C857.618 46.7891 857.559 46.3613 857.559 45.9004ZM858.649 45.7773V45.9004C858.649 46.2168 858.68 46.5137 858.743 46.791C858.809 47.0684 858.911 47.3125 859.047 47.5234C859.184 47.7344 859.358 47.9004 859.569 48.0215C859.78 48.1387 860.032 48.1973 860.325 48.1973C860.684 48.1973 860.979 48.1211 861.209 47.9688C861.444 47.8164 861.631 47.6152 861.772 47.3652C861.913 47.1152 862.022 46.8438 862.1 46.5508V45.1387C862.053 44.9238 861.985 44.7168 861.895 44.5176C861.809 44.3145 861.696 44.1348 861.555 43.9785C861.418 43.8184 861.248 43.6914 861.045 43.5977C860.846 43.5039 860.61 43.457 860.336 43.457C860.039 43.457 859.784 43.5195 859.569 43.6445C859.358 43.7656 859.184 43.9336 859.047 44.1484C858.911 44.3594 858.809 44.6055 858.743 44.8867C858.68 45.1641 858.649 45.4609 858.649 45.7773ZM864.115 45.9004V45.7656C864.115 45.3086 864.181 44.8848 864.314 44.4941C864.447 44.0996 864.638 43.7578 864.888 43.4688C865.138 43.1758 865.441 42.9492 865.796 42.7891C866.152 42.625 866.55 42.543 866.992 42.543C867.437 42.543 867.837 42.625 868.193 42.7891C868.552 42.9492 868.857 43.1758 869.107 43.4688C869.361 43.7578 869.554 44.0996 869.687 44.4941C869.82 44.8848 869.886 45.3086 869.886 45.7656V45.9004C869.886 46.3574 869.82 46.7812 869.687 47.1719C869.554 47.5625 869.361 47.9043 869.107 48.1973C868.857 48.4863 868.554 48.7129 868.199 48.877C867.847 49.0371 867.449 49.1172 867.004 49.1172C866.558 49.1172 866.158 49.0371 865.802 48.877C865.447 48.7129 865.142 48.4863 864.888 48.1973C864.638 47.9043 864.447 47.5625 864.314 47.1719C864.181 46.7812 864.115 46.3574 864.115 45.9004ZM865.199 45.7656V45.9004C865.199 46.2168 865.236 46.5156 865.31 46.7969C865.384 47.0742 865.496 47.3203 865.644 47.5352C865.796 47.75 865.986 47.9199 866.212 48.0449C866.439 48.166 866.703 48.2266 867.004 48.2266C867.3 48.2266 867.56 48.166 867.783 48.0449C868.009 47.9199 868.197 47.75 868.345 47.5352C868.494 47.3203 868.605 47.0742 868.679 46.7969C868.757 46.5156 868.796 46.2168 868.796 45.9004V45.7656C868.796 45.4531 868.757 45.1582 868.679 44.8809C868.605 44.5996 868.492 44.3516 868.339 44.1367C868.191 43.918 868.004 43.7461 867.777 43.6211C867.554 43.4961 867.293 43.4336 866.992 43.4336C866.695 43.4336 866.433 43.4961 866.207 43.6211C865.984 43.7461 865.796 43.918 865.644 44.1367C865.496 44.3516 865.384 44.5996 865.31 44.8809C865.236 45.1582 865.199 45.4531 865.199 45.7656ZM874.737 47.3184C874.737 47.1621 874.702 47.0176 874.632 46.8848C874.565 46.748 874.427 46.625 874.216 46.5156C874.009 46.4023 873.696 46.3047 873.278 46.2227C872.927 46.1484 872.608 46.0605 872.323 45.959C872.042 45.8574 871.802 45.7344 871.602 45.5898C871.407 45.4453 871.257 45.2754 871.151 45.0801C871.046 44.8848 870.993 44.6562 870.993 44.3945C870.993 44.1445 871.048 43.9082 871.157 43.6855C871.27 43.4629 871.429 43.2656 871.632 43.0938C871.839 42.9219 872.087 42.7871 872.376 42.6895C872.665 42.5918 872.987 42.543 873.343 42.543C873.85 42.543 874.284 42.6328 874.643 42.8125C875.003 42.9922 875.278 43.2324 875.47 43.5332C875.661 43.8301 875.757 44.1602 875.757 44.5234H874.673C874.673 44.3477 874.62 44.1777 874.514 44.0137C874.413 43.8457 874.263 43.707 874.063 43.5977C873.868 43.4883 873.628 43.4336 873.343 43.4336C873.042 43.4336 872.798 43.4805 872.61 43.5742C872.427 43.6641 872.292 43.7793 872.206 43.9199C872.124 44.0605 872.083 44.209 872.083 44.3652C872.083 44.4824 872.102 44.5879 872.141 44.6816C872.184 44.7715 872.259 44.8555 872.364 44.9336C872.47 45.0078 872.618 45.0781 872.809 45.1445C873.001 45.2109 873.245 45.2773 873.542 45.3438C874.061 45.4609 874.489 45.6016 874.825 45.7656C875.161 45.9297 875.411 46.1309 875.575 46.3691C875.739 46.6074 875.821 46.8965 875.821 47.2363C875.821 47.5137 875.763 47.7676 875.645 47.998C875.532 48.2285 875.366 48.4277 875.147 48.5957C874.932 48.7598 874.675 48.8887 874.374 48.9824C874.077 49.0723 873.743 49.1172 873.372 49.1172C872.813 49.1172 872.341 49.0176 871.954 48.8184C871.567 48.6191 871.274 48.3613 871.075 48.0449C870.876 47.7285 870.776 47.3945 870.776 47.043H871.866C871.882 47.3398 871.968 47.5762 872.124 47.752C872.28 47.9238 872.471 48.0469 872.698 48.1211C872.925 48.1914 873.149 48.2266 873.372 48.2266C873.669 48.2266 873.917 48.1875 874.116 48.1094C874.319 48.0312 874.473 47.9238 874.579 47.7871C874.684 47.6504 874.737 47.4941 874.737 47.3184Z" fill="#121212"/>
<path id="Resultado" opacity="0.5" d="M1114.99 40.4688H1117.81C1118.46 40.4688 1119 40.5664 1119.44 40.7617C1119.88 40.957 1120.22 41.2461 1120.45 41.6289C1120.69 42.0078 1120.8 42.4746 1120.8 43.0293C1120.8 43.4199 1120.72 43.7773 1120.56 44.1016C1120.41 44.4219 1120.18 44.6953 1119.88 44.9219C1119.59 45.1445 1119.24 45.3105 1118.83 45.4199L1118.51 45.543H1115.86L1115.85 44.623H1117.85C1118.26 44.623 1118.59 44.5527 1118.86 44.4121C1119.13 44.2676 1119.34 44.0742 1119.47 43.832C1119.61 43.5898 1119.68 43.3223 1119.68 43.0293C1119.68 42.7012 1119.61 42.4141 1119.48 42.168C1119.36 41.9219 1119.15 41.7324 1118.88 41.5996C1118.6 41.4629 1118.25 41.3945 1117.81 41.3945H1116.12V49H1114.99V40.4688ZM1119.98 49L1117.9 45.1328L1119.08 45.127L1121.18 48.9297V49H1119.98ZM1124.65 49.1172C1124.21 49.1172 1123.81 49.043 1123.45 48.8945C1123.09 48.7422 1122.79 48.5293 1122.53 48.2559C1122.28 47.9824 1122.08 47.6582 1121.94 47.2832C1121.81 46.9082 1121.74 46.498 1121.74 46.0527V45.8066C1121.74 45.291 1121.82 44.832 1121.97 44.4297C1122.12 44.0234 1122.33 43.6797 1122.59 43.3984C1122.85 43.1172 1123.15 42.9043 1123.48 42.7598C1123.81 42.6152 1124.16 42.543 1124.51 42.543C1124.96 42.543 1125.35 42.6211 1125.68 42.7773C1126.01 42.9336 1126.29 43.1523 1126.5 43.4336C1126.71 43.7109 1126.86 44.0391 1126.97 44.418C1127.07 44.793 1127.12 45.2031 1127.12 45.6484V46.1348H1122.38V45.25H1126.03V45.168C1126.02 44.8867 1125.96 44.6133 1125.86 44.3477C1125.76 44.082 1125.6 43.8633 1125.39 43.6914C1125.18 43.5195 1124.88 43.4336 1124.51 43.4336C1124.26 43.4336 1124.04 43.4863 1123.83 43.5918C1123.62 43.6934 1123.45 43.8457 1123.3 44.0488C1123.15 44.252 1123.03 44.5 1122.95 44.793C1122.87 45.0859 1122.83 45.4238 1122.83 45.8066V46.0527C1122.83 46.3535 1122.87 46.6367 1122.95 46.9023C1123.04 47.1641 1123.16 47.3945 1123.32 47.5938C1123.49 47.793 1123.68 47.9492 1123.91 48.0625C1124.15 48.1758 1124.41 48.2324 1124.71 48.2324C1125.09 48.2324 1125.42 48.1543 1125.68 47.998C1125.95 47.8418 1126.18 47.6328 1126.38 47.3711L1127.04 47.8926C1126.9 48.0996 1126.73 48.2969 1126.51 48.4844C1126.3 48.6719 1126.04 48.8242 1125.74 48.9414C1125.43 49.0586 1125.07 49.1172 1124.65 49.1172ZM1131.88 47.3184C1131.88 47.1621 1131.84 47.0176 1131.77 46.8848C1131.7 46.748 1131.56 46.625 1131.35 46.5156C1131.15 46.4023 1130.83 46.3047 1130.42 46.2227C1130.06 46.1484 1129.75 46.0605 1129.46 45.959C1129.18 45.8574 1128.94 45.7344 1128.74 45.5898C1128.55 45.4453 1128.39 45.2754 1128.29 45.0801C1128.18 44.8848 1128.13 44.6562 1128.13 44.3945C1128.13 44.1445 1128.19 43.9082 1128.3 43.6855C1128.41 43.4629 1128.57 43.2656 1128.77 43.0938C1128.98 42.9219 1129.23 42.7871 1129.51 42.6895C1129.8 42.5918 1130.13 42.543 1130.48 42.543C1130.99 42.543 1131.42 42.6328 1131.78 42.8125C1132.14 42.9922 1132.42 43.2324 1132.61 43.5332C1132.8 43.8301 1132.89 44.1602 1132.89 44.5234H1131.81C1131.81 44.3477 1131.76 44.1777 1131.65 44.0137C1131.55 43.8457 1131.4 43.707 1131.2 43.5977C1131.01 43.4883 1130.77 43.4336 1130.48 43.4336C1130.18 43.4336 1129.94 43.4805 1129.75 43.5742C1129.56 43.6641 1129.43 43.7793 1129.34 43.9199C1129.26 44.0605 1129.22 44.209 1129.22 44.3652C1129.22 44.4824 1129.24 44.5879 1129.28 44.6816C1129.32 44.7715 1129.4 44.8555 1129.5 44.9336C1129.61 45.0078 1129.76 45.0781 1129.95 45.1445C1130.14 45.2109 1130.38 45.2773 1130.68 45.3438C1131.2 45.4609 1131.63 45.6016 1131.96 45.7656C1132.3 45.9297 1132.55 46.1309 1132.71 46.3691C1132.88 46.6074 1132.96 46.8965 1132.96 47.2363C1132.96 47.5137 1132.9 47.7676 1132.78 47.998C1132.67 48.2285 1132.5 48.4277 1132.29 48.5957C1132.07 48.7598 1131.81 48.8887 1131.51 48.9824C1131.22 49.0723 1130.88 49.1172 1130.51 49.1172C1129.95 49.1172 1129.48 49.0176 1129.09 48.8184C1128.71 48.6191 1128.41 48.3613 1128.21 48.0449C1128.01 47.7285 1127.91 47.3945 1127.91 47.043H1129C1129.02 47.3398 1129.11 47.5762 1129.26 47.752C1129.42 47.9238 1129.61 48.0469 1129.84 48.1211C1130.06 48.1914 1130.29 48.2266 1130.51 48.2266C1130.81 48.2266 1131.06 48.1875 1131.25 48.1094C1131.46 48.0312 1131.61 47.9238 1131.72 47.7871C1131.82 47.6504 1131.88 47.4941 1131.88 47.3184ZM1138.06 47.5352V42.6602H1139.15V49H1138.11L1138.06 47.5352ZM1138.27 46.1992L1138.72 46.1875C1138.72 46.6094 1138.67 47 1138.58 47.3594C1138.5 47.7148 1138.36 48.0234 1138.16 48.2852C1137.97 48.5469 1137.71 48.752 1137.39 48.9004C1137.08 49.0449 1136.69 49.1172 1136.24 49.1172C1135.93 49.1172 1135.65 49.0723 1135.39 48.9824C1135.14 48.8926 1134.92 48.7539 1134.73 48.5664C1134.55 48.3789 1134.41 48.1348 1134.31 47.834C1134.21 47.5332 1134.16 47.1719 1134.16 46.75V42.6602H1135.24V46.7617C1135.24 47.0469 1135.27 47.2832 1135.34 47.4707C1135.4 47.6543 1135.49 47.8008 1135.6 47.9102C1135.71 48.0156 1135.84 48.0898 1135.98 48.1328C1136.12 48.1758 1136.26 48.1973 1136.41 48.1973C1136.87 48.1973 1137.24 48.1094 1137.51 47.9336C1137.77 47.7539 1137.97 47.5137 1138.09 47.2129C1138.21 46.9082 1138.27 46.5703 1138.27 46.1992ZM1141.78 40V49H1140.69V40H1141.78ZM1145.98 42.6602V43.4922H1142.55V42.6602H1145.98ZM1143.71 41.1191H1144.79V47.4297C1144.79 47.6445 1144.83 47.8066 1144.89 47.916C1144.96 48.0254 1145.04 48.0977 1145.15 48.1328C1145.26 48.168 1145.37 48.1855 1145.49 48.1855C1145.58 48.1855 1145.67 48.1777 1145.77 48.1621C1145.87 48.1426 1145.95 48.127 1146 48.1152L1146.01 49C1145.92 49.0273 1145.81 49.0527 1145.67 49.0762C1145.53 49.1035 1145.36 49.1172 1145.17 49.1172C1144.9 49.1172 1144.66 49.0645 1144.44 48.959C1144.21 48.8535 1144.04 48.6777 1143.9 48.4316C1143.77 48.1816 1143.71 47.8457 1143.71 47.4238V41.1191ZM1150.79 47.916V44.6523C1150.79 44.4023 1150.74 44.1855 1150.63 44.002C1150.54 43.8145 1150.39 43.6699 1150.19 43.5684C1149.99 43.4668 1149.74 43.416 1149.45 43.416C1149.18 43.416 1148.94 43.4629 1148.73 43.5566C1148.53 43.6504 1148.37 43.7734 1148.25 43.9258C1148.14 44.0781 1148.08 44.2422 1148.08 44.418H1147C1147 44.1914 1147.05 43.9668 1147.17 43.7441C1147.29 43.5215 1147.46 43.3203 1147.67 43.1406C1147.9 42.957 1148.16 42.8125 1148.47 42.707C1148.78 42.5977 1149.13 42.543 1149.51 42.543C1149.98 42.543 1150.38 42.6211 1150.73 42.7773C1151.09 42.9336 1151.37 43.1699 1151.57 43.4863C1151.77 43.7988 1151.87 44.1914 1151.87 44.6641V47.6172C1151.87 47.8281 1151.89 48.0527 1151.92 48.291C1151.96 48.5293 1152.02 48.7344 1152.09 48.9062V49H1150.96C1150.91 48.875 1150.86 48.709 1150.83 48.502C1150.8 48.291 1150.79 48.0957 1150.79 47.916ZM1150.97 45.1562L1150.99 45.918H1149.89C1149.58 45.918 1149.31 45.9434 1149.06 45.9941C1148.82 46.041 1148.62 46.1133 1148.45 46.2109C1148.29 46.3086 1148.17 46.4316 1148.08 46.5801C1147.99 46.7246 1147.95 46.8945 1147.95 47.0898C1147.95 47.2891 1148 47.4707 1148.09 47.6348C1148.17 47.7988 1148.31 47.9297 1148.49 48.0273C1148.67 48.1211 1148.9 48.168 1149.16 48.168C1149.5 48.168 1149.79 48.0977 1150.04 47.957C1150.3 47.8164 1150.5 47.6445 1150.65 47.4414C1150.8 47.2383 1150.88 47.041 1150.89 46.8496L1151.35 47.3711C1151.33 47.5352 1151.25 47.7168 1151.13 47.916C1151.01 48.1152 1150.85 48.3066 1150.65 48.4902C1150.45 48.6699 1150.21 48.8203 1149.93 48.9414C1149.66 49.0586 1149.35 49.1172 1149.01 49.1172C1148.58 49.1172 1148.2 49.0332 1147.87 48.8652C1147.55 48.6973 1147.3 48.4727 1147.12 48.1914C1146.95 47.9062 1146.86 47.5879 1146.86 47.2363C1146.86 46.8965 1146.93 46.5977 1147.06 46.3398C1147.19 46.0781 1147.38 45.8613 1147.63 45.6895C1147.88 45.5137 1148.18 45.3809 1148.54 45.291C1148.89 45.2012 1149.28 45.1562 1149.71 45.1562H1150.97ZM1157.37 47.7695V40H1158.46V49H1157.47L1157.37 47.7695ZM1153.11 45.9004V45.7773C1153.11 45.293 1153.16 44.8535 1153.28 44.459C1153.4 44.0605 1153.57 43.7188 1153.79 43.4336C1154.01 43.1484 1154.28 42.9297 1154.58 42.7773C1154.89 42.6211 1155.23 42.543 1155.61 42.543C1156.01 42.543 1156.36 42.6133 1156.66 42.7539C1156.96 42.8906 1157.21 43.0918 1157.42 43.3574C1157.63 43.6191 1157.8 43.9355 1157.92 44.3066C1158.04 44.6777 1158.12 45.0977 1158.17 45.5664V46.1055C1158.13 46.5703 1158.04 46.9883 1157.92 47.3594C1157.8 47.7305 1157.63 48.0469 1157.42 48.3086C1157.21 48.5703 1156.96 48.7715 1156.66 48.9121C1156.36 49.0488 1156 49.1172 1155.6 49.1172C1155.23 49.1172 1154.89 49.0371 1154.58 48.877C1154.28 48.7168 1154.01 48.4922 1153.79 48.2031C1153.57 47.9141 1153.4 47.5742 1153.28 47.1836C1153.16 46.7891 1153.11 46.3613 1153.11 45.9004ZM1154.2 45.7773V45.9004C1154.2 46.2168 1154.23 46.5137 1154.29 46.791C1154.36 47.0684 1154.46 47.3125 1154.59 47.5234C1154.73 47.7344 1154.9 47.9004 1155.12 48.0215C1155.33 48.1387 1155.58 48.1973 1155.87 48.1973C1156.23 48.1973 1156.53 48.1211 1156.76 47.9688C1156.99 47.8164 1157.18 47.6152 1157.32 47.3652C1157.46 47.1152 1157.57 46.8438 1157.65 46.5508V45.1387C1157.6 44.9238 1157.53 44.7168 1157.44 44.5176C1157.36 44.3145 1157.24 44.1348 1157.1 43.9785C1156.97 43.8184 1156.8 43.6914 1156.59 43.5977C1156.39 43.5039 1156.16 43.457 1155.88 43.457C1155.59 43.457 1155.33 43.5195 1155.12 43.6445C1154.9 43.7656 1154.73 43.9336 1154.59 44.1484C1154.46 44.3594 1154.36 44.6055 1154.29 44.8867C1154.23 45.1641 1154.2 45.4609 1154.2 45.7773ZM1159.66 45.9004V45.7656C1159.66 45.3086 1159.73 44.8848 1159.86 44.4941C1159.99 44.0996 1160.19 43.7578 1160.44 43.4688C1160.69 43.1758 1160.99 42.9492 1161.34 42.7891C1161.7 42.625 1162.1 42.543 1162.54 42.543C1162.98 42.543 1163.38 42.625 1163.74 42.7891C1164.1 42.9492 1164.4 43.1758 1164.65 43.4688C1164.91 43.7578 1165.1 44.0996 1165.23 44.4941C1165.37 44.8848 1165.43 45.3086 1165.43 45.7656V45.9004C1165.43 46.3574 1165.37 46.7812 1165.23 47.1719C1165.1 47.5625 1164.91 47.9043 1164.65 48.1973C1164.4 48.4863 1164.1 48.7129 1163.75 48.877C1163.39 49.0371 1163 49.1172 1162.55 49.1172C1162.11 49.1172 1161.7 49.0371 1161.35 48.877C1160.99 48.7129 1160.69 48.4863 1160.44 48.1973C1160.19 47.9043 1159.99 47.5625 1159.86 47.1719C1159.73 46.7812 1159.66 46.3574 1159.66 45.9004ZM1160.75 45.7656V45.9004C1160.75 46.2168 1160.78 46.5156 1160.86 46.7969C1160.93 47.0742 1161.04 47.3203 1161.19 47.5352C1161.34 47.75 1161.53 47.9199 1161.76 48.0449C1161.99 48.166 1162.25 48.2266 1162.55 48.2266C1162.85 48.2266 1163.11 48.166 1163.33 48.0449C1163.56 47.9199 1163.74 47.75 1163.89 47.5352C1164.04 47.3203 1164.15 47.0742 1164.23 46.7969C1164.3 46.5156 1164.34 46.2168 1164.34 45.9004V45.7656C1164.34 45.4531 1164.3 45.1582 1164.23 44.8809C1164.15 44.5996 1164.04 44.3516 1163.89 44.1367C1163.74 43.918 1163.55 43.7461 1163.32 43.6211C1163.1 43.4961 1162.84 43.4336 1162.54 43.4336C1162.24 43.4336 1161.98 43.4961 1161.75 43.6211C1161.53 43.7461 1161.34 43.918 1161.19 44.1367C1161.04 44.3516 1160.93 44.5996 1160.86 44.8809C1160.78 45.1582 1160.75 45.4531 1160.75 45.7656Z" fill="#121212"/>
<line id="Line 5" x1="44" y1="15" x2="276" y2="15" stroke="#121212" stroke-width="2"/>
<line id="linha2" opacity="0.5" x1="324" y1="15.5" x2="556" y2="15.5" stroke="#121212"/>
<line id="linha3" opacity="0.5" x1="604" y1="15.5" x2="836" y2="15.5" stroke="#121212"/>
<line id="linha4" opacity="0.5" x1="884" y1="15.5" x2="1116" y2="15.5" stroke="#121212"/>
<g id="check">
<path id="Vector" d="M20.0003 29.3333C27.3641 29.3333 33.3337 23.3638 33.3337 16C33.3337 8.6362 27.3641 2.66667 20.0003 2.66667C12.6365 2.66667 6.66699 8.6362 6.66699 16C6.66699 23.3638 12.6365 29.3333 20.0003 29.3333Z" stroke="#121212" stroke-width="1.5"/>
<path id="Vector_2" d="M25.3337 12L17.3337 20L14.667 17.3333" stroke="#121212" stroke-width="1.5"/>
</g>
<g id="check_2">
<path id="Vector_3" d="M301.333 29.6667C308.697 29.6667 314.667 23.6971 314.667 16.3333C314.667 8.96953 308.697 2.99999 301.333 2.99999C293.97 2.99999 288 8.96953 288 16.3333C288 23.6971 293.97 29.6667 301.333 29.6667Z" stroke="#121212" stroke-width="1.5"/>
<path id="2" d="M304.445 19.6875V21H297.773V19.8721L301.014 16.3379C301.369 15.9368 301.649 15.5905 301.854 15.2988C302.06 15.0072 302.203 14.7451 302.285 14.5127C302.372 14.2757 302.415 14.0456 302.415 13.8223C302.415 13.5078 302.356 13.2321 302.237 12.9951C302.123 12.7536 301.955 12.5645 301.731 12.4277C301.508 12.2865 301.237 12.2158 300.918 12.2158C300.549 12.2158 300.239 12.2956 299.988 12.4551C299.738 12.6146 299.549 12.8356 299.421 13.1182C299.293 13.3962 299.229 13.7152 299.229 14.0752H297.582C297.582 13.4964 297.714 12.9678 297.979 12.4893C298.243 12.0062 298.626 11.6234 299.127 11.3408C299.628 11.0537 300.232 10.9102 300.938 10.9102C301.604 10.9102 302.169 11.0218 302.634 11.2451C303.099 11.4684 303.452 11.7852 303.693 12.1953C303.939 12.6055 304.062 13.0908 304.062 13.6514C304.062 13.9613 304.012 14.2689 303.912 14.5742C303.812 14.8796 303.668 15.1849 303.481 15.4902C303.299 15.791 303.083 16.0941 302.832 16.3994C302.581 16.7002 302.306 17.0055 302.005 17.3154L299.852 19.6875H304.445Z" fill="#121212"/>
</g>
<g id="numero3" opacity="0.5">
<path id="Vector_4" d="M580.333 29.6667C587.697 29.6667 593.667 23.6971 593.667 16.3333C593.667 8.96953 587.697 2.99999 580.333 2.99999C572.97 2.99999 567 8.96953 567 16.3333C567 23.6971 572.97 29.6667 580.333 29.6667Z" stroke="#121212" stroke-width="1.5"/>
<path id="3" d="M578.708 15.2783H579.692C580.075 15.2783 580.392 15.2122 580.643 15.0801C580.898 14.9479 581.087 14.7656 581.21 14.5332C581.333 14.3008 581.395 14.0342 581.395 13.7334C581.395 13.4189 581.338 13.1501 581.224 12.9268C581.114 12.6989 580.946 12.5234 580.718 12.4004C580.494 12.2773 580.21 12.2158 579.863 12.2158C579.572 12.2158 579.307 12.2751 579.07 12.3936C578.838 12.5075 578.653 12.6715 578.517 12.8857C578.38 13.0954 578.312 13.346 578.312 13.6377H576.657C576.657 13.109 576.796 12.6396 577.074 12.2295C577.352 11.8193 577.73 11.498 578.209 11.2656C578.692 11.0286 579.234 10.9102 579.836 10.9102C580.479 10.9102 581.039 11.0173 581.518 11.2314C582.001 11.4411 582.377 11.7555 582.646 12.1748C582.914 12.5941 583.049 13.1136 583.049 13.7334C583.049 14.016 582.983 14.3031 582.851 14.5947C582.718 14.8864 582.522 15.153 582.263 15.3945C582.003 15.6315 581.679 15.8252 581.292 15.9756C580.905 16.1214 580.456 16.1943 579.945 16.1943H578.708V15.2783ZM578.708 16.5635V15.6611H579.945C580.529 15.6611 581.025 15.7295 581.436 15.8662C581.85 16.0029 582.188 16.1921 582.447 16.4336C582.707 16.6706 582.896 16.9417 583.015 17.2471C583.138 17.5524 583.199 17.876 583.199 18.2178C583.199 18.6826 583.115 19.0973 582.946 19.4619C582.782 19.8219 582.548 20.1273 582.242 20.3779C581.937 20.6286 581.579 20.8177 581.169 20.9453C580.763 21.0729 580.321 21.1367 579.843 21.1367C579.414 21.1367 579.004 21.0775 578.612 20.959C578.22 20.8405 577.869 20.665 577.56 20.4326C577.25 20.1956 577.004 19.9017 576.821 19.5508C576.644 19.1953 576.555 18.7852 576.555 18.3203H578.202C578.202 18.6165 578.271 18.8786 578.407 19.1064C578.549 19.3298 578.744 19.5052 578.995 19.6328C579.25 19.7604 579.542 19.8242 579.87 19.8242C580.216 19.8242 580.515 19.7627 580.766 19.6396C581.016 19.5166 581.208 19.3343 581.34 19.0928C581.477 18.8512 581.545 18.5596 581.545 18.2178C581.545 17.8304 581.47 17.516 581.319 17.2744C581.169 17.0329 580.955 16.8551 580.677 16.7412C580.399 16.6227 580.071 16.5635 579.692 16.5635H578.708Z" fill="#121212"/>
</g>
<g id="numero4" opacity="0.5">
<path id="Vector_5" d="M860.333 29.6667C867.697 29.6667 873.667 23.6971 873.667 16.3333C873.667 8.96953 867.697 2.99999 860.333 2.99999C852.97 2.99999 847 8.96953 847 16.3333C847 23.6971 852.97 29.6667 860.333 29.6667Z" stroke="#121212" stroke-width="1.5"/>
<path id="4" d="M863.63 17.4521V18.7646H856.452L856.397 17.7734L860.69 11.0469H862.01L860.581 13.4941L858.113 17.4521H863.63ZM862.386 11.0469V21H860.738V11.0469H862.386Z" fill="#121212"/>
</g>
<g id="numero5" opacity="0.5">
<path id="Vector_6" d="M1140.33 29.6667C1147.7 29.6667 1153.67 23.6971 1153.67 16.3333C1153.67 8.96953 1147.7 2.99999 1140.33 2.99999C1132.97 2.99999 1127 8.96953 1127 16.3333C1127 23.6971 1132.97 29.6667 1140.33 29.6667Z" stroke="#121212" stroke-width="1.5"/>
<path id="5" d="M1138.5 16.3721L1137.19 16.0508L1137.73 11.0469H1143.1V12.4414H1139.1L1138.82 14.8818C1138.98 14.7907 1139.19 14.7018 1139.47 14.6152C1139.74 14.5241 1140.05 14.4785 1140.4 14.4785C1140.87 14.4785 1141.29 14.556 1141.66 14.7109C1142.03 14.8613 1142.35 15.0824 1142.61 15.374C1142.87 15.6611 1143.07 16.012 1143.21 16.4268C1143.34 16.8369 1143.41 17.2995 1143.41 17.8145C1143.41 18.2747 1143.34 18.7054 1143.21 19.1064C1143.07 19.5075 1142.87 19.8607 1142.6 20.166C1142.34 20.4714 1142 20.7106 1141.59 20.8838C1141.18 21.0524 1140.7 21.1367 1140.14 21.1367C1139.73 21.1367 1139.33 21.0775 1138.95 20.959C1138.57 20.8359 1138.23 20.6559 1137.93 20.4189C1137.63 20.1774 1137.39 19.8812 1137.2 19.5303C1137.02 19.1748 1136.92 18.7669 1136.89 18.3066H1138.5C1138.54 18.6302 1138.63 18.9059 1138.77 19.1338C1138.91 19.3571 1139.1 19.528 1139.33 19.6465C1139.56 19.765 1139.83 19.8242 1140.14 19.8242C1140.41 19.8242 1140.65 19.7764 1140.85 19.6807C1141.06 19.5804 1141.22 19.4391 1141.35 19.2568C1141.49 19.07 1141.59 18.8512 1141.65 18.6006C1141.72 18.3499 1141.76 18.0719 1141.76 17.7666C1141.76 17.4749 1141.72 17.2083 1141.64 16.9668C1141.57 16.7253 1141.46 16.5156 1141.31 16.3379C1141.16 16.1602 1140.98 16.0234 1140.75 15.9277C1140.53 15.8275 1140.27 15.7773 1139.98 15.7773C1139.59 15.7773 1139.29 15.8343 1139.08 15.9482C1138.87 16.0622 1138.68 16.2035 1138.5 16.3721Z" fill="#121212"/>
</g>
</g>
</svg>
