<svg width="16" height="20" viewBox="0 0 16 20" fill="none" xmlns="http://www.w3.org/2000/svg">
<path d="M10.5847 7.49458C10.6273 7.45105 10.6782 7.41648 10.7344 7.39288C10.7906 7.36927 10.8509 7.35712 10.9119 7.35712C10.9728 7.35712 11.0331 7.36927 11.0893 7.39288C11.1455 7.41648 11.1964 7.45105 11.2391 7.49458C11.4178 7.6752 11.4203 7.96708 11.2453 8.15083L7.54968 12.5196C7.50772 12.5657 7.45681 12.6027 7.40004 12.6284C7.34328 12.6541 7.28187 12.668 7.21956 12.6692C7.15725 12.6703 7.09536 12.6588 7.03768 12.6352C6.97999 12.6116 6.92772 12.5765 6.88406 12.5321L4.63531 10.2533C4.54858 10.1649 4.5 10.0459 4.5 9.92208C4.5 9.7982 4.54858 9.67927 4.63531 9.59083C4.67796 9.5473 4.72887 9.51273 4.78505 9.48913C4.84123 9.46552 4.90156 9.45337 4.96249 9.45337C5.02343 9.45337 5.08376 9.46552 5.13994 9.48913C5.19612 9.51273 5.24703 9.5473 5.28968 9.59083L7.19718 11.524L10.5722 7.50833C10.5761 7.5035 10.5802 7.4989 10.5847 7.49458Z" fill="white"/>
<mask id="path-2-inside-1_1106_286" fill="white">
<path d="M14.625 5.05712C13.492 4.75472 12.3851 4.36179 11.315 3.88212C10.2622 3.42542 9.24592 2.88886 8.275 2.27712L8 2.10712L7.73 2.28212C6.75908 2.89386 5.74278 3.43042 4.69 3.88712C3.61815 4.36534 2.50957 4.7566 1.375 5.05712L1 5.15212V9.32212C1 16.0171 7.765 18.5221 7.83 18.5471L8 18.6071L8.17 18.5471C8.24 18.5471 15 16.0221 15 9.32212V5.15212L14.625 5.05712ZM14 9.32212C14 14.8221 9 17.1271 8 17.5371C7 17.1271 2 14.8171 2 9.32212V5.92712C3.05474 5.6239 4.08721 5.248 5.09 4.80212C6.09286 4.36861 7.0651 3.86746 8 3.30212C8.9349 3.86746 9.90714 4.36861 10.91 4.80212C11.9128 5.248 12.9453 5.6239 14 5.92712V9.32212Z"/>
</mask>
<path d="M14.625 5.05712C13.492 4.75472 12.3851 4.36179 11.315 3.88212C10.2622 3.42542 9.24592 2.88886 8.275 2.27712L8 2.10712L7.73 2.28212C6.75908 2.89386 5.74278 3.43042 4.69 3.88712C3.61815 4.36534 2.50957 4.7566 1.375 5.05712L1 5.15212V9.32212C1 16.0171 7.765 18.5221 7.83 18.5471L8 18.6071L8.17 18.5471C8.24 18.5471 15 16.0221 15 9.32212V5.15212L14.625 5.05712ZM14 9.32212C14 14.8221 9 17.1271 8 17.5371C7 17.1271 2 14.8171 2 9.32212V5.92712C3.05474 5.6239 4.08721 5.248 5.09 4.80212C6.09286 4.36861 7.0651 3.86746 8 3.30212C8.9349 3.86746 9.90714 4.36861 10.91 4.80212C11.9128 5.248 12.9453 5.6239 14 5.92712V9.32212Z" fill="white"/>
<path d="M14.625 5.05712L11.9174 15.202L11.9818 15.2192L12.0465 15.2356L14.625 5.05712ZM11.315 3.88212L15.6099 -5.69929L15.5519 -5.72529L15.4936 -5.75059L11.315 3.88212ZM8.275 2.27712L13.8723 -6.60659L13.8343 -6.63052L13.7961 -6.65412L8.275 2.27712ZM8 2.10712L13.5211 -6.82412L7.8671 -10.3194L2.2891 -6.70399L8 2.10712ZM7.73 2.28212L13.3273 11.1658L13.3843 11.1299L13.4409 11.0932L7.73 2.28212ZM4.69 3.88712L0.511366 -5.74559L0.461467 -5.72394L0.411794 -5.70178L4.69 3.88712ZM1.375 5.05712L3.95354 15.2356L4.00858 15.2216L4.06346 15.2071L1.375 5.05712ZM1 5.15212L-1.57854 -5.02635L-9.5 -3.01958V5.15212H1ZM7.83 18.5471L4.06072 28.3472L4.19736 28.3998L4.33542 28.4485L7.83 18.5471ZM8 18.6071L4.50542 28.5085L8 29.7419L11.4946 28.5085L8 18.6071ZM8.17 18.5471V8.04712H6.37144L4.67542 8.64571L8.17 18.5471ZM15 5.15212H25.5V-3.01958L17.5785 -5.02635L15 5.15212ZM8 17.5371L4.01679 27.2523L8 28.8854L11.9832 27.2523L8 17.5371ZM2 5.92712L-0.901066 -4.16416L-8.5 -1.9796V5.92712H2ZM5.09 4.80212L0.923775 -4.83596L0.873763 -4.81434L0.823979 -4.79221L5.09 4.80212ZM8 3.30212L13.4333 -5.68284L8 -8.96839L2.56672 -5.68284L8 3.30212ZM10.91 4.80212L15.176 -4.79221L15.1262 -4.81434L15.0762 -4.83596L10.91 4.80212ZM14 5.92712H24.5V-1.9796L16.9011 -4.16416L14 5.92712ZM17.3326 -5.08778C16.7429 -5.24516 16.1669 -5.44965 15.6099 -5.69929L7.02005 13.4635C8.60332 14.1732 10.241 14.7546 11.9174 15.202L17.3326 -5.08778ZM15.4936 -5.75059C14.9322 -5.99416 14.3901 -6.28033 13.8723 -6.60659L2.6777 11.1608C4.10172 12.058 5.59229 12.845 7.13637 13.5148L15.4936 -5.75059ZM13.7961 -6.65412L13.5211 -6.82412L2.47886 11.0384L2.75386 11.2084L13.7961 -6.65412ZM2.2891 -6.70399L2.0191 -6.52899L13.4409 11.0932L13.7109 10.9182L2.2891 -6.70399ZM2.1327 -6.60159C1.61487 -6.27533 1.07285 -5.98916 0.511366 -5.74559L8.86863 13.5198C10.4127 12.85 11.9033 12.063 13.3273 11.1658L2.1327 -6.60159ZM0.411794 -5.70178C-0.14604 -5.4529 -0.722983 -5.24927 -1.31346 -5.09287L4.06346 15.2071C5.74213 14.7625 7.38233 14.1836 8.96821 13.476L0.411794 -5.70178ZM-1.20354 -5.12135L-1.57854 -5.02635L3.57854 15.3306L3.95354 15.2356L-1.20354 -5.12135ZM-9.5 5.15212V9.32212H11.5V5.15212H-9.5ZM-9.5 9.32212C-9.5 16.6593 -5.66137 21.631 -2.46865 24.3857C-0.889604 25.7482 0.651133 26.692 1.79597 27.3023C2.37963 27.6134 2.89135 27.8543 3.296 28.032C3.49931 28.1213 3.6774 28.1954 3.826 28.2551C3.97571 28.3153 4.1241 28.3716 4.06072 28.3472L11.5993 8.74699C11.5732 8.73697 11.5522 8.72899 11.5506 8.72838C11.5482 8.72749 11.5449 8.72623 11.5436 8.72576C11.5425 8.72535 11.5414 8.72492 11.5411 8.72479C11.54 8.72438 11.5439 8.72587 11.5489 8.72774C11.5597 8.73186 11.5724 8.73669 11.5861 8.742C11.6134 8.75254 11.6378 8.76214 11.6592 8.77075C11.7015 8.78778 11.7276 8.799 11.7397 8.80431C11.762 8.81408 11.7345 8.80283 11.6748 8.77101C11.6143 8.73875 11.5368 8.69392 11.4543 8.63907C11.3711 8.58376 11.302 8.53095 11.2499 8.48601C11.1304 8.38291 11.1935 8.40365 11.2977 8.59658C11.354 8.70095 11.4106 8.83512 11.4505 8.98819C11.4913 9.14431 11.5 9.26395 11.5 9.32212H-9.5ZM4.33542 28.4485L4.50542 28.5085L11.4946 8.70571L11.3246 8.64571L4.33542 28.4485ZM11.4946 28.5085L11.6646 28.4485L4.67542 8.64571L4.50542 8.70571L11.4946 28.5085ZM8.17 29.0471C9.00027 29.0471 9.64269 28.9455 9.84841 28.9122C10.139 28.8651 10.3704 28.815 10.504 28.7846C10.7727 28.7234 10.9824 28.6644 11.0801 28.6363C11.2922 28.5753 11.4592 28.52 11.5368 28.4939C11.7136 28.4346 11.8634 28.3794 11.9645 28.3413C12.182 28.2592 12.4031 28.1694 12.6214 28.0758C13.0636 27.8863 13.5955 27.6375 14.1872 27.3236C15.3513 26.7061 16.8982 25.7564 18.4787 24.3899C21.6736 21.6276 25.5 16.6509 25.5 9.32212H4.5C4.5 9.14855 4.56299 8.86221 4.69787 8.61175C4.79958 8.42287 4.86077 8.40318 4.74383 8.50429C4.62554 8.60656 4.46934 8.70688 4.34624 8.77218C4.29437 8.7997 4.28668 8.80056 4.34576 8.77523C4.3725 8.76376 4.44116 8.7348 4.55199 8.69298C4.5997 8.67499 4.70754 8.6348 4.85474 8.58539C4.91744 8.56435 5.07272 8.51275 5.27614 8.45425C5.36955 8.42739 5.5757 8.36927 5.84168 8.30871C5.97395 8.27859 6.20418 8.22871 6.49384 8.18183C6.69861 8.1487 7.34028 8.04712 8.17 8.04712V29.0471ZM25.5 9.32212V5.15212H4.5V9.32212H25.5ZM17.5785 -5.02635L17.2035 -5.12135L12.0465 15.2356L12.4215 15.3306L17.5785 -5.02635ZM3.5 9.32212C3.5 9.04282 3.57728 8.65306 3.76065 8.27601C3.92246 7.94332 4.08897 7.77758 4.11779 7.75003C4.14012 7.72867 4.10868 7.76057 4.02209 7.81168C3.94507 7.85714 3.91818 7.8624 4.01679 7.82197L11.9832 27.2523C13.0688 26.8072 15.9171 25.5233 18.6322 22.9267C21.5109 20.1737 24.5 15.6386 24.5 9.32212H3.5ZM11.9832 7.82197C12.0863 7.86426 12.0601 7.85954 11.9822 7.81351C11.8952 7.76209 11.8628 7.72953 11.884 7.74988C11.9116 7.77632 12.0774 7.94105 12.2389 8.27303C12.422 8.64945 12.5 9.04008 12.5 9.32212H-8.5C-8.5 15.6381 -5.50912 20.1722 -2.63401 22.9231C0.0785994 25.5186 2.92459 26.8045 4.01679 27.2523L11.9832 7.82197ZM12.5 9.32212V5.92712H-8.5V9.32212H12.5ZM4.90107 16.0184C6.42171 15.5812 7.91026 15.0393 9.35602 14.3964L0.823979 -4.79221C0.264151 -4.54329 -0.312243 -4.33343 -0.901066 -4.16416L4.90107 16.0184ZM9.25623 14.4402C10.6957 13.8179 12.0913 13.0986 13.4333 12.2871L2.56672 -5.68284C2.03889 -5.36366 1.48998 -5.08071 0.923775 -4.83596L9.25623 14.4402ZM2.56672 12.2871C3.90869 13.0986 5.30426 13.8179 6.74377 14.4402L15.0762 -4.83596C14.51 -5.08071 13.9611 -5.36366 13.4333 -5.68284L2.56672 12.2871ZM6.64398 14.3964C8.08974 15.0393 9.57829 15.5812 11.0989 16.0184L16.9011 -4.16416C16.3122 -4.33343 15.7358 -4.54329 15.176 -4.79221L6.64398 14.3964ZM3.5 5.92712V9.32212H24.5V5.92712H3.5Z" fill="white" mask="url(#path-2-inside-1_1106_286)"/>
<mask id="path-4-inside-2_1106_286" fill="white">
<path d="M15.5714 4.22855C14.2766 3.88295 13.0115 3.43389 11.7886 2.88569C10.5854 2.36375 9.42391 1.75054 8.31429 1.0514L8 0.857117L7.69143 1.05712C6.5818 1.75625 5.42032 2.36947 4.21714 2.8914C2.99217 3.43794 1.72523 3.8851 0.428571 4.22855L0 4.33712V9.10283C0 16.7543 7.73143 19.6171 7.80571 19.6457L8 19.7143L8.19429 19.6457C8.27429 19.6457 16 16.76 16 9.10283V4.33712L15.5714 4.22855ZM14.8571 9.10283C14.8571 15.3885 9.14286 18.0228 8 18.4914C6.85714 18.0228 1.14286 15.3828 1.14286 9.10283V5.22283C2.34827 4.8763 3.52824 4.4467 4.67429 3.93712C5.82041 3.44168 6.93154 2.86894 8 2.22283C9.06846 2.86894 10.1796 3.44168 11.3257 3.93712C12.4718 4.4467 13.6517 4.8763 14.8571 5.22283V9.10283Z"/>
</mask>
<path d="M15.5714 4.22855C14.2766 3.88295 13.0115 3.43389 11.7886 2.88569C10.5854 2.36375 9.42391 1.75054 8.31429 1.0514L8 0.857117L7.69143 1.05712C6.5818 1.75625 5.42032 2.36947 4.21714 2.8914C2.99217 3.43794 1.72523 3.8851 0.428571 4.22855L0 4.33712V9.10283C0 16.7543 7.73143 19.6171 7.80571 19.6457L8 19.7143L8.19429 19.6457C8.27429 19.6457 16 16.76 16 9.10283V4.33712L15.5714 4.22855ZM14.8571 9.10283C14.8571 15.3885 9.14286 18.0228 8 18.4914C6.85714 18.0228 1.14286 15.3828 1.14286 9.10283V5.22283C2.34827 4.8763 3.52824 4.4467 4.67429 3.93712C5.82041 3.44168 6.93154 2.86894 8 2.22283C9.06846 2.86894 10.1796 3.44168 11.3257 3.93712C12.4718 4.4467 13.6517 4.8763 14.8571 5.22283V9.10283Z" fill="white"/>
<path d="M15.5714 4.22855L12.477 15.8227L12.5507 15.8424L12.6245 15.8611L15.5714 4.22855ZM11.7886 2.88569L16.6971 -8.0645L16.6308 -8.09421L16.5642 -8.12312L11.7886 2.88569ZM8.31429 1.0514L14.7112 -9.1014L14.6678 -9.12875L14.6242 -9.15573L8.31429 1.0514ZM8 0.857117L14.3099 -9.35001L7.84811 -13.3446L1.47326 -9.21272L8 0.857117ZM7.69143 1.05712L14.0883 11.2099L14.1535 11.1689L14.2182 11.127L7.69143 1.05712ZM4.21714 2.8914L-0.558438 -8.1174L-0.615466 -8.09266L-0.672234 -8.06734L4.21714 2.8914ZM0.428571 4.22855L3.37548 15.8611L3.43838 15.8451L3.5011 15.8285L0.428571 4.22855ZM0 4.33712L-2.94691 -7.29541L-12 -5.00196V4.33712H0ZM7.80571 19.6457L3.49797 30.8458L3.65413 30.9059L3.81191 30.9616L7.80571 19.6457ZM8 19.7143L4.00619 31.0302L8 32.4397L11.9938 31.0302L8 19.7143ZM8.19429 19.6457V7.64569H6.13879L4.20048 8.32979L8.19429 19.6457ZM16 4.33712H28V-5.00196L18.9469 -7.29541L16 4.33712ZM8 18.4914L3.44776 29.5944L8 31.4608L12.5522 29.5944L8 18.4914ZM1.14286 5.22283L-2.17265 -6.31005L-10.8571 -3.81341V5.22283H1.14286ZM4.67429 3.93712L-0.0871137 -7.07783L-0.14427 -7.05312L-0.201167 -7.02782L4.67429 3.93712ZM8 2.22283L14.2095 -8.04569L8 -11.8006L1.79054 -8.04569L8 2.22283ZM11.3257 3.93712L16.2012 -7.02782L16.1443 -7.05312L16.0871 -7.07783L11.3257 3.93712ZM14.8571 5.22283H26.8571V-3.81341L18.1726 -6.31005L14.8571 5.22283ZM18.6658 -7.36562C17.9919 -7.54548 17.3336 -7.77919 16.6971 -8.0645L6.88006 13.8359C8.6895 14.647 10.5612 15.3114 12.477 15.8227L18.6658 -7.36562ZM16.5642 -8.12312C15.9225 -8.40148 15.303 -8.72853 14.7112 -9.1014L1.91737 11.2042C3.54482 12.2296 5.24833 13.129 7.01299 13.8945L16.5642 -8.12312ZM14.6242 -9.15573L14.3099 -9.35001L1.69013 11.0642L2.00441 11.2585L14.6242 -9.15573ZM1.47326 -9.21272L1.16469 -9.01272L14.2182 11.127L14.5267 10.927L1.47326 -9.21272ZM1.29451 -9.09569C0.702714 -8.72282 0.0832556 -8.39577 -0.558438 -8.1174L8.99272 13.9002C10.7574 13.1347 12.4609 12.2353 14.0883 11.2099L1.29451 -9.09569ZM-0.672234 -8.06734C-1.30976 -7.7829 -1.96912 -7.55018 -2.64395 -7.37144L3.5011 15.8285C5.41958 15.3204 7.29409 14.6588 9.10652 13.8501L-0.672234 -8.06734ZM-2.51834 -7.40398L-2.94691 -7.29541L2.94691 15.9696L3.37548 15.8611L-2.51834 -7.40398ZM-12 4.33712V9.10283H12V4.33712H-12ZM-12 9.10283C-12 17.4882 -7.61299 23.1701 -3.96417 26.3184C-2.15955 27.8755 -0.398704 28.9541 0.909676 29.6516C1.57672 30.0072 2.16155 30.2825 2.624 30.4855C2.85636 30.5876 3.05989 30.6723 3.22972 30.7406C3.40081 30.8094 3.5704 30.8737 3.49797 30.8458L12.1135 8.44554C12.0837 8.43409 12.0596 8.42498 12.0578 8.42428C12.0551 8.42326 12.0513 8.42181 12.0498 8.42128C12.0486 8.42081 12.0473 8.42032 12.0469 8.42017C12.0457 8.41971 12.0502 8.42141 12.0558 8.42355C12.0682 8.42825 12.0827 8.43378 12.0984 8.43985C12.1296 8.45189 12.1574 8.46286 12.1819 8.4727C12.2303 8.49217 12.2601 8.50498 12.274 8.51106C12.2994 8.52222 12.268 8.50936 12.1998 8.47299C12.1306 8.43613 12.042 8.38489 11.9477 8.32221C11.8527 8.259 11.7737 8.19864 11.7142 8.14728C11.5776 8.02946 11.6498 8.05316 11.7688 8.27364C11.8332 8.39292 11.8978 8.54627 11.9434 8.7212C11.99 8.89963 12 9.03635 12 9.10283H-12ZM3.81191 30.9616L4.00619 31.0302L11.9938 8.39837L11.7995 8.32979L3.81191 30.9616ZM11.9938 31.0302L12.1881 30.9616L4.20048 8.32979L4.00619 8.39837L11.9938 31.0302ZM8.19429 31.6457C9.14316 31.6457 9.87736 31.5295 10.1125 31.4915C10.4446 31.4377 10.709 31.3804 10.8618 31.3457C11.1688 31.2758 11.4085 31.2083 11.5201 31.1761C11.7625 31.1065 11.9534 31.0432 12.042 31.0135C12.2442 30.9456 12.4153 30.8826 12.5308 30.839C12.7795 30.7452 13.0321 30.6426 13.2816 30.5357C13.7869 30.319 14.3948 30.0347 15.0711 29.676C16.4015 28.9702 18.1694 27.8849 19.9756 26.3232C23.627 23.1662 28 17.4786 28 9.10283H4C4 8.90447 4.07199 8.57723 4.22614 8.29098C4.34237 8.07512 4.41231 8.05262 4.27866 8.16817C4.14347 8.28506 3.96496 8.39971 3.82428 8.47434C3.76499 8.50579 3.7562 8.50677 3.82372 8.47781C3.85429 8.46471 3.93276 8.43161 4.05942 8.38382C4.11394 8.36326 4.23719 8.31732 4.40541 8.26086C4.47707 8.23681 4.65454 8.17784 4.88701 8.11099C4.99377 8.08029 5.22938 8.01386 5.53335 7.94465C5.68451 7.91023 5.94764 7.85322 6.27867 7.79965C6.51269 7.76178 7.24604 7.64569 8.19429 7.64569V31.6457ZM28 9.10283V4.33712H4V9.10283H28ZM18.9469 -7.29541L18.5183 -7.40398L12.6245 15.8611L13.0531 15.9696L18.9469 -7.29541ZM2.85714 9.10283C2.85714 8.78364 2.94546 8.33819 3.15503 7.90728C3.33995 7.52707 3.53026 7.33765 3.56319 7.30616C3.58871 7.28175 3.55278 7.31821 3.45382 7.37662C3.3658 7.42858 3.33506 7.43459 3.44776 7.38838L12.5522 29.5944C13.793 29.0857 17.0481 27.6185 20.1511 24.6509C23.441 21.5046 26.8571 16.3217 26.8571 9.10283H2.85714ZM12.5522 7.38838C12.6701 7.43671 12.6401 7.43132 12.5511 7.37872C12.4516 7.31995 12.4146 7.28274 12.4389 7.30599C12.4705 7.33621 12.6599 7.52447 12.8445 7.90387C13.0538 8.33407 13.1429 8.7805 13.1429 9.10283H-10.8571C-10.8571 16.3211 -7.439 21.5029 -4.15316 24.6468C-1.05303 27.6131 2.19954 29.0827 3.44776 29.5944L12.5522 7.38838ZM13.1429 9.10283V5.22283H-10.8571V9.10283H13.1429ZM4.45836 16.7557C6.19624 16.2561 7.89744 15.6367 9.54974 14.9021L-0.201167 -7.02782C-0.84097 -6.74334 -1.49971 -6.50351 -2.17265 -6.31005L4.45836 16.7557ZM9.43569 14.9521C11.0808 14.2409 12.6758 13.4188 14.2095 12.4914L1.79054 -8.04569C1.1873 -7.68091 0.559973 -7.35754 -0.0871137 -7.07783L9.43569 14.9521ZM1.79054 12.4914C3.32422 13.4188 4.91915 14.2409 6.56431 14.9521L16.0871 -7.07783C15.44 -7.35754 14.8127 -7.68091 14.2095 -8.04569L1.79054 12.4914ZM6.45026 14.9021C8.10256 15.6367 9.80376 16.2561 11.5416 16.7557L18.1726 -6.31005C17.4997 -6.50351 16.841 -6.74334 16.2012 -7.02782L6.45026 14.9021ZM2.85714 5.22283V9.10283H26.8571V5.22283H2.85714Z" fill="white" mask="url(#path-4-inside-2_1106_286)"/>
</svg>
