<svg width="48" height="48" viewBox="0 0 48 48" fill="none" xmlns="http://www.w3.org/2000/svg">
<circle cx="24" cy="24" r="24" fill="#F1F1F1"/>
<path d="M36.297 34.0621H29.5889C28.6994 34.0621 27.8463 34.4154 27.2173 35.0444C26.5882 35.6734 26.2349 36.5266 26.2349 37.4161V39.6521H28.4709V37.4161C28.4709 37.1196 28.5887 36.8352 28.7984 36.6255C29.008 36.4159 29.2924 36.2981 29.5889 36.2981H36.297C36.5935 36.2981 36.8779 36.4159 37.0875 36.6255C37.2972 36.8352 37.415 37.1196 37.415 37.4161V39.6521H39.651V37.4161C39.651 36.5266 39.2977 35.6734 38.6686 35.0444C38.0396 34.4154 37.1865 34.0621 36.297 34.0621ZM28.4709 28.472C28.4709 29.3565 28.7332 30.2211 29.2246 30.9565C29.716 31.692 30.4144 32.2652 31.2316 32.6036C32.0487 32.9421 32.9479 33.0307 33.8154 32.8581C34.6829 32.6856 35.4797 32.2596 36.1052 31.6342C36.7306 31.0088 37.1565 30.212 37.3291 29.3445C37.5016 28.477 37.4131 27.5778 37.0746 26.7606C36.7361 25.9435 36.1629 25.245 35.4275 24.7536C34.6921 24.2622 33.8274 24 32.943 24C31.7569 24 30.6194 24.4711 29.7807 25.3098C28.9421 26.1485 28.4709 27.2859 28.4709 28.472ZM35.179 28.472C35.179 28.9142 35.0478 29.3466 34.8021 29.7143C34.5564 30.082 34.2072 30.3686 33.7986 30.5378C33.3901 30.7071 32.9405 30.7513 32.5067 30.6651C32.073 30.5788 31.6746 30.3658 31.3618 30.0531C31.0491 29.7404 30.8362 29.342 30.7499 28.9082C30.6636 28.4745 30.7079 28.0249 30.8771 27.6163C31.0464 27.2077 31.333 26.8585 31.7007 26.6128C32.0684 26.3671 32.5007 26.236 32.943 26.236C33.536 26.236 34.1047 26.4716 34.5241 26.8909C34.9434 27.3102 35.179 27.879 35.179 28.472ZM12.8187 29.59V28.472H10.5827V29.59C10.5827 31.6656 11.4072 33.6562 12.8749 35.1239C14.3426 36.5916 16.3332 37.4161 18.4088 37.4161H21.7628V35.1801H18.4088C16.9262 35.1801 15.5044 34.5911 14.456 33.5428C13.4077 32.4944 12.8187 31.0726 12.8187 29.59ZM27.3529 17.2919H35.179V19.5279H27.3529V17.2919ZM27.3529 12.8198H38.533V15.0559H27.3529V12.8198ZM27.3529 8.34778H38.533V10.5838H27.3529V8.34778ZM18.4088 18.4099H11.7007C10.8112 18.4099 9.95806 18.7633 9.32905 19.3923C8.70005 20.0213 8.34668 20.8744 8.34668 21.7639V24H10.5827V21.7639C10.5827 21.4674 10.7005 21.183 10.9102 20.9734C11.1198 20.7637 11.4042 20.6459 11.7007 20.6459H18.4088C18.7053 20.6459 18.9897 20.7637 19.1993 20.9734C19.409 21.183 19.5268 21.4674 19.5268 21.7639V24H21.7628V21.7639C21.7628 20.8744 21.4095 20.0213 20.7805 19.3923C20.1514 18.7633 19.2983 18.4099 18.4088 18.4099ZM15.0548 17.2919C15.9392 17.2919 16.8039 17.0296 17.5393 16.5382C18.2747 16.0468 18.8479 15.3484 19.1864 14.5312C19.5249 13.714 19.6134 12.8149 19.4409 11.9474C19.2683 11.0799 18.8424 10.283 18.217 9.65761C17.5915 9.03219 16.7947 8.60626 15.9272 8.43371C15.0597 8.26115 14.1605 8.34972 13.3434 8.68819C12.5262 9.02667 11.8278 9.59987 11.3364 10.3353C10.845 11.0707 10.5827 11.9353 10.5827 12.8198C10.5827 14.0059 11.0539 15.1434 11.8925 15.982C12.7312 16.8207 13.8687 17.2919 15.0548 17.2919ZM15.0548 10.5838C15.497 10.5838 15.9293 10.7149 16.297 10.9606C16.6647 11.2063 16.9513 11.5556 17.1206 11.9641C17.2898 12.3727 17.3341 12.8223 17.2478 13.2561C17.1615 13.6898 16.9486 14.0882 16.6359 14.4009C16.3231 14.7137 15.9247 14.9266 15.491 15.0129C15.0572 15.0992 14.6076 15.0549 14.1991 14.8856C13.7905 14.7164 13.4413 14.4298 13.1956 14.0621C12.9499 13.6944 12.8187 13.2621 12.8187 12.8198C12.8187 12.2268 13.0543 11.6581 13.4736 11.2387C13.893 10.8194 14.4617 10.5838 15.0548 10.5838Z" fill="#5274FF"/>
</svg>
