<svg width="51" height="48" viewBox="0 0 51 48" fill="none" xmlns="http://www.w3.org/2000/svg">
<ellipse cx="25.0435" cy="24" rx="25.0435" ry="24" fill="#F1F1F1"/>
<path d="M25.0438 30.2608C23.7517 30.2608 22.4886 29.8936 21.4142 29.2057C20.3399 28.5177 19.5025 27.5399 19.008 26.3959C18.5136 25.2519 18.3842 23.993 18.6363 22.7785C18.8884 21.564 19.5106 20.4484 20.4242 19.5728C21.3379 18.6972 22.502 18.101 23.7693 17.8594C25.0366 17.6178 26.3502 17.7418 27.5439 18.2157C28.7377 18.6895 29.758 19.492 30.4759 20.5216C31.1937 21.5512 31.5769 22.7617 31.5769 23.9999C31.5862 24.8246 31.4236 25.6428 31.0986 26.4064C30.7736 27.1701 30.2927 27.8638 29.6842 28.447C29.0757 29.0301 28.3518 29.491 27.5549 29.8024C26.7581 30.1139 25.9044 30.2698 25.0438 30.2608ZM25.0438 19.826C24.4683 19.8135 23.8961 19.9129 23.3617 20.1182C22.8274 20.3235 22.342 20.6305 21.9349 21.0206C21.5279 21.4107 21.2075 21.8759 20.9933 22.3879C20.779 22.9 20.6753 23.4484 20.6884 23.9999C20.6753 24.5515 20.779 25.0999 20.9933 25.612C21.2075 26.124 21.5279 26.5892 21.9349 26.9793C22.342 27.3694 22.8274 27.6764 23.3617 27.8817C23.8961 28.087 24.4683 28.1864 25.0438 28.1739C25.6194 28.1864 26.1916 28.087 26.7259 27.8817C27.2603 27.6764 27.7456 27.3694 28.1527 26.9793C28.5598 26.5892 28.8801 26.124 29.0944 25.612C29.3086 25.0999 29.4123 24.5515 29.3992 23.9999C29.4123 23.4484 29.3086 22.9 29.0944 22.3879C28.8801 21.8759 28.5598 21.4107 28.1527 21.0206C27.7456 20.6305 27.2603 20.3235 26.7259 20.1182C26.1916 19.9129 25.6194 19.8135 25.0438 19.826Z" fill="#5274FF"/>
<path d="M39.531 18.8285L36.9614 14.5628C36.7098 14.1445 36.3146 13.8229 35.8432 13.6528C35.3718 13.4826 34.8534 13.4746 34.3764 13.6299L31.7262 14.4887C31.2694 14.194 30.7921 13.9297 30.2976 13.6977L29.7499 11.0692C29.6512 10.5959 29.3844 10.1701 28.9949 9.86414C28.6053 9.5582 28.1172 9.39111 27.6136 9.3913H22.4742C21.9706 9.39111 21.4825 9.5582 21.093 9.86414C20.7035 10.1701 20.4366 10.5959 20.3379 11.0692L19.7902 13.6977C19.2902 13.9272 18.8074 14.1897 18.3453 14.4835L15.7103 13.6299C15.2337 13.4751 14.7158 13.4835 14.2448 13.6536C13.7739 13.8237 13.379 14.145 13.1276 14.5628L10.5579 18.8285C10.3062 19.2462 10.2132 19.7346 10.2948 20.2106C10.3764 20.6865 10.6275 21.1207 11.0054 21.4393L13.108 23.2101C13.0895 23.473 13.0666 23.7339 13.0666 24C13.0666 24.2692 13.0775 24.5353 13.0971 24.7993L11.0065 26.5607C10.6282 26.879 10.3767 27.3131 10.2947 27.789C10.2127 28.265 10.3053 28.7535 10.5568 29.1715L13.1265 33.4372C13.3779 33.8556 13.773 34.1775 14.2444 34.3478C14.7159 34.5181 15.2344 34.5264 15.7114 34.3711L18.3617 33.5113C18.8182 33.8065 19.2956 34.0712 19.7902 34.3033L20.3379 36.9308C20.4366 37.4041 20.7035 37.8299 21.093 38.1358C21.4825 38.4418 21.9706 38.6089 22.4742 38.6087H27.2216V36.5217H22.4742L21.7012 32.8174C20.6317 32.4367 19.639 31.8817 18.7667 31.177L15.0135 32.3937L12.4438 28.128L15.4109 25.6289C15.2079 24.5498 15.2053 23.4448 15.4033 22.3649L12.4438 19.872L15.0135 15.6063L18.7449 16.8167C19.6234 16.111 20.6239 15.558 21.7012 15.1826L22.4742 11.4783H27.6136L28.3867 15.1826C29.4561 15.5634 30.4488 16.1183 31.3211 16.8229L35.0744 15.6063L37.6441 19.872L34.5975 22.4306L36.0326 24L39.0813 21.4393C39.4596 21.121 39.7112 20.6869 39.7931 20.2109C39.8751 19.7349 39.7825 19.2464 39.531 18.8285Z" fill="#5274FF"/>
<path d="M32.6659 34.6226L29.8458 31.92L28.3105 33.3913L32.6659 37.5652L40.2879 30.2609L38.7526 28.7896L32.6659 34.6226Z" fill="#5274FF"/>
</svg>
