<svg width="48" height="48" viewBox="0 0 48 48" fill="none" xmlns="http://www.w3.org/2000/svg">
<circle cx="24" cy="24" r="24" fill="#F1F1F1"/>
<path d="M36.6658 16.9547C36.5363 16.6349 36.2885 16.3807 35.9766 16.2479C35.8231 16.1808 35.6584 16.1453 35.4916 16.1432H29.1098C28.7713 16.1432 28.4466 16.2811 28.2073 16.5265C27.9679 16.772 27.8334 17.1049 27.8334 17.452C27.8334 17.7991 27.9679 18.132 28.2073 18.3775C28.4466 18.623 28.7713 18.7608 29.1098 18.7608H32.4156L25.2807 26.0772L21.0815 21.7581C20.9629 21.6354 20.8217 21.538 20.6662 21.4716C20.5106 21.4051 20.3438 21.3709 20.1753 21.3709C20.0068 21.3709 19.84 21.4051 19.6844 21.4716C19.5289 21.538 19.3877 21.6354 19.2691 21.7581L11.6109 29.6111C11.4913 29.7327 11.3964 29.8775 11.3316 30.037C11.2668 30.1965 11.2334 30.3675 11.2334 30.5403C11.2334 30.7131 11.2668 30.8842 11.3316 31.0437C11.3964 31.2032 11.4913 31.3479 11.6109 31.4696C11.7296 31.5923 11.8708 31.6896 12.0263 31.7561C12.1818 31.8225 12.3487 31.8567 12.5172 31.8567C12.6856 31.8567 12.8525 31.8225 13.008 31.7561C13.1635 31.6896 13.3047 31.5923 13.4234 31.4696L20.1753 24.5328L24.3745 28.8519C24.4932 28.9746 24.6343 29.072 24.7899 29.1384C24.9454 29.2049 25.1122 29.2391 25.2807 29.2391C25.4492 29.2391 25.616 29.2049 25.7716 29.1384C25.9271 29.072 26.0683 28.9746 26.1869 28.8519L34.2152 20.6063V23.9962C34.2152 24.3433 34.3497 24.6762 34.589 24.9217C34.8284 25.1671 35.1531 25.305 35.4916 25.305C35.8301 25.305 36.1547 25.1671 36.3941 24.9217C36.6335 24.6762 36.7679 24.3433 36.7679 23.9962V17.452C36.7659 17.281 36.7312 17.112 36.6658 16.9547Z" fill="#5274FF"/>
</svg>
