<svg width="48" height="48" viewBox="0 0 48 48" fill="none" xmlns="http://www.w3.org/2000/svg">
<circle cx="24" cy="24" r="24" fill="#F1F1F1"/>
<path d="M39.5628 10.0628L37.9361 8.43608C37.8747 8.3747 37.798 8.34784 37.7174 8.34784C37.6369 8.34784 37.5601 8.37853 37.4987 8.43608L34.5791 11.3557C33.3099 10.4957 31.8114 10.0373 30.2783 10.0398C28.314 10.0398 26.3497 10.7879 24.8496 12.288L20.9402 16.1974C20.883 16.2551 20.851 16.333 20.851 16.4142C20.851 16.4954 20.883 16.5733 20.9402 16.631L31.3641 27.0549C31.4255 27.1163 31.5022 27.1431 31.5828 27.1431C31.6595 27.1431 31.7401 27.1124 31.8015 27.0549L35.7109 23.1454C38.3543 20.4982 38.665 16.4046 36.6432 13.4198L39.5628 10.5001C39.6817 10.3774 39.6817 10.1817 39.5628 10.0628ZM33.8617 21.3001L31.5828 23.579L24.4161 16.4123L26.695 14.1334C27.6503 13.1781 28.924 12.6486 30.2783 12.6486C31.6326 12.6486 32.9025 13.1742 33.8617 14.1334C34.817 15.0887 35.3464 16.3624 35.3464 17.7167C35.3464 19.071 34.817 20.3409 33.8617 21.3001ZM26.5646 25.3284C26.5069 25.2713 26.429 25.2393 26.3478 25.2393C26.2666 25.2393 26.1887 25.2713 26.131 25.3284L23.5759 27.8836L20.1115 24.4192L22.6704 21.8602C22.7894 21.7413 22.7894 21.5456 22.6704 21.4267L21.2739 20.0302C21.2163 19.973 21.1384 19.941 21.0572 19.941C20.976 19.941 20.8981 19.973 20.8404 20.0302L18.2814 22.5891L16.6317 20.9394C16.6031 20.9108 16.5689 20.8882 16.5314 20.873C16.4938 20.8578 16.4535 20.8504 16.413 20.8512C16.3363 20.8512 16.2557 20.8819 16.1943 20.9394L12.2887 24.8489C9.64533 27.4961 9.33457 31.5897 11.3564 34.5745L8.43682 37.4942C8.3797 37.5519 8.34766 37.6298 8.34766 37.7109C8.34766 37.7921 8.3797 37.87 8.43682 37.9277L10.0635 39.5544C10.1249 39.6158 10.2016 39.6426 10.2822 39.6426C10.3628 39.6426 10.4395 39.6119 10.5009 39.5544L13.4205 36.6348C14.7134 37.5134 16.2174 37.9507 17.7213 37.9507C19.6856 37.9507 21.6499 37.2026 23.15 35.7025L27.0595 31.793C27.1784 31.6741 27.1784 31.4784 27.0595 31.3595L25.4097 29.7098L27.9687 27.1508C28.0877 27.0319 28.0877 26.8362 27.9687 26.7173L26.5646 25.3284ZM21.3008 33.8609C20.8312 34.3329 20.2728 34.7071 19.6577 34.962C19.0427 35.2168 18.3832 35.3472 17.7174 35.3457C16.3631 35.3457 15.0932 34.8201 14.1341 33.8609C13.6621 33.3914 13.2879 32.8329 13.0331 32.2179C12.7782 31.6028 12.6478 30.9434 12.6494 30.2776C12.6494 28.9233 13.175 27.6534 14.1341 26.6943L16.413 24.4153L23.5797 31.582L21.3008 33.8609Z" fill="#5274FF"/>
</svg>
