<svg width="48" height="48" viewBox="0 0 48 48" fill="none" xmlns="http://www.w3.org/2000/svg">
<circle cx="24" cy="24" r="24" fill="#F1F1F1"/>
<path d="M29.25 27.5714C28.9715 27.5714 28.7045 27.6843 28.5075 27.8852C28.3106 28.0862 28.2 28.3587 28.2 28.6429C28.2 28.927 28.3106 29.1995 28.5075 29.4005C28.7045 29.6014 28.9715 29.7143 29.25 29.7143H32.75C33.0285 29.7143 33.2955 29.6014 33.4925 29.4005C33.6894 29.1995 33.8 28.927 33.8 28.6429C33.8 28.3587 33.6894 28.0862 33.4925 27.8852C33.2955 27.6843 33.0285 27.5714 32.75 27.5714H29.25ZM13.85 14C12.8289 14 11.8497 14.4139 11.1276 15.1507C10.4056 15.8874 10 16.8866 10 17.9286V30.0714C10 31.1133 10.4056 32.1126 11.1276 32.8493C11.8497 33.5861 12.8289 34 13.85 34H34.15C35.1711 34 36.1503 33.5861 36.8724 32.8493C37.5944 32.1126 38 31.1133 38 30.0714V17.9286C38 16.8866 37.5944 15.8874 36.8724 15.1507C36.1503 14.4139 35.1711 14 34.15 14H13.85ZM12.1 30.0714V22.5714H35.9V30.0714C35.9 31.0571 35.116 31.8571 34.15 31.8571H13.85C12.884 31.8571 12.1 31.0571 12.1 30.0714ZM12.1 20.4286V17.9286C12.1 16.9429 12.884 16.1429 13.85 16.1429H34.15C35.116 16.1429 35.9 16.9429 35.9 17.9286V20.4286H12.1Z" fill="#5274FF"/>
</svg>
