<svg width="48" height="48" viewBox="0 0 48 48" fill="none" xmlns="http://www.w3.org/2000/svg">
<circle cx="24" cy="24" r="24" fill="#F1F1F1"/>
<path d="M24.2732 25.5109H13.2607C12.5977 25.5109 11.9618 25.7743 11.493 26.2431C11.0241 26.7119 10.7607 27.3478 10.7607 28.0109V29.8859L10.767 30.1734C10.967 34.3159 15.4832 35.5109 18.8857 35.5109C20.1732 35.5109 21.622 35.3396 22.9345 34.9021C22.6427 34.3459 22.4174 33.7573 22.2632 33.1484C21.2964 33.4453 20.2932 33.6072 19.282 33.6296L18.8857 33.6359L18.4895 33.6296C16.9107 33.5809 15.4395 33.2446 14.407 32.6884C13.1982 32.0384 12.6357 31.1471 12.6357 29.8859V28.0096L12.6482 27.8834C12.6732 27.7637 12.7322 27.6539 12.8182 27.5671C12.9052 27.4813 13.015 27.4223 13.1345 27.3971L13.2607 27.3846H22.9257C23.2835 26.6995 23.7368 26.0686 24.272 25.5109H24.2732ZM24.5107 17.3859C24.5107 15.894 23.9181 14.4633 22.8632 13.4084C21.8083 12.3535 20.3776 11.7609 18.8857 11.7609C17.3939 11.7609 15.9632 12.3535 14.9083 13.4084C13.8534 14.4633 13.2607 15.894 13.2607 17.3859C13.2607 18.8777 13.8534 20.3084 14.9083 21.3633C15.9632 22.4182 17.3939 23.0109 18.8857 23.0109C20.3776 23.0109 21.8083 22.4182 22.8632 21.3633C23.9181 20.3084 24.5107 18.8777 24.5107 17.3859V17.3859ZM15.1357 17.3859C15.1357 15.3184 16.8182 13.6359 18.8857 13.6359C20.9532 13.6359 22.6357 15.3184 22.6357 17.3859C22.6357 19.4534 20.9532 21.1359 18.8857 21.1359C16.8182 21.1359 15.1357 19.4534 15.1357 17.3859ZM34.5107 18.6359C34.5107 17.4755 34.0498 16.3627 33.2293 15.5423C32.4089 14.7218 31.2961 14.2609 30.1357 14.2609C28.9754 14.2609 27.8626 14.7218 27.0421 15.5423C26.2217 16.3627 25.7607 17.4755 25.7607 18.6359C25.7607 19.7962 26.2217 20.909 27.0421 21.7295C27.8626 22.5499 28.9754 23.0109 30.1357 23.0109C31.2961 23.0109 32.4089 22.5499 33.2293 21.7295C34.0498 20.909 34.5107 19.7962 34.5107 18.6359V18.6359ZM27.6357 18.6359C27.6357 17.2571 28.757 16.1359 30.1357 16.1359C31.5145 16.1359 32.6357 17.2571 32.6357 18.6359C32.6357 20.0146 31.5145 21.1359 30.1357 21.1359C28.757 21.1359 27.6357 20.0146 27.6357 18.6359ZM37.0107 31.1359C37.0107 32.9592 36.2864 34.7079 34.9971 35.9972C33.7078 37.2865 31.9591 38.0109 30.1357 38.0109C28.3124 38.0109 26.5637 37.2865 25.2744 35.9972C23.9851 34.7079 23.2607 32.9592 23.2607 31.1359C23.2607 29.3125 23.9851 27.5638 25.2744 26.2745C26.5637 24.9852 28.3124 24.2609 30.1357 24.2609C31.9591 24.2609 33.7078 24.9852 34.9971 26.2745C36.2864 27.5638 37.0107 29.3125 37.0107 31.1359V31.1359ZM34.3282 28.1934C34.2702 28.1352 34.2012 28.089 34.1253 28.0575C34.0494 28.026 33.9679 28.0097 33.8857 28.0097C33.8035 28.0097 33.7221 28.026 33.6462 28.0575C33.5703 28.089 33.5013 28.1352 33.4432 28.1934L28.8857 32.7521L26.8282 30.6934C26.7109 30.576 26.5517 30.5101 26.3857 30.5101C26.2198 30.5101 26.0606 30.576 25.9432 30.6934C25.8259 30.8107 25.76 30.9699 25.76 31.1359C25.76 31.3018 25.8259 31.461 25.9432 31.5784L28.4432 34.0784C28.5013 34.1366 28.5703 34.1827 28.6462 34.2143C28.7221 34.2458 28.8035 34.262 28.8857 34.262C28.9679 34.262 29.0494 34.2458 29.1253 34.2143C29.2012 34.1827 29.2702 34.1366 29.3282 34.0784L34.3282 29.0784C34.3864 29.0203 34.4326 28.9513 34.4641 28.8754C34.4956 28.7995 34.5119 28.7181 34.5119 28.6359C34.5119 28.5537 34.4956 28.4723 34.4641 28.3963C34.4326 28.3204 34.3864 28.2514 34.3282 28.1934V28.1934Z" fill="#5274FF"/>
</svg>
