<svg width="20" height="20" viewBox="0 0 20 20" fill="none" xmlns="http://www.w3.org/2000/svg">
<path d="M10 0C8.02219 0 6.08879 0.58649 4.4443 1.6853C2.79981 2.78412 1.51809 4.3459 0.761209 6.17316C0.00433289 8.00043 -0.1937 10.0111 0.192152 11.9509C0.578004 13.8907 1.53041 15.6725 2.92894 17.0711C4.32746 18.4696 6.10929 19.422 8.0491 19.8078C9.98891 20.1937 11.9996 19.9957 13.8268 19.2388C15.6541 18.4819 17.2159 17.2002 18.3147 15.5557C19.4135 13.9112 20 11.9778 20 10C19.9968 7.34881 18.9422 4.80713 17.0675 2.93246C15.1929 1.05779 12.6512 0.00319228 10 0ZM10 18.6369C8.29178 18.6369 6.62192 18.1304 5.20159 17.1813C3.78126 16.2323 2.67425 14.8834 2.02054 13.3052C1.36683 11.727 1.19579 9.99042 1.52905 8.31502C1.8623 6.63962 2.68489 5.10067 3.89278 3.89278C5.10068 2.68489 6.63963 1.8623 8.31502 1.52904C9.99042 1.19579 11.727 1.36683 13.3052 2.02053C14.8834 2.67424 16.2323 3.78126 17.1813 5.20159C18.1304 6.62192 18.6369 8.29178 18.6369 10C18.6337 12.2897 17.7227 14.4846 16.1037 16.1037C14.4847 17.7227 12.2897 18.6337 10 18.6369Z" fill="#007CB6"/>
<path d="M10 11.5561C9.89863 11.5573 9.79807 11.5376 9.70466 11.4982C9.61125 11.4588 9.527 11.4004 9.45719 11.3269L4.20991 6.09167C4.06548 5.94307 3.98468 5.74401 3.98468 5.53679C3.98468 5.32956 4.06548 5.1305 4.20991 4.9819C4.35647 4.83824 4.55353 4.75777 4.75876 4.75777C4.964 4.75777 5.16105 4.83824 5.30762 4.9819L10 9.65018L12.5573 7.09288C12.6294 7.0208 12.715 6.96363 12.8091 6.92462C12.9033 6.88561 13.0042 6.86553 13.1062 6.86553C13.2081 6.86553 13.309 6.88561 13.4032 6.92462C13.4974 6.96363 13.5829 7.0208 13.655 7.09288C13.7271 7.16495 13.7843 7.25052 13.8233 7.34469C13.8623 7.43887 13.8824 7.5398 13.8824 7.64173C13.8824 7.74366 13.8623 7.8446 13.8233 7.93877C13.7843 8.03294 13.7271 8.11851 13.655 8.19059L10.5549 11.3269C10.4828 11.4008 10.3964 11.4592 10.301 11.4986C10.2056 11.538 10.1032 11.5576 10 11.5561Z" fill="#007CB6"/>
</svg>
