<svg width="24" height="24" viewBox="0 0 24 24" fill="none" xmlns="http://www.w3.org/2000/svg">
<path fill-rule="evenodd" clip-rule="evenodd" d="M4 15.611V16H8C8.55228 16 9 16.3541 9 16.9064C9 17.4587 8.55228 18 8 18H2.5923C2.51503 18.0013 2.43825 17.9878 2.36646 17.9601C2.29466 17.9324 2.22929 17.8912 2.17416 17.8389C2.11903 17.7865 2.07524 17.724 2.04536 17.6551C2.01547 17.5862 2.00008 17.5123 2.00009 17.4375V4.5726C1.99869 4.49704 2.01304 4.42198 2.0423 4.35191C2.07157 4.28183 2.11514 4.21818 2.17041 4.16474C2.22568 4.11131 2.29153 4.06919 2.36402 4.0409C2.4365 4.01261 2.51414 3.99873 2.5923 4.00009H17.439C17.5896 4.0053 17.7323 4.06685 17.837 4.17177C17.9417 4.27669 18.0001 4.4168 18 4.56256V5.69346C18 5.86276 17.8628 6 17.6935 6H16.161H4V8H10.5C11.0523 8 11.5 8.49833 11.5 9.05061C11.5 9.6029 11.0523 10 10.5 10H4V12H9C9.55228 12 10 12.4912 10 13.0434C10 13.5957 9.55228 14 9 14H4V14.476V15.611ZM20.8 12.7999C20.8 13.8703 20.4496 14.8589 19.8572 15.6572C20.2351 15.9654 20.5759 16.3194 20.8707 16.7126C21.4592 17.4975 21.8433 18.4102 21.9935 19.3701C22.0448 19.6977 21.7851 19.9813 21.4506 19.999C21.1161 20.0168 20.8343 19.7616 20.7748 19.4355C20.6425 18.7109 20.3431 18.0234 19.8966 17.4278C19.6437 17.0906 19.3487 16.7895 19.0201 16.5309C18.1953 17.1994 17.1444 17.5998 16 17.5998C14.8555 17.5998 13.8046 17.1993 12.9798 16.5308C12.6376 16.8001 12.332 17.1154 12.0726 17.4692C11.6429 18.0553 11.3543 18.7278 11.2252 19.4353C11.1657 19.7615 10.8838 20.0166 10.5494 19.9989C10.2149 19.9811 9.95521 19.6975 10.0065 19.37C10.1534 18.4314 10.5238 17.5378 11.0907 16.7644C11.3941 16.3506 11.748 15.979 12.1427 15.6571C11.5504 14.8588 11.2 13.8703 11.2 12.7999C11.2 10.1489 13.349 7.9999 16 7.9999C18.651 7.9999 20.8 10.1489 20.8 12.7999ZM12.448 12.7999C12.448 14.7616 14.0383 16.3519 16 16.3519C17.9617 16.3519 19.552 14.7616 19.552 12.7999C19.552 10.8382 17.9617 9.24789 16 9.24789C14.0383 9.24789 12.448 10.8382 12.448 12.7999Z" fill="#007CB6"/>
</svg>
