<svg width="477" height="668" viewBox="0 0 477 668" fill="none" xmlns="http://www.w3.org/2000/svg">
<path d="M179.328 637.072C180.832 637.072 182.136 637.336 183.24 637.864C184.36 638.376 185.216 639.12 185.808 640.096C186.4 641.072 186.696 642.224 186.696 643.552C186.696 644.864 186.4 646 185.808 646.96C185.216 647.92 184.36 648.656 183.24 649.168C182.136 649.68 180.832 649.936 179.328 649.936H176.496V655H173.4V637.072H179.328ZM179.304 647.488C180.552 647.488 181.56 647.152 182.328 646.48C183.096 645.808 183.48 644.832 183.48 643.552C183.48 642.288 183.088 641.32 182.304 640.648C181.536 639.96 180.536 639.616 179.304 639.616H176.496V647.488H179.304ZM195.071 641.584C196.447 641.584 197.647 641.888 198.671 642.496C199.711 643.088 200.503 643.912 201.047 644.968C201.591 646.008 201.863 647.168 201.863 648.448C201.863 649.728 201.591 650.896 201.047 651.952C200.503 652.992 199.711 653.816 198.671 654.424C197.647 655.016 196.447 655.312 195.071 655.312C193.679 655.312 192.471 655.016 191.447 654.424C190.423 653.816 189.631 652.992 189.071 651.952C188.527 650.912 188.255 649.744 188.255 648.448C188.255 647.152 188.527 645.984 189.071 644.944C189.631 643.904 190.423 643.088 191.447 642.496C192.471 641.888 193.679 641.584 195.071 641.584ZM195.071 644.344C193.919 644.344 192.999 644.72 192.311 645.472C191.623 646.208 191.279 647.2 191.279 648.448C191.279 649.696 191.623 650.696 192.311 651.448C192.999 652.184 193.919 652.552 195.071 652.552C196.207 652.552 197.119 652.184 197.807 651.448C198.495 650.696 198.839 649.696 198.839 648.448C198.839 647.2 198.495 646.208 197.807 645.472C197.119 644.72 196.207 644.344 195.071 644.344ZM212.432 641.872H215.312V655H212.432V653.32C212.048 653.928 211.536 654.416 210.896 654.784C210.256 655.136 209.512 655.312 208.664 655.312C207.224 655.312 206.064 654.784 205.184 653.728C204.32 652.656 203.888 651.16 203.888 649.24V641.872H206.768V648.712C206.768 649.912 207.016 650.848 207.512 651.52C208.024 652.176 208.704 652.504 209.552 652.504C210.32 652.504 210.968 652.216 211.496 651.64C212.04 651.048 212.352 650.264 212.432 649.288V641.872ZM225.703 641.584C226.871 641.584 227.903 641.856 228.799 642.4C229.695 642.944 230.391 643.736 230.887 644.776C231.384 645.816 231.632 647.04 231.632 648.448C231.632 649.856 231.384 651.08 230.887 652.12C230.391 653.144 229.695 653.936 228.799 654.496C227.903 655.04 226.871 655.312 225.703 655.312C223.735 655.312 222.263 654.584 221.287 653.128V659.56H218.407V641.872H221.287V643.744C221.751 643.056 222.351 642.528 223.087 642.16C223.839 641.776 224.711 641.584 225.703 641.584ZM224.935 652.816C226.023 652.816 226.903 652.424 227.575 651.64C228.263 650.84 228.607 649.792 228.607 648.496C228.607 647.2 228.263 646.16 227.575 645.376C226.903 644.592 226.023 644.2 224.935 644.2C223.831 644.2 222.943 644.584 222.271 645.352C221.615 646.12 221.287 647.168 221.287 648.496C221.287 649.824 221.615 650.88 222.271 651.664C222.943 652.432 223.831 652.816 224.935 652.816ZM244.004 641.872H246.884V655H244.004V652.96C243.54 653.696 242.916 654.272 242.132 654.688C241.348 655.104 240.444 655.312 239.42 655.312C238.14 655.312 237.028 655.024 236.084 654.448C235.156 653.872 234.436 653.064 233.924 652.024C233.428 650.984 233.18 649.792 233.18 648.448C233.18 647.104 233.428 645.912 233.924 644.872C234.436 643.832 235.156 643.024 236.084 642.448C237.028 641.872 238.14 641.584 239.42 641.584C240.444 641.584 241.348 641.792 242.132 642.208C242.916 642.608 243.54 643.176 244.004 643.912V641.872ZM240.116 652.672C241.3 652.672 242.244 652.288 242.948 651.52C243.652 650.752 244.004 649.728 244.004 648.448C244.004 647.168 243.652 646.144 242.948 645.376C242.244 644.608 241.3 644.224 240.116 644.224C238.932 644.224 237.98 644.608 237.26 645.376C236.556 646.144 236.204 647.168 236.204 648.448C236.204 649.728 236.556 650.752 237.26 651.52C237.98 652.288 238.932 652.672 240.116 652.672ZM257.065 641.584C258.569 641.584 259.769 642.12 260.665 643.192C261.577 644.248 262.033 645.728 262.033 647.632V655H259.153V648.16C259.153 646.96 258.881 646.032 258.337 645.376C257.809 644.704 257.097 644.368 256.201 644.368C255.289 644.368 254.545 644.712 253.969 645.4C253.393 646.088 253.105 647 253.105 648.136V655H250.225V641.872H253.105V643.648C253.473 643.024 254.001 642.528 254.689 642.16C255.377 641.776 256.169 641.584 257.065 641.584ZM270.543 652.792C271.391 652.792 272.111 652.536 272.703 652.024C273.311 651.512 273.655 650.88 273.735 650.128H276.783C276.735 651.008 276.471 651.824 275.991 652.576C275.511 653.312 274.863 653.928 274.047 654.424C273.231 654.904 272.303 655.192 271.263 655.288L271.047 655.96C271.943 655.976 272.639 656.2 273.135 656.632C273.631 657.064 273.879 657.664 273.879 658.432C273.879 659.232 273.559 659.856 272.919 660.304C272.295 660.768 271.455 661 270.399 661H268.383V659.464H269.895C270.999 659.464 271.551 659.104 271.551 658.384C271.551 657.696 271.031 657.352 269.991 657.352H268.719L269.487 655.24C267.759 655.016 266.399 654.304 265.407 653.104C264.415 651.888 263.919 650.336 263.919 648.448C263.919 647.056 264.183 645.848 264.711 644.824C265.255 643.784 266.023 642.984 267.015 642.424C268.023 641.864 269.199 641.584 270.543 641.584C271.695 641.584 272.735 641.816 273.663 642.28C274.591 642.744 275.327 643.376 275.871 644.176C276.431 644.96 276.735 645.824 276.783 646.768H273.735C273.655 646.016 273.311 645.384 272.703 644.872C272.111 644.36 271.391 644.104 270.543 644.104C269.471 644.104 268.599 644.496 267.927 645.28C267.271 646.048 266.943 647.104 266.943 648.448C266.943 649.776 267.271 650.832 267.927 651.616C268.599 652.4 269.471 652.792 270.543 652.792ZM289.117 641.872H291.997V655H289.117V652.96C288.653 653.696 288.029 654.272 287.245 654.688C286.461 655.104 285.557 655.312 284.533 655.312C283.253 655.312 282.141 655.024 281.197 654.448C280.269 653.872 279.549 653.064 279.037 652.024C278.541 650.984 278.293 649.792 278.293 648.448C278.293 647.104 278.541 645.912 279.037 644.872C279.549 643.832 280.269 643.024 281.197 642.448C282.141 641.872 283.253 641.584 284.533 641.584C285.557 641.584 286.461 641.792 287.245 642.208C288.029 642.608 288.653 643.176 289.117 643.912V641.872ZM285.229 652.672C286.413 652.672 287.357 652.288 288.061 651.52C288.765 650.752 289.117 649.728 289.117 648.448C289.117 647.168 288.765 646.144 288.061 645.376C287.357 644.608 286.413 644.224 285.229 644.224C284.045 644.224 283.093 644.608 282.373 645.376C281.669 646.144 281.317 647.168 281.317 648.448C281.317 649.728 281.669 650.752 282.373 651.52C283.093 652.288 284.045 652.672 285.229 652.672Z" fill="white"/>
<path d="M363.672 593.832C365.24 593.832 366.616 594.152 367.8 594.792C369 595.416 369.92 596.24 370.56 597.264C371.2 598.288 371.544 599.384 371.592 600.552H368.304C368.24 599.896 368.016 599.28 367.632 598.704C367.248 598.128 366.712 597.664 366.024 597.312C365.352 596.96 364.568 596.784 363.672 596.784C362.712 596.784 361.848 597.024 361.08 597.504C360.328 597.984 359.728 598.696 359.28 599.64C358.848 600.584 358.632 601.72 358.632 603.048C358.632 604.36 358.848 605.488 359.28 606.432C359.728 607.376 360.336 608.096 361.104 608.592C361.872 609.072 362.728 609.312 363.672 609.312C364.568 609.312 365.352 609.136 366.024 608.784C366.712 608.432 367.248 607.968 367.632 607.392C368.016 606.816 368.24 606.2 368.304 605.544H371.592C371.544 606.696 371.2 607.784 370.56 608.808C369.92 609.832 369.008 610.664 367.824 611.304C366.64 611.928 365.272 612.24 363.72 612.24C362.088 612.24 360.648 611.88 359.4 611.16C358.152 610.44 357.176 609.392 356.472 608.016C355.784 606.624 355.44 604.968 355.44 603.048C355.44 601.128 355.784 599.48 356.472 598.104C357.16 596.712 358.128 595.656 359.376 594.936C360.624 594.2 362.056 593.832 363.672 593.832ZM380.367 594.072C382.367 594.072 384.087 594.432 385.527 595.152C386.967 595.856 388.063 596.88 388.815 598.224C389.583 599.568 389.967 601.176 389.967 603.048C389.967 604.92 389.583 606.528 388.815 607.872C388.063 609.216 386.967 610.24 385.527 610.944C384.087 611.648 382.367 612 380.367 612H375.063V594.072H380.367ZM380.223 609.144C382.255 609.144 383.847 608.616 384.999 607.56C386.167 606.488 386.751 604.984 386.751 603.048C386.751 601.096 386.167 599.592 384.999 598.536C383.847 597.48 382.255 596.952 380.223 596.952H378.159V609.144H380.223ZM403.626 602.256C405.866 603.008 406.986 604.52 406.986 606.792C406.986 608.488 406.402 609.784 405.234 610.68C404.082 611.56 402.49 612 400.458 612H393.186V594.072H400.17C401.93 594.072 403.306 594.464 404.298 595.248C405.29 596.032 405.786 597.144 405.786 598.584C405.786 599.4 405.602 600.12 405.234 600.744C404.866 601.368 404.33 601.872 403.626 602.256ZM396.282 596.784V601.008H399.93C400.698 601.008 401.37 600.848 401.946 600.528C402.522 600.192 402.81 599.664 402.81 598.944C402.81 598.176 402.538 597.624 401.994 597.288C401.45 596.952 400.77 596.784 399.954 596.784H396.282ZM400.098 609.048C401.17 609.048 402.05 608.848 402.738 608.448C403.426 608.048 403.77 607.432 403.77 606.6C403.77 605.704 403.418 605.04 402.714 604.608C402.026 604.176 401.154 603.96 400.098 603.96H396.282V609.048H400.098ZM425.847 594.816V609.288H429.999V612H417.855V609.288H422.967V597.528H418.071V594.816H425.847ZM444.848 606.24H447.416V608.952H444.848V612H441.968V608.952H433.448V606.24L441.968 594.816H444.848V606.24ZM441.968 599.616L437.048 606.24H441.968V599.616ZM452.977 594.504C454.177 594.504 455.145 594.88 455.881 595.632C456.633 596.384 457.009 597.36 457.009 598.56C457.009 599.744 456.633 600.712 455.881 601.464C455.145 602.216 454.177 602.592 452.977 602.592C451.777 602.592 450.801 602.216 450.049 601.464C449.297 600.712 448.921 599.744 448.921 598.56C448.921 597.376 449.297 596.408 450.049 595.656C450.801 594.888 451.777 594.504 452.977 594.504ZM449.929 612L463.609 594.816H466.657L452.977 612H449.929ZM452.977 596.568C452.417 596.568 451.945 596.76 451.561 597.144C451.177 597.512 450.985 597.976 450.985 598.536C450.985 599.096 451.177 599.568 451.561 599.952C451.945 600.336 452.417 600.528 452.977 600.528C453.505 600.528 453.961 600.336 454.345 599.952C454.745 599.568 454.945 599.096 454.945 598.536C454.945 597.992 454.745 597.528 454.345 597.144C453.961 596.76 453.505 596.568 452.977 596.568ZM463.945 604.224C465.145 604.224 466.113 604.6 466.849 605.352C467.601 606.088 467.977 607.056 467.977 608.256C467.977 609.44 467.601 610.416 466.849 611.184C466.113 611.936 465.145 612.312 463.945 612.312C463.161 612.312 462.457 612.144 461.833 611.808C461.225 611.456 460.745 610.976 460.393 610.368C460.057 609.744 459.889 609.04 459.889 608.256C459.889 607.072 460.265 606.104 461.017 605.352C461.769 604.6 462.745 604.224 463.945 604.224ZM463.945 606.264C463.385 606.264 462.913 606.456 462.529 606.84C462.145 607.208 461.953 607.672 461.953 608.232C461.953 608.808 462.145 609.288 462.529 609.672C462.913 610.056 463.385 610.248 463.945 610.248C464.489 610.248 464.953 610.056 465.337 609.672C465.721 609.272 465.913 608.792 465.913 608.232C465.913 607.688 465.713 607.224 465.313 606.84C464.929 606.456 464.473 606.264 463.945 606.264Z" fill="white"/>
<path d="M271.687 9.816V24.288H275.839V27H263.695V24.288H268.807V12.528H263.911V9.816H271.687ZM290.688 21.24H293.256V23.952H290.688V27H287.808V23.952H279.288V21.24L287.808 9.816H290.688V21.24ZM287.808 14.616L282.888 21.24H287.808V14.616ZM298.818 9.504C300.018 9.504 300.986 9.88 301.722 10.632C302.474 11.384 302.85 12.36 302.85 13.56C302.85 14.744 302.474 15.712 301.722 16.464C300.986 17.216 300.018 17.592 298.818 17.592C297.618 17.592 296.642 17.216 295.89 16.464C295.138 15.712 294.762 14.744 294.762 13.56C294.762 12.376 295.138 11.408 295.89 10.656C296.642 9.888 297.618 9.504 298.818 9.504ZM295.77 27L309.45 9.816H312.498L298.818 27H295.77ZM298.818 11.568C298.258 11.568 297.786 11.76 297.402 12.144C297.018 12.512 296.826 12.976 296.826 13.536C296.826 14.096 297.018 14.568 297.402 14.952C297.786 15.336 298.258 15.528 298.818 15.528C299.346 15.528 299.802 15.336 300.186 14.952C300.586 14.568 300.786 14.096 300.786 13.536C300.786 12.992 300.586 12.528 300.186 12.144C299.802 11.76 299.346 11.568 298.818 11.568ZM309.786 19.224C310.986 19.224 311.954 19.6 312.69 20.352C313.442 21.088 313.818 22.056 313.818 23.256C313.818 24.44 313.442 25.416 312.69 26.184C311.954 26.936 310.986 27.312 309.786 27.312C309.002 27.312 308.298 27.144 307.674 26.808C307.066 26.456 306.586 25.976 306.234 25.368C305.898 24.744 305.73 24.04 305.73 23.256C305.73 22.072 306.106 21.104 306.858 20.352C307.61 19.6 308.586 19.224 309.786 19.224ZM309.786 21.264C309.226 21.264 308.754 21.456 308.37 21.84C307.986 22.208 307.794 22.672 307.794 23.232C307.794 23.808 307.986 24.288 308.37 24.672C308.754 25.056 309.226 25.248 309.786 25.248C310.33 25.248 310.794 25.056 311.178 24.672C311.562 24.272 311.754 23.792 311.754 23.232C311.754 22.688 311.554 22.224 311.154 21.84C310.77 21.456 310.314 21.264 309.786 21.264ZM333.128 13.872H336.008V27H333.128V24.96C332.664 25.696 332.04 26.272 331.256 26.688C330.472 27.104 329.568 27.312 328.544 27.312C327.264 27.312 326.152 27.024 325.208 26.448C324.28 25.872 323.56 25.064 323.048 24.024C322.552 22.984 322.304 21.792 322.304 20.448C322.304 19.104 322.552 17.912 323.048 16.872C323.56 15.832 324.28 15.024 325.208 14.448C326.152 13.872 327.264 13.584 328.544 13.584C329.568 13.584 330.472 13.792 331.256 14.208C332.04 14.608 332.664 15.176 333.128 15.912V13.872ZM329.24 24.672C330.424 24.672 331.368 24.288 332.072 23.52C332.776 22.752 333.128 21.728 333.128 20.448C333.128 19.168 332.776 18.144 332.072 17.376C331.368 16.608 330.424 16.224 329.24 16.224C328.056 16.224 327.104 16.608 326.384 17.376C325.68 18.144 325.328 19.168 325.328 20.448C325.328 21.728 325.68 22.752 326.384 23.52C327.104 24.288 328.056 24.672 329.24 24.672ZM341.085 23.112C341.677 23.112 342.173 23.312 342.573 23.712C342.973 24.112 343.173 24.608 343.173 25.2C343.173 25.776 342.965 26.272 342.549 26.688C342.149 27.104 341.661 27.312 341.085 27.312C340.509 27.312 340.013 27.104 339.597 26.688C339.197 26.272 338.997 25.776 338.997 25.2C338.997 24.608 339.197 24.112 339.597 23.712C340.013 23.312 340.509 23.112 341.085 23.112ZM355.406 13.872H358.286V27H355.406V24.96C354.942 25.696 354.318 26.272 353.534 26.688C352.75 27.104 351.846 27.312 350.822 27.312C349.542 27.312 348.43 27.024 347.486 26.448C346.558 25.872 345.838 25.064 345.326 24.024C344.83 22.984 344.582 21.792 344.582 20.448C344.582 19.104 344.83 17.912 345.326 16.872C345.838 15.832 346.558 15.024 347.486 14.448C348.43 13.872 349.542 13.584 350.822 13.584C351.846 13.584 352.75 13.792 353.534 14.208C354.318 14.608 354.942 15.176 355.406 15.912V13.872ZM351.518 24.672C352.702 24.672 353.646 24.288 354.35 23.52C355.054 22.752 355.406 21.728 355.406 20.448C355.406 19.168 355.054 18.144 354.35 17.376C353.646 16.608 352.702 16.224 351.518 16.224C350.334 16.224 349.382 16.608 348.662 17.376C347.958 18.144 347.606 19.168 347.606 20.448C347.606 21.728 347.958 22.752 348.662 23.52C349.382 24.288 350.334 24.672 351.518 24.672ZM363.364 23.112C363.956 23.112 364.452 23.312 364.852 23.712C365.252 24.112 365.452 24.608 365.452 25.2C365.452 25.776 365.244 26.272 364.828 26.688C364.428 27.104 363.94 27.312 363.364 27.312C362.788 27.312 362.292 27.104 361.876 26.688C361.476 26.272 361.276 25.776 361.276 25.2C361.276 24.608 361.476 24.112 361.876 23.712C362.292 23.312 362.788 23.112 363.364 23.112Z" fill="white"/>
<path d="M0 598.053L116.5 645L233 598.053L116.5 551.106L0 598.053Z" fill="#CF4300"/>
<path d="M39.4873 426.031L116.521 457.087L193.555 426.031L116.521 395L39.4873 426.031Z" fill="#D1D0D0"/>
<path d="M39.4873 426.031V598.128L116.521 629.184V457.087L39.4873 426.031Z" fill="#E8E4E4"/>
<path d="M193.555 426.031V598.128L116.521 629.184V457.087L193.555 426.031Z" fill="#C4C4C4"/>
<g clip-path="url(#clip0_1042_81)">
<path d="M199 555.053L315.5 602L432 555.053L315.5 508.106L199 555.053Z" fill="#CF4300"/>
<path d="M238.487 96.031L315.521 127.087L392.555 96.031L315.521 65L238.487 96.031Z" fill="#33189B"/>
<path d="M238.487 96.5V555.128L315.521 586.184V126L238.487 96.5Z" fill="#4322C0"/>
<path d="M392.555 95.5V555.128L315.521 586.184V125.5L392.555 95.5Z" fill="#190564"/>
</g>
<path d="M64.872 364.816H77.496V367.528H77.472L77.496 367.576L70.56 382H67.224L74.28 367.528H64.872V364.816ZM82.3371 378.712C82.9611 378.712 83.4571 378.944 83.8251 379.408C84.1931 379.872 84.3771 380.512 84.3771 381.328C84.3771 382.32 84.1451 383.144 83.6811 383.8C83.2171 384.456 82.5211 384.92 81.5931 385.192L81.1131 385.336L80.6091 383.896L81.0411 383.752C81.5371 383.592 81.9211 383.384 82.1931 383.128C82.4651 382.872 82.6491 382.552 82.7451 382.168C82.6011 382.216 82.4331 382.24 82.2411 382.24C81.7131 382.24 81.2891 382.08 80.9691 381.76C80.6651 381.424 80.5131 381 80.5131 380.488C80.5131 379.96 80.6811 379.536 81.0171 379.216C81.3531 378.88 81.7931 378.712 82.3371 378.712ZM94.2832 370.48C95.4192 370.48 96.4272 370.72 97.3072 371.2C98.1872 371.68 98.8672 372.376 99.3472 373.288C99.8432 374.184 100.091 375.248 100.091 376.48C100.091 377.648 99.8272 378.68 99.2992 379.576C98.7712 380.456 98.0192 381.144 97.0432 381.64C96.0832 382.12 94.9792 382.36 93.7312 382.36C92.4032 382.36 91.2512 382.096 90.2752 381.568C89.2992 381.024 88.5472 380.256 88.0192 379.264C87.4912 378.256 87.2272 377.072 87.2272 375.712V372.832C87.2272 370.32 87.8672 368.36 89.1472 366.952C90.4432 365.528 92.2992 364.816 94.7152 364.816H98.3872V367.528H94.5712C93.2432 367.528 92.1872 367.944 91.4032 368.776C90.6192 369.608 90.2192 370.696 90.2032 372.04C91.0832 371 92.4432 370.48 94.2832 370.48ZM93.6832 379.576C94.7232 379.576 95.5552 379.288 96.1792 378.712C96.8032 378.12 97.1152 377.336 97.1152 376.36C97.1152 375.416 96.8032 374.664 96.1792 374.104C95.5552 373.528 94.7232 373.24 93.6832 373.24C92.6432 373.24 91.8112 373.528 91.1872 374.104C90.5632 374.664 90.2512 375.416 90.2512 376.36C90.2512 377.336 90.5632 378.12 91.1872 378.712C91.8112 379.288 92.6432 379.576 93.6832 379.576ZM108.532 379.288H116.068V382H103.876V379.504L110.668 373.72C111.436 373.064 111.98 372.456 112.3 371.896C112.62 371.32 112.78 370.704 112.78 370.048C112.78 369.264 112.524 368.616 112.012 368.104C111.5 367.576 110.796 367.312 109.9 367.312C109.004 367.312 108.276 367.6 107.716 368.176C107.156 368.736 106.876 369.464 106.876 370.36H103.876C103.876 369.224 104.116 368.216 104.596 367.336C105.092 366.456 105.796 365.768 106.708 365.272C107.636 364.76 108.724 364.504 109.972 364.504C111.172 364.504 112.204 364.744 113.068 365.224C113.948 365.688 114.62 366.336 115.084 367.168C115.548 368 115.78 368.96 115.78 370.048C115.78 371.136 115.516 372.136 114.988 373.048C114.46 373.944 113.556 374.944 112.276 376.048L108.532 379.288ZM122.589 364.504C123.789 364.504 124.757 364.88 125.493 365.632C126.245 366.384 126.621 367.36 126.621 368.56C126.621 369.744 126.245 370.712 125.493 371.464C124.757 372.216 123.789 372.592 122.589 372.592C121.389 372.592 120.413 372.216 119.661 371.464C118.909 370.712 118.533 369.744 118.533 368.56C118.533 367.376 118.909 366.408 119.661 365.656C120.413 364.888 121.389 364.504 122.589 364.504ZM119.541 382L133.221 364.816H136.269L122.589 382H119.541ZM122.589 366.568C122.029 366.568 121.557 366.76 121.173 367.144C120.789 367.512 120.597 367.976 120.597 368.536C120.597 369.096 120.789 369.568 121.173 369.952C121.557 370.336 122.029 370.528 122.589 370.528C123.117 370.528 123.573 370.336 123.957 369.952C124.357 369.568 124.557 369.096 124.557 368.536C124.557 367.992 124.357 367.528 123.957 367.144C123.573 366.76 123.117 366.568 122.589 366.568ZM133.557 374.224C134.757 374.224 135.725 374.6 136.461 375.352C137.213 376.088 137.589 377.056 137.589 378.256C137.589 379.44 137.213 380.416 136.461 381.184C135.725 381.936 134.757 382.312 133.557 382.312C132.773 382.312 132.069 382.144 131.445 381.808C130.837 381.456 130.357 380.976 130.005 380.368C129.669 379.744 129.501 379.04 129.501 378.256C129.501 377.072 129.877 376.104 130.629 375.352C131.381 374.6 132.357 374.224 133.557 374.224ZM133.557 376.264C132.997 376.264 132.525 376.456 132.141 376.84C131.757 377.208 131.565 377.672 131.565 378.232C131.565 378.808 131.757 379.288 132.141 379.672C132.525 380.056 132.997 380.248 133.557 380.248C134.101 380.248 134.565 380.056 134.949 379.672C135.333 379.272 135.525 378.792 135.525 378.232C135.525 377.688 135.325 377.224 134.925 376.84C134.541 376.456 134.085 376.264 133.557 376.264ZM156.9 368.872H159.78V382H156.9V379.96C156.436 380.696 155.812 381.272 155.028 381.688C154.244 382.104 153.34 382.312 152.316 382.312C151.036 382.312 149.924 382.024 148.98 381.448C148.052 380.872 147.332 380.064 146.82 379.024C146.324 377.984 146.076 376.792 146.076 375.448C146.076 374.104 146.324 372.912 146.82 371.872C147.332 370.832 148.052 370.024 148.98 369.448C149.924 368.872 151.036 368.584 152.316 368.584C153.34 368.584 154.244 368.792 155.028 369.208C155.812 369.608 156.436 370.176 156.9 370.912V368.872ZM153.012 379.672C154.196 379.672 155.14 379.288 155.844 378.52C156.548 377.752 156.9 376.728 156.9 375.448C156.9 374.168 156.548 373.144 155.844 372.376C155.14 371.608 154.196 371.224 153.012 371.224C151.828 371.224 150.876 371.608 150.156 372.376C149.452 373.144 149.1 374.168 149.1 375.448C149.1 376.728 149.452 377.752 150.156 378.52C150.876 379.288 151.828 379.672 153.012 379.672ZM164.857 378.112C165.449 378.112 165.945 378.312 166.345 378.712C166.745 379.112 166.945 379.608 166.945 380.2C166.945 380.776 166.737 381.272 166.321 381.688C165.921 382.104 165.433 382.312 164.857 382.312C164.281 382.312 163.785 382.104 163.369 381.688C162.969 381.272 162.769 380.776 162.769 380.2C162.769 379.608 162.969 379.112 163.369 378.712C163.785 378.312 164.281 378.112 164.857 378.112ZM179.178 368.872H182.058V382H179.178V379.96C178.714 380.696 178.09 381.272 177.306 381.688C176.522 382.104 175.618 382.312 174.594 382.312C173.314 382.312 172.202 382.024 171.258 381.448C170.33 380.872 169.61 380.064 169.098 379.024C168.602 377.984 168.354 376.792 168.354 375.448C168.354 374.104 168.602 372.912 169.098 371.872C169.61 370.832 170.33 370.024 171.258 369.448C172.202 368.872 173.314 368.584 174.594 368.584C175.618 368.584 176.522 368.792 177.306 369.208C178.09 369.608 178.714 370.176 179.178 370.912V368.872ZM175.29 379.672C176.474 379.672 177.418 379.288 178.122 378.52C178.826 377.752 179.178 376.728 179.178 375.448C179.178 374.168 178.826 373.144 178.122 372.376C177.418 371.608 176.474 371.224 175.29 371.224C174.106 371.224 173.154 371.608 172.434 372.376C171.73 373.144 171.378 374.168 171.378 375.448C171.378 376.728 171.73 377.752 172.434 378.52C173.154 379.288 174.106 379.672 175.29 379.672ZM187.136 378.112C187.728 378.112 188.224 378.312 188.624 378.712C189.024 379.112 189.224 379.608 189.224 380.2C189.224 380.776 189.016 381.272 188.6 381.688C188.2 382.104 187.712 382.312 187.136 382.312C186.56 382.312 186.064 382.104 185.648 381.688C185.248 381.272 185.048 380.776 185.048 380.2C185.048 379.608 185.248 379.112 185.648 378.712C186.064 378.312 186.56 378.112 187.136 378.112Z" fill="white"/>
<defs>
<clipPath id="clip0_1042_81">
<rect width="233" height="537" fill="white" transform="translate(199 65)"/>
</clipPath>
</defs>
</svg>
 