<svg width="20" height="28" viewBox="0 0 20 28" fill="none" xmlns="http://www.w3.org/2000/svg">
                <path
                    d="M7.49048 25.5875C7.82629 25.5875 8.15456 25.489 8.43377 25.3047C8.71299 25.1203 8.93061 24.8583 9.05912 24.5517C9.18762 24.2451 9.22125 23.9077 9.15574 23.5823C9.09022 23.2568 8.92851 22.9578 8.69106 22.7232C8.45361 22.4885 8.15108 22.3287 7.82172 22.264C7.49236 22.1992 7.15098 22.2324 6.84073 22.3594C6.53048 22.4864 6.26531 22.7015 6.07875 22.9774C5.89218 23.2533 5.7926 23.5777 5.7926 23.9096C5.7926 24.3546 5.97149 24.7814 6.2899 25.096C6.60831 25.4107 7.04018 25.5875 7.49048 25.5875ZM7.49048 23.2804C7.57514 23.2787 7.65928 23.2938 7.73797 23.3247C7.81667 23.3556 7.88834 23.4017 7.94879 23.4603C8.00924 23.5188 8.05726 23.5888 8.09004 23.6659C8.12281 23.7431 8.13969 23.8259 8.13967 23.9096C8.14215 24.037 8.10619 24.1622 8.03638 24.2693C7.96657 24.3764 7.86607 24.4606 7.74769 24.511C7.6293 24.5615 7.4984 24.5759 7.37166 24.5526C7.24492 24.5293 7.12808 24.4692 7.03603 24.3799C6.94399 24.2907 6.88091 24.1765 6.85483 24.0517C6.82875 23.9269 6.84086 23.7973 6.88961 23.6794C6.93835 23.5614 7.02154 23.4605 7.12855 23.3894C7.23556 23.3184 7.36156 23.2804 7.49048 23.2804Z"
                    fill="#007CB6" />
                <path
                    d="M4.51941 24.6007C4.65818 24.6032 4.79456 24.5648 4.91116 24.4903C5.02776 24.4159 5.11931 24.3089 5.17415 24.1829C5.22898 24.0569 5.24462 23.9176 5.21907 23.7828C5.19352 23.648 5.12794 23.5237 5.03068 23.4258C4.93342 23.328 4.80889 23.261 4.67294 23.2333C4.53699 23.2056 4.39579 23.2185 4.26731 23.2705C4.13883 23.3224 4.0289 23.4109 3.95151 23.5248C3.87412 23.6386 3.83279 23.7727 3.83276 23.9098C3.83273 24.091 3.90468 24.2648 4.0331 24.3941C4.16152 24.5233 4.33616 24.5975 4.51941 24.6007Z"
                    fill="#007CB6" />
                <path
                    d="M10.5618 24.6007C10.7005 24.6032 10.8369 24.5648 10.9535 24.4903C11.0701 24.4159 11.1617 24.3089 11.2165 24.1829C11.2713 24.0569 11.287 23.9176 11.2614 23.7828C11.2359 23.648 11.1703 23.5237 11.073 23.4258C10.9758 23.328 10.8512 23.261 10.7153 23.2333C10.5794 23.2056 10.4381 23.2185 10.3097 23.2705C10.1812 23.3224 10.0713 23.4109 9.99387 23.5248C9.91648 23.6386 9.87514 23.7727 9.87512 23.9098C9.87509 24.091 9.94703 24.2648 10.0755 24.3941C10.2039 24.5233 10.3785 24.5975 10.5618 24.6007Z"
                    fill="#007CB6" />
                <path
                    d="M13.7328 20.5418H1.41074V9.43829H4.19476C4.07231 8.98182 3.99291 8.51513 3.95756 8.04419H1.46068V6.44035C1.46068 6.30875 1.64794 6.18538 2.02247 6.07023C2.02247 6.07023 2.94632 5.78647 4.21973 5.53973C4.35014 5.01676 4.5342 4.5083 4.76904 4.02225C3.69606 4.18547 2.63633 4.42461 1.598 4.73781C0.274657 5.12026 0 5.87283 0 6.44035V24.8475C0 25.8838 1.07366 26.3403 1.47316 26.513H1.53558C3.46577 27.1088 5.46937 27.4409 7.49064 27.5C9.52619 27.4491 11.5457 27.1296 13.4956 26.55C14.844 26.1429 15.0437 25.3163 15.0437 24.8475V15.1998C14.6176 15.3519 14.179 15.4674 13.7328 15.5452V20.5418ZM13.7328 24.8475C13.7328 24.9832 13.5581 25.0942 13.1835 25.2053C11.3379 25.7674 9.42158 26.0706 7.49064 26.1059C5.61084 26.0585 3.7462 25.7597 1.94757 25.2176C1.38577 24.9709 1.3608 24.8598 1.3608 24.8475V21.9483H13.7328V24.8475Z"
                    fill="#007CB6" />
                <path
                    d="M12.3346 0.00016368C10.317 -0.0129776 8.37656 0.765651 6.93936 2.16509C5.50217 3.56453 4.68568 5.47038 4.66919 7.46419C4.68094 8.69551 5.00333 9.90448 5.60718 10.9816C6.21102 12.0587 7.07724 12.97 8.12737 13.6328C8.22724 14.2373 7.51563 15.1009 7.22849 15.4464C7.15019 15.5308 7.0792 15.6216 7.01626 15.7178C6.94006 15.8403 6.89972 15.9812 6.89972 16.1249C6.89972 16.2687 6.94006 16.4096 7.01626 16.5321C7.09149 16.6611 7.20111 16.7674 7.33318 16.8391C7.46525 16.9109 7.61472 16.9455 7.76532 16.9392C9.41335 16.8058 10.9567 16.087 12.1099 14.9159H12.3346C14.3415 14.9292 16.2727 14.159 17.7081 12.7728C19.1435 11.3867 19.9672 9.4966 20 7.51354C19.9984 6.52212 19.7986 5.54079 19.412 4.62593C19.0254 3.71106 18.4598 2.88069 17.7475 2.18252C17.0352 1.48435 16.1903 0.932148 15.2614 0.55763C14.3325 0.183111 13.3378 -0.00633873 12.3346 0.00016368ZM12.3346 13.5711H11.9351C11.8317 13.5643 11.7281 13.5795 11.6312 13.6157C11.5343 13.6519 11.4463 13.7082 11.3733 13.7809C10.7521 14.4343 10.005 14.9586 9.17606 15.323C9.40607 14.9832 9.54702 14.5922 9.58624 14.1852C9.62547 13.7782 9.56174 13.3679 9.40078 12.9913C9.34569 12.8654 9.25456 12.7582 9.13861 12.6828C8.20685 12.1585 7.4327 11.3991 6.8953 10.4822C6.35789 9.56527 6.07652 8.52378 6.07993 7.46419C6.07993 5.82817 6.73759 4.25916 7.90822 3.10232C9.07886 1.94548 10.6666 1.29557 12.3221 1.29557C13.9777 1.29557 15.5654 1.94548 16.736 3.10232C17.9067 4.25916 18.5643 5.82817 18.5643 7.46419C18.5479 9.08736 17.8847 10.6387 16.7185 11.7819C15.5524 12.9251 13.9772 13.568 12.3346 13.5711Z"
                    fill="#007CB6" />
                <path
                    d="M14.1698 8.40186C14.0994 8.37718 14.0323 8.34403 13.97 8.30316C13.9621 8.27492 13.9621 8.24505 13.97 8.2168C14.4165 7.64742 14.7148 6.97853 14.8389 6.26873C14.963 5.55893 14.909 4.8299 14.6817 4.14551C14.501 3.71992 14.1947 3.35804 13.8027 3.10713C13.4107 2.85623 12.9513 2.72796 12.4844 2.73907C12.0081 2.70239 11.532 2.8134 11.1225 3.05665C10.713 3.29989 10.3905 3.66326 10.1998 4.09617C9.98214 4.78964 9.93889 5.5251 10.0738 6.23882C10.2086 6.95254 10.5176 7.623 10.9738 8.19213C10.9798 8.2206 10.9798 8.25001 10.9738 8.27849C10.9099 8.32711 10.8381 8.36466 10.7616 8.38952C9.75072 8.57667 8.83471 9.0989 8.16479 9.86999L9.10113 10.6596C9.63519 10.113 10.3378 9.75719 11.0986 9.64792H11.2609C11.47 9.5842 11.6617 9.47451 11.8217 9.32707C11.9817 9.17963 12.1058 8.99829 12.1848 8.79665C12.2522 8.58927 12.2681 8.36891 12.2311 8.15417C12.1942 7.93944 12.1055 7.73665 11.9725 7.56293L11.8851 7.40254C11.5943 7.01235 11.3971 6.56188 11.3084 6.08524C11.2197 5.60859 11.2419 5.11826 11.3733 4.65134C11.4856 4.37992 11.7228 4.03448 12.5094 4.03448C13.2959 4.03448 13.5705 4.39226 13.6829 4.66368C13.8139 5.12302 13.8415 5.60513 13.7639 6.07616C13.6863 6.54718 13.5052 6.9957 13.2335 7.39021L13.0961 7.40254L12.9963 7.52592C12.8644 7.70024 12.7774 7.90357 12.7426 8.11846C12.7078 8.33335 12.7263 8.55337 12.7965 8.75964C12.8831 8.97203 13.0184 9.16167 13.1917 9.31366C13.365 9.46565 13.5716 9.57585 13.7953 9.63558H13.8827C14.659 9.73841 15.3768 10.0996 15.9176 10.6596L16.8539 9.86999C16.1509 9.09735 15.2056 8.58035 14.1698 8.40186Z"
                    fill="#007CB6" />
            </svg>