<svg width="18" height="24" viewBox="0 0 18 24" fill="none" xmlns="http://www.w3.org/2000/svg">
                <g clip-path="url(#clip0_555_721)">
                    <path
                        d="M9 0C4.0267 0 0 3.93111 0 8.775C0 12.0253 1.12458 13.041 7.09083 22.3682C7.97137 23.7447 10.0296 23.7431 10.9091 22.3682C16.8785 13.0361 18 12.0246 18 8.775C18 3.92604 13.9681 0 9 0ZM9 21.2063C3.027 11.8685 2.25 11.279 2.25 8.775C2.25 5.14028 5.27208 2.19375 9 2.19375C12.7279 2.19375 15.75 5.14028 15.75 8.775C15.75 11.2682 15.0391 11.7651 9 21.2063ZM5.25 8.775C5.25 6.7557 6.92892 5.11875 9 5.11875C11.0711 5.11875 12.75 6.7557 12.75 8.775C12.75 10.7943 11.0711 12.4313 9 12.4313C6.92892 12.4313 5.25 10.7943 5.25 8.775Z"
                        fill="#007CB6" />
                </g>
                <defs>
                    <clipPath id="clip0_555_721">
                        <rect width="18" height="23.4" fill="white" />
                    </clipPath>
                </defs>
            </svg>