            <svg width="24" height="28" viewBox="0 0 24 28" fill="none" xmlns="http://www.w3.org/2000/svg">
                <path
                    d="M23.8608 10.4415L19.2349 0.819515C19.1148 0.571803 18.9268 0.363287 18.6928 0.218221C18.4588 0.0731556 18.1885 -0.00249726 17.9132 6.28898e-05C17.6937 0.00256238 17.4774 0.0521416 17.2788 0.145449L3.05732 7.16366C2.71082 7.33968 2.44658 7.64385 2.32072 8.01155C2.19486 8.37926 2.21729 8.78155 2.38326 9.13298L7.00919 18.7417C7.03922 18.8105 7.07458 18.8767 7.11493 18.94V15.5168L5.64785 12.4637L19.8296 5.4058L22.473 11.0627L14.2124 15.1467V16.812L23.1471 12.3976C23.3229 12.3165 23.4809 12.2015 23.612 12.0592C23.7431 11.9168 23.8448 11.7499 23.9112 11.5681C23.9775 11.3863 24.0072 11.1931 23.9986 10.9997C23.9899 10.8064 23.9431 10.6166 23.8608 10.4415ZM5.00022 11.1155L3.7446 8.47214L17.9 1.52001L19.1291 4.05767L5.00022 11.1155Z"
                    fill="#007CB6" />
                <path
                    d="M13.5119 19.8255V14.1422C13.5385 13.7536 13.4848 13.3637 13.3544 12.9968C13.2239 12.6298 13.0194 12.2935 12.7536 12.0089C12.4877 11.7242 12.1662 11.4973 11.8089 11.3421C11.4517 11.1869 11.0664 11.1069 10.6769 11.1069C10.2874 11.1069 9.90205 11.1869 9.54481 11.3421C9.18756 11.4973 8.86603 11.7242 8.60017 12.0089C8.33431 12.2935 8.12981 12.6298 7.99936 12.9968C7.8689 13.3637 7.81528 13.7536 7.84183 14.1422V20.4731C7.32466 20.089 6.85443 19.6454 6.44083 19.1514L5.29096 20.222C6.79769 21.8345 7.76253 22.3764 8.55555 22.0592C8.77351 21.9493 8.95681 21.7813 9.08512 21.5737C9.21343 21.366 9.28174 21.1269 9.28248 20.8829V14.1422C9.28248 13.7917 9.42173 13.4555 9.6696 13.2076C9.91746 12.9598 10.2536 12.8205 10.6042 12.8205C10.9547 12.8205 11.2909 12.9598 11.5388 13.2076C11.7866 13.4555 11.9259 13.7917 11.9259 14.1422V20.0105L12.6264 26.0903H6.21614L2.44931 21.742C1.92673 21.2341 1.59936 20.5587 1.52446 19.8338C1.44956 19.109 1.6319 18.3809 2.03958 17.7769L4.11465 14.5387L2.79295 13.7193L0.810407 16.9178C0.204046 17.7973 -0.0762696 18.8609 0.0178364 19.925C0.111942 20.9891 0.574566 21.987 1.32587 22.7465L5.29096 27.3327C5.36116 27.415 5.44826 27.4812 5.54633 27.5268C5.64439 27.5724 5.75113 27.5964 5.85929 27.5971H13.5516C13.6565 27.5962 13.76 27.5734 13.8556 27.5301C13.9512 27.4869 14.0367 27.4242 14.1067 27.346C14.1778 27.2682 14.2312 27.176 14.2632 27.0755C14.2951 26.9751 14.3049 26.869 14.2917 26.7644L13.5119 19.8255Z"
                    fill="#007CB6" />
            </svg>