<svg width="24" height="24" viewBox="0 0 24 24" fill="none" xmlns="http://www.w3.org/2000/svg">
<path d="M18.707 6.67911H5.29303V7.91821H18.707C19.2333 7.9211 19.737 8.12225 20.108 8.47769C20.4791 8.83314 20.6874 9.314 20.6874 9.81523V17.8968C20.6874 18.397 20.4787 18.8767 20.1073 19.2304C19.7359 19.5841 19.2322 19.7828 18.707 19.7828H5.29303C4.76673 19.7828 4.26181 19.5845 3.88857 19.2311C3.51534 18.8777 3.30414 18.398 3.30109 17.8968V6.93131C3.31042 6.62794 3.43049 6.33716 3.64064 6.109C3.85079 5.88084 4.13789 5.72958 4.4525 5.68125L17.3483 4.26671H17.4634C17.5838 4.26513 17.7032 4.28691 17.8145 4.33072C17.9257 4.37453 18.0264 4.43946 18.1104 4.52153C18.1945 4.60361 18.2601 4.70113 18.3032 4.80813C18.3464 4.91514 18.3662 5.0294 18.3615 5.14394V5.94442H19.6742V5.13298C19.68 4.83249 19.6178 4.53432 19.4919 4.25874C19.366 3.98316 19.1792 3.73661 18.9444 3.53584C18.7096 3.33508 18.4321 3.1848 18.1309 3.09521C17.8296 3.00563 17.5117 2.97883 17.1986 3.01665L4.30282 4.43119C3.67266 4.51693 3.09505 4.81327 2.67319 5.26725C2.25134 5.72123 2.01273 6.30328 2 6.90938V17.8748C2.00305 18.7047 2.35134 19.4996 2.96857 20.0853C3.5858 20.6711 4.42166 21 5.29303 21H18.707C19.5783 21 20.4142 20.6711 21.0314 20.0853C21.6487 19.4996 21.997 18.7047 22 17.8748V9.81523C21.997 8.98437 21.649 8.18836 21.0321 7.60085C20.4152 7.01334 19.5794 6.682 18.707 6.67911Z" fill="#005075"/>
<path d="M20.1231 13.8505C20.1231 13.4679 20.0037 13.0939 19.78 12.776C19.5563 12.4582 19.2384 12.2109 18.8668 12.0655C18.4951 11.9201 18.0865 11.8832 17.6928 11.9594C17.2991 12.0357 16.938 12.2217 16.6556 12.4938C16.3731 12.7659 16.1819 13.1118 16.1064 13.4876C16.0308 13.8634 16.0742 14.2521 16.2311 14.6044C16.388 14.9566 16.6514 15.2565 16.9876 15.4659C17.3239 15.6753 17.7179 15.7848 18.1197 15.7804C18.6532 15.7746 19.1627 15.5688 19.5378 15.2075C19.9128 14.8461 20.1232 14.3586 20.1231 13.8505ZM17.3828 13.8505C17.3828 13.7134 17.4257 13.5794 17.5059 13.4656C17.5861 13.3517 17.7001 13.2632 17.8333 13.2113C17.9665 13.1593 18.113 13.1463 18.254 13.1739C18.395 13.2014 18.5242 13.2683 18.6252 13.366C18.7262 13.4637 18.7943 13.5878 18.821 13.7226C18.8477 13.8573 18.8317 13.9965 18.775 14.1225C18.7183 14.2486 18.6236 14.3557 18.5028 14.4303C18.382 14.5048 18.2406 14.5435 18.0967 14.5413C17.9063 14.5384 17.7247 14.4644 17.5912 14.3351C17.4576 14.2059 17.3828 14.0318 17.3828 13.8505Z" fill="#005075"/>
</svg>
