<svg width="24" height="24" viewBox="0 0 24 24" fill="none" xmlns="http://www.w3.org/2000/svg">
<path d="M17.0985 5.64041C17.0329 5.54115 16.9425 5.45929 16.8356 5.40229C16.7287 5.34529 16.6087 5.31496 16.4865 5.31407C16.0821 5.31407 15.8635 5.58778 15.5357 5.99833L15.2843 6.2194C13.5829 4.14486 11.2216 2.66554 8.56297 2.00855C8.46028 1.99197 8.35495 1.99958 8.25598 2.03075C8.15701 2.06191 8.06735 2.1157 7.99466 2.18751C7.92419 2.26164 7.87345 2.35114 7.8468 2.44832C7.82015 2.54551 7.81839 2.64747 7.84165 2.74545C7.90723 2.98757 7.99466 3.19812 8.07116 3.40866C8.45368 4.38768 8.84712 5.39829 6.22416 8.60906C5.33862 9.5906 4.6917 10.7501 4.33057 12.0031C3.96944 13.2561 3.90321 14.571 4.13673 15.8517C4.33633 16.8798 4.75379 17.8573 5.36303 18.723C5.97227 19.5888 6.76022 20.3243 7.67772 20.8837C8.97837 21.685 10.5078 22.0717 12.0493 21.9891C13.6827 21.9202 15.2587 21.3892 16.5805 20.4624C17.9023 19.5356 18.9111 18.2541 19.481 16.7781C21.4045 11.3672 17.3827 6.0615 17.0985 5.64041ZM12.6286 20.3784C12.4478 20.5164 12.258 20.643 12.0602 20.7574C10.7953 20.15 9.82943 19.0873 9.37171 17.7993C8.83619 16.0728 9.28428 13.9884 10.6832 11.5777C10.7029 12.0132 10.816 12.4401 11.0154 12.8314C11.2148 13.2228 11.4961 13.5701 11.8417 13.8516C12.0104 13.948 12.2029 13.9989 12.399 13.999C12.9664 13.9302 13.5051 13.7197 13.9619 13.3884C14.5193 14.7569 15.4482 18.1572 12.5848 20.3679L12.6286 20.3784Z" fill="#7FC241"/>
</svg>
