<svg width="40" height="40" viewBox="0 0 40 40" fill="none" xmlns="http://www.w3.org/2000/svg">
<path d="M22.9939 16.3106C22.9812 16.0723 22.8815 15.848 22.7152 15.6841C22.5489 15.5202 22.3287 15.429 22.1 15.4294H10.7276C10.5919 15.3716 10.4446 15.3495 10.2988 15.3651C10.153 15.3807 10.013 15.4335 9.89137 15.5189C9.7697 15.6043 9.67001 15.7195 9.60108 15.8546C9.53215 15.9896 9.49609 16.1403 9.49609 16.2934C9.49609 16.4464 9.53215 16.5971 9.60108 16.7321C9.67001 16.8672 9.7697 16.9825 9.89137 17.0678C10.013 17.1532 10.153 17.206 10.2988 17.2216C10.4446 17.2372 10.5919 17.2152 10.7276 17.1574H22.1C22.3234 17.1584 22.5391 17.072 22.7045 16.9153C22.87 16.7586 22.9732 16.5428 22.9939 16.3106Z" fill="#007CB6"/>
<path d="M10.7276 19.5766C10.4905 19.5766 10.2631 19.6749 10.0955 19.8499C9.92783 20.0249 9.83365 20.2622 9.83365 20.5097C9.83365 20.7572 9.92783 20.9945 10.0955 21.1695C10.2631 21.3445 10.4905 21.4428 10.7276 21.4428H14.7998C15.0368 21.4428 15.2642 21.3445 15.4318 21.1695C15.5995 20.9945 15.6937 20.7572 15.6937 20.5097C15.6937 20.2622 15.5995 20.0249 15.4318 19.8499C15.2642 19.6749 15.0368 19.5766 14.7998 19.5766H10.7276Z" fill="#007CB6"/>
<path d="M6.7878 30.8431V13.8569H15.1971V5.21687H26.3377V18.8854C26.5728 18.9921 26.7863 19.1446 26.9668 19.3346L28.1752 20.6134V3.33334H13.2769L5 11.8178V32.7094H22.7125L20.9247 30.8431H6.7878ZM13.4093 5.78711V11.9734H7.36718L13.4093 5.78711Z" fill="#007CB6"/>
<path d="M34.896 29.3918L26.1225 20.2334L25.9735 20.1297H25.7583L18.7727 18.5399C18.6222 18.5093 18.4668 18.5175 18.32 18.5637C18.1732 18.6099 18.0394 18.6927 17.9302 18.8051C17.8209 18.9174 17.7396 19.0558 17.6931 19.2083C17.6467 19.3608 17.6365 19.5229 17.6636 19.6804L19.0375 26.8516C19.0281 26.9262 19.0281 27.0017 19.0375 27.0763L19.1368 27.2318L27.8937 36.3729C28.0696 36.5567 28.307 36.662 28.5559 36.6667C28.6794 36.6662 28.8017 36.64 28.9154 36.5896C29.0291 36.5391 29.132 36.4655 29.218 36.3729L34.7304 30.6359C34.899 30.4486 34.9936 30.2018 34.9953 29.9447C35.0134 29.7543 34.979 29.5624 34.896 29.3918ZM23.5567 21.5294L20.5273 24.6916L19.7824 20.7518L23.5567 21.5294ZM28.7214 34.4376L21.2888 26.6788L22.7124 25.1927L30.145 32.9515L28.7214 34.4376ZM31.4859 31.5691L24.0367 23.8103L25.0465 22.739L25.4604 22.3243L32.893 30.083L31.4859 31.5691Z" fill="#007CB6"/>
</svg>
