<svg width="25" height="24" viewBox="0 0 25 24" fill="none" xmlns="http://www.w3.org/2000/svg">
<path fill-rule="evenodd" clip-rule="evenodd" d="M11.25 20C12.3019 20 13.3117 19.8195 14.25 19.4879V21.7623C14.2509 21.9879 14.5524 22.086 14.7001 21.9087L16.646 19.4327L17.9354 21.7623C17.989 21.8938 18.151 21.9528 18.2841 21.8893L20.2853 20.9349C20.4096 20.8756 20.4594 20.7324 20.3967 20.615L19.2344 18.465L21.9821 18.6226C22.223 18.6364 22.3447 18.3531 22.1617 18.2044L18.9772 15.6168C19.7854 14.267 20.25 12.6878 20.25 11C20.25 6.02944 16.2206 2 11.25 2C6.27944 2 2.25 6.02944 2.25 11C2.25 15.9706 6.27944 20 11.25 20ZM18.2706 15.0427C18.9572 13.8529 19.35 12.4723 19.35 11C19.35 6.52649 15.7235 2.9 11.25 2.9C6.77649 2.9 3.15 6.52649 3.15 11C3.15 15.4735 6.77649 19.1 11.25 19.1C12.3099 19.1 13.3222 18.8964 14.25 18.5263V17.5471C13.3367 17.9663 12.3207 18.2 11.25 18.2C7.27355 18.2 4.05 14.9764 4.05 11C4.05 7.02355 7.27355 3.8 11.25 3.8C15.2264 3.8 18.45 7.02355 18.45 11C18.45 12.2568 18.128 13.4385 17.5619 14.4669L18.2706 15.0427ZM14.25 12.1916L14.25 16.5412C13.358 17.0252 12.3361 17.3 11.25 17.3C7.77061 17.3 4.95 14.4794 4.95 11C4.95 7.52061 7.77061 4.7 11.25 4.7C14.7294 4.7 17.55 7.52061 17.55 11C17.55 12.0412 17.2974 13.0233 16.8502 13.8886L14.5831 12.0464C14.4521 11.94 14.2493 12.0284 14.25 12.1916ZM11.9177 16.4H10.9742V15.3763C10.5616 15.3382 10.1585 15.22 9.78385 15.0273C9.3294 14.7566 8.9137 14.4146 8.55 14.0122L9.5516 12.9337C10.0207 13.5496 10.694 13.9375 11.4242 14.0122C11.7201 14.0211 12.0073 13.9013 12.2225 13.6791C12.3246 13.5821 12.407 13.4628 12.4645 13.329C12.522 13.1952 12.5533 13.0497 12.5564 12.9019C12.5593 12.6585 12.482 12.4221 12.3387 12.2358C12.1023 11.9806 11.8208 11.7809 11.5112 11.6489C10.913 11.3942 10.3392 11.0754 9.79837 10.6972C9.52109 10.4949 9.29214 10.2229 9.13064 9.90419C8.98744 9.61711 8.91257 9.29532 8.9129 8.96838C8.90804 8.70079 8.9576 8.43536 9.05801 8.19124C9.15842 7.94712 9.30717 7.73041 9.49354 7.55673C9.89312 7.16365 10.4077 6.93876 10.9451 6.92228V5.6H11.9177V6.95C12.1776 6.98975 12.4326 7.12225 12.6777 7.24958L12.6777 7.24959C12.7445 7.28427 12.8105 7.31858 12.8757 7.35053C13.1866 7.54974 13.4742 7.78941 13.7322 8.06429L12.7016 9.09526C12.518 8.87062 12.2948 8.68879 12.0454 8.56069C11.7959 8.43259 11.5254 8.36085 11.25 8.34979C11.0151 8.33774 10.7839 8.41635 10.5967 8.57185C10.5193 8.62751 10.4551 8.70263 10.4097 8.79093C10.3642 8.87924 10.3388 8.97815 10.3355 9.0794C10.3324 9.1837 10.3503 9.28746 10.3879 9.38338C10.4256 9.47929 10.482 9.56503 10.5532 9.63454C10.8125 9.86463 11.1075 10.0419 11.4242 10.158C11.992 10.3684 12.5334 10.6562 13.0354 11.0145C13.3188 11.2404 13.552 11.5331 13.7177 11.871C13.8708 12.2228 13.9502 12.6075 13.9499 12.9971C13.953 13.3959 13.8631 13.7889 13.6886 14.1391C13.5406 14.4669 13.3213 14.7501 13.0499 14.9639C12.7083 15.2068 12.3216 15.3639 11.9177 15.4239V16.4ZM17.0098 17.9999C16.9427 17.8743 16.7596 17.8584 16.6694 17.9704L15.2883 19.6854L15.2648 13.8564L19.8022 17.5433L18.1408 17.344C17.9805 17.3248 17.8626 17.4826 17.9354 17.6188L19.377 20.2915L18.4812 20.7283L17.0098 17.9999Z" fill="#007CB6"/>
</svg>
