<svg width="25" height="24" viewBox="0 0 25 24" fill="none" xmlns="http://www.w3.org/2000/svg">
<path d="M12.4709 13.5067L12.4773 13.4754C12.6009 12.942 12.7564 12.2768 12.6349 11.6741C12.554 11.1987 12.2195 11.0134 11.9339 11C11.5973 10.9844 11.2969 11.1853 11.2223 11.4777C11.0817 12.0134 11.2074 12.7455 11.4375 13.6786C11.1477 14.4018 10.6854 15.4531 10.3466 16.0781C9.71591 16.4196 8.87003 16.9464 8.74432 17.6116C8.71875 17.7344 8.74858 17.8906 8.81889 18.0312C8.89773 18.1875 9.02344 18.308 9.17045 18.3661C9.23437 18.3906 9.31108 18.4107 9.40057 18.4107C9.77557 18.4107 10.3828 18.0938 11.1925 16.6384C11.3161 16.596 11.4439 16.5513 11.5675 16.5067C12.147 16.3013 12.7479 16.0871 13.2912 15.9911C13.892 16.3281 14.576 16.5446 15.0405 16.5446C15.5007 16.5446 15.6818 16.2589 15.75 16.0871C15.8693 15.7857 15.8118 15.4063 15.6179 15.2031C15.3366 14.9129 14.6527 14.8371 13.5874 14.9754C13.0632 14.6406 12.7202 14.1853 12.4709 13.5067ZM10.1335 16.8973C9.83736 17.3482 9.61364 17.5737 9.49219 17.6719C9.63494 17.3973 9.91406 17.1071 10.1335 16.8973ZM12 11.6406C12.1108 11.8393 12.0959 12.4397 12.0107 12.7433C11.9063 12.2991 11.8913 11.6696 11.9531 11.596C11.9702 11.5982 11.9851 11.6116 12 11.6406ZM11.9659 14.3304C12.1939 14.7433 12.4815 15.0982 12.799 15.3616C12.3388 15.471 11.919 15.6518 11.544 15.8125C11.4545 15.8504 11.3672 15.8884 11.282 15.9241C11.5653 15.3862 11.8018 14.7768 11.9659 14.3304ZM15.2812 15.7924C15.2834 15.7969 15.2855 15.8036 15.2727 15.8125H15.2685L15.2642 15.8192C15.2472 15.8304 15.0724 15.9375 14.3203 15.6272C15.1854 15.5848 15.2791 15.7902 15.2812 15.7924ZM20.0497 7.01339L15.4645 2.20982C15.3366 2.07589 15.1641 2 14.983 2H4.93182C4.55469 2 4.25 2.3192 4.25 2.71429V21.2857C4.25 21.6808 4.55469 22 4.93182 22H19.5682C19.9453 22 20.25 21.6808 20.25 21.2857V7.52009C20.25 7.33036 20.1776 7.14732 20.0497 7.01339ZM18.6776 7.84821H14.6676V3.64732L18.6776 7.84821ZM18.7159 20.3929H5.78409V3.60714H13.2188V8.42857C13.2188 8.67721 13.313 8.91567 13.4809 9.09148C13.6487 9.2673 13.8763 9.36607 14.1136 9.36607H18.7159V20.3929Z" fill="white"/>
</svg>


