<svg width="24" height="24" viewBox="0 0 24 24" fill="none" xmlns="http://www.w3.org/2000/svg">
<path fill-rule="evenodd" clip-rule="evenodd" d="M20 12C20 16.4183 16.4183 20 12 20C7.58172 20 4 16.4183 4 12C4 7.58172 7.58172 4 12 4C16.4183 4 20 7.58172 20 12ZM22 12C22 17.5228 17.5228 22 12 22C6.47715 22 2 17.5228 2 12C2 6.47715 6.47715 2 12 2C17.5228 2 22 6.47715 22 12ZM13.2447 6H10.7552C10.5409 6.0012 10.3369 6.09629 10.1933 6.26202C10.0496 6.42774 9.97942 6.6488 9.99998 6.87111L10.608 13.2873C10.647 13.6916 10.9733 13.9995 11.3632 14H12.6367C13.0267 13.9995 13.353 13.6916 13.392 13.2873L14 6.87111C14.0215 6.64868 13.9517 6.42716 13.8079 6.26123C13.6641 6.0953 13.4593 6.00042 13.2447 6ZM10.1818 16.5152C10.1818 15.6951 10.8162 15 11.6363 15H12.303C13.123 15 13.8181 15.6951 13.8181 16.5152C13.8181 17.3352 13.1533 18 12.3333 18H11.6666C10.8466 18 10.1818 17.3352 10.1818 16.5152Z" fill="#005075"/>
</svg>
