<svg width="24" height="24" viewBox="0 0 24 24" fill="none" xmlns="http://www.w3.org/2000/svg">
<path fill-rule="evenodd" clip-rule="evenodd" d="M19.8571 4.5H17.7143V2.46875C17.7143 2.20988 17.4744 2 17.1786 2H15.3929C15.097 2 14.8571 2.20988 14.8571 2.46875V4.5H9.14286V2.46875C9.14286 2.20988 8.90299 2 8.60714 2H6.82143C6.52558 2 6.28571 2.20988 6.28571 2.46875V4.5H4.14286C2.95938 4.5 2 5.33945 2 6.375V20.125C2 21.1605 2.95938 22 4.14286 22H19.8571C21.0406 22 22 21.1605 22 20.125V6.375C22 5.33945 21.0406 4.5 19.8571 4.5ZM19.5892 20.125H4.41068C4.26274 20.125 4.14282 20.0201 4.14282 19.8906V8.25H19.8571V19.8906C19.8571 20.0201 19.7372 20.125 19.5892 20.125ZM10.8767 17.8014L17.2297 12.287C17.4398 12.1047 17.4412 11.8079 17.2328 11.6241L16.2267 10.7367C16.0184 10.5529 15.6792 10.5518 15.4691 10.7341L10.5105 15.038L8.54161 13.3012C8.33326 13.1174 7.99406 13.1162 7.78402 13.2986L6.76978 14.1789C6.55973 14.3612 6.5584 14.658 6.76674 14.8418L10.119 17.7988C10.3274 17.9826 10.6666 17.9837 10.8767 17.8014Z" fill="#005075"/>
</svg>
