<svg width="22" height="27" viewBox="0 0 22 27" fill="none" xmlns="http://www.w3.org/2000/svg">
<path d="M12.2 13.5L16.73 8.97C16.8216 8.87653 16.873 8.75088 16.873 8.62C16.873 8.48912 16.8216 8.36346 16.73 8.27L11.83 3.16C11.7601 3.09817 11.6743 3.05715 11.5822 3.04158C11.4902 3.02601 11.3957 3.03651 11.3093 3.07189C11.2229 3.10727 11.1482 3.16612 11.0935 3.24178C11.0389 3.31744 11.0065 3.40689 11 3.5V12.28L6.00002 7.28C5.90587 7.18585 5.77817 7.13295 5.64502 7.13295C5.51187 7.13295 5.38417 7.18585 5.29002 7.28C5.19587 7.37415 5.14298 7.50185 5.14298 7.635C5.14298 7.76815 5.19587 7.89585 5.29002 7.99L10.79 13.5L5.26002 19.03C5.16587 19.1242 5.11298 19.2518 5.11298 19.385C5.11298 19.5181 5.16587 19.6458 5.26002 19.74C5.35417 19.8342 5.48187 19.887 5.61502 19.887C5.74817 19.887 5.87587 19.8342 5.97002 19.74L10.97 14.74V23.5C10.9694 23.5999 10.9988 23.6977 11.0543 23.7808C11.1098 23.8639 11.189 23.9285 11.2815 23.9661C11.3741 24.0038 11.4758 24.0129 11.5736 23.9922C11.6714 23.9715 11.7607 23.922 11.83 23.85L16.73 18.74C16.8216 18.6465 16.873 18.5209 16.873 18.39C16.873 18.2591 16.8216 18.1335 16.73 18.04L12.2 13.5ZM12 4.74L15.7 8.6L12 12.3V4.74ZM12 22.25V14.7L15.7 18.4L12 22.25Z" fill="#1BB99A"/>
</svg>
