<svg width="24" height="24" viewBox="0 0 24 24" fill="none" xmlns="http://www.w3.org/2000/svg">
<path d="M11.0749 12.0605C11.0749 13.0517 10.2712 13.8557 9.27976 13.8557C8.28834 13.8557 7.48462 13.0517 7.48462 12.0605C7.48462 11.0689 8.28817 10.2654 9.27976 10.2654C10.2714 10.2654 11.0749 11.0689 11.0749 12.0605ZM10.318 12.0605C10.318 11.487 9.85332 11.0223 9.27976 11.0223C8.7062 11.0223 8.24153 11.487 8.24153 12.0605C8.24153 12.6337 8.70642 13.0988 9.27976 13.0988C9.8531 13.0988 10.318 12.6337 10.318 12.0605Z" fill="#1BB99A"/>
<path d="M11.0749 19.7107C11.0749 19.9197 10.9055 20.0892 10.6964 20.0892H7.86308C7.65406 20.0892 7.48462 19.9197 7.48462 19.7107V16.0273C7.48462 15.0357 8.28817 14.2322 9.27976 14.2322C10.2714 14.2322 11.0749 15.0357 11.0749 16.0273V19.7107ZM10.318 16.0273C10.318 15.4538 9.85332 14.9891 9.27976 14.9891C8.7062 14.9891 8.24153 15.4538 8.24153 16.0273V19.3323H10.318V16.0273Z" fill="#1BB99A"/>
<path d="M20 8.64031C20 10.7496 18.2901 12.4593 16.181 12.4593C14.0715 12.4593 12.3621 10.7499 12.3621 8.64031C12.3621 6.53121 14.0717 4.82133 16.181 4.82133C18.2899 4.82133 20 6.53144 20 8.64031ZM19.2431 8.64031C19.2431 6.94947 17.8719 5.57825 16.181 5.57825C14.4898 5.57825 13.119 6.94922 13.119 8.64031C13.119 10.3318 14.4895 11.7024 16.181 11.7024C17.8721 11.7024 19.2431 10.3316 19.2431 8.64031Z" fill="#1BB99A"/>
<path d="M15.0049 9.438C15.0049 10.0882 15.5316 10.614 16.1809 10.614C16.8306 10.614 17.3568 10.0884 17.3568 9.438C17.3568 8.7886 16.8303 8.26203 16.1809 8.26203C15.9496 8.26203 15.7618 8.07446 15.7618 7.84298C15.7618 7.61189 15.9499 7.42392 16.1809 7.42392C16.3891 7.42392 16.5619 7.57595 16.5944 7.77502L16.5999 7.84298C16.5999 8.05199 16.7693 8.22143 16.9784 8.22143C17.1874 8.22143 17.3568 8.05199 17.3568 7.84298C17.3568 7.19357 16.8303 6.66701 16.1809 6.66701C15.532 6.66701 15.0049 7.19376 15.0049 7.84298C15.0049 8.49269 15.5318 9.01894 16.1809 9.01894C16.4122 9.01894 16.5999 9.20663 16.5999 9.438C16.5999 9.67017 16.4128 9.85705 16.1809 9.85705C15.9725 9.85705 15.7997 9.70544 15.7673 9.50608L15.7618 9.438C15.7618 9.22898 15.5924 9.05954 15.3833 9.05954C15.1743 9.05954 15.0049 9.22898 15.0049 9.438Z" fill="#1BB99A"/>
<path d="M15.8026 10.2356V10.7669C15.8026 10.9759 15.9721 11.1453 16.1811 11.1453C16.3901 11.1453 16.5595 10.9759 16.5595 10.7669V10.2356C16.5595 10.0266 16.3901 9.85718 16.1811 9.85718C15.9721 9.85718 15.8026 10.0266 15.8026 10.2356Z" fill="#1BB99A"/>
<path d="M15.8026 6.51355V7.04545C15.8026 7.25447 15.9721 7.42391 16.1811 7.42391C16.3901 7.42391 16.5595 7.25447 16.5595 7.04545V6.51355C16.5595 6.30453 16.3901 6.13509 16.1811 6.13509C15.9721 6.13509 15.8026 6.30453 15.8026 6.51355Z" fill="#1BB99A"/>
<path d="M9.64285 5.1654C7.52976 5.17229 5.81825 6.87954 5.82509 8.98561V9.67248C5.82509 9.88149 5.99455 10.0509 6.20357 10.0509C6.41259 10.0509 6.58203 9.88149 6.58203 9.67248V8.98437C6.57653 7.29664 7.94874 5.92784 9.64532 5.92231C9.85433 5.92163 10.0232 5.75164 10.0225 5.54262C10.0219 5.33361 9.85187 5.16472 9.64285 5.1654Z" fill="#1BB99A"/>
<path d="M14.462 19.6843C16.5753 19.6774 18.2866 17.9707 18.2797 15.8641V15.1773C18.2797 14.9682 18.1103 14.7988 17.9013 14.7988C17.6922 14.7988 17.5228 14.9682 17.5228 15.1773V15.8654C17.5283 17.5535 16.1563 18.9219 14.4595 18.9274C14.2505 18.9281 14.0816 19.0981 14.0823 19.3071C14.083 19.5161 14.253 19.685 14.462 19.6843Z" fill="#1BB99A"/>
<path d="M5.09492 8.02863C4.94712 7.88084 4.7075 7.88084 4.5597 8.02863C4.4119 8.17643 4.4119 8.41606 4.5597 8.56385L5.93591 9.94006C6.0837 10.0879 6.32333 10.0879 6.47113 9.94006L7.84733 8.56385C7.99513 8.41606 7.99513 8.17643 7.84733 8.02863C7.69954 7.88084 7.45991 7.88084 7.31211 8.02863L6.20352 9.13723L5.09492 8.02863Z" fill="#1BB99A"/>
<path d="M17.9013 15.7125L19.0099 16.8211C19.1577 16.9689 19.3973 16.9689 19.5451 16.8211C19.6929 16.6733 19.6929 16.4336 19.5451 16.2859L18.1689 14.9096C18.0211 14.7618 17.7815 14.7618 17.6337 14.9096L16.2575 16.2859C16.1097 16.4336 16.1097 16.6733 16.2575 16.8211C16.4053 16.9689 16.6449 16.9689 16.7927 16.8211L17.9013 15.7125Z" fill="#1BB99A"/>
</svg>
