<svg width="24" height="24" viewBox="0 0 24 24" fill="none" xmlns="http://www.w3.org/2000/svg">
<g clip-path="url(#clip0_706_586)">
<path d="M9.35505 20.4637H5.73056C4.93027 20.4637 4.28076 19.8142 4.28076 19.0139V5.24081C4.28076 4.44052 4.93027 3.79102 5.73056 3.79102H12.9795C13.7798 3.79102 14.4293 4.44052 14.4293 5.24081V11.7649" stroke="#1BB99A" stroke-width="0.8" stroke-linecap="round" stroke-linejoin="round"/>
<path d="M14.4293 6.69061H4.28076" stroke="#1BB99A" stroke-width="0.8" stroke-linecap="round" stroke-linejoin="round"/>
<path d="M9.35505 17.5641H4.28076" stroke="#1BB99A" stroke-width="0.8" stroke-linecap="round" stroke-linejoin="round"/>
<path d="M7.90527 5.24078H10.8049" stroke="#1BB99A" stroke-width="0.8" stroke-linecap="round" stroke-linejoin="round"/>
<path d="M9.355 19.3763C9.15493 19.3763 8.99255 19.2139 8.99255 19.0139C8.99255 18.8138 9.15493 18.6514 9.355 18.6514" stroke="#1BB99A" stroke-width="0.8" stroke-linecap="round" stroke-linejoin="round"/>
<path d="M10.8048 15.3894H20.9534" stroke="#1BB99A" stroke-width="0.8" stroke-linecap="round" stroke-linejoin="round"/>
<path d="M15.1542 16.8392H12.2546" stroke="#1BB99A" stroke-width="0.8" stroke-linecap="round" stroke-linejoin="round"/>
<path d="M19.5036 16.8392H18.0538" stroke="#1BB99A" stroke-width="0.8" stroke-linecap="round" stroke-linejoin="round"/>
<path d="M13.7044 18.289H12.2546" stroke="#1BB99A" stroke-width="0.8" stroke-linecap="round" stroke-linejoin="round"/>
<path fill-rule="evenodd" clip-rule="evenodd" d="M20.9534 19.0138C20.9534 19.8141 20.3039 20.4636 19.5036 20.4636H12.2546C11.4543 20.4636 10.8048 19.8141 10.8048 19.0138V14.6645C10.8048 13.8642 11.4543 13.2147 12.2546 13.2147H19.5036C20.3039 13.2147 20.9534 13.8642 20.9534 14.6645V19.0138Z" stroke="#1BB99A" stroke-width="0.8" stroke-linecap="round" stroke-linejoin="round"/>
<path d="M8.34705 12.5634C8.34705 13.1202 8.79866 13.5718 9.35538 13.5718C9.91138 13.5718 10.363 13.1202 10.363 12.5634C10.363 12.0067 9.91138 11.5537 9.35538 11.5537C8.79866 11.5537 8.34705 11.1035 8.34705 10.5461C8.34705 9.98933 8.79866 9.53772 9.35538 9.53772C9.91138 9.53772 10.363 9.98933 10.363 10.5461" stroke="#1BB99A" stroke-width="0.8" stroke-linecap="round" stroke-linejoin="round"/>
<path d="M9.3551 13.5715V14.2427" stroke="#1BB99A" stroke-width="0.8" stroke-linecap="round" stroke-linejoin="round"/>
<path d="M9.3551 8.8653V9.538" stroke="#1BB99A" stroke-width="0.8" stroke-linecap="round" stroke-linejoin="round"/>
</g>
<defs>
<clipPath id="clip0_706_586">
<rect width="24" height="24" fill="white"/>
</clipPath>
</defs>
</svg>
