<svg width="24" height="24" viewBox="0 0 24 24" fill="none" xmlns="http://www.w3.org/2000/svg">
<path d="M19.6831 8.28509L19.7534 8.30245C19.7633 8.30541 19.7722 8.30836 19.7801 8.31124C19.8932 8.35218 19.974 8.4501 19.9947 8.56562L20 8.62467V14C20 14.0884 19.9649 14.1732 19.9024 14.2357L17.3333 16.7847V17.3333H17.6667C17.8303 17.3333 17.9664 17.4513 17.9946 17.6067L18 17.6667V19.6667C18 19.8508 17.8508 20 17.6667 20H13.6667C13.4826 20 13.3333 19.8508 13.3333 19.6667V17.6667C13.3333 17.4826 13.4826 17.3333 13.6667 17.3333H14V14.662L14.0138 14.5672L14.1558 14.1111C14.2653 13.7701 14.3816 13.429 14.4998 13.1096C14.5966 12.8482 14.6906 12.6124 14.781 12.408C14.8841 12.1748 14.9811 11.9849 15.0737 11.8409C15.7589 10.7763 17.0449 11.405 16.8242 12.6255L16.8042 12.7205L16.6047 13.59L17.6673 12.5273L17.6681 12.4268C17.6917 10.5379 17.9965 9.35841 18.5266 8.74535L18.594 8.67166C18.9445 8.3101 19.3388 8.2156 19.6831 8.28509ZM5.40601 8.67166C5.95477 9.23777 6.28058 10.3643 6.32746 12.1944L6.332 12.5273L7.39467 13.59L7.19649 12.7236C6.8965 11.4704 8.15778 10.7838 8.87248 11.7624L8.92634 11.841C9.01889 11.9849 9.11593 12.1748 9.21899 12.408C9.30936 12.6124 9.40345 12.8482 9.5002 13.1096C9.579 13.3225 9.65694 13.5451 9.7326 13.7709L9.90416 14.2998L9.98623 14.5672L10 14.662V17.3333H10.3333C10.497 17.3333 10.6331 17.4513 10.6613 17.6067L10.6667 17.6667V19.6667C10.6667 19.8508 10.5174 20 10.3333 20H6.33333C6.14924 20 6 19.8508 6 19.6667V17.6667C6 17.4826 6.14924 17.3333 6.33333 17.3333H6.66667V16.7793L6.34475 16.4442C6.13657 16.2284 5.92682 16.0125 5.72137 15.8031L5.3238 15.4007C4.77236 14.847 4.35075 14.4438 4.12306 14.2586C4.06077 14.208 4.01939 14.1371 4.00532 14.0594L4 14V8.62467C4 8.48432 4.08791 8.35901 4.21987 8.31124L4.27897 8.2936C4.29069 8.29069 4.30334 8.28783 4.31689 8.28509C4.66124 8.2156 5.05552 8.3101 5.40601 8.67166ZM17.3333 18H14V19.3333H17.3333V18ZM10 18H6.66667V19.3333H10V18ZM4.66667 8.95533V13.8453L4.84477 14.0053C5.03162 14.177 5.26202 14.3991 5.53022 14.6649L5.89048 15.0252L6.50987 15.6564L7.2416 16.4163C7.28577 16.4628 7.31528 16.5207 7.32728 16.5828L7.33333 16.646V17.3333H9.33333V14.712L9.20948 14.315C9.10269 13.9826 8.98945 13.6503 8.87499 13.3411C8.78266 13.0916 8.69347 12.8681 8.60923 12.6775C8.51894 12.4732 8.43635 12.3116 8.36571 12.2017C8.10399 11.7951 7.73819 11.9594 7.82937 12.4928L7.84557 12.5715L8.30423 14.5715C8.37464 14.8785 8.02555 15.092 7.78694 14.9188L7.74363 14.8817L5.7643 12.9024C5.70179 12.8399 5.66667 12.7551 5.66667 12.6667C5.66667 10.7127 5.3745 9.59697 4.92733 9.13567C4.85992 9.06614 4.79487 9.01719 4.73273 8.9846L4.66667 8.95533ZM19.3333 8.95533C19.2683 8.97946 19.205 9.01656 19.1393 9.07285L19.0727 9.13567C18.6255 9.59697 18.3333 10.7127 18.3333 12.6667C18.3333 12.7374 18.3109 12.8058 18.2699 12.8623L18.2357 12.9024L16.2564 14.8817C16.0336 15.1044 15.6673 14.9221 15.6874 14.6279L15.6958 14.5715L16.1552 12.5684C16.2969 11.9764 15.9085 11.7758 15.6343 12.2017C15.5637 12.3116 15.4811 12.4732 15.3908 12.6775C15.3065 12.8681 15.2173 13.0916 15.125 13.3411C15.0487 13.5472 14.9729 13.7636 14.8993 13.9834L14.7599 14.4109L14.6667 14.7093V17.3333H16.6667V16.646C16.6667 16.557 16.7022 16.4718 16.7655 16.4091L19.3333 13.8613V8.95533ZM11.8404 4.0407C11.9399 3.98643 12.0601 3.98643 12.1596 4.0407L15.8263 6.0407C15.8299 6.04269 15.8335 6.04472 15.837 6.0468C15.8496 6.05427 15.8617 6.0626 15.8732 6.07168C15.8769 6.07432 15.8804 6.0771 15.8837 6.07993C15.8927 6.08789 15.9016 6.09635 15.91 6.10529C15.9163 6.11145 15.9214 6.11733 15.9263 6.12335C15.9327 6.13168 15.9391 6.14036 15.9451 6.14937C15.9487 6.15439 15.9518 6.15933 15.9547 6.16433C15.9606 6.17475 15.9663 6.18585 15.9715 6.19733C15.9742 6.20323 15.9766 6.20925 15.9789 6.21534C15.9825 6.22497 15.9856 6.23471 15.9883 6.24467C15.9902 6.25194 15.9919 6.25913 15.9934 6.26636C15.9977 6.28766 16 6.31012 16 6.33333L15.9979 6.29564C15.9989 6.30452 15.9995 6.31343 15.9998 6.32235L16 6.33333V10.3333C16 10.4596 15.9287 10.575 15.8157 10.6315L11.8157 12.6315C11.7138 12.6824 11.5929 12.6778 11.4952 12.6192L8.16183 10.6192C8.06143 10.5589 8 10.4504 8 10.3333L8.00007 6.32649C8.00066 6.29776 8.00489 6.2691 8.01274 6.24132C8.01479 6.2334 8.01718 6.22598 8.01982 6.2187C8.02198 6.21325 8.02409 6.20785 8.02635 6.20251C8.03142 6.19018 8.03724 6.17851 8.04369 6.1673C8.04664 6.16217 8.04995 6.15673 8.05343 6.15137C8.06026 6.14101 8.06736 6.13138 8.07493 6.1222C8.07976 6.11607 8.08509 6.11003 8.09068 6.10416C8.09825 6.09647 8.10601 6.08907 8.1141 6.08207C8.13162 6.0667 8.15162 6.05275 8.17372 6.0407L8.1318 6.06775C8.14267 6.05955 8.15402 6.05201 8.16577 6.04518L8.17372 6.0407L11.8404 4.0407ZM15.3333 6.87267L13.1727 7.95267L12 8.53933V11.7933L15.3333 10.1267V6.87267ZM8.66667 6.922V10.1447L11.3333 11.744V8.522L8.66667 6.922ZM12 4.71267L9.00333 6.34667L11.6807 7.95267L14.9467 6.32L12 4.71267Z" fill="#1BB99A"/>
</svg>
