<svg width="22" height="24" viewBox="0 0 22 24" fill="none" xmlns="http://www.w3.org/2000/svg">
<g clip-path="url(#clip0_666_2419)">
<path fill-rule="evenodd" clip-rule="evenodd" d="M17.875 9.39272C17.875 10.0027 17.6335 10.5877 17.2037 11.0191C16.774 11.4504 16.1911 11.6927 15.5833 11.6927C14.9755 11.6927 14.3926 11.4504 13.9628 11.0191C13.5331 10.5877 13.2916 10.0027 13.2916 9.39272C13.2916 8.78272 13.5331 8.19771 13.9628 7.76637C14.3926 7.33504 14.9755 7.09272 15.5833 7.09272C16.1911 7.09272 16.774 7.33504 17.2037 7.76637C17.6335 8.19771 17.875 8.78272 17.875 9.39272V9.39272Z" stroke="#1BB99A" stroke-width="0.9" stroke-linecap="round" stroke-linejoin="round"/>
<path fill-rule="evenodd" clip-rule="evenodd" d="M21.5416 12.1527C21.5416 17.9966 16.8226 22.7327 11 22.7327C5.17823 22.7327 0.458313 17.9966 0.458313 12.1527C0.458313 6.30888 5.17823 1.57272 11 1.57272C16.8226 1.57272 21.5416 6.30888 21.5416 12.1527Z" stroke="#1BB99A" stroke-width="0.9" stroke-linecap="round" stroke-linejoin="round" stroke-dasharray="7.51 2.81"/>
<path fill-rule="evenodd" clip-rule="evenodd" d="M14.2083 17.2127C14.2083 14.4178 11.9506 11.6927 9.16667 11.6927C6.38275 11.6927 4.125 14.4178 4.125 17.2127H14.2083Z" stroke="#1BB99A" stroke-width="0.9" stroke-linecap="round" stroke-linejoin="round"/>
<path d="M13.882 15.3727H19.25C19.25 14.3967 18.8637 13.4607 18.176 12.7706C17.4884 12.0804 16.5558 11.6927 15.5833 11.6927C14.9958 11.6931 14.417 11.8356 13.896 12.1081C13.375 12.3807 12.9271 12.7753 12.5904 13.2586M12.375 8.47272C12.375 8.89558 12.292 9.3143 12.1308 9.70496C11.9695 10.0956 11.7332 10.4506 11.4353 10.7496C11.1374 11.0486 10.7837 11.2858 10.3944 11.4476C10.0052 11.6094 9.58797 11.6927 9.16665 11.6927C8.74532 11.6927 8.32812 11.6094 7.93887 11.4476C7.54962 11.2858 7.19593 11.0486 6.89801 10.7496C6.60009 10.4506 6.36377 10.0956 6.20253 9.70496C6.0413 9.3143 5.95831 8.89558 5.95831 8.47272C5.95831 7.61873 6.29633 6.79971 6.89801 6.19584C7.49969 5.59197 8.31574 5.25272 9.16665 5.25272C10.0175 5.25272 10.8336 5.59197 11.4353 6.19584C12.037 6.79971 12.375 7.61873 12.375 8.47272Z" stroke="#1BB99A" stroke-width="0.9" stroke-linecap="round" stroke-linejoin="round"/>
</g>
<defs>
<clipPath id="clip0_666_2419">
<rect width="22" height="23" fill="white" transform="translate(0 0.5)"/>
</clipPath>
</defs>
</svg>
