<svg width="24" height="24" viewBox="0 0 24 24" fill="none" xmlns="http://www.w3.org/2000/svg">
<path d="M19.84 19.28H4.15998C3.20798 19.28 2.47998 18.552 2.47998 17.6V7.52001C2.47998 6.56801 3.20798 5.84001 4.15998 5.84001H7.51998C7.63198 5.84001 7.79998 5.72801 7.85598 5.67201L8.47198 4.44001C8.69598 3.99201 9.25598 3.65601 9.75998 3.65601H14.24C14.744 3.65601 15.304 3.99201 15.528 4.44001L16.144 5.67201C16.2 5.78401 16.368 5.84001 16.48 5.84001H19.84C20.792 5.84001 21.52 6.56801 21.52 7.52001V17.6C21.52 18.552 20.792 19.28 19.84 19.28ZM4.15998 6.96001C3.82398 6.96001 3.59998 7.18401 3.59998 7.52001V17.6C3.59998 17.936 3.82398 18.16 4.15998 18.16H19.84C20.176 18.16 20.4 17.936 20.4 17.6V7.52001C20.4 7.18401 20.176 6.96001 19.84 6.96001H16.48C15.976 6.96001 15.416 6.62401 15.192 6.17601L14.576 4.94401C14.52 4.83201 14.352 4.72001 14.24 4.72001H9.75998C9.64798 4.72001 9.47998 4.83201 9.42398 4.88801L8.80798 6.12001C8.58398 6.62401 8.02398 6.96001 7.51998 6.96001H4.15998Z" fill="#1BB99A"/>
<path d="M12 17.04C9.19996 17.04 6.95996 14.8 6.95996 12C6.95996 9.19996 9.19996 6.95996 12 6.95996C14.8 6.95996 17.04 9.19996 17.04 12C17.04 14.8 14.8 17.04 12 17.04ZM12 8.07996C9.81596 8.07996 8.07996 9.81596 8.07996 12C8.07996 14.184 9.81596 15.92 12 15.92C14.184 15.92 15.92 14.184 15.92 12C15.92 9.81596 14.184 8.07996 12 8.07996Z" fill="#1BB99A"/>
<path d="M17.6 8.64002C17.9093 8.64002 18.16 8.3893 18.16 8.08002C18.16 7.77074 17.9093 7.52002 17.6 7.52002C17.2908 7.52002 17.04 7.77074 17.04 8.08002C17.04 8.3893 17.2908 8.64002 17.6 8.64002Z" fill="#1BB99A"/>
<path d="M4.71997 4.71997H6.95997V5.27997H4.71997V4.71997ZM12 9.75997V9.19997C10.432 9.19997 9.19997 10.432 9.19997 12H9.75997C9.75997 10.768 10.768 9.75997 12 9.75997Z" fill="#1BB99A"/>
</svg>
