<svg width="25" height="22" viewBox="0 0 25 22" fill="none" xmlns="http://www.w3.org/2000/svg">
<g clip-path="url(#clip0_705_1026)">
<path d="M13.0291 2.94011C9.69942 -0.395852 4.30362 -0.39754 0.970928 2.94006C0.843079 3.0681 0.843016 3.27576 0.970787 3.40387C1.09856 3.53199 1.30578 3.53205 1.43363 3.40401C4.51065 0.322454 9.49216 0.324012 12.5663 3.40397C12.6941 3.53203 12.9014 3.53201 13.0292 3.40392C13.157 3.27583 13.1569 3.06818 13.0291 2.94011Z" fill="#1BB99A"/>
<path d="M11.2812 6.04695C8.91769 3.81809 5.0845 3.8173 2.71886 6.04689C2.59371 6.16484 2.59371 6.35608 2.71886 6.47404C2.84401 6.59199 3.04692 6.59199 3.17207 6.47404C5.28734 4.48041 8.71462 4.48112 10.8279 6.47397C10.953 6.59196 11.1559 6.59202 11.2811 6.4741C11.4063 6.35618 11.4063 6.16494 11.2812 6.04695Z" fill="#1BB99A"/>
<path d="M9.96551 8.60685C8.44812 7.04818 5.99027 7.04726 4.47199 8.60685C4.34272 8.73964 4.34267 8.95498 4.47187 9.08783C4.60108 9.22068 4.81062 9.22073 4.93989 9.08794C6.19965 7.79391 8.23859 7.79467 9.49761 9.08794C9.62688 9.22073 9.83642 9.22068 9.96563 9.08783C10.0948 8.95498 10.0948 8.73964 9.96551 8.60685Z" fill="#1BB99A"/>
<path d="M8.75 12.0309C8.75 12.8769 8.06409 13.5625 7.21842 13.5625C6.37281 13.5625 5.6875 12.8769 5.6875 12.0309C5.6875 11.1854 6.37294 10.5 7.21842 10.5C8.06396 10.5 8.75 11.1855 8.75 12.0309ZM8.08119 12.0309C8.08119 11.555 7.6947 11.1688 7.21842 11.1688C6.74231 11.1688 6.35631 11.5548 6.35631 12.0309C6.35631 12.5076 6.74224 12.8937 7.21842 12.8937C7.69478 12.8937 8.08119 12.5074 8.08119 12.0309Z" fill="#1BB99A"/>
</g>
<path d="M14.9062 17.75V14.2969C14.9062 14.0245 14.5451 13.9286 14.41 14.1651L12.285 17.8838C12.1838 18.0609 12.3117 18.2813 12.5156 18.2813H14.375V19.0781C14.375 19.2248 14.4939 19.3438 14.6406 19.3438C14.7873 19.3438 14.9062 19.2248 14.9062 19.0781V18.2813H15.4375C15.5842 18.2813 15.7031 18.1623 15.7031 18.0156C15.7031 17.8689 15.5842 17.75 15.4375 17.75H14.9062ZM14.375 17.75H12.9733L14.375 15.2971V17.75Z" fill="#1BB99A"/>
<path d="M14.1095 8.0319L15.5154 9.43783C15.6191 9.54156 15.7873 9.54156 15.891 9.43783C15.9948 9.33409 15.9948 9.16591 15.891 9.06217L14.2973 7.46842C14.1936 7.36469 14.0254 7.36469 13.9216 7.46842L12.3279 9.06217C12.2242 9.16591 12.2242 9.33409 12.3279 9.43783C12.4316 9.54156 12.5998 9.54156 12.7035 9.43783L14.1095 8.0319Z" fill="#1BB99A"/>
<path d="M13.8438 7.65625V12.9688C13.8438 13.1155 13.9627 13.2344 14.1094 13.2344C14.2561 13.2344 14.375 13.1155 14.375 12.9688V7.65625C14.375 7.50955 14.2561 7.39062 14.1094 7.39062C13.9627 7.39062 13.8438 7.50955 13.8438 7.65625Z" fill="#1BB99A"/>
<path d="M17.4847 11.1872C17.381 11.0834 17.2128 11.0834 17.109 11.1872C17.0053 11.2909 17.0053 11.4591 17.109 11.5628L18.7028 13.1566C18.8065 13.2603 18.9747 13.2603 19.0785 13.1566L20.6722 11.5628C20.7759 11.4591 20.7759 11.2909 20.6722 11.1872C20.5685 11.0834 20.4003 11.0834 20.2965 11.1872L18.8906 12.5931L17.4847 11.1872Z" fill="#1BB99A"/>
<path d="M19.1562 12.9688V7.65625C19.1562 7.50955 19.0373 7.39062 18.8906 7.39062C18.7439 7.39062 18.625 7.50955 18.625 7.65625V12.9688C18.625 13.1155 18.7439 13.2344 18.8906 13.2344C19.0373 13.2344 19.1562 13.1155 19.1562 12.9688Z" fill="#1BB99A"/>
<path d="M19.6875 17.2182V18.0156C19.6875 18.4556 19.3308 18.8125 18.8906 18.8125H18.3594C17.9192 18.8125 17.5625 18.4556 17.5625 18.0156V15.3594C17.5625 14.919 17.919 14.5625 18.3594 14.5625H18.8906C19.331 14.5625 19.6875 14.919 19.6875 15.3594V15.8906C19.6875 16.0373 19.8064 16.1562 19.9531 16.1562C20.0998 16.1562 20.2188 16.0373 20.2188 15.8906V15.3594C20.2188 14.6256 19.6244 14.0312 18.8906 14.0312H18.3594C17.6256 14.0312 17.0312 14.6256 17.0312 15.3594V18.0156C17.0312 18.749 17.6258 19.3438 18.3594 19.3438H18.8906C19.6242 19.3438 20.2188 18.749 20.2188 18.0156V16.9526C20.2188 16.8059 20.0998 16.687 19.9531 16.687H18.3594C18.2127 16.687 18.0938 16.8059 18.0938 16.9526C18.0938 17.0993 18.2127 17.2182 18.3594 17.2182H19.6875Z" fill="#1BB99A"/>
<defs>
<clipPath id="clip0_705_1026">
<rect width="14" height="14" fill="white"/>
</clipPath>
</defs>
</svg>
