<svg width="14" height="13" viewBox="0 0 14 13" fill="none" xmlns="http://www.w3.org/2000/svg">
<path d="M2 7.22426V11.5C2 11.6326 2.05268 11.7598 2.14645 11.8536C2.24021 11.9473 2.36739 12 2.5 12H11.5C11.6326 12 11.7598 11.9473 11.8536 11.8536C11.9473 11.7598 12 11.6326 12 11.5V7.22436M13 4.5L12.1036 1.36264C12.0738 1.25817 12.0107 1.16626 11.9239 1.10083C11.8372 1.03539 11.7315 1 11.6228 1H2.37715C2.2685 1 2.1628 1.03539 2.07605 1.10083C1.98931 1.16626 1.92624 1.25817 1.89639 1.36264L1 4.5M13 4.5H1M13 4.5V5.5C13 6.03043 12.7893 6.53914 12.4142 6.91421C12.0391 7.28929 11.5304 7.5 11 7.5C10.4696 7.5 9.96086 7.28929 9.58579 6.91421C9.21071 6.53914 9 6.03043 9 5.5M1 4.5V5.5C1 6.03043 1.21071 6.53914 1.58579 6.91421C1.96086 7.28929 2.46957 7.5 3 7.5C3.53043 7.5 4.03914 7.28929 4.41421 6.91421C4.78929 6.53914 5 6.03043 5 5.5M5 4.5V5.5M5 5.5C5 6.03043 5.21071 6.53914 5.58579 6.91421C5.96086 7.28929 6.46957 7.5 7 7.5C7.53043 7.5 8.03914 7.28929 8.41421 6.91421C8.78929 6.53914 9 6.03043 9 5.5M9 4.5V5.5" stroke="white" stroke-linecap="round" stroke-linejoin="round"/>
</svg>
