<svg width="36" height="36" viewBox="0 0 36 36" fill="none" xmlns="http://www.w3.org/2000/svg">
<path d="M31.25 7.4C28.984 6.79521 26.7702 6.00935 24.63 5.05C22.5244 4.13662 20.4918 3.06348 18.55 1.84L18 1.5L17.46 1.85C15.5182 3.07348 13.4856 4.14661 11.38 5.06C9.23629 6.01644 7.01915 6.79896 4.75 7.4L4 7.59V15.93C4 29.32 17.53 34.33 17.66 34.38L18 34.5L18.34 34.38C18.48 34.38 32 29.33 32 15.93V7.59L31.25 7.4ZM30 15.93C30 26.93 20 31.54 18 32.36C16 31.54 6 26.92 6 15.93V9.14C8.10947 8.53356 10.1744 7.78177 12.18 6.89C14.1857 6.02299 16.1302 5.02068 18 3.89C19.8698 5.02068 21.8143 6.02299 23.82 6.89C25.8256 7.78177 27.8905 8.53356 30 9.14V15.93Z" fill="white"/>
<path d="M23.1694 12.2749C23.2547 12.1879 23.3565 12.1187 23.4689 12.0715C23.5812 12.0243 23.7019 12 23.8237 12C23.9456 12 24.0663 12.0243 24.1786 12.0715C24.291 12.1187 24.3928 12.1879 24.4781 12.2749C24.8356 12.6362 24.8406 13.2199 24.4906 13.5874L17.0994 22.3249C17.0154 22.4171 16.9136 22.4911 16.8001 22.5426C16.6866 22.594 16.5637 22.6218 16.4391 22.6241C16.3145 22.6264 16.1907 22.6033 16.0754 22.5562C15.96 22.509 15.8554 22.4389 15.7681 22.3499L11.2706 17.7924C11.0972 17.6155 11 17.3777 11 17.1299C11 16.8822 11.0972 16.6443 11.2706 16.4674C11.3559 16.3804 11.4577 16.3112 11.5701 16.264C11.6825 16.2168 11.8031 16.1925 11.925 16.1925C12.0469 16.1925 12.1675 16.2168 12.2799 16.264C12.3922 16.3112 12.4941 16.3804 12.5794 16.4674L16.3944 20.3337L23.1444 12.3024C23.1521 12.2928 23.1605 12.2836 23.1694 12.2749Z" fill="white"/>
</svg>
