<svg width="132" height="57" viewBox="0 0 132 57" fill="none" xmlns="http://www.w3.org/2000/svg">
<path d="M54.6295 44.3499C58.0509 44.3499 59.1655 43.0279 59.1655 39.5806C59.1655 36.1851 57.9213 35.0705 54.6165 35.0705H50.6637V44.3499H54.6295ZM54.5128 42.4836H53.3983V36.9497H54.4869C55.9125 36.9497 56.3531 37.4551 56.3531 39.6065C56.3531 42.0559 55.8995 42.4836 54.5128 42.4836ZM68.4707 44.3499V42.3411H63.3386V40.5915H67.6543V38.6345H63.3386V37.0145H68.2893V35.0705H60.7077V44.3499H68.4707ZM79.409 44.3499V37.17H82.3639V35.0705H73.7455V37.17H76.7003V44.3499H79.409ZM84.7485 44.3499L85.3187 42.6521H88.5328L89.0901 44.3499H91.9413L88.2866 35.0705H85.6298L81.9491 44.3499H84.7485ZM87.8459 40.5915H86.0186L86.9517 37.8439L87.8459 40.5915ZM94.9999 44.3499L96.9309 41.4727L99.0304 44.3499H102.063L98.5768 39.6324L101.778 35.0705H98.9008L97.1901 37.7532L95.2202 35.0705H92.2653L95.4923 39.5028L91.9931 44.3499H94.9999ZM104.914 44.3499L105.484 42.6521H108.699L109.256 44.3499H112.107L108.452 35.0705H105.796L102.115 44.3499H104.914ZM108.012 40.5915H106.184L107.117 37.8439L108.012 40.5915Z" fill="#333333"/>
<path d="M53.2837 30.2884L61.1569 15.6306H58.6297L50.7565 30.2884H53.2837ZM50.8343 23.0178C53.2643 23.0178 54.5084 22.0653 54.5084 19.3825C54.5084 16.6221 53.3615 15.6306 50.8537 15.6306C48.3071 15.6306 47.199 16.6221 47.199 19.3825C47.199 22.0653 48.3459 23.0178 50.8343 23.0178ZM50.8343 21.2682C49.9206 21.2682 49.9789 20.6073 49.9789 19.3825C49.9789 17.9829 49.9206 17.3219 50.8537 17.3219C51.5924 17.3219 51.7868 18.0023 51.7868 19.3631L51.787 19.6835C51.7854 20.7059 51.7356 21.2682 50.8343 21.2682ZM60.9042 30.4828C63.3342 30.4828 64.5783 29.5302 64.5783 26.8475C64.5783 24.087 63.4314 23.115 60.9236 23.115C58.377 23.115 57.2689 24.087 57.2689 26.8475C57.2689 29.5302 58.4159 30.4828 60.9042 30.4828ZM60.9042 28.7332C59.9905 28.7332 60.0488 28.0917 60.0488 26.8475C60.0488 25.4478 59.9905 24.8063 60.9236 24.8063C61.6623 24.8063 61.8567 25.4478 61.8567 26.8475L61.8569 27.1675C61.8553 28.1869 61.8055 28.7332 60.9042 28.7332Z" fill="#00B488"/>
<path d="M19.8929 28.2744L19.898 29.1179C20.0392 40.6558 23.1402 46.8214 31.7021 46.8214C40.825 46.8214 43.5619 40.3551 43.5619 28.2744C43.5619 16.0435 40.0141 10.1786 31.7528 10.1786C23.086 10.1786 19.8929 16.0435 19.8929 28.2744ZM27.0925 27.3913C27.1432 19.3471 27.9781 15.6424 31.7528 15.6424C35.8074 15.6424 36.3649 19.6025 36.3649 28.2243L36.3619 29.0954C36.297 38.0613 35.1899 41.3576 31.7021 41.3576C28.159 41.3576 27.1217 37.9072 27.0907 28.6619L27.0925 27.3913Z" stroke="#00B488" stroke-width="3.24"/>
<rect x="0.5" y="0.5" width="131" height="56" stroke="#E5E5E5"/>
</svg>
