<svg width="20" height="20" viewBox="0 0 20 20" fill="none" xmlns="http://www.w3.org/2000/svg">
<path d="M13.8253 6.31666L8.33366 11.8083L5.34199 8.82499L4.16699 9.99999L8.33366 14.1667L15.0003 7.49999L13.8253 6.31666ZM10.0003 1.66666C5.40033 1.66666 1.66699 5.39999 1.66699 9.99999C1.66699 14.6 5.40033 18.3333 10.0003 18.3333C14.6003 18.3333 18.3337 14.6 18.3337 9.99999C18.3337 5.39999 14.6003 1.66666 10.0003 1.66666ZM10.0003 16.6667C6.31699 16.6667 3.33366 13.6833 3.33366 9.99999C3.33366 6.31666 6.31699 3.33332 10.0003 3.33332C13.6837 3.33332 16.667 6.31666 16.667 9.99999C16.667 13.6833 13.6837 16.6667 10.0003 16.6667Z" fill="white"/>
</svg>
