<svg width="25" height="24" viewBox="0 0 25 24" fill="none" xmlns="http://www.w3.org/2000/svg">
<path d="M18.844 8.71001C18.137 8.71001 17.565 9.28201 17.565 9.98801V14.518C17.565 14.8572 17.6997 15.1825 17.9396 15.4224C18.1795 15.6623 18.5048 15.797 18.844 15.797C19.1832 15.797 19.5085 15.6623 19.7484 15.4224C19.9882 15.1825 20.123 14.8572 20.123 14.518V9.98801C20.123 9.28201 19.551 8.71001 18.844 8.71001ZM6.156 8.71001C5.449 8.71001 4.877 9.28201 4.877 9.98801V14.518C4.877 14.8572 5.01175 15.1825 5.25161 15.4224C5.49147 15.6623 5.81679 15.797 6.156 15.797C6.49521 15.797 6.82053 15.6623 7.06039 15.4224C7.30025 15.1825 7.435 14.8572 7.435 14.518V9.98801C7.43513 9.82006 7.40213 9.65373 7.33789 9.49855C7.27365 9.34338 7.17943 9.20239 7.06062 9.08368C6.94182 8.96497 6.80076 8.87086 6.64553 8.80674C6.4903 8.74262 6.32395 8.70975 6.156 8.71001ZM15.045 4.90101L15.813 3.51301C15.8354 3.47349 15.8498 3.42991 15.8553 3.38479C15.8607 3.33968 15.8572 3.29392 15.8448 3.25019C15.8324 3.20646 15.8115 3.16563 15.7832 3.13006C15.7549 3.09449 15.7198 3.0649 15.68 3.04301C15.6403 3.02062 15.5965 3.00634 15.5512 3.00101C15.506 2.99569 15.4601 2.99941 15.4163 3.01197C15.3724 3.02453 15.3315 3.04568 15.296 3.07419C15.2604 3.10269 15.2308 3.13798 15.209 3.17801L14.42 4.59801C13.832 4.36301 13.184 4.23001 12.5 4.23001C11.816 4.23001 11.168 4.36201 10.58 4.59701L9.791 3.17901C9.76918 3.13898 9.73962 3.10369 9.70404 3.07519C9.66846 3.04668 9.62757 3.02553 9.58374 3.01297C9.53992 3.00041 9.49403 2.99669 9.44876 3.00202C9.40348 3.00734 9.35971 3.02162 9.32 3.04401C9.28037 3.0661 9.24548 3.09579 9.21734 3.13138C9.1892 3.16697 9.16836 3.20776 9.156 3.25142C9.14365 3.29508 9.14003 3.34074 9.14535 3.3858C9.15067 3.43086 9.16482 3.47443 9.187 3.51401L9.955 4.90201C8.572 5.69001 7.648 7.09901 7.648 8.71001C7.648 8.72101 7.648 8.73101 7.65 8.74401C7.648 8.75001 7.648 8.75701 7.648 8.76301V8.76401H17.351V8.71001C17.352 7.09901 16.428 5.69101 15.045 4.90101ZM10.26 6.86901C10.2145 6.86868 10.1695 6.8594 10.1276 6.84168C10.0857 6.82396 10.0477 6.79816 10.0157 6.76576C9.95121 6.70031 9.91534 6.61191 9.916 6.52001C9.91666 6.42811 9.9538 6.34024 10.0193 6.27573C10.0847 6.21122 10.1731 6.17535 10.265 6.17601C10.3569 6.17667 10.4448 6.21382 10.5093 6.27927C10.5738 6.34472 10.6097 6.43311 10.609 6.52501C10.6083 6.61691 10.5712 6.70478 10.5057 6.76929C10.4403 6.8338 10.3519 6.86967 10.26 6.86901ZM14.74 6.86901C14.6528 6.86237 14.5713 6.82304 14.5118 6.75889C14.4524 6.69473 14.4193 6.61048 14.4193 6.52301C14.4193 6.43554 14.4524 6.35129 14.5118 6.28714C14.5713 6.22298 14.6528 6.18365 14.74 6.17701C14.8318 6.17701 14.9198 6.21346 14.9847 6.27835C15.0495 6.34324 15.086 6.43125 15.086 6.52301C15.086 6.61478 15.0495 6.70278 14.9847 6.76767C14.9198 6.83256 14.8318 6.86901 14.74 6.86901ZM7.648 16.12C7.648 16.766 8.173 17.291 8.822 17.291H9.408V19.692C9.408 20.0312 9.54275 20.3565 9.78261 20.5964C10.0225 20.8363 10.3478 20.971 10.687 20.971C11.0262 20.971 11.3515 20.8363 11.5914 20.5964C11.8312 20.3565 11.966 20.0312 11.966 19.692V17.291H13.032V19.692C13.032 20.399 13.604 20.97 14.309 20.97C15.018 20.97 15.59 20.399 15.59 19.692V17.291H16.176C16.824 17.291 17.35 16.767 17.35 16.12V9.02801H7.648V16.12Z" fill="white"/>
</svg>
