<svg width="25" height="24" viewBox="0 0 25 24" fill="none" xmlns="http://www.w3.org/2000/svg">
<path d="M18.2129 12.5693C18.2031 10.9299 18.9546 9.69441 20.4722 8.78339C19.6235 7.58151 18.3393 6.92048 16.6466 6.79308C15.0439 6.66809 13.2904 7.71612 12.6484 7.71612C11.9698 7.71612 10.4182 6.83635 9.19728 6.83635C6.67768 6.87481 4 8.82185 4 12.7832C4 13.9539 4.21645 15.163 4.64936 16.4081C5.22818 18.0475 7.31488 22.0641 9.49156 21.9992C10.6298 21.9728 11.4348 21.2012 12.9159 21.2012C14.3532 21.2012 15.0974 21.9992 16.367 21.9992C18.5631 21.968 20.4504 18.3167 21 16.6725C18.0548 15.3 18.2129 12.6534 18.2129 12.5693ZM15.6568 5.23785C16.8898 3.7908 16.778 2.47354 16.7415 2C15.6519 2.0625 14.3921 2.73314 13.6747 3.55763C12.8843 4.44221 12.4197 5.53592 12.5195 6.76905C13.6966 6.85798 14.7715 6.25945 15.6568 5.23785Z" fill="white"/>
</svg>
