<svg width="48" height="48" viewBox="0 0 48 48" fill="none" xmlns="http://www.w3.org/2000/svg">
<path fill-rule="evenodd" clip-rule="evenodd" d="M7.025 16H4.975C4.43875 16 4 15.5781 4 15.0625V4.9375C4 4.42188 4.43875 4 4.975 4H15.025C15.5612 4 16 4.42188 16 4.9375V7.0625C16 7.57812 15.5612 8 15.025 8H8V15.0625C8 15.5781 7.56125 16 7.025 16ZM32.975 4H43.025C43.5612 4 44 4.42188 44 4.9375V15.0625C44 15.5781 43.5612 16 43.025 16H40.975C40.4388 16 40 15.5781 40 15.0625V8H32.975C32.4387 8 32 7.57812 32 7.0625V4.9375C32 4.42188 32.4387 4 32.975 4ZM15 40H8V32.9375C8 32.4219 7.56125 32 7.025 32H4.975C4.43875 32 4 32.4219 4 32.9375V43.0625C4 43.5781 4.43875 44 4.975 44H15C15.5363 44 15.975 43.5781 15.975 43.0625V40.9375C15.975 40.4219 15.5363 40 15 40ZM43.025 32H40.975C40.4388 32 40 32.4219 40 32.9375V40H32.975C32.4387 40 32 40.4219 32 40.9375V43.0625C32 43.5781 32.4387 44 32.975 44H43.025C43.5612 44 44 43.5781 44 43.0625V32.9375C44 32.4219 43.5612 32 43.025 32ZM12.5 16H15.5C15.775 16 16 16.225 16 16.5V31.5C16 31.775 15.775 32 15.5 32H12.5C12.225 32 12 31.775 12 31.5V16.5C12 16.225 12.225 16 12.5 16ZM18.5 16H19.5C19.775 16 20 16.225 20 16.5V31.5C20 31.775 19.775 32 19.5 32H18.5C18.225 32 18 31.775 18 31.5V16.5C18 16.225 18.225 16 18.5 16ZM36 31.5V16.5C36 16.225 35.775 16 35.5 16H32.5C32.225 16 32 16.225 32 16.5V31.5C32 31.775 32.225 32 32.5 32H35.5C35.775 32 36 31.775 36 31.5ZM22.5 16H23.5C23.775 16 24 16.225 24 16.5V31.5C24 31.775 23.775 32 23.5 32H22.5C22.225 32 22 31.775 22 31.5V16.5C22 16.225 22.225 16 22.5 16ZM29.5 16H26.5C26.225 16 26 16.225 26 16.5V31.5C26 31.775 26.225 32 26.5 32H29.5C29.775 32 30 31.775 30 31.5V16.5C30 16.225 29.775 16 29.5 16Z" fill="#7FC241"/>
</svg>
