<svg width="48" height="48" viewBox="0 0 48 48" fill="none" xmlns="http://www.w3.org/2000/svg">
<path fill-rule="evenodd" clip-rule="evenodd" d="M39.7143 9H35.4286V4.9375C35.4286 4.41977 34.9488 4 34.3571 4H30.7857C30.194 4 29.7143 4.41977 29.7143 4.9375V9H18.2857V4.9375C18.2857 4.41977 17.806 4 17.2143 4H13.6429C13.0512 4 12.5714 4.41977 12.5714 4.9375V9H8.28571C5.91875 9 4 10.6789 4 12.75V40.25C4 42.3211 5.91875 44 8.28571 44H39.7143C42.0812 44 44 42.3211 44 40.25V12.75C44 10.6789 42.0812 9 39.7143 9ZM39.1785 40.25H8.82136C8.52549 40.25 8.28564 40.0401 8.28564 39.7813V16.5H39.7142V39.7813C39.7142 40.0401 39.4744 40.25 39.1785 40.25ZM21.7533 35.6029L34.4595 24.5741C34.8796 24.2095 34.8823 23.6159 34.4656 23.2483L32.4535 21.4734C32.0367 21.1059 31.3583 21.1035 30.9382 21.4681L21.0211 30.076L17.0832 26.6025C16.6665 26.2348 15.9881 26.2325 15.568 26.5971L13.5396 28.3577C13.1195 28.7224 13.1168 29.316 13.5335 29.6836L20.238 35.5976C20.6548 35.9652 21.3332 35.9675 21.7533 35.6029Z" fill="#7FC241"/>
</svg>
