<svg width="260" height="256" viewBox="0 0 260 256" fill="none" xmlns="http://www.w3.org/2000/svg">
<path d="M163.141 98.8919L163.559 98.0759L162.739 97.2125L161.903 97.5867L161.532 97.1959L164.597 95.8844L164.987 96.2952L163.515 99.2858L163.141 98.8919ZM163.786 97.6782L164.2 96.8772C164.219 96.8435 164.246 96.796 164.279 96.7346C164.314 96.6723 164.349 96.6094 164.385 96.5461C164.422 96.4818 164.453 96.4279 164.478 96.3844C164.426 96.4141 164.367 96.4462 164.299 96.4806C164.234 96.515 164.172 96.5465 164.113 96.5751C164.055 96.6047 164.01 96.6277 163.979 96.6439L163.156 97.014L163.786 97.6782ZM164.034 99.8323L163.688 99.4678L166.091 97.187L166.437 97.5515L164.034 99.8323ZM166.506 99.0125L164.796 100.635L164.451 100.272L166.161 98.6496L166.506 99.0125ZM166.99 98.2119C167.043 98.2675 167.074 98.3295 167.082 98.398C167.091 98.4675 167.059 98.537 166.986 98.6064C166.914 98.6748 166.843 98.7031 166.773 98.6912C166.705 98.6794 166.645 98.6456 166.592 98.59C166.537 98.5324 166.506 98.4693 166.497 98.4008C166.491 98.3323 166.524 98.2639 166.596 98.1955C166.669 98.1261 166.739 98.0968 166.806 98.1076C166.874 98.1194 166.936 98.1542 166.99 98.2119ZM167.803 100.314C167.985 100.507 168.078 100.704 168.079 100.906C168.083 101.108 167.975 101.313 167.756 101.521L166.641 102.58L166.296 102.217L167.344 101.223C167.476 101.097 167.55 100.975 167.564 100.858C167.579 100.74 167.532 100.624 167.424 100.509C167.267 100.344 167.106 100.277 166.943 100.309C166.78 100.341 166.602 100.45 166.409 100.633L165.559 101.44L165.215 101.077L166.924 99.454L167.193 99.7367L167.009 100.008L167.028 100.028C167.123 100.008 167.216 100.007 167.306 100.026C167.398 100.044 167.486 100.078 167.57 100.128C167.655 100.178 167.732 100.24 167.803 100.314ZM169.437 102.036C169.581 102.189 169.674 102.349 169.715 102.518C169.756 102.687 169.746 102.855 169.687 103.024C169.627 103.192 169.517 103.352 169.356 103.504L169.162 103.689L168.078 102.548C167.916 102.709 167.831 102.875 167.821 103.044C167.813 103.215 167.881 103.376 168.027 103.53C168.131 103.639 168.234 103.727 168.336 103.794C168.441 103.861 168.558 103.921 168.687 103.975L168.392 104.255C168.271 104.208 168.159 104.148 168.056 104.077C167.954 104.006 167.844 103.909 167.727 103.786C167.567 103.618 167.459 103.439 167.403 103.25C167.349 103.061 167.352 102.869 167.414 102.673C167.476 102.479 167.604 102.291 167.796 102.108C167.988 101.926 168.181 101.804 168.377 101.742C168.572 101.68 168.76 101.674 168.942 101.725C169.123 101.776 169.288 101.88 169.437 102.036ZM169.163 102.296C169.055 102.182 168.93 102.124 168.788 102.123C168.648 102.124 168.5 102.186 168.345 102.309L169.084 103.088C169.168 103.005 169.23 102.919 169.27 102.829C169.31 102.74 169.323 102.65 169.307 102.559C169.292 102.469 169.244 102.381 169.163 102.296ZM169.443 105.532L171.701 103.389L172.053 103.76L170.109 105.604L171.02 106.563L170.705 106.862L169.443 105.532ZM173.02 105.877L171.31 107.5L170.965 107.137L172.675 105.514L173.02 105.877ZM173.504 105.076C173.557 105.132 173.588 105.194 173.596 105.262C173.605 105.332 173.573 105.401 173.5 105.471C173.428 105.539 173.357 105.567 173.287 105.556C173.219 105.544 173.159 105.51 173.106 105.454C173.051 105.397 173.02 105.334 173.012 105.265C173.005 105.197 173.038 105.128 173.11 105.06C173.183 104.991 173.253 104.961 173.32 104.972C173.388 104.984 173.45 105.019 173.504 105.076ZM175.305 108.22C175.486 108.412 175.574 108.603 175.567 108.793C175.561 108.985 175.449 109.184 175.23 109.391L174.112 110.453L173.768 110.09L174.821 109.09C174.951 108.967 175.025 108.849 175.043 108.736C175.061 108.623 175.021 108.515 174.923 108.412C174.786 108.268 174.641 108.208 174.488 108.232C174.337 108.256 174.174 108.351 173.999 108.517L173.092 109.378L172.747 109.015L173.801 108.015C173.887 107.933 173.949 107.853 173.985 107.776C174.023 107.698 174.035 107.623 174.021 107.551C174.008 107.477 173.968 107.406 173.903 107.337C173.808 107.237 173.71 107.179 173.608 107.162C173.507 107.146 173.4 107.167 173.287 107.226C173.175 107.283 173.055 107.372 172.927 107.493L172.073 108.304L171.729 107.941L173.439 106.318L173.707 106.601L173.525 106.87L173.544 106.891C173.637 106.869 173.727 106.866 173.814 106.881C173.903 106.896 173.987 106.927 174.066 106.973C174.146 107.019 174.219 107.076 174.284 107.145C174.406 107.273 174.485 107.402 174.523 107.532C174.562 107.662 174.556 107.792 174.505 107.922L174.532 107.95C174.675 107.915 174.814 107.925 174.95 107.979C175.085 108.032 175.203 108.113 175.305 108.22ZM176.896 109.897C177.101 110.113 177.208 110.322 177.217 110.523C177.227 110.725 177.131 110.923 176.928 111.115L175.777 112.207L175.532 111.949L175.709 111.649L175.697 111.637C175.589 111.647 175.491 111.646 175.402 111.632C175.313 111.619 175.226 111.588 175.142 111.538C175.058 111.491 174.97 111.419 174.878 111.322C174.781 111.22 174.714 111.111 174.674 110.996C174.636 110.879 174.634 110.761 174.667 110.642C174.7 110.522 174.776 110.406 174.895 110.294C175.071 110.127 175.265 110.066 175.478 110.113C175.691 110.161 175.929 110.313 176.19 110.57L176.483 110.856L176.572 110.771C176.691 110.659 176.749 110.551 176.746 110.448C176.745 110.345 176.697 110.244 176.602 110.144C176.521 110.059 176.43 109.987 176.329 109.93C176.228 109.874 176.123 109.824 176.015 109.782L176.16 109.421C176.284 109.463 176.41 109.523 176.538 109.603C176.667 109.684 176.787 109.782 176.896 109.897ZM176.252 111.072L176.035 110.858C175.857 110.683 175.705 110.585 175.58 110.565C175.455 110.544 175.345 110.58 175.248 110.672C175.163 110.752 175.125 110.836 175.134 110.923C175.144 111.01 175.188 111.095 175.266 111.177C175.385 111.303 175.52 111.373 175.669 111.388C175.82 111.403 175.965 111.344 176.104 111.212L176.252 111.072Z" fill="white"/>
<g opacity="0.8" filter="url(#filter0_dii_189_1646)">
<rect x="160.332" y="5.57289" width="107.09" height="213.391" rx="17.2166" transform="rotate(46.5 160.332 5.57289)" fill="white"/>
<rect x="160.329" y="5.68454" width="106.932" height="213.233" rx="17.1376" transform="rotate(46.5 160.329 5.68454)" stroke="#989898" stroke-width="0.15795"/>
</g>
<path d="M201.738 113.914L202.065 114.258C202.185 114.384 202.179 114.584 202.053 114.704L185.44 130.47C185.313 130.59 185.113 130.584 184.993 130.458L184.667 130.114L201.738 113.914Z" fill="#AEAEBA"/>
<path d="M139.737 24.0269C139.864 23.9068 140.064 23.9121 140.184 24.0386L140.51 24.3823L134.781 29.8186L134.455 29.4749C134.335 29.3484 134.34 29.1484 134.467 29.0283L139.737 24.0269Z" fill="#AEAEBA"/>
<path d="M129.197 34.0298C129.324 33.9097 129.524 33.9149 129.644 34.0415L129.97 34.3852L119.315 44.4967L118.988 44.153C118.868 44.0264 118.873 43.8265 119 43.7064L129.197 34.0298Z" fill="#AEAEBA"/>
<path d="M115.792 46.7508C115.919 46.6307 116.119 46.6359 116.239 46.7625L116.565 47.1062L105.91 57.2177L105.583 56.874C105.463 56.7474 105.469 56.5475 105.595 56.4274L115.792 46.7508Z" fill="#AEAEBA"/>
<g filter="url(#filter1_i_189_1646)">
<g clip-path="url(#clip0_189_1646)">
<rect x="160.256" y="8.47571" width="102.984" height="209.126" rx="14.6894" transform="rotate(46.5 160.256 8.47571)" fill="white"/>
<g clip-path="url(#clip1_189_1646)">
<rect x="158.585" y="16.8117" width="91.2952" height="198.07" rx="9.31906" transform="rotate(46.5 158.585 16.8117)" fill="url(#paint0_linear_189_1646)"/>
<path d="M172.393 31.3625L207.62 68.4842L205.673 70.3325C203.141 72.7344 199.142 72.6297 196.741 70.0986L170.211 42.1428C167.81 39.6117 167.914 35.6128 170.445 33.2109L172.393 31.3625Z" fill="#FBFCFC"/>
<rect x="183.572" y="48.1908" width="11.2145" height="1.8954" rx="0.947701" transform="rotate(46.5 183.572 48.1908)" fill="#D0D7DF"/>
<circle opacity="0.5" cx="193.757" cy="60.3003" r="1.73745" transform="rotate(46.5 193.757 60.3003)" fill="#D0D7DF"/>
<circle cx="193.757" cy="60.3002" r="0.947701" transform="rotate(46.5 193.757 60.3002)" fill="#D0D7DF"/>
<path d="M115.616 78.2137C115.213 77.7883 114.771 77.4901 114.29 77.3191C113.82 77.1483 113.322 77.098 112.798 77.1682C112.279 77.2431 111.745 77.4319 111.197 77.7344C110.648 78.037 110.099 78.449 109.55 78.9706C108.809 79.6736 108.262 80.3653 107.908 81.0458C107.564 81.7265 107.437 82.3919 107.528 83.0421C107.622 83.6877 107.96 84.3164 108.541 84.9281C108.944 85.3535 109.396 85.7335 109.895 86.0681C110.399 86.4075 110.977 86.7442 111.63 87.0783L109.766 88.847C109.135 88.5648 108.566 88.2377 108.058 87.8655C107.546 87.4979 107.024 87.0345 106.494 86.4754C105.469 85.3953 104.848 84.2955 104.63 83.1759C104.422 82.0566 104.56 80.9488 105.045 79.8523C105.536 78.7513 106.318 77.6906 107.394 76.6701C108.187 75.9173 109.016 75.3355 109.879 74.9247C110.743 74.5139 111.613 74.2873 112.491 74.245C113.368 74.2028 114.228 74.3628 115.071 74.7251C115.915 75.0874 116.713 75.6652 117.466 76.4585C117.96 76.9795 118.388 77.5639 118.748 78.2118C119.118 78.86 119.415 79.5318 119.639 80.2275L117.152 81.2249C116.967 80.6561 116.755 80.1077 116.517 79.5795C116.279 79.0513 115.979 78.596 115.616 78.2137ZM121.916 94.3858C121.247 95.0207 120.568 95.4923 119.88 95.8005C119.196 96.1134 118.512 96.2679 117.827 96.264C117.151 96.2603 116.493 96.1032 115.854 95.7929C115.218 95.4873 114.615 95.0334 114.044 94.4313C113.509 93.8673 113.107 93.2626 112.84 92.6171C112.577 91.9764 112.457 91.3138 112.48 90.6294C112.511 89.9451 112.695 89.2625 113.029 88.5815C113.369 87.9053 113.873 87.2498 114.542 86.6148C115.431 85.7713 116.333 85.2147 117.249 84.9451C118.165 84.6754 119.06 84.6802 119.933 84.9594C120.807 85.2386 121.627 85.782 122.393 86.5897C123.105 87.3401 123.575 88.1563 123.804 89.0384C124.037 89.9254 124.002 90.8262 123.698 91.741C123.399 92.6606 122.805 93.5422 121.916 94.3858ZM116.658 88.8443C116.132 89.3432 115.744 89.82 115.495 90.2749C115.245 90.7297 115.145 91.1652 115.195 91.5813C115.245 91.9974 115.455 92.4013 115.827 92.7932C116.195 93.1803 116.582 93.4072 116.991 93.4738C117.404 93.5452 117.842 93.4658 118.304 93.2356C118.772 93.0101 119.268 92.648 119.794 92.1491C120.324 91.6457 120.71 91.1711 120.95 90.7253C121.199 90.2798 121.296 89.8513 121.242 89.4397C121.187 89.0282 120.974 88.6265 120.602 88.2346C120.054 87.6563 119.456 87.4239 118.81 87.5375C118.169 87.6559 117.451 88.0915 116.658 88.8443ZM136.358 101.306C137.22 102.214 137.636 103.122 137.608 104.03C137.589 104.938 137.066 105.88 136.038 106.855L130.812 111.814L128.73 109.621L133.412 105.178C133.985 104.634 134.325 104.126 134.43 103.653C134.536 103.18 134.393 102.739 134.003 102.328C133.455 101.749 132.857 101.536 132.21 101.686C131.567 101.833 130.861 102.271 130.092 103.001L126.07 106.818L123.995 104.631L128.677 100.189C129.059 99.826 129.338 99.4791 129.515 99.1482C129.691 98.8173 129.76 98.5022 129.721 98.2029C129.683 97.9036 129.532 97.6154 129.269 97.3382C128.883 96.9319 128.477 96.7092 128.049 96.6701C127.63 96.6312 127.175 96.7497 126.683 97.0258C126.201 97.3021 125.675 97.7101 125.106 98.2498L121.336 101.828L119.261 99.6417L127.275 92.036L128.86 93.7063L128.114 94.9731L128.23 95.0949C128.661 94.9944 129.079 94.9844 129.482 95.0648C129.89 95.1501 130.275 95.3023 130.637 95.5215C131 95.7407 131.326 96.0033 131.616 96.3091C132.174 96.897 132.55 97.4847 132.745 98.0723C132.944 98.6648 132.947 99.2614 132.754 99.8622L132.937 100.056C133.575 99.9046 134.194 99.9581 134.793 100.216C135.396 100.479 135.918 100.842 136.358 101.306ZM131.297 119.389C130.236 118.271 129.62 117.23 129.45 116.265C129.279 115.31 129.545 114.499 130.247 113.832C130.73 113.374 131.277 113.142 131.888 113.134C132.498 113.127 133.15 113.349 133.841 113.801C133.724 113.485 133.693 113.142 133.75 112.771C133.811 112.395 133.963 112.091 134.207 111.86C134.513 111.569 134.85 111.418 135.218 111.404C135.592 111.386 136.035 111.451 136.549 111.6C136.331 111.007 136.305 110.395 136.471 109.766C136.641 109.141 136.998 108.57 137.543 108.053C138.126 107.5 138.741 107.157 139.388 107.025C140.044 106.893 140.71 106.969 141.388 107.252C142.07 107.54 142.745 108.036 143.411 108.738C143.552 108.886 143.706 109.068 143.872 109.282C144.039 109.496 144.188 109.695 144.318 109.881C144.453 110.07 144.54 110.201 144.581 110.272L147.234 113.068L146.123 114.122L144.609 113.174C144.541 113.456 144.434 113.721 144.288 113.969C144.142 114.217 143.956 114.448 143.732 114.661C142.871 115.477 141.914 115.813 140.86 115.669C139.815 115.525 138.787 114.92 137.776 113.855C137.55 113.588 137.342 113.331 137.153 113.083C136.962 113.055 136.792 113.058 136.642 113.091C136.492 113.124 136.365 113.191 136.26 113.291C136.154 113.39 136.107 113.517 136.117 113.671C136.136 113.826 136.21 114.009 136.34 114.223C136.479 114.436 136.675 114.676 136.929 114.944L138.222 116.306C139.056 117.185 139.503 118.034 139.56 118.851C139.623 119.673 139.288 120.43 138.557 121.124C137.62 122.013 136.522 122.311 135.262 122.017C134.007 121.728 132.685 120.852 131.297 119.389ZM132.812 118.129C133.307 118.65 133.781 119.049 134.235 119.326C134.689 119.613 135.102 119.771 135.474 119.799C135.841 119.832 136.149 119.731 136.398 119.495C136.598 119.304 136.702 119.093 136.708 118.86C136.714 118.636 136.627 118.382 136.448 118.098C136.274 117.819 136.012 117.495 135.663 117.127L134.588 115.994C134.334 115.727 134.062 115.526 133.772 115.393C133.486 115.264 133.208 115.21 132.937 115.231C132.662 115.256 132.421 115.367 132.215 115.562C131.914 115.847 131.814 116.215 131.914 116.665C132.019 117.12 132.318 117.608 132.812 118.129ZM139.225 112.711C139.615 113.122 140.027 113.303 140.462 113.254C140.897 113.205 141.331 112.974 141.766 112.561C142.249 112.103 142.515 111.66 142.563 111.233C142.621 110.805 142.462 110.394 142.085 109.997C141.704 109.595 141.297 109.41 140.862 109.441C140.433 109.467 139.977 109.709 139.494 110.167C139.059 110.579 138.808 111.004 138.741 111.44C138.678 111.881 138.839 112.305 139.225 112.711ZM151.425 117.154C152.445 118.229 152.993 119.276 153.069 120.294C153.145 121.312 152.705 122.274 151.749 123.181L146.408 128.249L144.959 126.722L145.648 125.265L145.593 125.208C145.089 125.251 144.632 125.239 144.224 125.172C143.816 125.106 143.421 124.958 143.04 124.729C142.659 124.5 142.258 124.163 141.836 123.718C141.387 123.245 141.074 122.734 140.898 122.184C140.726 121.639 140.724 121.082 140.893 120.513C141.066 119.94 141.442 119.379 142.02 118.83C142.871 118.023 143.78 117.727 144.749 117.944C145.722 118.156 146.797 118.838 147.974 119.992L149.336 121.342L149.688 121.009C150.108 120.61 150.312 120.207 150.3 119.802C150.287 119.396 150.095 118.997 149.723 118.605C149.355 118.218 148.94 117.89 148.476 117.622C148.013 117.353 147.52 117.112 146.999 116.898L147.789 114.773C148.417 114.985 149.045 115.292 149.673 115.696C150.306 116.104 150.889 116.59 151.425 117.154ZM148.06 122.553L147.229 121.735C146.539 121.045 145.945 120.673 145.448 120.618C144.955 120.568 144.517 120.724 144.135 121.087C143.801 121.405 143.655 121.729 143.697 122.061C143.745 122.389 143.918 122.71 144.217 123.026C144.662 123.494 145.174 123.757 145.755 123.814C146.341 123.876 146.89 123.664 147.401 123.179L148.06 122.553ZM157.166 117.059L157.016 117.202C156.75 117.191 156.413 117.166 156.004 117.127C155.595 117.088 155.16 117.042 154.7 116.988C154.245 116.929 153.802 116.869 153.37 116.806C152.943 116.739 152.577 116.674 152.271 116.61L150.89 115.154L151.083 114.971C151.414 114.956 151.802 114.934 152.245 114.903C152.698 114.873 153.156 114.834 153.619 114.785C154.081 114.737 154.488 114.678 154.84 114.608L157.166 117.059ZM155.889 133.473C155.344 133.99 154.761 134.299 154.138 134.399C153.525 134.5 152.88 134.39 152.204 134.069C151.532 133.744 150.837 133.204 150.121 132.449C149.59 131.889 149.17 131.375 148.861 130.906C148.556 130.441 148.295 129.926 148.077 129.361L149.883 127.647C150.1 128.268 150.379 128.888 150.722 129.507C151.074 130.127 151.429 130.626 151.787 131.003C152.191 131.429 152.541 131.673 152.838 131.737C153.144 131.801 153.399 131.735 153.605 131.54C153.739 131.413 153.822 131.262 153.855 131.085C153.896 130.909 153.869 130.636 153.771 130.265C153.678 129.89 153.495 129.338 153.22 128.608C152.954 127.907 152.775 127.291 152.681 126.762C152.593 126.238 152.619 125.759 152.761 125.324C152.912 124.89 153.215 124.458 153.669 124.027C154.41 123.324 155.239 123.082 156.156 123.302C157.082 123.522 158.003 124.115 158.919 125.08C159.391 125.577 159.79 126.098 160.116 126.642C160.446 127.192 160.728 127.81 160.962 128.496L158.759 129.333C158.555 128.773 158.339 128.264 158.114 127.806C157.893 127.353 157.61 126.945 157.265 126.582C156.961 126.262 156.689 126.061 156.449 125.98C156.209 125.899 156 125.943 155.823 126.111C155.694 126.233 155.618 126.383 155.595 126.559C155.576 126.74 155.618 127.009 155.721 127.366C155.832 127.723 156.015 128.227 156.268 128.877C156.513 129.507 156.691 130.088 156.803 130.617C156.92 131.142 156.914 131.638 156.785 132.106C156.661 132.569 156.362 133.024 155.889 133.473Z" fill="white"/>
</g>
</g>
<rect x="160.25" y="8.69901" width="102.668" height="208.81" rx="14.5314" transform="rotate(46.5 160.25 8.69901)" stroke="#B8BABC" stroke-width="0.3159"/>
</g>
<defs>
<filter id="filter0_dii_189_1646" x="-6.4607" y="-6.43133" width="272.73" height="268.795" filterUnits="userSpaceOnUse" color-interpolation-filters="sRGB">
<feFlood flood-opacity="0" result="BackgroundImageFix"/>
<feColorMatrix in="SourceAlpha" type="matrix" values="0 0 0 0 0 0 0 0 0 0 0 0 0 0 0 0 0 0 127 0" result="hardAlpha"/>
<feOffset dx="10.1088" dy="10.1088"/>
<feGaussianBlur stdDeviation="11.0565"/>
<feColorMatrix type="matrix" values="0 0 0 0 0.431373 0 0 0 0 0.509804 0 0 0 0 0.564706 0 0 0 0.4 0"/>
<feBlend mode="normal" in2="BackgroundImageFix" result="effect1_dropShadow_189_1646"/>
<feBlend mode="normal" in="SourceGraphic" in2="effect1_dropShadow_189_1646" result="shape"/>
<feColorMatrix in="SourceAlpha" type="matrix" values="0 0 0 0 0 0 0 0 0 0 0 0 0 0 0 0 0 0 127 0" result="hardAlpha"/>
<feOffset dx="7.58161"/>
<feGaussianBlur stdDeviation="4.10671"/>
<feComposite in2="hardAlpha" operator="arithmetic" k2="-1" k3="1"/>
<feColorMatrix type="matrix" values="0 0 0 0 0.819608 0 0 0 0 0.862745 0 0 0 0 0.92549 0 0 0 0.25 0"/>
<feBlend mode="normal" in2="shape" result="effect2_innerShadow_189_1646"/>
<feColorMatrix in="SourceAlpha" type="matrix" values="0 0 0 0 0 0 0 0 0 0 0 0 0 0 0 0 0 0 127 0" result="hardAlpha"/>
<feOffset dx="-5.05441"/>
<feGaussianBlur stdDeviation="3.4749"/>
<feComposite in2="hardAlpha" operator="arithmetic" k2="-1" k3="1"/>
<feColorMatrix type="matrix" values="0 0 0 0 0.277083 0 0 0 0 0.339992 0 0 0 0 0.4375 0 0 0 0.25 0"/>
<feBlend mode="normal" in2="effect2_innerShadow_189_1646" result="effect3_innerShadow_189_1646"/>
</filter>
<filter id="filter1_i_189_1646" x="3.50651" y="8.47571" width="227.638" height="218.654" filterUnits="userSpaceOnUse" color-interpolation-filters="sRGB">
<feFlood flood-opacity="0" result="BackgroundImageFix"/>
<feBlend mode="normal" in="SourceGraphic" in2="BackgroundImageFix" result="shape"/>
<feColorMatrix in="SourceAlpha" type="matrix" values="0 0 0 0 0 0 0 0 0 0 0 0 0 0 0 0 0 0 127 0" result="hardAlpha"/>
<feOffset dx="-5.05441"/>
<feGaussianBlur stdDeviation="4.58056"/>
<feComposite in2="hardAlpha" operator="arithmetic" k2="-1" k3="1"/>
<feColorMatrix type="matrix" values="0 0 0 0 0.742188 0 0 0 0 0.756042 0 0 0 0 0.791667 0 0 0 0.34 0"/>
<feBlend mode="normal" in2="shape" result="effect1_innerShadow_189_1646"/>
</filter>
<linearGradient id="paint0_linear_189_1646" x1="158.585" y1="214.881" x2="249.88" y2="214.881" gradientUnits="userSpaceOnUse">
<stop stop-color="#7FC241"/>
<stop offset="1" stop-color="#007CB6"/>
</linearGradient>
<clipPath id="clip0_189_1646">
<rect x="160.256" y="8.47571" width="102.984" height="209.126" rx="14.6894" transform="rotate(46.5 160.256 8.47571)" fill="white"/>
</clipPath>
<clipPath id="clip1_189_1646">
<rect x="158.585" y="16.8117" width="91.2952" height="198.07" rx="9.31906" transform="rotate(46.5 158.585 16.8117)" fill="white"/>
</clipPath>
</defs>
</svg>
