<svg width="48" height="48" viewBox="0 0 48 48" fill="none" xmlns="http://www.w3.org/2000/svg">
<path fill-rule="evenodd" clip-rule="evenodd" d="M38.7891 29H41.5C42.8828 29 44 30.3438 44 32V41C44 42.6563 42.8828 44 41.5 44H6.5C5.11719 44 4 42.6563 4 41V32C4 30.3438 5.11719 29 6.5 29H9.21094C7.88281 26.5859 7.125 23.8203 7.125 20.875C7.125 11.5547 14.6797 4 24 4C33.3203 4 40.875 11.5547 40.875 20.875C40.875 23.8203 40.1172 26.5859 38.7891 29ZM25.5392 23.2656L21.6251 22.1484C19.8829 21.6484 18.5001 20.2188 18.2736 18.4219C17.9533 15.9219 19.7579 13.7813 22.1251 13.5V12.125C22.1251 11.4375 22.6876 10.875 23.3751 10.875H24.6251C25.3126 10.875 25.8751 11.4375 25.8751 12.125V13.5078C26.7658 13.6172 27.6173 13.9141 28.3595 14.4062C28.8439 14.7266 28.8907 15.4297 28.4767 15.8438L27.1095 17.2109C26.8204 17.5 26.3829 17.5391 26.0079 17.3672C25.7579 17.2578 25.4845 17.1953 25.2033 17.1953H22.6408C22.2814 17.1953 21.9845 17.4922 21.9845 17.8516C21.9845 18.1406 22.1798 18.4062 22.4611 18.4844L26.3751 19.6016C28.1095 20.1016 29.5001 21.5313 29.7267 23.3281C30.047 25.8281 28.2423 27.9688 25.8751 28.25V29.625C25.8751 30.3125 25.3126 30.875 24.6251 30.875H23.3751C22.6876 30.875 22.1251 30.3125 22.1251 29.625V28.2422C21.2345 28.1328 20.3829 27.8359 19.6408 27.3438C19.1564 27.0234 19.1095 26.3203 19.5236 25.9063L20.8908 24.5391C21.1798 24.25 21.6173 24.2109 21.9923 24.3828C22.2423 24.4922 22.5158 24.5547 22.797 24.5547H25.3595C25.7189 24.5547 26.0158 24.2578 26.0158 23.8984C26.0158 23.6094 25.8204 23.3438 25.5392 23.2656ZM24 7.75C31.2344 7.75 37.125 13.6406 37.125 20.875C37.125 28.1094 31.2344 34 24 34C16.7656 34 10.875 28.1094 10.875 20.875C10.875 13.6406 16.7656 7.75 24 7.75ZM7.75 32.7494V40.2494H40.25V32.7494H35.9844C35.0313 33.7103 33.9609 34.5385 32.8047 35.2494H35.875C36.2188 35.2494 36.5 35.5306 36.5 35.8744V37.1244C36.5 37.4681 36.2188 37.7494 35.875 37.7494H12.125C11.7812 37.7494 11.5 37.4681 11.5 37.1244V35.8744C11.5 35.5306 11.7812 35.2494 12.125 35.2494H15.1953C14.0391 34.5385 12.9688 33.7103 12.0156 32.7494H7.75Z" fill="#7FC241"/>
</svg>
