<svg width="48" height="48" viewBox="0 0 48 48" fill="none" xmlns="http://www.w3.org/2000/svg">
<path fill-rule="evenodd" clip-rule="evenodd" d="M38 14.0001L30 6.00006V8V14.0001H36H38ZM36 16.0001H30C28.8954 16.0001 28 15.1046 28 14.0001V8H18V14V34H30H36V16.0001ZM32 38.0001H36C38.2091 38.0001 40 36.2092 40 34.0001V14.0159C40.004 13.4901 39.8006 12.9722 39.4142 12.5858L31.4142 4.58584C31.0279 4.19954 30.5101 3.99608 29.9844 4.00006H18C15.7909 4.00006 14 5.79092 14 8.00006V12H10C9.86193 12 9.72713 12.014 9.59693 12.0406C8.68556 12.2271 8 13.0335 8 14V41.9976V42C8 43.1046 8.89543 44 10 44H30C31.1046 44 32 43.1046 32 42V38.0001ZM28 38.0001H18C15.7909 38.0001 14 36.2092 14 34.0001V16H12L12 40H28V38.0001ZM31 22C30.4477 22 30 22.4477 30 23V32H32V23C32 22.4477 31.5523 22 31 22ZM26 25C26 24.4477 26.4477 24 27 24C27.5523 24 28 24.4477 28 25V32H26V25ZM22 27C22 26.4477 22.4477 26 23 26C23.5523 26 24 26.4477 24 27V32H22V27Z" fill="#7FC241"/>
</svg>
