<svg width="292" height="291" viewBox="0 0 292 291" fill="none" xmlns="http://www.w3.org/2000/svg">
<path fill-rule="evenodd" clip-rule="evenodd" d="M147.033 0.000793457C175.864 0.204031 203.99 8.91032 227.864 25.0219C251.738 41.1334 270.29 63.9288 281.182 90.5338C292.074 117.139 294.817 146.362 289.067 174.519C283.316 202.675 269.329 228.505 248.868 248.75C228.408 268.996 202.391 282.75 174.097 288.28C145.804 293.81 116.501 290.867 89.883 279.823C63.2653 268.778 40.5249 250.127 24.529 226.221C8.53318 202.314 -0.00196298 174.223 -8.62481e-07 145.489V0.000793457H147.033ZM69.0799 145.489C68.9696 160.871 73.4459 175.94 81.9411 188.784C90.4364 201.628 102.568 211.668 116.797 217.631C131.026 223.594 146.711 225.212 161.864 222.278C177.016 219.345 190.953 211.992 201.907 201.154C212.861 190.316 220.338 176.479 223.391 161.4C226.443 146.32 224.932 130.677 219.051 116.455C213.17 102.232 203.182 90.0701 190.356 81.5119C177.529 72.9538 162.441 68.3848 147.005 68.3844H69.0665L69.0799 145.489Z" fill="#6EC400"/>
<path fill-rule="evenodd" clip-rule="evenodd" d="M147.033 0C175.864 0.203238 203.99 8.90952 227.864 25.0211C251.738 41.1326 270.29 63.928 281.182 90.533C292.074 117.138 294.817 146.361 289.067 174.518C283.316 202.675 269.329 228.504 248.868 248.75C228.408 268.995 202.391 282.75 174.097 288.279C145.804 293.809 116.501 290.866 89.883 279.822C63.2654 268.778 40.5249 250.126 24.5291 226.22C8.53321 202.313 69.0645 203.252 69.0665 174.518L69.08 0H147.033ZM69.08 145.488C68.9696 160.871 73.446 175.939 81.9412 188.783C90.4364 201.627 102.568 211.667 116.797 217.63C131.026 223.594 146.711 225.211 161.864 222.277C177.016 219.344 190.953 211.992 201.907 201.153C212.861 190.315 220.338 176.478 223.391 161.399C226.443 146.32 224.932 130.677 219.051 116.454C213.17 102.231 203.183 90.0693 190.356 81.5112C177.529 72.953 162.441 68.384 147.005 68.3836H69.0665L69.08 145.488Z" fill="url(#paint0_linear_189_1662)"/>
<defs>
<linearGradient id="paint0_linear_189_1662" x1="146.012" y1="8.24161" x2="146.012" y2="152.565" gradientUnits="userSpaceOnUse">
<stop stop-color="#FFBA00"/>
<stop offset="0.504047" stop-color="#FDDA00"/>
<stop offset="1" stop-color="#7FC241"/>
</linearGradient>
</defs>
</svg>
