<svg width="48" height="48" viewBox="0 0 48 48" fill="none" xmlns="http://www.w3.org/2000/svg">
<path fill-rule="evenodd" clip-rule="evenodd" d="M36.8574 29.5246C38.832 26.8636 40 23.5682 40 20C40 11.1634 32.8366 4 24 4C15.1634 4 8 11.1634 8 20C8 23.568 9.16792 26.8633 11.1423 29.5243C9.82678 30.5972 8.64703 31.8358 7.6358 33.2152C5.74596 35.7931 4.5112 38.772 4.02159 41.9005C3.85071 42.9923 4.71634 43.9375 5.83127 43.9968C6.94619 44.056 7.88573 43.2055 8.08414 42.1183C8.5145 39.7598 9.47643 37.5182 10.9086 35.5646C11.7733 34.3851 12.792 33.3343 13.9327 32.4365C16.6822 34.6649 20.1852 36 24 36C27.8147 36 31.3176 34.665 34.0669 32.4368C35.1624 33.2989 36.1458 34.3025 36.9886 35.4265C38.4771 37.4118 39.4751 39.7036 39.9159 42.1188C40.1143 43.2061 41.0538 44.0565 42.1687 43.9973C43.2837 43.9381 44.1493 42.9929 43.9784 41.901C43.4776 38.7012 42.1975 35.6588 40.2357 33.0425C39.2529 31.7317 38.1171 30.5519 36.8574 29.5246ZM24 31.84C17.4609 31.84 12.16 26.5391 12.16 20C12.16 13.4609 17.4609 8.16 24 8.16C30.5391 8.16 35.84 13.4609 35.84 20C35.84 26.5391 30.5391 31.84 24 31.84Z" fill="#7FC241"/>
</svg>
