<svg width="48" height="48" viewBox="0 0 48 48" fill="none" xmlns="http://www.w3.org/2000/svg">
<path d="M40.5571 31.4186V14.128C40.552 13.0347 40.1183 11.9877 39.3504 11.2147C38.5825 10.4417 37.5425 10.0051 36.4565 10H11.5048C10.4155 9.99999 9.37051 10.4343 8.59843 11.2079C7.82635 11.9814 7.39003 13.0314 7.38491 14.128V31.4186H4V34.7288C4 35.5964 4.34236 36.4284 4.95176 37.0419C5.56116 37.6554 6.38769 38 7.24952 38H40.7505C41.6123 38 42.4388 37.6554 43.0482 37.0419C43.6576 36.4284 44 35.5964 44 34.7288V31.4186H40.5571ZM9.60928 14.2058C9.60928 13.6894 9.81307 13.1942 10.1758 12.829C10.5385 12.4638 11.0305 12.2587 11.5435 12.2587H36.4952C37.0082 12.2587 37.5001 12.4638 37.8629 12.829C38.2256 13.1942 38.4294 13.6894 38.4294 14.2058V31.4186H26.824V32.509H21.176V31.4186H9.5706L9.60928 14.2058ZM41.7756 34.7288C41.7756 35.018 41.6615 35.2953 41.4584 35.4998C41.2552 35.7043 40.9797 35.8192 40.6925 35.8192H7.24952C6.96224 35.8192 6.68673 35.7043 6.4836 35.4998C6.28046 35.2953 6.16634 35.018 6.16634 34.7288V33.5216H19.2998C19.4939 33.864 19.7758 34.1478 20.116 34.343C20.4563 34.5382 20.8424 34.6379 21.234 34.6314H26.824C27.2156 34.6379 27.6017 34.5382 27.942 34.343C28.2823 34.1478 28.5642 33.864 28.7582 33.5216H41.8917L41.7756 34.7288Z" fill="#629C2D"/>
<path d="M27.501 27.349L33.1297 19.5604L31.3502 18.2559L26.3598 25.1682L20.8473 21.2739C20.7286 21.1877 20.5932 21.1275 20.4499 21.0973C20.3066 21.0671 20.1586 21.0676 20.0155 21.0987C19.8628 21.1358 19.7205 21.2078 19.5998 21.3091C19.479 21.4104 19.383 21.5383 19.3192 21.6828L14.7931 28.4395L16.7273 29.6662L20.5958 23.8247L26.0697 27.719C26.3105 27.8512 26.5921 27.8866 26.8578 27.8179C27.1234 27.7492 27.3533 27.5817 27.501 27.349Z" fill="#629C2D"/>
</svg>
