<svg width="48" height="48" viewBox="0 0 48 48" fill="none" xmlns="http://www.w3.org/2000/svg">
<path d="M43.0984 19.2561C43.6505 18.5324 43.9688 17.604 43.9978 16.6329C44.0268 15.6617 43.7647 14.7094 43.2572 13.942L40.1618 9.4436C39.6347 8.7 38.8964 8.20547 38.0831 8.05125C37.2699 7.89703 36.4366 8.09355 35.7371 8.60452L33.2568 10.4924C32.872 10.7332 32.4427 10.8592 32.0068 10.8592C31.5708 10.8592 31.1415 10.7332 30.7567 10.4924L29.0702 9.21052C28.3111 8.67132 27.4372 8.3965 26.5502 8.41806C25.8078 8.39599 25.072 8.58805 24.4073 8.97745L23.9311 9.28045L22.1652 8.60452C20.6003 8.09477 18.928 8.32047 17.5023 9.23383L16.8475 9.69999C16.4172 9.9567 15.9456 10.1039 15.4635 10.132C14.9814 10.1602 14.4997 10.0685 14.0498 9.86314L12.2244 8.81429C11.4731 8.41476 10.6318 8.31238 9.82673 8.52253C9.0217 8.73267 8.29645 9.24399 7.75995 9.97968L4.68445 14.4781C4.17664 15.2392 3.93677 16.2001 4.01429 17.1628C4.09182 18.1255 4.48083 19.0166 5.10113 19.6524L8.05758 22.6358L7.32342 23.4981C6.74422 24.1874 6.41945 25.1168 6.41945 26.0853C6.41945 27.0538 6.74422 27.9832 7.32342 28.6725C7.70885 29.1159 8.1885 29.4298 8.71236 29.5815C8.61158 29.9187 8.55798 30.2729 8.55362 30.6303C8.55379 31.6007 8.8821 32.5314 9.46635 33.2175C9.77258 33.6251 10.1523 33.9475 10.5779 34.1612C11.0035 34.3749 11.4643 34.4745 11.9268 34.4528H12.1847C12.2837 35.2025 12.5824 35.8961 13.0379 36.4339C13.3258 36.7758 13.6689 37.0468 14.0471 37.2309C14.4253 37.415 14.831 37.5086 15.2404 37.5061C15.5773 37.5046 15.912 37.4417 16.2324 37.3196C16.3763 37.856 16.6281 38.3437 16.9666 38.7414C17.5531 39.4234 18.3438 39.8083 19.1691 39.8135C19.9952 39.8133 20.7874 39.4277 21.3715 38.7414L21.8477 38.2985L22.3834 38.9045C22.9789 39.6021 23.7846 39.9958 24.6256 40C25.3718 39.9765 26.0819 39.6178 26.6098 38.9978C26.8661 38.6897 27.0684 38.3254 27.205 37.9256C27.7699 38.4511 28.4687 38.7384 29.1892 38.7414C29.9283 38.7213 30.635 38.381 31.1734 37.7858C31.6067 37.2913 31.8921 36.6453 31.9869 35.9445H32.4433C33.2591 35.9508 34.0465 35.5925 34.6458 34.9422C35.206 34.335 35.5528 33.5036 35.618 32.6115C35.9956 32.6208 36.371 32.5414 36.7221 32.3781C37.0733 32.2148 37.3931 31.9707 37.6629 31.6603C37.9328 31.3499 38.1471 30.9793 38.2934 30.5703C38.4397 30.1613 38.515 29.7221 38.5149 29.2785C38.5448 28.314 38.261 27.3723 37.7213 26.6447L37.3046 26.1785C37.6856 25.9917 38.025 25.7046 38.2967 25.3395L43.0984 19.2561ZM8.79173 27.1341C8.58078 26.8777 8.46288 26.5351 8.46288 26.1785C8.46288 25.822 8.58078 25.4793 8.79173 25.2229L10.9545 22.4959C11.1702 22.2424 11.4628 22.0998 11.768 22.0997C11.9193 22.0985 12.0692 22.1329 12.209 22.201C12.3487 22.269 12.4754 22.3693 12.5815 22.4959C12.7912 22.7484 12.9086 23.0872 12.9086 23.4399C12.9086 23.7926 12.7912 24.1314 12.5815 24.3838L10.4188 27.1341C10.196 27.3716 9.90604 27.5032 9.60525 27.5032C9.30446 27.5032 9.01444 27.3716 8.79173 27.1341ZM12.6411 31.7957C12.4228 32.0435 12.1311 32.182 11.8275 32.182C11.524 32.182 11.2323 32.0435 11.014 31.7957C10.809 31.5359 10.6955 31.1943 10.6966 30.8401C10.6993 30.4866 10.8123 30.1467 11.014 29.8845L11.8871 28.8822L14.0498 26.1319C14.2726 25.8944 14.5626 25.7629 14.8634 25.7629C15.1641 25.7629 15.4542 25.8944 15.6769 26.1319C15.7861 26.2558 15.8729 26.4043 15.9323 26.5685C15.9916 26.7326 16.0222 26.9092 16.0222 27.0875C16.0222 27.2659 15.9916 27.4424 15.9323 27.6066C15.8729 27.7708 15.7861 27.9192 15.6769 28.0431L12.6411 31.7957ZM16.0142 34.8956C15.7992 35.1419 15.5109 35.2798 15.2106 35.2798C14.9103 35.2798 14.6219 35.1419 14.407 34.8956C14.2532 34.7121 14.1472 34.4808 14.1015 34.2289C14.0558 33.977 14.0723 33.7151 14.149 33.4738L17.1055 29.9777C17.2438 29.9556 17.3839 29.9556 17.5222 29.9777C17.8273 29.9778 18.12 30.1204 18.3357 30.3739C18.4443 30.4958 18.5308 30.6423 18.5899 30.8045C18.649 30.9668 18.6795 31.1414 18.6795 31.3179C18.6795 31.4944 18.649 31.669 18.5899 31.8312C18.5308 31.9935 18.4443 32.14 18.3357 32.2618L16.0142 34.8956ZM21.3715 35.6881L20.0024 37.2963C19.7818 37.5388 19.491 37.6737 19.1889 37.6737C18.8868 37.6737 18.596 37.5388 18.3754 37.2963C18.2172 37.1161 18.1082 36.8847 18.0623 36.6315C18.0164 36.3783 18.0356 36.1149 18.1174 35.8745L19.7643 33.9167L20.0421 33.5438C20.1946 33.4482 20.3653 33.4 20.5381 33.4039C20.6894 33.4027 20.8393 33.4371 20.9791 33.5052C21.1188 33.5733 21.2455 33.6736 21.3517 33.8002C21.5482 34.0499 21.659 34.3763 21.6627 34.7163C21.6664 35.0564 21.5626 35.386 21.3715 35.6415V35.6881ZM36.4117 30.1175C36.1854 30.3253 35.9011 30.4261 35.6148 30.4003C35.3284 30.3744 35.0606 30.2237 34.864 29.9777L29.9631 24.1508L28.5543 25.759L33.4552 31.5626C33.5636 31.6758 33.6484 31.8165 33.7035 31.974C33.7585 32.1315 33.7822 32.3017 33.7727 32.4716C33.7706 32.6464 33.7358 32.8184 33.6706 32.9755C33.6054 33.1327 33.5116 33.271 33.3957 33.3806C33.1642 33.6346 32.8593 33.7758 32.5425 33.7758C32.2258 33.7758 31.9208 33.6346 31.6893 33.3806L27.4431 28.3461L26.0542 29.9777L29.7845 34.4528C30.0088 34.711 30.1372 35.0628 30.1416 35.4317C30.1427 35.5754 30.1185 35.7178 30.0708 35.8502C30.023 35.9825 29.9525 36.1018 29.8638 36.2008C29.6394 36.4139 29.3541 36.518 29.0664 36.492C28.7786 36.466 28.5103 36.3118 28.3162 36.061L25.1812 32.3551L24.5462 33.1242L23.7922 33.9866L25.1415 35.6182C25.2393 35.7329 25.3168 35.8691 25.3698 36.0191C25.4227 36.1691 25.4499 36.3298 25.4499 36.4922C25.4499 36.6545 25.4227 36.8153 25.3698 36.9653C25.3168 37.1153 25.2393 37.2515 25.1415 37.3662C25.0542 37.4722 24.9492 37.5559 24.8331 37.612C24.717 37.6682 24.5924 37.6956 24.4668 37.6925C24.308 37.693 24.1507 37.6561 24.0041 37.5841C23.8576 37.512 23.7248 37.4063 23.6136 37.273L23.0382 36.5971C23.4404 35.8841 23.6188 35.029 23.5427 34.1784C23.4667 33.3278 23.141 32.5348 22.6215 31.9355C22.0658 31.2844 21.3224 30.9018 20.5381 30.8634C20.4904 29.9851 20.1732 29.157 19.6453 28.5326C19.2221 28.0353 18.684 27.6949 18.0976 27.5537C18.1587 26.9967 18.1118 26.4308 17.9607 25.8981C17.8095 25.3653 17.5579 24.8796 17.2245 24.4771C16.638 23.7951 15.8474 23.4102 15.0221 23.4049C14.978 22.5256 14.6602 21.6961 14.1292 21.0741C13.5451 20.3878 12.7529 20.0022 11.9268 20.002C11.1015 20.0072 10.3108 20.3921 9.7243 21.0741L9.62509 21.214L6.37101 17.9043C6.13767 17.6578 5.9918 17.3172 5.96239 16.9501C5.93299 16.5831 6.02219 16.2165 6.21228 15.9231L9.30762 11.4248C9.55407 11.1113 9.87527 10.8925 10.2293 10.7969C10.5832 10.7012 10.9535 10.7332 11.2918 10.8887L13.1371 11.9375C13.892 12.3257 14.7133 12.5025 15.5363 12.4539C16.3592 12.4054 17.1614 12.1329 17.8793 11.6578L18.5341 11.215C19.4593 10.6366 20.5355 10.4869 21.5501 10.7954L21.2525 10.9819C20.5412 11.4633 20.0061 12.2361 19.7498 13.1522C19.4935 14.0683 19.534 15.0633 19.8635 15.9465C20.0967 16.6321 20.499 17.2202 21.0187 17.6355C21.5383 18.0507 22.1518 18.2742 22.7803 18.2772C23.1393 18.267 23.4944 18.1883 23.8319 18.0441L24.9034 17.5314C25.3833 17.2958 25.8817 17.1163 26.3915 16.9953L31.6099 22.9155L36.2926 28.3695C36.4095 28.492 36.502 28.6432 36.5637 28.8124C36.6254 28.9815 36.6548 29.1645 36.6498 29.3484C36.6539 29.6165 36.5684 29.8759 36.4117 30.0709V30.1175ZM36.8085 23.8944C36.7071 24.0142 36.5865 24.1092 36.4537 24.1741C36.3209 24.239 36.1785 24.2724 36.0347 24.2724C35.8909 24.2724 35.7484 24.239 35.6156 24.1741C35.4828 24.1092 35.3623 24.0142 35.2609 23.8944L32.979 21.2606L32.8203 21.0741L27.582 14.9908C27.3335 14.7238 27.0059 14.5816 26.6693 14.5946C25.8346 14.6958 25.0181 14.9474 24.2486 15.3405L23.1771 15.8299C22.8866 15.9577 22.5657 15.9519 22.2788 15.8136C21.9918 15.6753 21.7598 15.4147 21.6295 15.0841V14.9675C21.5045 14.6055 21.496 14.2024 21.6055 13.8335C21.7151 13.4647 21.9352 13.1552 22.2247 12.9631L25.3796 10.9819C25.8026 10.7695 26.2604 10.6698 26.7201 10.69C27.1798 10.7101 27.63 10.8496 28.0384 11.0984L29.7845 12.427C30.4788 12.9416 31.2851 13.2088 32.106 13.1961C32.9238 13.2055 33.7276 12.9472 34.4275 12.4503L36.9077 10.5391C37.2019 10.351 37.5409 10.2832 37.8714 10.3465C38.202 10.4098 38.5052 10.6006 38.7332 10.8887L41.6896 15.4104C41.915 15.7411 42.0379 16.1521 42.0379 16.5758C42.0379 16.9994 41.915 17.4104 41.6896 17.7411L36.8085 23.8944Z" fill="#007CB6"/>
</svg>
