<svg width="48" height="48" viewBox="0 0 48 48" fill="none" xmlns="http://www.w3.org/2000/svg">
<path d="M26 5.87577C26 4.01639 23.4033 3.28905 22.3208 4.85702C14.3792 16.3633 24.6667 22.6508 24.6667 26.5C24.6667 28.2234 23.1717 29.625 21.3333 29.625C19.495 29.625 18 28.2234 18 26.5V18.2289C18 16.7141 16.1783 15.8258 14.8558 16.6914C10.5625 19.4984 8 24.1 8 29C8 37.2711 15.1775 44 24 44C32.8225 44 40 37.2711 40 29C40 15.6961 26 13.9336 26 5.87577V5.87577ZM24 40.25C17.3833 40.25 12 35.2031 12 29C12 26.7609 12.7133 23.9445 14 22.125V26.5C14 30.2906 17.29 33.375 21.3333 33.375C25.3767 33.375 28.6667 30.2906 28.6667 26.5C28.6667 21.4789 21.3333 17.125 23.3333 10.25C26.6667 17.125 36 19.7633 36 29C36 35.2031 30.6167 40.25 24 40.25Z" fill="#7FC241"/>
</svg>
