<svg width="48" height="48" viewBox="0 0 48 48" fill="none" xmlns="http://www.w3.org/2000/svg">
<path fill-rule="evenodd" clip-rule="evenodd" d="M8 31.2219V32H16C17.1046 32 18 32.7083 18 33.8128C18 34.9174 17.1046 36 16 36H5.1846C5.03005 36.0027 4.8765 35.9755 4.73291 35.9202C4.58933 35.8649 4.45859 35.7824 4.34832 35.6777C4.23806 35.573 4.15048 35.4481 4.09071 35.3103C4.03094 35.1724 4.00016 35.0245 4.00019 34.8751V9.1452C3.99737 8.99408 4.02608 8.84397 4.08461 8.70382C4.14313 8.56367 4.23027 8.43636 4.34082 8.32948C4.45137 8.22261 4.58306 8.13837 4.72803 8.08179C4.87301 8.02522 5.02829 7.99746 5.1846 8.00018H34.8779C35.1793 8.01059 35.4647 8.13369 35.674 8.34354C35.8833 8.55339 36.0002 8.83359 36 9.12511V11.3869C36 11.7255 35.7255 12 35.3869 12H32.3221H8V16H21C22.1046 16 23 16.9967 23 18.1012C23 19.2058 22.1046 20 21 20H8V24H18C19.1046 24 20 24.9823 20 26.0869C20 27.1915 19.1046 28 18 28H8V28.952V31.2219ZM41.6 25.5997C41.6 27.7406 40.8992 29.7179 39.7144 31.3145C40.4703 31.9309 41.1517 32.6387 41.7414 33.4252C42.9185 34.995 43.6866 36.8204 43.987 38.7403C44.0896 39.3954 43.5702 39.9625 42.9012 39.998C42.2323 40.0336 41.6685 39.5233 41.5495 38.8709C41.2851 37.4219 40.6863 36.0468 39.7931 34.8556C39.2875 34.1812 38.6974 33.579 38.0401 33.0618C36.3905 34.3987 34.2888 35.1997 32 35.1997C29.7111 35.1997 27.6093 34.3986 25.9596 33.0616C25.2752 33.6003 24.664 34.2308 24.1452 34.9384C23.2858 36.1106 22.7087 37.4556 22.4505 38.8706C22.3314 39.523 21.7677 40.0333 21.0987 39.9977C20.4298 39.9622 19.9104 39.3951 20.0129 38.74C20.3067 36.8629 21.0476 35.0755 22.1815 33.5288C22.7882 32.7012 23.496 31.958 24.2854 31.3143C23.1007 29.7177 22.4 27.7405 22.4 25.5997C22.4 20.2978 26.698 15.9998 32 15.9998C37.3019 15.9998 41.6 20.2978 41.6 25.5997ZM24.896 25.5997C24.896 29.5232 28.0766 32.7037 32 32.7037C35.9234 32.7037 39.104 29.5232 39.104 25.5997C39.104 21.6763 35.9234 18.4958 32 18.4958C28.0766 18.4958 24.896 21.6763 24.896 25.5997Z" fill="#7FC241"/>
</svg>
