<svg width="21" height="22" viewBox="0 0 21 22" fill="none" xmlns="http://www.w3.org/2000/svg">
<path d="M1.78308 0.578772H0.5V15.7178H1.78308V0.578772Z" fill="#007CB6"/>
<path d="M4.68981 0.578772H3.40674V15.7178H4.68981V0.578772Z" fill="#007CB6"/>
<path d="M20.3139 19.1498L17.2936 16.1355C17.7139 15.3525 17.9534 14.4862 17.9946 13.5996C18.0358 12.713 17.8778 11.8284 17.532 11.0101V0.578772H16.283V9.09095C15.8074 8.62898 15.2589 8.24762 14.6593 7.96202V0.578772H13.3762V7.49915C12.9406 7.39901 12.4948 7.34975 12.0477 7.35239H11.7525V0.578772H10.4581V7.56689C9.75525 7.74755 9.09279 8.05773 8.50505 8.48133V0.578772H7.22198V9.80218C6.57108 10.6867 6.1796 11.7333 6.09105 12.8258C6.00249 13.9182 6.22033 15.0136 6.72034 15.9904C7.22036 16.9671 7.98298 17.7869 8.92344 18.3586C9.86391 18.9303 10.9454 19.2315 12.0477 19.2288C13.0528 19.2337 14.0422 18.981 14.9204 18.495L17.9408 21.5093C18.0639 21.6242 18.2261 21.6887 18.395 21.6899C18.5641 21.6899 18.7267 21.6252 18.8491 21.5093L20.3139 20.0529C20.4332 19.9325 20.5 19.7703 20.5 19.6014C20.5 19.4324 20.4332 19.2702 20.3139 19.1498ZM7.31281 13.2906C7.31281 12.3684 7.58785 11.467 8.10313 10.7002C8.61842 9.9335 9.35081 9.33589 10.2077 8.983C11.0646 8.63011 12.0075 8.53777 12.9172 8.71768C13.8268 8.89758 14.6624 9.34164 15.3182 9.9937C15.9741 10.6458 16.4207 11.4765 16.6017 12.381C16.7826 13.2854 16.6897 14.2229 16.3348 15.0749C15.9799 15.9268 15.3788 16.655 14.6076 17.1673C13.8364 17.6797 12.9298 17.9531 12.0023 17.9531C10.7586 17.9531 9.56577 17.4619 8.68633 16.5875C7.80688 15.7131 7.31281 14.5272 7.31281 13.2906ZM18.3495 20.1432L15.9424 17.7499C16.1381 17.5797 16.3203 17.3948 16.4874 17.1967L18.9059 19.6014L18.3495 20.1432Z" fill="#007CB6"/>
<path d="M8.57324 13.9905H9.70871C9.71014 13.5952 9.79063 13.2042 9.94548 12.8402C10.1003 12.4762 10.3265 12.1465 10.6107 11.8701C10.895 11.5938 11.2316 11.3765 11.6012 11.2308C11.9707 11.0851 12.3657 11.0139 12.7631 11.0214V9.83599C11.6539 9.83599 10.5899 10.2733 9.80443 11.0521C9.01901 11.8309 8.57625 12.8876 8.57324 13.9905Z" fill="#007CB6"/>
</svg>
