<svg width="17" height="19" viewBox="0 0 17 19" fill="none" xmlns="http://www.w3.org/2000/svg">
<path fill-rule="evenodd" clip-rule="evenodd" d="M16.2727 16.7155C16.2727 17.6471 15.5267 18.403 14.6072 18.403H2.39288C1.47334 18.403 0.727295 17.6471 0.727295 16.7155V4.34047C0.727295 3.40883 1.47334 2.65297 2.39288 2.65297H4.05846V0.824844C4.05846 0.592813 4.24584 0.402969 4.47486 0.402969H5.86285C6.09186 0.402969 6.27924 0.592813 6.27924 0.824844V2.65297H10.7208V0.824844C10.7208 0.592813 10.9082 0.402969 11.1372 0.402969H12.5252C12.7542 0.402969 12.9416 0.592813 12.9416 0.824844V2.65297H14.6072C15.5267 2.65297 16.2727 3.40883 16.2727 4.34047V16.7155ZM4.47495 10.528H5.86294C6.09196 10.528 6.27934 10.3381 6.27934 10.1061V8.69984C6.27934 8.46781 6.09196 8.27797 5.86294 8.27797H4.47495C4.24594 8.27797 4.05856 8.46781 4.05856 8.69984V10.1061C4.05856 10.3381 4.24594 10.528 4.47495 10.528ZM9.61044 8.69984V10.1061C9.61044 10.3381 9.42306 10.528 9.19404 10.528H7.80605C7.57703 10.528 7.38966 10.3381 7.38966 10.1061V8.69984C7.38966 8.46781 7.57703 8.27797 7.80605 8.27797H9.19404C9.42306 8.27797 9.61044 8.46781 9.61044 8.69984ZM12.9417 10.1061V8.69984C12.9417 8.46781 12.7543 8.27797 12.5253 8.27797H11.1373C10.9083 8.27797 10.7209 8.46781 10.7209 8.69984V10.1061C10.7209 10.3381 10.9083 10.528 11.1373 10.528H12.5253C12.7543 10.528 12.9417 10.3381 12.9417 10.1061ZM9.61044 12.0748V13.4811C9.61044 13.7131 9.42306 13.903 9.19404 13.903H7.80605C7.57703 13.903 7.38966 13.7131 7.38966 13.4811V12.0748C7.38966 11.8428 7.57703 11.653 7.80605 11.653H9.19404C9.42306 11.653 9.61044 11.8428 9.61044 12.0748ZM6.27934 13.4811V12.0748C6.27934 11.8428 6.09196 11.653 5.86294 11.653H4.47495C4.24594 11.653 4.05856 11.8428 4.05856 12.0748V13.4811C4.05856 13.7131 4.24594 13.903 4.47495 13.903H5.86294C6.09196 13.903 6.27934 13.7131 6.27934 13.4811ZM12.9417 12.0748V13.4811C12.9417 13.7131 12.7543 13.903 12.5253 13.903H11.1373C10.9083 13.903 10.7209 13.7131 10.7209 13.4811V12.0748C10.7209 11.8428 10.9083 11.653 11.1373 11.653H12.5253C12.7543 11.653 12.9417 11.8428 12.9417 12.0748ZM14.607 6.02797V16.5045C14.607 16.6205 14.5134 16.7155 14.3988 16.7155H2.60096C2.48645 16.7155 2.39276 16.6205 2.39276 16.5045V6.02797H14.607Z" fill="#007CB6"/>
</svg>
