<svg width="21" height="22" viewBox="0 0 21 22" fill="none" xmlns="http://www.w3.org/2000/svg">
<path fill-rule="evenodd" clip-rule="evenodd" d="M16.5081 13.3417H17.6094C18.1711 13.3417 18.625 13.9149 18.625 14.6214V18.4605C18.625 19.167 18.1711 19.7402 17.6094 19.7402H3.39062C2.82886 19.7402 2.375 19.167 2.375 18.4605V14.6214C2.375 13.9149 2.82886 13.3417 3.39062 13.3417H4.49194C3.95239 12.312 3.64453 11.1323 3.64453 9.87592C3.64453 5.90022 6.71362 2.67767 10.5 2.67767C14.2864 2.67767 17.3555 5.90022 17.3555 9.87592C17.3555 11.1323 17.0476 12.312 16.5081 13.3417ZM11.1253 10.8957L9.53518 10.4191C8.82742 10.2058 8.26565 9.59598 8.17361 8.8295C8.04349 7.7631 8.77664 6.84999 9.73831 6.73002V6.14349C9.73831 5.85023 9.96683 5.61029 10.2461 5.61029H10.7539C11.0332 5.61029 11.2617 5.85023 11.2617 6.14349V6.73335C11.6236 6.78 11.9695 6.90664 12.271 7.11659C12.4678 7.25322 12.4868 7.55315 12.3186 7.72977L11.7632 8.31296C11.6458 8.43627 11.468 8.45293 11.3157 8.37961C11.2141 8.33296 11.1031 8.3063 10.9888 8.3063H9.94778C9.80179 8.3063 9.68118 8.43293 9.68118 8.58623C9.68118 8.70953 9.76053 8.82284 9.87478 8.85616L11.4649 9.33272C12.1695 9.546 12.7344 10.1558 12.8264 10.9223C12.9566 11.9887 12.2234 12.9018 11.2617 13.0218V13.6083C11.2617 13.9016 11.0332 14.1415 10.7539 14.1415H10.2461C9.96683 14.1415 9.73831 13.9016 9.73831 13.6083V13.0185C9.37649 12.9718 9.03055 12.8452 8.72903 12.6352C8.53225 12.4986 8.51321 12.1987 8.68142 12.0221L9.23684 11.4389C9.35428 11.3156 9.53201 11.2989 9.68435 11.3722C9.78592 11.4189 9.897 11.4455 10.0113 11.4455H11.0523C11.1983 11.4455 11.3189 11.3189 11.3189 11.1656C11.3189 11.0423 11.2395 10.929 11.1253 10.8957ZM10.5 4.27728C13.439 4.27728 15.832 6.79 15.832 9.87592C15.832 12.9618 13.439 15.4745 10.5 15.4745C7.56104 15.4745 5.16797 12.9618 5.16797 9.87592C5.16797 6.79 7.56104 4.27728 10.5 4.27728ZM3.89844 14.9413V18.1406H17.1016V14.9413H15.3687C14.9814 15.3512 14.5466 15.7045 14.0769 16.0078H15.3242C15.4639 16.0078 15.5781 16.1277 15.5781 16.2744V16.8076C15.5781 16.9542 15.4639 17.0742 15.3242 17.0742H5.67578C5.53613 17.0742 5.42188 16.9542 5.42188 16.8076V16.2744C5.42188 16.1277 5.53613 16.0078 5.67578 16.0078H6.9231C6.45337 15.7045 6.01855 15.3512 5.63135 14.9413H3.89844Z" fill="#007CB6"/>
</svg>
