<svg width="19" height="19" viewBox="0 0 19 19" fill="none" xmlns="http://www.w3.org/2000/svg">
<path fill-rule="evenodd" clip-rule="evenodd" d="M10.589 1.87563L18.0742 8.70956C18.1738 8.80132 18.2363 8.93338 18.248 9.07652C18.2597 9.21967 18.2196 9.36208 18.1365 9.47226L17.8257 9.88721C17.6534 10.1158 17.347 10.146 17.1412 9.95473L16.3048 9.19102V15.4901C16.2996 16.0831 15.8662 16.5612 15.3325 16.5625H11.4436C10.9073 16.5608 10.4729 16.078 10.4714 15.482V11.9707H8.52695V15.482C8.52545 16.078 8.09105 16.5608 7.55472 16.5625H3.66581C3.12949 16.5608 2.69508 16.078 2.69358 15.482V9.19169L1.85898 9.95338C1.65315 10.1447 1.34677 10.1144 1.17447 9.88585L0.863361 9.47057C0.780601 9.3607 0.740508 9.2188 0.751904 9.07608C0.763299 8.93336 0.82525 8.80152 0.924125 8.70956L8.40937 1.87563C9.0408 1.2914 9.95755 1.2914 10.589 1.87563ZM12.0067 14.9313H14.9309L14.9354 7.82031L9.56613 2.92031L4.19681 7.82234V14.9313H7.12553V11.4062C7.12704 10.8078 7.56323 10.3232 8.10177 10.3215H11.0305C11.569 10.3232 12.0052 10.8078 12.0067 11.4062V14.9313Z" fill="#007CB6"/>
</svg>
