<svg width="23" height="16" viewBox="0 0 23 16" fill="none" xmlns="http://www.w3.org/2000/svg">
<path d="M20.6064 11.707V2.30165C20.6036 1.70699 20.3651 1.13747 19.9427 0.716976C19.5204 0.296479 18.9484 0.059014 18.3511 0.0562286L4.62766 0.0562286C4.02853 0.0562221 3.45378 0.292454 3.02914 0.713252C2.60449 1.13405 2.36451 1.70516 2.3617 2.30165V11.707H0.5V13.5076C0.5 13.9795 0.688297 14.4321 1.02347 14.7658C1.35864 15.0995 1.81323 15.287 2.28723 15.287H20.7128C21.1868 15.287 21.6414 15.0995 21.9765 14.7658C22.3117 14.4321 22.5 13.9795 22.5 13.5076V11.707H20.6064ZM3.58511 2.34402C3.58511 2.06311 3.69719 1.79371 3.89669 1.59508C4.0962 1.39645 4.36679 1.28486 4.64894 1.28486H18.3723C18.6545 1.28486 18.9251 1.39645 19.1246 1.59508C19.3241 1.79371 19.4362 2.06311 19.4362 2.34402V11.707H13.0532V12.3002H9.94681V11.707H3.56383L3.58511 2.34402ZM21.2766 13.5076C21.2766 13.6649 21.2138 13.8158 21.1021 13.927C20.9904 14.0382 20.8389 14.1007 20.6809 14.1007H2.28723C2.12923 14.1007 1.9777 14.0382 1.86598 13.927C1.75426 13.8158 1.69149 13.6649 1.69149 13.5076V12.8509H8.91489C9.02162 13.0372 9.17667 13.1915 9.36381 13.2977C9.55096 13.404 9.76334 13.4581 9.97872 13.4546H13.0532C13.2686 13.4581 13.481 13.404 13.6681 13.2977C13.8552 13.1915 14.0103 13.0372 14.117 12.8509H21.3404L21.2766 13.5076Z" fill="#007CB6"/>
<path d="M13.4255 9.49337L16.5213 5.25671L15.5425 4.54707L12.7979 8.3071L9.76594 6.18878C9.70066 6.14186 9.6262 6.10913 9.5474 6.09271C9.46859 6.07628 9.3872 6.07654 9.3085 6.09345C9.22447 6.11364 9.14623 6.1528 9.07982 6.2079C9.01341 6.26299 8.96062 6.33255 8.92552 6.4112L6.43616 10.0865L7.49999 10.7538L9.62765 7.57628L12.6383 9.69461C12.7707 9.76653 12.9256 9.78575 13.0717 9.7484C13.2178 9.71105 13.3443 9.61991 13.4255 9.49337Z" fill="#007CB6"/>
</svg>
