<svg width="19" height="22" viewBox="0 0 19 22" fill="none" xmlns="http://www.w3.org/2000/svg">
<path d="M18.4739 8.66894L14.9739 1.38894C14.8831 1.20152 14.7408 1.04375 14.5638 0.933997C14.3868 0.82424 14.1822 0.767001 13.9739 0.768938C13.8079 0.770829 13.6442 0.808341 13.4939 0.878938L2.73393 6.18894C2.47177 6.32212 2.27184 6.55225 2.17662 6.83046C2.08139 7.10867 2.09836 7.41304 2.22393 7.67894L5.72393 14.9489C5.74666 15.0009 5.7734 15.0511 5.80393 15.0989V12.5089L4.69393 10.1989L15.4239 4.85894L17.4239 9.13894L11.1739 12.2289V13.4889L17.9339 10.1489C18.0669 10.0876 18.1865 10.0006 18.2857 9.89291C18.3849 9.7852 18.4618 9.65892 18.512 9.52135C18.5622 9.38378 18.5847 9.23763 18.5782 9.09134C18.5716 8.94504 18.5362 8.80148 18.4739 8.66894ZM4.20393 9.17894L3.25393 7.17894L13.9639 1.91894L14.8939 3.83894L4.20393 9.17894Z" fill="#007CB6"/>
<path d="M10.6439 15.7689V11.4689C10.664 11.1749 10.6235 10.8799 10.5247 10.6023C10.426 10.3246 10.2713 10.0702 10.0702 9.85484C9.86902 9.63948 9.62575 9.46777 9.35545 9.35037C9.08516 9.23297 8.79362 9.17239 8.49893 9.17239C8.20425 9.17239 7.9127 9.23297 7.64241 9.35037C7.37212 9.46777 7.12885 9.63948 6.9277 9.85484C6.72655 10.0702 6.57182 10.3246 6.47312 10.6023C6.37441 10.8799 6.33385 11.1749 6.35393 11.4689V16.2589C5.96264 15.9683 5.60686 15.6327 5.29393 15.2589L4.42393 16.0689C5.56393 17.2889 6.29393 17.6989 6.89393 17.4589C7.05885 17.3758 7.19753 17.2487 7.29461 17.0916C7.39169 16.9345 7.44337 16.7536 7.44393 16.5689V11.4689C7.44393 11.2037 7.54929 10.9494 7.73683 10.7618C7.92436 10.5743 8.17872 10.4689 8.44393 10.4689C8.70915 10.4689 8.9635 10.5743 9.15104 10.7618C9.33858 10.9494 9.44393 11.2037 9.44393 11.4689V15.9089L9.97393 20.5089H5.12393L2.27393 17.2189C1.87855 16.8347 1.63086 16.3236 1.57419 15.7752C1.51752 15.2268 1.65548 14.6759 1.96393 14.2189L3.53393 11.7689L2.53393 11.1489L1.03393 13.5689C0.575158 14.2344 0.363071 15.0391 0.434271 15.8442C0.505472 16.6493 0.855495 17.4043 1.42393 17.9789L4.42393 21.4489C4.47705 21.5112 4.54295 21.5613 4.61715 21.5958C4.69134 21.6303 4.7721 21.6484 4.85393 21.6489H10.6739C10.7533 21.6483 10.8317 21.631 10.904 21.5983C10.9763 21.5656 11.041 21.5181 11.0939 21.4589C11.1478 21.4001 11.1882 21.3303 11.2123 21.2543C11.2365 21.1784 11.2439 21.098 11.2339 21.0189L10.6439 15.7689Z" fill="#007CB6"/>
</svg>
