<svg width="23" height="15" viewBox="0 0 23 15" fill="none" xmlns="http://www.w3.org/2000/svg">
<path d="M19.4293 8.56758C19.5168 8.48089 19.5748 8.36887 19.595 8.24739C19.6152 8.12592 19.5967 8.00115 19.5421 7.89078C19.4817 7.78163 19.3873 7.69509 19.2734 7.64422C19.1595 7.59336 19.0321 7.58092 18.9104 7.60878L13.7668 8.91726C13.0877 8.50058 12.3074 8.27819 11.5107 8.2743C10.28 8.31556 9.1154 8.84127 8.27037 9.737C7.42534 10.6327 6.96831 11.826 6.99874 13.057H8.23954C8.22295 12.6126 8.29413 12.1692 8.44903 11.7522C8.60393 11.3353 8.8395 10.953 9.14227 10.6272C9.44504 10.3014 9.80907 10.0384 10.2135 9.85342C10.618 9.6684 11.055 9.56494 11.4995 9.54894C11.945 9.56634 12.3826 9.6716 12.7873 9.85867C13.192 10.0457 13.5558 10.3109 13.8576 10.639C14.1595 10.9671 14.3936 11.3516 14.5464 11.7705C14.6992 12.1893 14.7678 12.6342 14.7481 13.0796H16.034C16.0318 12.6804 15.9826 12.2829 15.8874 11.8952L19.4293 8.56758ZM15.4588 10.7333C15.2811 10.4073 15.0693 10.1011 14.8271 9.81966L17.0831 9.26694L15.4588 10.7333Z" fill="#007CB6"/>
<path d="M11.5 0.671616C8.40547 0.725016 5.45879 2.00498 3.30764 4.23016C1.15649 6.45535 -0.0230791 9.44364 0.028217 12.5382C0.0603474 13.1287 0.323034 13.6829 0.759734 14.0816C1.19643 14.4804 1.77223 14.6917 2.36318 14.6701H20.6368C21.2278 14.6917 21.8035 14.4804 22.2402 14.0816C22.6769 13.6829 22.9396 13.1287 22.9718 12.5382C23.0231 9.44364 21.8435 6.45535 19.6923 4.23016C17.5412 2.00498 14.5945 0.725016 11.5 0.671616V0.671616ZM10.7555 12.3916C10.7849 12.2152 10.8758 12.055 11.0121 11.9394C11.1484 11.8237 11.3212 11.7601 11.5 11.7599H11.6128C11.711 11.7736 11.8056 11.8068 11.8908 11.8576C11.976 11.9084 12.0502 11.9757 12.1091 12.0556C12.1679 12.1354 12.2102 12.2262 12.2335 12.3227C12.2567 12.4191 12.2605 12.5192 12.2445 12.6172C12.2154 12.7946 12.1249 12.9562 11.9889 13.0737C11.8528 13.1912 11.6798 13.2572 11.5 13.2601H11.3759C11.2786 13.2451 11.1853 13.2104 11.1019 13.158C11.0185 13.1056 10.9467 13.0367 10.8909 12.9556C10.8299 12.8763 10.7864 12.7852 10.763 12.688C10.7397 12.5908 10.7371 12.4898 10.7555 12.3916ZM13.3274 13.3842C13.4126 13.2091 13.4733 13.0231 13.5078 12.8315C13.5496 12.5678 13.5389 12.2984 13.4765 12.0388C13.414 11.7792 13.301 11.5345 13.1438 11.3187C12.9866 11.1028 12.7884 10.9201 12.5606 10.781C12.3327 10.6418 12.0796 10.549 11.8158 10.5078C11.7108 10.4967 11.605 10.4967 11.5 10.5078C11.1569 10.5093 10.8198 10.5973 10.5197 10.7635C10.2196 10.9297 9.96623 11.1689 9.783 11.459C9.59976 11.749 9.49256 12.0805 9.4713 12.4229C9.45004 12.7653 9.5154 13.1076 9.66135 13.418H2.36318C2.11152 13.4406 1.86083 13.3653 1.66332 13.2077C1.46581 13.0501 1.3367 12.8224 1.30286 12.572C1.30286 12.572 1.30286 12.4592 1.30286 12.4028H2.98358C3.07439 12.4149 3.16674 12.4075 3.25444 12.381C3.34214 12.3545 3.42316 12.3096 3.49209 12.2493C3.56102 12.1889 3.61625 12.1145 3.6541 12.0311C3.69194 11.9477 3.71152 11.8571 3.71152 11.7655C3.71152 11.6739 3.69194 11.5833 3.6541 11.4999C3.61625 11.4165 3.56102 11.3421 3.49209 11.2818C3.42316 11.2214 3.34214 11.1765 3.25444 11.15C3.16674 11.1235 3.07439 11.1161 2.98358 11.1282H1.40438C1.66929 9.04153 2.54435 7.07953 3.91982 5.48818L4.96886 6.52594C5.0275 6.58636 5.09762 6.63445 5.1751 6.66738C5.25259 6.70031 5.33587 6.71742 5.42006 6.7177C5.58963 6.71468 5.7514 6.64593 5.87126 6.52594C5.98975 6.40566 6.05617 6.24359 6.05617 6.07474C6.05617 5.9059 5.98975 5.74383 5.87126 5.62354L4.82222 4.5745C6.46128 3.06764 8.55842 2.15411 10.7781 1.9801V3.57058C10.7987 3.72502 10.8746 3.86672 10.9919 3.96936C11.1091 4.07199 11.2596 4.12856 11.4154 4.12856C11.5712 4.12856 11.7217 4.07199 11.8389 3.96936C11.9562 3.86672 12.0321 3.72502 12.0527 3.57058V1.96882C14.2794 2.09027 16.4007 2.95628 18.0762 4.42786L16.9482 5.55586C16.8298 5.67615 16.7633 5.83822 16.7633 6.00706C16.7633 6.17591 16.8298 6.33798 16.9482 6.45826C17.0069 6.51868 17.077 6.56677 17.1545 6.5997C17.232 6.63263 17.3152 6.64974 17.3994 6.65002C17.569 6.647 17.7308 6.57825 17.8506 6.45826L18.9786 5.33026C20.4191 6.94182 21.3391 8.95094 21.6182 11.0943H20.039C19.9482 11.0822 19.8558 11.0897 19.7681 11.1162C19.6804 11.1426 19.5994 11.1876 19.5305 11.2479C19.4615 11.3083 19.4063 11.3826 19.3684 11.4661C19.3306 11.5495 19.311 11.6401 19.311 11.7317C19.311 11.8233 19.3306 11.9138 19.3684 11.9973C19.4063 12.0807 19.4615 12.1551 19.5305 12.2154C19.5994 12.2758 19.6804 12.3207 19.7681 12.3472C19.8558 12.3737 19.9482 12.3811 20.039 12.369H21.6858V12.5382C21.652 12.7865 21.5246 13.0124 21.3295 13.1697C21.1344 13.327 20.8866 13.4038 20.6368 13.3842H13.3274Z" fill="#007CB6"/>
</svg>
