<svg width="21" height="22" viewBox="0 0 21 22" fill="none" xmlns="http://www.w3.org/2000/svg">
<path fill-rule="evenodd" clip-rule="evenodd" d="M17.6094 4.37778H3.39062C2.60563 4.37778 1.96875 5.00766 1.96875 5.78403V16.0965C1.96875 16.8729 2.60563 17.5028 3.39062 17.5028H17.6094C18.3944 17.5028 19.0312 16.8729 19.0312 16.0965V5.78403C19.0312 5.00766 18.3944 4.37778 17.6094 4.37778ZM17.6094 16.0965H3.39068V5.784H17.6094V16.0965ZM10.026 9.06531C10.026 10.0995 9.17588 10.9403 8.13021 10.9403C7.08454 10.9403 6.23438 10.0995 6.23438 9.06531C6.23438 8.03113 7.08454 7.19031 8.13021 7.19031C9.17588 7.19031 10.026 8.03113 10.026 9.06531ZM5.47599 14.6903H10.7843C11.1516 14.6903 11.4479 14.4383 11.4479 14.1278V13.5653C11.4479 12.6336 10.5562 11.8778 9.45724 11.8778C9.332 11.8778 9.21993 11.9137 9.08354 11.9574L9.08353 11.9574C8.87149 12.0254 8.60065 12.1122 8.13016 12.1122C7.64751 12.1122 7.38656 12.0262 7.18078 11.9584C7.04681 11.9142 6.93623 11.8778 6.80307 11.8778C5.70408 11.8778 4.81245 12.6336 4.81245 13.5653V14.1278C4.81245 14.4383 5.10867 14.6903 5.47599 14.6903ZM15.9505 12.8153H12.6328C12.5025 12.8153 12.3959 12.7098 12.3959 12.5809V12.1122C12.3959 11.9833 12.5025 11.8778 12.6328 11.8778H15.9505C16.0809 11.8778 16.1875 11.9833 16.1875 12.1122V12.5809C16.1875 12.7098 16.0809 12.8153 15.9505 12.8153ZM12.6328 10.9403H15.9505C16.0809 10.9403 16.1875 10.8348 16.1875 10.7059V10.2371C16.1875 10.1082 16.0809 10.0028 15.9505 10.0028H12.6328C12.5025 10.0028 12.3959 10.1082 12.3959 10.2371V10.7059C12.3959 10.8348 12.5025 10.9403 12.6328 10.9403ZM15.9505 9.06524H12.6328C12.5025 9.06524 12.3959 8.95977 12.3959 8.83087V8.36212C12.3959 8.23321 12.5025 8.12774 12.6328 8.12774H15.9505C16.0809 8.12774 16.1875 8.23321 16.1875 8.36212V8.83087C16.1875 8.95977 16.0809 9.06524 15.9505 9.06524Z" fill="#007CB6"/>
</svg>
