<svg xmlns="http://www.w3.org/2000/svg" viewBox="0 0 162.369 103.977"><defs></defs><g opacity=".5" transform="translate(-316.972 -223.669)"><path fill="#44d4f4" d="M318.593 287.26l.573 1.083 1.048.592-1.048.592-.573 1.083-.573-1.083-1.048-.592 1.048-.592z"></path><path fill="#fccc6c" d="M388.655 224.086l.573 1.083 1.048.592-1.048.592-.573 1.083-.573-1.083-1.048-.592 1.048-.592z"></path><path fill="#44d4f4" d="M469.379 267.316l.573 1.083 1.048.592-1.048.592-.573 1.083-.573-1.083-1.048-.592 1.048-.592z"></path><path fill="#fccc6c" d="M456.406 233.038a2.217 2.217 0 01-2.217-2.217 2.217 2.217 0 012.217-2.217 2.217 2.217 0 012.217 2.217 2.217 2.217 0 01-2.217 2.217z"></path><path fill="#44d4f4" d="M450.777 238.201a1.178 1.178 0 01-1.178-1.178 1.178 1.178 0 011.178-1.178 1.178 1.178 0 011.177 1.178 1.178 1.178 0 01-1.177 1.178z"></path><path fill="#fc346c" d="M456.406 235.242h-4.034a.214.214 0 01-.215-.215v-4.034a.214.214 0 01.215-.215h4.034a.215.215 0 01.215.215v4.034a.215.215 0 01-.215.215zm-3.82-.429h3.605v-3.605h-3.605z"></path><path d="M329.802 233.14a.258.258 0 01-.073-.5 9.2 9.2 0 002.476-1.119 3.76 3.76 0 01-1.139-.845 1.333 1.333 0 01-.439-1.167 1.233 1.233 0 01.711-.814 1.764 1.764 0 011.547-.012 1.445 1.445 0 01.793 1.054 1.848 1.848 0 01-.473 1.577 2.866 2.866 0 001.016.012 2.423 2.423 0 001.858-1.5.258.258 0 01.474.2 2.923 2.923 0 01-2.245 1.8 3.431 3.431 0 01-1.538-.1 8.791 8.791 0 01-2.893 1.4.256.256 0 01-.075.014zm2.327-4.121a1.261 1.261 0 00-.562.131.794.794 0 00-.437.459.921.921 0 00.314.714 3.244 3.244 0 001.2.827 1.468 1.468 0 00.521-1.324.93.93 0 00-.516-.687 1.179 1.179 0 00-.519-.12z"></path><path fill="#dce5f7" d="M437.583 238.318s-22.371-.011-22.4 0h-5.359a4.633 4.633 0 01-.06-1.044c0-.028 0-.057.006-.085s0-.047 0-.054a9.453 9.453 0 01.309-1.381 7.431 7.431 0 01.813-1.817 4.886 4.886 0 011.668-1.656 6.631 6.631 0 012.194-.8 4.976 4.976 0 013.7.727c.668.455 1.286 1.157 2.127 1.267 1.287.167 1.626-1.249 1.73-2.23.282-2.641.506-6.756 3.727-7.516a1.844 1.844 0 011.46.232 4.628 4.628 0 011.6 2.448c.467 1.415.724 2.949 1.307 4.319a2.226 2.226 0 002.416 1.479 2.7 2.7 0 011.091.079 4.094 4.094 0 012.035 1.465 5.582 5.582 0 01.5.755 13.6 13.6 0 011.136 3.812zm-99.915 1.452l61.37-3.65 4.53 76.197-61.37 3.65z"></path><path fill="#240448" d="M393.073 320.97h-.019l-61.3-4.731a.246.246 0 01-.226-.264l5.874-76.1a.246.246 0 01.264-.226l10.782.832a.246.246 0 01-.038.49l-10.537-.813-5.836 75.615 60.805 4.693 3.859-50a.246.246 0 01.49.038l-3.878 50.247a.246.246 0 01-.245.227z"></path><path fill="#fccc6c" d="M330.35 243.002l65.182 5.032-6.105 79.085-65.182-5.031z"></path><circle cx="5.689" cy="5.689" r="5.689" fill="#fff" transform="rotate(-10.91 1634.017 -1810.483)"></circle><circle cx="5.689" cy="5.689" r="5.689" fill="#fff" transform="rotate(-.951 17757.769 -22253.832)"></circle><path fill="#fc346c" d="M376.121 300.066h-.049a.43.43 0 01-.311-.192l-1.489-2.283a.43.43 0 01.719-.469l1.206 1.849 7.212-6.922a.429.429 0 11.594.619l-7.586 7.281a.429.429 0 01-.296.117z"></path><circle cx="5.689" cy="5.689" r="5.689" fill="#fff" transform="rotate(-5.13 3723.458 -4083.462)"></circle><path fill="#44d4f4" d="M360.736 280.121h-.018l-4.41-.384a.207.207 0 11.036-.411l4.41.384a.207.207 0 01-.018.412z"></path><path fill="#fff" d="M337.621 280.158l26.081 2.669.752-7.794-26.081-2.669zm-1.306 16.898l26.081 2.669.752-7.794-26.081-2.669zm-1.375 16.205l26.081 2.669.753-7.794-26.081-2.669z"></path><path fill="#44d4f4" d="M357.33 276.973h-.021l-15.981-1.581a.207.207 0 11.041-.411l15.981 1.581a.206.206 0 01-.02.412zm-3.841 2.515h-.021l-12.3-1.26a.207.207 0 11.042-.411l12.3 1.26a.207.207 0 01-.021.412zm5.172 14.643h-.02l-18.4-1.792a.207.207 0 01.04-.411l18.4 1.792a.206.206 0 01-.02.412zm-2.577 2.628h-.021l-15.981-1.581a.207.207 0 11.041-.411l15.981 1.581a.206.206 0 01-.02.412zm-4.311 12.92h-.021l-12.312-1.261a.207.207 0 11.042-.411l12.312 1.261a.206.206 0 01-.021.412zm5.562 3.338h-.02l-18.031-1.76a.206.206 0 11.04-.411l18.031 1.76a.207.207 0 01-.02.412z"></path><path fill="#240448" d="M380.096 253.976h-.019l-5.412-.412a.246.246 0 01.037-.49l5.167.394 1.017-13.28-8.85-.671a.246.246 0 01-.226-.264l.025-.323a5.954 5.954 0 00-4.95-6.352 5.668 5.668 0 00-.563-.07 5.91 5.91 0 00-1.373.055 5.721 5.721 0 00-1.242.331 5.987 5.987 0 00-3.806 5.128l-.024.323a.246.246 0 01-.264.226l-8.822-.672-1.017 13.28 18.461 1.406a.246.246 0 11-.037.49l-18.706-1.425a.246.246 0 01-.226-.264l1.055-13.77a.245.245 0 01.263-.226l8.822.672.006-.078a6.478 6.478 0 014.117-5.548 6.2 6.2 0 011.345-.359 6.392 6.392 0 011.485-.059 6.138 6.138 0 01.611.076 6.474 6.474 0 015.355 6.873l-.006.078 8.847.674a.245.245 0 01.226.264l-1.055 13.77a.246.246 0 01-.241.223z"></path><path fill="#fff" d="M379.82 270.558l-37.48-3.387.827-9.148 37.48 3.387z"></path><path fill="#44d4f4" d="M444.001 308.89a4.293 4.293 0 01-4.051-2.878l-11.131-31.9a4.29 4.29 0 118.1-2.827l11.131 31.9a4.294 4.294 0 01-4.051 5.705z"></path><path fill="#44d4f4" d="M410.838 271.298c.066 7.14 9.28 12.483 1.659 11.328l6.121 19.7a13.1 13.1 0 008.951 12.731l9.162 3.058 12.951-15.579-4.395-2.2-5.87-25.708z"></path><path fill="#fccc6c" d="M441.965 293.684a9.737 9.737 0 015.507-1.042l12.945 1.346a15.42 15.42 0 0113.714 17.188 15.421 15.421 0 01-19.191 13.074l-15.579-4.052a6.227 6.227 0 01-4.235-6.738l1.646-12.384c.02-.156.045-.311.073-.463a9.763 9.763 0 015.12-6.929z"></path><path fill="#240448" d="M463.7 325.652a15.633 15.633 0 01-3.936-.5l-15.579-4.052a.217.217 0 01.109-.42l15.579 4.052a15.212 15.212 0 0018.5-18.724.217.217 0 11.418-.115 15.643 15.643 0 01-15.088 19.762zm13.076-23.599a.217.217 0 01-.184-.1 15.12 15.12 0 00-11.318-7.06l-12.945-1.346a.217.217 0 01.045-.431l12.945 1.346a15.551 15.551 0 0111.641 7.261.217.217 0 01-.184.332z"></path><path fill="#44d4f4" d="M424.148 289.246a5.683 5.683 0 01-5.453-7.273l3.21-10.985-5.578-5.738-11.308-8.95a5.678 5.678 0 017.048-8.9l11.6 9.18a5.676 5.676 0 01.548.495l8.143 8.377a5.679 5.679 0 011.379 5.551l-4.139 14.162a5.682 5.682 0 01-5.45 4.081z"></path><path fill="#44d4f4" d="M421.707 291.4a5.679 5.679 0 01-2.866-10.584l9.362-5.46-.228-7.3-7.229-10.142a5.678 5.678 0 019.248-6.592l8.228 11.542a5.677 5.677 0 011.052 3.119l.387 12.4a5.679 5.679 0 01-2.815 5.082l-12.283 7.163a5.654 5.654 0 01-2.856.772z"></path><path fill="#44d4f4" d="M432.21 280.338a5.651 5.651 0 01-3.084-.914l-13.547-8.784-6.3 6.556a5.678 5.678 0 11-8.189-7.869l9.548-9.937a5.678 5.678 0 017.184-.83l17.482 11.335a5.679 5.679 0 01-3.095 10.443z"></path><g transform="translate(381.425 247.713)"><circle cx="4.429" cy="4.429" r="4.429" fill="#240448" transform="rotate(-86.695 39.225 -32.17)"></circle><path fill="#fc346c" d="M71.852 12.205l-64.7 30.831a2.468 2.468 0 01-2.649-.338 2.468 2.468 0 01.332-4.015l61.7-36.465a5.663 5.663 0 017.994 2.439 5.663 5.663 0 01-2.677 7.548z"></path><path fill="#240448" d="M42.248 14.305a.686.686 0 01-.347-1.279L61.889 1.32a4.947 4.947 0 016.965 2.141.686.686 0 11-1.239.59 3.574 3.574 0 00-5.033-1.547L42.594 14.209a.683.683 0 01-.346.096zM7.104 40.342c.537 1.015-.692 2.719-2.745 3.807a5.673 5.673 0 01-3.5.42A1.016 1.016 0 01.1 43.136a5.675 5.675 0 012.316-2.662c2.05-1.092 4.15-1.146 4.688-.132z"></path></g><path fill="#44d4f4" d="M420.513 295.216a5.266 5.266 0 01-.954-10.443l10.932-2.028a5.265 5.265 0 011.92 10.354l-10.932 2.027a5.285 5.285 0 01-.966.09z"></path><path fill="#44d4f4" d="M422.714 308.88a6.074 6.074 0 01-4.861-2.419l-5.893-7.808a6.092 6.092 0 01-.55-.875l-7.08-13.722a6.084 6.084 0 0110.813-5.579l6.842 13.26 5.581 7.394a6.085 6.085 0 01-4.852 9.749z"></path><path fill="#240448" d="M419.556 286.381a.243.243 0 01-.2-.107 48.06 48.06 0 01-2.546-4.407 90.01 90.01 0 00-1.275-2.343c-1.429-2.509-3.018-3.929-4.722-4.221a5.638 5.638 0 00-5.289 2.171.245.245 0 01-.4-.283 6.063 6.063 0 015.767-2.368c1.855.317 3.558 1.818 5.063 4.459.444.779.87 1.581 1.282 2.356a47.644 47.644 0 002.52 4.363.243.243 0 01-.2.38z"></path><circle cx="2.661" cy="2.661" r="2.661" fill="#fff" transform="translate(443.389 312.448)"></circle><g><path fill="#240448" d="M444.434 316.771a2.878 2.878 0 112.878-2.878 2.881 2.881 0 01-2.878 2.878zm0-5.322a2.444 2.444 0 102.444 2.444 2.447 2.447 0 00-2.444-2.444z"></path></g><g><path fill="#dce5f7" d="M438.142 286.183h28.247a26.205 26.205 0 00-2.025-6.865c-.117-.188-.219-.363-.3-.5-1.318-2.093-4.956-3.487-6.6-.978-1.147 1.754-.193 5.172-2.582 6.045-2.74 1-3.43-2.6-3.674-4.449-.3-2.27-.249-4.6-.918-6.806-.284-.661-.756-1.418-1.512-1.512a1.96 1.96 0 00-1.7 1.23 26.19 26.19 0 00-1.375 6.394c-.25 1.753-.59 5.622-2.921 5.839-1.238.114-2.358-2.1-3.506-1.116-.734.622-.695 1.921-1.134 2.718z"></path></g><g><path fill="#fff" d="M364.823 301.164l.573 1.083 1.048.592-1.048.592-.573 1.083-.573-1.083-1.048-.592 1.048-.592zm2.576 2.475l.95 1.794 1.737.981-1.737.981-.95 1.794-.95-1.794-1.737-.981 1.737-.981z"></path></g><g><path fill="#240448" d="M343.848 327.646a.246.246 0 01-.229-.334l1.869-4.851-4.954 1.774a.246.246 0 01-.316-.307l1.82-5.594a.246.246 0 01.467.152l-1.665 5.118 4.987-1.786a.246.246 0 01.312.32l-1.866 4.843 4.895-1.818a.246.246 0 11.171.46l-5.405 2.008a.248.248 0 01-.086.015z"></path></g><g><path fill="#240448" d="M416.589 308.187a2.957 2.957 0 01-1.468-.356.246.246 0 11.248-.424 2.635 2.635 0 001.5.276 3.18 3.18 0 001.19-.343 3.794 3.794 0 01-.363-.339 1.556 1.556 0 01-.516-1.11 1.054 1.054 0 011.824-.683 1.3 1.3 0 01.321.736 1.641 1.641 0 01-.354 1.278c-.022.028-.046.055-.07.082a2.249 2.249 0 00.376.145c1.367.384 2.467-.926 2.811-1.98l.033-.108a2.741 2.741 0 00.107-.9.246.246 0 01.49-.027 3.231 3.231 0 01-.125 1.059 3.036 3.036 0 01-.039.126c-.479 1.467-1.885 2.729-3.411 2.3a2.8 2.8 0 01-.645-.276 3.428 3.428 0 01-1.588.526 3.03 3.03 0 01-.321.018zm1.64-2.819a.541.541 0 00-.188.033.584.584 0 00-.365.508 1.108 1.108 0 00.382.756 3.279 3.279 0 00.42.377 1.342 1.342 0 00.116-.127 1.165 1.165 0 00.249-.909.831.831 0 00-.193-.461.584.584 0 00-.422-.177z"></path></g></g></svg>