<svg width="18" height="19" viewBox="0 0 18 19" fill="none" xmlns="http://www.w3.org/2000/svg">
<path d="M9 8.15503C9.17405 8.15503 9.34097 8.22417 9.46404 8.34724C9.58711 8.47031 9.65625 8.63723 9.65625 8.81128V12.7488C9.65625 12.9228 9.58711 13.0897 9.46404 13.2128C9.34097 13.3359 9.17405 13.405 9 13.405C8.82595 13.405 8.65903 13.3359 8.53596 13.2128C8.41289 13.0897 8.34375 12.9228 8.34375 12.7488V8.81128C8.34375 8.63723 8.41289 8.47031 8.53596 8.34724C8.65903 8.22417 8.82595 8.15503 9 8.15503Z" fill="#707070"/>
<path d="M8.99997 7.17065C9.12924 7.17065 9.25724 7.14519 9.37667 7.09572C9.4961 7.04625 9.60462 6.97375 9.69603 6.88234C9.78743 6.79093 9.85994 6.68241 9.90941 6.56298C9.95888 6.44355 9.98434 6.31555 9.98434 6.18628C9.98434 6.05701 9.95888 5.92901 9.90941 5.80958C9.85994 5.69015 9.78743 5.58163 9.69603 5.49022C9.60462 5.39881 9.4961 5.3263 9.37667 5.27684C9.25724 5.22737 9.12924 5.2019 8.99997 5.2019C8.73924 5.2019 8.4892 5.30548 8.30484 5.48984C8.12048 5.6742 8.01691 5.92424 8.01691 6.18497C8.01691 6.44569 8.12048 6.69574 8.30484 6.8801C8.4892 7.06446 8.73924 7.16803 8.99997 7.16803V7.17065Z" fill="#707070"/>
<path d="M1.125 9.46753C1.125 8.43337 1.32869 7.40934 1.72445 6.4539C2.1202 5.49846 2.70027 4.63032 3.43153 3.89906C4.1628 3.1678 5.03093 2.58773 5.98637 2.19198C6.94181 1.79622 7.96584 1.59253 9 1.59253C10.0342 1.59253 11.0582 1.79622 12.0136 2.19198C12.9691 2.58773 13.8372 3.1678 14.5685 3.89906C15.2997 4.63032 15.8798 5.49846 16.2756 6.4539C16.6713 7.40934 16.875 8.43337 16.875 9.46753C16.875 11.5561 16.0453 13.5591 14.5685 15.036C13.0916 16.5128 11.0886 17.3425 9 17.3425C6.91142 17.3425 4.90838 16.5128 3.43153 15.036C1.95469 13.5591 1.125 11.5561 1.125 9.46753ZM9 2.90503C7.25952 2.90503 5.59032 3.59643 4.35961 4.82714C3.1289 6.05785 2.4375 7.72705 2.4375 9.46753C2.4375 11.208 3.1289 12.8772 4.35961 14.1079C5.59032 15.3386 7.25952 16.03 9 16.03C10.7405 16.03 12.4097 15.3386 13.6404 14.1079C14.8711 12.8772 15.5625 11.208 15.5625 9.46753C15.5625 7.72705 14.8711 6.05785 13.6404 4.82714C12.4097 3.59643 10.7405 2.90503 9 2.90503Z" fill="#707070"/>
</svg>
