<svg width="281" height="143" viewBox="0 0 281 143" fill="none" xmlns="http://www.w3.org/2000/svg">
<g filter="url(#filter0_d_227_146)">
<rect x="1.25" y="12.25" width="270.5" height="121.5" rx="4.75" fill="#F7F7F7" stroke="#F7F7F7" stroke-width="0.5"/>
<path d="M178 1L184.928 13.25L171.072 13.25L178 1Z" fill="#F7F7F7"/>
</g>
<path d="M12.344 36H13.73V31.772H17.188V30.568H13.73V27.32H17.79V26.116H12.344V36ZM18.8748 32.458C18.8748 34.558 20.4008 36.168 22.6268 36.168C24.3208 36.168 25.3708 35.16 25.3708 35.16L24.8108 34.166C24.8108 34.166 23.9288 34.992 22.7108 34.992C21.4508 34.992 20.3448 34.208 20.2748 32.654H25.4408C25.4408 32.654 25.4828 32.248 25.4828 32.066C25.4828 30.232 24.4188 28.748 22.4168 28.748C20.4008 28.748 18.8748 30.204 18.8748 32.458ZM20.3168 31.632C20.5128 30.47 21.3528 29.826 22.3888 29.826C23.2988 29.826 24.0548 30.414 24.0968 31.632H20.3168ZM27.1304 36H28.4884V33.102C28.4884 32.668 28.5304 32.234 28.6564 31.828C28.9784 30.778 29.7764 30.162 30.6444 30.162C30.8544 30.162 31.0364 30.204 31.0364 30.204V28.86C31.0364 28.86 30.8684 28.832 30.6864 28.832C29.5944 28.832 28.7684 29.644 28.4464 30.68H28.4184C28.4184 30.68 28.4464 30.442 28.4464 30.148V28.916H27.1304V36ZM32.3804 36H33.7384V33.102C33.7384 32.668 33.7804 32.234 33.9064 31.828C34.2284 30.778 35.0264 30.162 35.8944 30.162C36.1044 30.162 36.2864 30.204 36.2864 30.204V28.86C36.2864 28.86 36.1184 28.832 35.9364 28.832C34.8444 28.832 34.0184 29.644 33.6964 30.68H33.6684C33.6684 30.68 33.6964 30.442 33.6964 30.148V28.916H32.3804V36ZM37.0564 34.012C37.0564 35.426 38.2464 36.168 39.4644 36.168C41.1584 36.168 41.7324 34.768 41.7324 34.768H41.7604C41.7604 34.768 41.7324 35.006 41.7324 35.328V36H42.9924V31.52C42.9924 29.728 41.9844 28.748 40.1924 28.748C38.5684 28.748 37.5464 29.588 37.5464 29.588L38.1064 30.582C38.1064 30.582 38.9884 29.896 40.0804 29.896C40.9764 29.896 41.6344 30.288 41.6344 31.45V31.576H41.3264C40.1364 31.576 37.0564 31.674 37.0564 34.012ZM38.4284 33.942C38.4284 32.668 40.2764 32.598 41.2984 32.598H41.6484V32.822C41.6484 33.872 40.9064 35.076 39.7584 35.076C38.8764 35.076 38.4284 34.516 38.4284 33.942ZM45.0269 36H46.3849V32.766C46.3849 32.444 46.3989 32.122 46.4689 31.842C46.7349 30.834 47.4629 29.98 48.4989 29.98C49.5909 29.98 49.7309 30.834 49.7309 31.758V36H51.0889V32.766C51.0889 32.402 51.1169 32.08 51.1869 31.786C51.4389 30.82 52.1809 29.98 53.1749 29.98C54.2389 29.98 54.4349 30.764 54.4349 31.758V36H55.7929V31.464C55.7929 29.658 55.0509 28.748 53.4549 28.748C52.3069 28.748 51.3269 29.504 50.9349 30.358H50.9069C50.6689 29.294 49.9689 28.748 48.7789 28.748C47.6729 28.748 46.6789 29.546 46.3429 30.372H46.3149C46.3149 30.372 46.3429 30.134 46.3429 29.854V28.916H45.0269V36ZM57.3338 32.458C57.3338 34.558 58.8598 36.168 61.0858 36.168C62.7798 36.168 63.8298 35.16 63.8298 35.16L63.2698 34.166C63.2698 34.166 62.3878 34.992 61.1698 34.992C59.9098 34.992 58.8038 34.208 58.7338 32.654H63.8998C63.8998 32.654 63.9418 32.248 63.9418 32.066C63.9418 30.232 62.8778 28.748 60.8758 28.748C58.8598 28.748 57.3338 30.204 57.3338 32.458ZM58.7758 31.632C58.9718 30.47 59.8118 29.826 60.8478 29.826C61.7578 29.826 62.5138 30.414 62.5558 31.632H58.7758ZM65.5894 36H66.9474V32.682C66.9474 32.332 66.9754 32.01 67.0594 31.73C67.3534 30.708 68.2214 29.994 69.2994 29.994C70.4334 29.994 70.6434 30.778 70.6434 31.772V36H72.0014V31.464C72.0014 29.658 71.2314 28.748 69.5654 28.748C68.0254 28.748 67.1854 29.756 66.9054 30.372H66.8774C66.8774 30.372 66.9054 30.134 66.9054 29.854V28.916H65.5894V36ZM74.3189 33.41C74.3189 35.776 76.1249 36.056 77.0349 36.056C77.3149 36.056 77.5109 36.028 77.5109 36.028V34.824C77.5109 34.824 77.3849 34.852 77.1889 34.852C76.6709 34.852 75.6769 34.67 75.6769 33.256V30.106H77.3849V29.014H75.6769V26.97H74.3609V29.014H73.3949V30.106H74.3189V33.41ZM78.4685 34.012C78.4685 35.426 79.6585 36.168 80.8765 36.168C82.5705 36.168 83.1445 34.768 83.1445 34.768H83.1725C83.1725 34.768 83.1445 35.006 83.1445 35.328V36H84.4045V31.52C84.4045 29.728 83.3965 28.748 81.6045 28.748C79.9805 28.748 78.9585 29.588 78.9585 29.588L79.5185 30.582C79.5185 30.582 80.4005 29.896 81.4925 29.896C82.3885 29.896 83.0465 30.288 83.0465 31.45V31.576H82.7385C81.5485 31.576 78.4685 31.674 78.4685 34.012ZM79.8405 33.942C79.8405 32.668 81.6885 32.598 82.7105 32.598H83.0605V32.822C83.0605 33.872 82.3185 35.076 81.1705 35.076C80.2885 35.076 79.8405 34.516 79.8405 33.942ZM85.865 35.132C85.865 35.132 86.817 36.168 88.553 36.168C90.107 36.168 91.115 35.286 91.115 34.11C91.115 31.786 87.475 32.066 87.475 30.792C87.475 30.176 88.049 29.924 88.637 29.924C89.757 29.924 90.387 30.554 90.387 30.554L90.933 29.532C90.933 29.532 90.205 28.748 88.651 28.748C87.237 28.748 86.089 29.476 86.089 30.764C86.089 33.074 89.729 32.808 89.729 34.11C89.729 34.684 89.141 34.992 88.553 34.992C87.321 34.992 86.523 34.166 86.523 34.166L85.865 35.132ZM95.8481 32.458C95.8481 34.656 97.0521 36.168 98.9701 36.168C100.65 36.168 101.238 34.95 101.238 34.95H101.266C101.266 34.95 101.238 35.202 101.238 35.566V38.8H102.596V28.916H101.308V29.448C101.308 29.728 101.322 29.938 101.322 29.938H101.294C101.294 29.938 100.692 28.748 99.0541 28.748C97.1781 28.748 95.8481 30.204 95.8481 32.458ZM97.2341 32.458C97.2341 30.848 98.1581 29.924 99.2781 29.924C100.622 29.924 101.28 31.184 101.28 32.444C101.28 34.25 100.286 34.992 99.2361 34.992C98.0601 34.992 97.2341 33.998 97.2341 32.458ZM104.62 33.452C104.62 35.328 105.446 36.168 107.042 36.168C108.428 36.168 109.352 35.244 109.646 34.544H109.674C109.674 34.544 109.646 34.768 109.646 35.062V36H110.962V28.916H109.604V32.234C109.604 33.634 108.75 34.908 107.308 34.908C106.174 34.908 105.978 34.124 105.978 33.144V28.916H104.62V33.452ZM112.595 32.458C112.595 34.558 114.121 36.168 116.347 36.168C118.041 36.168 119.091 35.16 119.091 35.16L118.531 34.166C118.531 34.166 117.649 34.992 116.431 34.992C115.171 34.992 114.065 34.208 113.995 32.654H119.161C119.161 32.654 119.203 32.248 119.203 32.066C119.203 30.232 118.139 28.748 116.137 28.748C114.121 28.748 112.595 30.204 112.595 32.458ZM114.037 31.632C114.233 30.47 115.073 29.826 116.109 29.826C117.019 29.826 117.775 30.414 117.817 31.632H114.037ZM124.447 38.8H125.805V35.622C125.805 35.258 125.777 35.006 125.777 35.006H125.805C125.805 35.006 126.421 36.168 127.975 36.168C129.823 36.168 131.181 34.712 131.181 32.458C131.181 30.26 129.977 28.748 128.073 28.748C126.295 28.748 125.693 30.036 125.693 30.036H125.665C125.665 30.036 125.693 29.798 125.693 29.518V28.916H124.447V38.8ZM125.763 32.486C125.763 30.68 126.743 29.938 127.807 29.938C128.983 29.938 129.809 30.932 129.809 32.472C129.809 34.082 128.885 35.006 127.765 35.006C126.463 35.006 125.763 33.746 125.763 32.486ZM132.351 32.458C132.351 34.558 133.877 36.168 136.103 36.168C137.797 36.168 138.847 35.16 138.847 35.16L138.287 34.166C138.287 34.166 137.405 34.992 136.187 34.992C134.927 34.992 133.821 34.208 133.751 32.654H138.917C138.917 32.654 138.959 32.248 138.959 32.066C138.959 30.232 137.895 28.748 135.893 28.748C133.877 28.748 132.351 30.204 132.351 32.458ZM133.793 31.632C133.989 30.47 134.829 29.826 135.865 29.826C136.775 29.826 137.531 30.414 137.573 31.632H133.793ZM140.607 36H141.965V33.102C141.965 32.668 142.007 32.234 142.133 31.828C142.455 30.778 143.253 30.162 144.121 30.162C144.331 30.162 144.513 30.204 144.513 30.204V28.86C144.513 28.86 144.345 28.832 144.163 28.832C143.071 28.832 142.245 29.644 141.923 30.68H141.895C141.895 30.68 141.923 30.442 141.923 30.148V28.916H140.607V36ZM145.857 36H147.215V32.766C147.215 32.444 147.229 32.122 147.299 31.842C147.565 30.834 148.293 29.98 149.329 29.98C150.421 29.98 150.561 30.834 150.561 31.758V36H151.919V32.766C151.919 32.402 151.947 32.08 152.017 31.786C152.269 30.82 153.011 29.98 154.005 29.98C155.069 29.98 155.265 30.764 155.265 31.758V36H156.623V31.464C156.623 29.658 155.881 28.748 154.285 28.748C153.137 28.748 152.157 29.504 151.765 30.358H151.737C151.499 29.294 150.799 28.748 149.609 28.748C148.503 28.748 147.509 29.546 147.173 30.372H147.145C147.145 30.372 147.173 30.134 147.173 29.854V28.916H145.857V36ZM158.64 27.502H160.012V26.116H158.64V27.502ZM158.654 36H160.012V28.916H158.654V36ZM162.434 33.41C162.434 35.776 164.24 36.056 165.15 36.056C165.43 36.056 165.626 36.028 165.626 36.028V34.824C165.626 34.824 165.5 34.852 165.304 34.852C164.786 34.852 163.792 34.67 163.792 33.256V30.106H165.5V29.014H163.792V26.97H162.476V29.014H161.51V30.106H162.434V33.41ZM166.668 32.458C166.668 34.558 168.194 36.168 170.42 36.168C172.114 36.168 173.164 35.16 173.164 35.16L172.604 34.166C172.604 34.166 171.722 34.992 170.504 34.992C169.244 34.992 168.138 34.208 168.068 32.654H173.234C173.234 32.654 173.276 32.248 173.276 32.066C173.276 30.232 172.212 28.748 170.21 28.748C168.194 28.748 166.668 30.204 166.668 32.458ZM168.11 31.632C168.306 30.47 169.146 29.826 170.182 29.826C171.092 29.826 171.848 30.414 171.89 31.632H168.11ZM174.923 36H176.281V32.766C176.281 32.444 176.295 32.122 176.365 31.842C176.631 30.834 177.359 29.98 178.395 29.98C179.487 29.98 179.627 30.834 179.627 31.758V36H180.985V32.766C180.985 32.402 181.013 32.08 181.083 31.786C181.335 30.82 182.077 29.98 183.071 29.98C184.135 29.98 184.331 30.764 184.331 31.758V36H185.689V31.464C185.689 29.658 184.947 28.748 183.351 28.748C182.203 28.748 181.223 29.504 180.831 30.358H180.803C180.565 29.294 179.865 28.748 178.675 28.748C177.569 28.748 176.575 29.546 176.239 30.372H176.211C176.211 30.372 176.239 30.134 176.239 29.854V28.916H174.923V36ZM190.854 32.458C190.854 34.656 192.058 36.168 193.976 36.168C195.656 36.168 196.244 34.95 196.244 34.95H196.272C196.272 34.95 196.244 35.202 196.244 35.566V38.8H197.602V28.916H196.314V29.448C196.314 29.728 196.328 29.938 196.328 29.938H196.3C196.3 29.938 195.698 28.748 194.06 28.748C192.184 28.748 190.854 30.204 190.854 32.458ZM192.24 32.458C192.24 30.848 193.164 29.924 194.284 29.924C195.628 29.924 196.286 31.184 196.286 32.444C196.286 34.25 195.292 34.992 194.242 34.992C193.066 34.992 192.24 33.998 192.24 32.458ZM199.626 33.452C199.626 35.328 200.452 36.168 202.048 36.168C203.434 36.168 204.358 35.244 204.652 34.544H204.68C204.68 34.544 204.652 34.768 204.652 35.062V36H205.968V28.916H204.61V32.234C204.61 33.634 203.756 34.908 202.314 34.908C201.18 34.908 200.984 34.124 200.984 33.144V28.916H199.626V33.452ZM207.601 32.458C207.601 34.558 209.127 36.168 211.353 36.168C213.047 36.168 214.097 35.16 214.097 35.16L213.537 34.166C213.537 34.166 212.655 34.992 211.437 34.992C210.177 34.992 209.071 34.208 209.001 32.654H214.167C214.167 32.654 214.209 32.248 214.209 32.066C214.209 30.232 213.145 28.748 211.143 28.748C209.127 28.748 207.601 30.204 207.601 32.458ZM209.043 31.632C209.239 30.47 210.079 29.826 211.115 29.826C212.025 29.826 212.781 30.414 212.823 31.632H209.043ZM11.574 49.458C11.574 51.558 13.1 53.168 15.326 53.168C17.02 53.168 18.07 52.16 18.07 52.16L17.51 51.166C17.51 51.166 16.628 51.992 15.41 51.992C14.15 51.992 13.044 51.208 12.974 49.654H18.14C18.14 49.654 18.182 49.248 18.182 49.066C18.182 47.232 17.118 45.748 15.116 45.748C13.1 45.748 11.574 47.204 11.574 49.458ZM13.016 48.632C13.212 47.47 14.052 46.826 15.088 46.826C15.998 46.826 16.754 47.414 16.796 48.632H13.016ZM19.8296 53H21.1876V49.766C21.1876 49.444 21.2016 49.122 21.2716 48.842C21.5376 47.834 22.2656 46.98 23.3016 46.98C24.3936 46.98 24.5336 47.834 24.5336 48.758V53H25.8916V49.766C25.8916 49.402 25.9196 49.08 25.9896 48.786C26.2416 47.82 26.9836 46.98 27.9776 46.98C29.0416 46.98 29.2376 47.764 29.2376 48.758V53H30.5956V48.464C30.5956 46.658 29.8536 45.748 28.2576 45.748C27.1096 45.748 26.1296 46.504 25.7376 47.358H25.7096C25.4716 46.294 24.7716 45.748 23.5816 45.748C22.4756 45.748 21.4816 46.546 21.1456 47.372H21.1176C21.1176 47.372 21.1456 47.134 21.1456 46.854V45.916H19.8296V53ZM32.6265 55.8H33.9845V52.622C33.9845 52.258 33.9565 52.006 33.9565 52.006H33.9845C33.9845 52.006 34.6005 53.168 36.1545 53.168C38.0025 53.168 39.3605 51.712 39.3605 49.458C39.3605 47.26 38.1565 45.748 36.2525 45.748C34.4745 45.748 33.8725 47.036 33.8725 47.036H33.8445C33.8445 47.036 33.8725 46.798 33.8725 46.518V45.916H32.6265V55.8ZM33.9425 49.486C33.9425 47.68 34.9225 46.938 35.9865 46.938C37.1625 46.938 37.9885 47.932 37.9885 49.472C37.9885 51.082 37.0645 52.006 35.9445 52.006C34.6425 52.006 33.9425 50.746 33.9425 49.486ZM41.021 53H42.379V50.102C42.379 49.668 42.421 49.234 42.547 48.828C42.869 47.778 43.667 47.162 44.535 47.162C44.745 47.162 44.927 47.204 44.927 47.204V45.86C44.927 45.86 44.759 45.832 44.577 45.832C43.485 45.832 42.659 46.644 42.337 47.68H42.309C42.309 47.68 42.337 47.442 42.337 47.148V45.916H41.021V53ZM45.74 49.458C45.74 51.558 47.266 53.168 49.492 53.168C51.186 53.168 52.236 52.16 52.236 52.16L51.676 51.166C51.676 51.166 50.794 51.992 49.576 51.992C48.316 51.992 47.21 51.208 47.14 49.654H52.306C52.306 49.654 52.348 49.248 52.348 49.066C52.348 47.232 51.284 45.748 49.282 45.748C47.266 45.748 45.74 47.204 45.74 49.458ZM47.182 48.632C47.378 47.47 48.218 46.826 49.254 46.826C50.164 46.826 50.92 47.414 50.962 48.632H47.182ZM53.4216 52.132C53.4216 52.132 54.3736 53.168 56.1096 53.168C57.6636 53.168 58.6716 52.286 58.6716 51.11C58.6716 48.786 55.0316 49.066 55.0316 47.792C55.0316 47.176 55.6056 46.924 56.1936 46.924C57.3136 46.924 57.9436 47.554 57.9436 47.554L58.4896 46.532C58.4896 46.532 57.7616 45.748 56.2076 45.748C54.7936 45.748 53.6456 46.476 53.6456 47.764C53.6456 50.074 57.2856 49.808 57.2856 51.11C57.2856 51.684 56.6976 51.992 56.1096 51.992C54.8776 51.992 54.0796 51.166 54.0796 51.166L53.4216 52.132ZM59.697 51.012C59.697 52.426 60.887 53.168 62.105 53.168C63.799 53.168 64.373 51.768 64.373 51.768H64.401C64.401 51.768 64.373 52.006 64.373 52.328V53H65.633V48.52C65.633 46.728 64.625 45.748 62.833 45.748C61.209 45.748 60.187 46.588 60.187 46.588L60.747 47.582C60.747 47.582 61.629 46.896 62.721 46.896C63.617 46.896 64.275 47.288 64.275 48.45V48.576H63.967C62.777 48.576 59.697 48.674 59.697 51.012ZM61.069 50.942C61.069 49.668 62.917 49.598 63.939 49.598H64.289V49.822C64.289 50.872 63.547 52.076 62.399 52.076C61.517 52.076 61.069 51.516 61.069 50.942ZM67.0935 52.132C67.0935 52.132 68.0455 53.168 69.7815 53.168C71.3355 53.168 72.3435 52.286 72.3435 51.11C72.3435 48.786 68.7035 49.066 68.7035 47.792C68.7035 47.176 69.2775 46.924 69.8655 46.924C70.9855 46.924 71.6155 47.554 71.6155 47.554L72.1615 46.532C72.1615 46.532 71.4335 45.748 69.8795 45.748C68.4655 45.748 67.3175 46.476 67.3175 47.764C67.3175 50.074 70.9575 49.808 70.9575 51.11C70.9575 51.684 70.3695 51.992 69.7815 51.992C68.5495 51.992 67.7515 51.166 67.7515 51.166L67.0935 52.132ZM77.0766 49.458C77.0766 51.656 78.2806 53.168 80.1986 53.168C81.8786 53.168 82.4666 51.95 82.4666 51.95H82.4946C82.4946 51.95 82.4666 52.202 82.4666 52.566V55.8H83.8246V45.916H82.5366V46.448C82.5366 46.728 82.5506 46.938 82.5506 46.938H82.5226C82.5226 46.938 81.9206 45.748 80.2826 45.748C78.4066 45.748 77.0766 47.204 77.0766 49.458ZM78.4626 49.458C78.4626 47.848 79.3866 46.924 80.5066 46.924C81.8506 46.924 82.5086 48.184 82.5086 49.444C82.5086 51.25 81.5146 51.992 80.4646 51.992C79.2886 51.992 78.4626 50.998 78.4626 49.458ZM85.8488 50.452C85.8488 52.328 86.6748 53.168 88.2708 53.168C89.6568 53.168 90.5808 52.244 90.8748 51.544H90.9028C90.9028 51.544 90.8748 51.768 90.8748 52.062V53H92.1908V45.916H90.8328V49.234C90.8328 50.634 89.9788 51.908 88.5368 51.908C87.4028 51.908 87.2068 51.124 87.2068 50.144V45.916H85.8488V50.452ZM93.824 49.458C93.824 51.558 95.35 53.168 97.576 53.168C99.27 53.168 100.32 52.16 100.32 52.16L99.76 51.166C99.76 51.166 98.878 51.992 97.66 51.992C96.4 51.992 95.294 51.208 95.224 49.654H100.39C100.39 49.654 100.432 49.248 100.432 49.066C100.432 47.232 99.368 45.748 97.366 45.748C95.35 45.748 93.824 47.204 93.824 49.458ZM95.266 48.632C95.462 47.47 96.302 46.826 97.338 46.826C98.248 46.826 99.004 47.414 99.046 48.632H95.266ZM105.101 51.012C105.101 52.426 106.291 53.168 107.509 53.168C109.203 53.168 109.777 51.768 109.777 51.768H109.805C109.805 51.768 109.777 52.006 109.777 52.328V53H111.037V48.52C111.037 46.728 110.029 45.748 108.237 45.748C106.613 45.748 105.591 46.588 105.591 46.588L106.151 47.582C106.151 47.582 107.033 46.896 108.125 46.896C109.021 46.896 109.679 47.288 109.679 48.45V48.576H109.371C108.181 48.576 105.101 48.674 105.101 51.012ZM106.473 50.942C106.473 49.668 108.321 49.598 109.343 49.598H109.693V49.822C109.693 50.872 108.951 52.076 107.803 52.076C106.921 52.076 106.473 51.516 106.473 50.942ZM113.325 50.41C113.325 52.776 115.131 53.056 116.041 53.056C116.321 53.056 116.517 53.028 116.517 53.028V51.824C116.517 51.824 116.391 51.852 116.195 51.852C115.677 51.852 114.683 51.67 114.683 50.256V47.106H116.391V46.014H114.683V43.97H113.367V46.014H112.401V47.106H113.325V50.41ZM117.95 50.452C117.95 52.328 118.776 53.168 120.372 53.168C121.758 53.168 122.682 52.244 122.976 51.544H123.004C123.004 51.544 122.976 51.768 122.976 52.062V53H124.292V45.916H122.934V49.234C122.934 50.634 122.08 51.908 120.638 51.908C119.504 51.908 119.308 51.124 119.308 50.144V45.916H117.95V50.452ZM125.842 51.012C125.842 52.426 127.032 53.168 128.25 53.168C129.944 53.168 130.518 51.768 130.518 51.768H130.546C130.546 51.768 130.518 52.006 130.518 52.328V53H131.778V48.52C131.778 46.728 130.77 45.748 128.978 45.748C127.354 45.748 126.332 46.588 126.332 46.588L126.892 47.582C126.892 47.582 127.774 46.896 128.866 46.896C129.762 46.896 130.42 47.288 130.42 48.45V48.576H130.112C128.922 48.576 125.842 48.674 125.842 51.012ZM127.214 50.942C127.214 49.668 129.062 49.598 130.084 49.598H130.434V49.822C130.434 50.872 129.692 52.076 128.544 52.076C127.662 52.076 127.214 51.516 127.214 50.942ZM133.812 53H135.17V49.766C135.17 49.444 135.184 49.122 135.254 48.842C135.52 47.834 136.248 46.98 137.284 46.98C138.376 46.98 138.516 47.834 138.516 48.758V53H139.874V49.766C139.874 49.402 139.902 49.08 139.972 48.786C140.224 47.82 140.966 46.98 141.96 46.98C143.024 46.98 143.22 47.764 143.22 48.758V53H144.578V48.464C144.578 46.658 143.836 45.748 142.24 45.748C141.092 45.748 140.112 46.504 139.72 47.358H139.692C139.454 46.294 138.754 45.748 137.564 45.748C136.458 45.748 135.464 46.546 135.128 47.372H135.1C135.1 47.372 135.128 47.134 135.128 46.854V45.916H133.812V53ZM150.205 53H151.563V49.682C151.563 49.332 151.591 49.01 151.675 48.73C151.969 47.708 152.837 46.994 153.915 46.994C155.049 46.994 155.259 47.778 155.259 48.772V53H156.617V48.464C156.617 46.658 155.847 45.748 154.181 45.748C152.641 45.748 151.801 46.756 151.521 47.372H151.493C151.493 47.372 151.521 47.134 151.521 46.854V45.916H150.205V53ZM158.122 49.444C158.122 51.6 159.83 53.168 161.944 53.168C164.058 53.168 165.766 51.6 165.766 49.444C165.766 47.302 164.058 45.748 161.944 45.748C159.83 45.748 158.122 47.302 158.122 49.444ZM159.508 49.444C159.508 47.974 160.614 46.924 161.944 46.924C163.288 46.924 164.38 47.974 164.38 49.444C164.38 50.928 163.288 51.992 161.944 51.992C160.614 51.992 159.508 50.928 159.508 49.444ZM170.972 53H172.33V49.766C172.33 49.444 172.344 49.122 172.414 48.842C172.68 47.834 173.408 46.98 174.444 46.98C175.536 46.98 175.676 47.834 175.676 48.758V53H177.034V49.766C177.034 49.402 177.062 49.08 177.132 48.786C177.384 47.82 178.126 46.98 179.12 46.98C180.184 46.98 180.38 47.764 180.38 48.758V53H181.738V48.464C181.738 46.658 180.996 45.748 179.4 45.748C178.252 45.748 177.272 46.504 176.88 47.358H176.852C176.614 46.294 175.914 45.748 174.724 45.748C173.618 45.748 172.624 46.546 172.288 47.372H172.26C172.26 47.372 172.288 47.134 172.288 46.854V45.916H170.972V53ZM183.251 49.444C183.251 51.6 184.959 53.168 187.073 53.168C189.187 53.168 190.895 51.6 190.895 49.444C190.895 47.302 189.187 45.748 187.073 45.748C184.959 45.748 183.251 47.302 183.251 49.444ZM184.637 49.444C184.637 47.974 185.743 46.924 187.073 46.924C188.417 46.924 189.509 47.974 189.509 49.444C189.509 50.928 188.417 51.992 187.073 51.992C185.743 51.992 184.637 50.928 184.637 49.444ZM192.043 49.458C192.043 51.656 193.247 53.168 195.165 53.168C196.915 53.168 197.489 51.852 197.489 51.852H197.517C197.517 51.852 197.503 52.048 197.503 52.328V53H198.791V43.116H197.433V46.392C197.433 46.658 197.461 46.868 197.461 46.868H197.433C197.433 46.868 196.887 45.748 195.249 45.748C193.373 45.748 192.043 47.204 192.043 49.458ZM193.429 49.458C193.429 47.848 194.353 46.924 195.473 46.924C196.817 46.924 197.475 48.184 197.475 49.444C197.475 51.25 196.481 51.992 195.431 51.992C194.255 51.992 193.429 50.998 193.429 49.458ZM200.424 49.458C200.424 51.558 201.95 53.168 204.176 53.168C205.87 53.168 206.92 52.16 206.92 52.16L206.36 51.166C206.36 51.166 205.478 51.992 204.26 51.992C203 51.992 201.894 51.208 201.824 49.654H206.99C206.99 49.654 207.032 49.248 207.032 49.066C207.032 47.232 205.968 45.748 203.966 45.748C201.95 45.748 200.424 47.204 200.424 49.458ZM201.866 48.632C202.062 47.47 202.902 46.826 203.938 46.826C204.848 46.826 205.604 47.414 205.646 48.632H201.866ZM208.595 51.068C208.595 52.846 209.729 53.056 210.499 53.056C210.737 53.056 210.947 53.028 210.947 53.028V51.824C210.947 51.824 210.835 51.838 210.709 51.838C210.289 51.838 209.953 51.684 209.953 50.83V43.116H208.595V51.068ZM211.866 49.444C211.866 51.6 213.574 53.168 215.688 53.168C217.802 53.168 219.51 51.6 219.51 49.444C219.51 47.302 217.802 45.748 215.688 45.748C213.574 45.748 211.866 47.302 211.866 49.444ZM213.252 49.444C213.252 47.974 214.358 46.924 215.688 46.924C217.032 46.924 218.124 47.974 218.124 49.444C218.124 50.928 217.032 51.992 215.688 51.992C214.358 51.992 213.252 50.928 213.252 49.444ZM224.254 49.458C224.254 51.656 225.458 53.168 227.376 53.168C229.126 53.168 229.7 51.852 229.7 51.852H229.728C229.728 51.852 229.714 52.048 229.714 52.328V53H231.002V43.116H229.644V46.392C229.644 46.658 229.672 46.868 229.672 46.868H229.644C229.644 46.868 229.098 45.748 227.46 45.748C225.584 45.748 224.254 47.204 224.254 49.458ZM225.64 49.458C225.64 47.848 226.564 46.924 227.684 46.924C229.028 46.924 229.686 48.184 229.686 49.444C229.686 51.25 228.692 51.992 227.642 51.992C226.466 51.992 225.64 50.998 225.64 49.458ZM232.635 49.458C232.635 51.558 234.161 53.168 236.387 53.168C238.081 53.168 239.131 52.16 239.131 52.16L238.571 51.166C238.571 51.166 237.689 51.992 236.471 51.992C235.211 51.992 234.105 51.208 234.035 49.654H239.201C239.201 49.654 239.243 49.248 239.243 49.066C239.243 47.232 238.179 45.748 236.177 45.748C234.161 45.748 232.635 47.204 232.635 49.458ZM234.077 48.632C234.273 47.47 235.113 46.826 236.149 46.826C237.059 46.826 237.815 47.414 237.857 48.632H234.077ZM11.98 70H13.758V66.864C13.758 66.542 13.772 66.22 13.842 65.954C14.066 65.044 14.668 64.316 15.592 64.316C16.432 64.316 16.558 64.974 16.558 65.744V70H18.336V66.864C18.336 66.528 18.35 66.22 18.42 65.94C18.63 65.044 19.232 64.316 20.142 64.316C20.968 64.316 21.122 64.932 21.122 65.744V70H22.9V65.408C22.9 63.532 22.046 62.692 20.562 62.692C19.442 62.692 18.518 63.392 18.126 64.162H18.098C17.804 63.196 17.104 62.692 16.012 62.692C14.892 62.692 14.038 63.476 13.688 64.176H13.66C13.66 64.176 13.688 63.952 13.688 63.686V62.86H11.98V70ZM24.1612 67.942C24.1612 69.37 25.3092 70.168 26.5832 70.168C28.2072 70.168 28.7672 68.908 28.7532 68.908H28.7812C28.7812 68.908 28.7532 69.132 28.7532 69.412V70H30.3912V65.534C30.3912 63.728 29.2992 62.692 27.4232 62.692C25.7292 62.692 24.6232 63.574 24.6232 63.574L25.2952 64.848C25.2952 64.848 26.2332 64.162 27.2552 64.162C28.0392 64.162 28.6272 64.484 28.6272 65.422V65.52H28.3892C27.2272 65.52 24.1612 65.674 24.1612 67.942ZM25.9532 67.858C25.9532 66.864 27.4232 66.738 28.3332 66.738H28.6412V66.906C28.6412 67.774 27.9692 68.782 27.0312 68.782C26.3032 68.782 25.9532 68.334 25.9532 67.858ZM32.2417 70H34.0197V67.172C34.0197 66.752 34.0617 66.36 34.1737 66.01C34.5097 64.946 35.3637 64.512 36.1197 64.512C36.3577 64.512 36.5397 64.54 36.5397 64.54V62.79C36.5397 62.79 36.3857 62.762 36.2177 62.762C35.1257 62.762 34.2717 63.574 33.9497 64.596H33.9217C33.9217 64.596 33.9497 64.358 33.9497 64.092V62.86H32.2417V70ZM37.7378 70H39.5158V66.878H40.4398L42.3298 70H44.3738L41.8398 66.08V66.052L44.0938 62.86H42.1198L40.3978 65.38H39.5158V60.06H37.7378V70ZM44.849 66.43C44.849 68.46 46.319 70.168 48.685 70.168C50.463 70.168 51.555 69.146 51.555 69.146L50.869 67.872C50.869 67.872 49.959 68.656 48.811 68.656C47.747 68.656 46.781 68.012 46.669 66.766H51.597C51.597 66.766 51.639 66.29 51.639 66.08C51.639 64.19 50.533 62.692 48.475 62.692C46.347 62.692 44.849 64.232 44.849 66.43ZM46.725 65.548C46.893 64.624 47.523 64.064 48.433 64.064C49.217 64.064 49.819 64.582 49.847 65.548H46.725ZM53.413 67.382C53.413 69.776 55.387 70.07 56.381 70.07C56.717 70.07 56.927 70.028 56.927 70.028V68.474C56.927 68.474 56.801 68.502 56.605 68.502C56.115 68.502 55.191 68.334 55.191 67.158V64.386H56.815V62.972H55.191V60.914H53.455V62.972H52.489V64.386H53.413V67.382ZM58.3823 72.8H60.1603V69.804C60.1603 69.44 60.1323 69.188 60.1323 69.188H60.1603C60.1603 69.188 60.7903 70.168 62.2043 70.168C64.0803 70.168 65.4663 68.698 65.4663 66.43C65.4663 64.218 64.2343 62.692 62.3023 62.692C60.6223 62.692 60.0063 63.868 60.0063 63.868H59.9783C59.9783 63.868 60.0063 63.644 60.0063 63.378V62.86H58.3823V72.8ZM60.1043 66.472C60.1043 64.89 60.9723 64.218 61.8963 64.218C62.9463 64.218 63.6743 65.1 63.6743 66.458C63.6743 67.872 62.8623 68.67 61.8823 68.67C60.7063 68.67 60.1043 67.578 60.1043 66.472ZM66.8429 67.774C66.8429 69.818 68.0609 70.07 69.0409 70.07C69.3349 70.07 69.6009 70.028 69.6009 70.028V68.474C69.6009 68.474 69.4749 68.488 69.3349 68.488C68.8729 68.488 68.6069 68.292 68.6069 67.508V60.06H66.8429V67.774ZM70.3175 67.942C70.3175 69.37 71.4655 70.168 72.7395 70.168C74.3635 70.168 74.9235 68.908 74.9095 68.908H74.9375C74.9375 68.908 74.9095 69.132 74.9095 69.412V70H76.5475V65.534C76.5475 63.728 75.4555 62.692 73.5795 62.692C71.8855 62.692 70.7795 63.574 70.7795 63.574L71.4515 64.848C71.4515 64.848 72.3895 64.162 73.4115 64.162C74.1955 64.162 74.7835 64.484 74.7835 65.422V65.52H74.5455C73.3835 65.52 70.3175 65.674 70.3175 67.942ZM72.1095 67.858C72.1095 66.864 73.5795 66.738 74.4895 66.738H74.7975V66.906C74.7975 67.774 74.1255 68.782 73.1875 68.782C72.4595 68.782 72.1095 68.334 72.1095 67.858ZM77.88 66.43C77.88 68.502 79.392 70.168 81.758 70.168C83.676 70.168 84.698 69.006 84.698 69.006L84.012 67.746C84.012 67.746 83.116 68.656 81.912 68.656C80.554 68.656 79.686 67.62 79.686 66.416C79.686 65.198 80.54 64.204 81.856 64.204C82.976 64.204 83.718 64.974 83.718 64.974L84.502 63.756C84.502 63.756 83.62 62.692 81.758 62.692C79.392 62.692 77.88 64.4 77.88 66.43ZM85.5229 66.43C85.5229 68.46 86.9929 70.168 89.3589 70.168C91.1369 70.168 92.2289 69.146 92.2289 69.146L91.5429 67.872C91.5429 67.872 90.6329 68.656 89.4849 68.656C88.4209 68.656 87.4549 68.012 87.3429 66.766H92.2709C92.2709 66.766 92.3129 66.29 92.3129 66.08C92.3129 64.19 91.2069 62.692 89.1489 62.692C87.0209 62.692 85.5229 64.232 85.5229 66.43ZM87.3989 65.548C87.5669 64.624 88.1969 64.064 89.1069 64.064C89.8909 64.064 90.4929 64.582 90.5209 65.548H87.3989ZM96.9405 66.444C96.9405 68.6 98.6485 70.168 100.763 70.168C102.877 70.168 104.585 68.6 104.585 66.444C104.585 64.302 102.877 62.748 100.763 62.748C98.6485 62.748 96.9405 64.302 96.9405 66.444ZM98.3265 66.444C98.3265 64.974 99.4325 63.924 100.763 63.924C102.107 63.924 103.199 64.974 103.199 66.444C103.199 67.928 102.107 68.992 100.763 68.992C99.4325 68.992 98.3265 67.928 98.3265 66.444ZM106.097 67.452C106.097 69.328 106.923 70.168 108.519 70.168C109.905 70.168 110.829 69.244 111.123 68.544H111.151C111.151 68.544 111.123 68.768 111.123 69.062V70H112.439V62.916H111.081V66.234C111.081 67.634 110.227 68.908 108.785 68.908C107.651 68.908 107.455 68.124 107.455 67.144V62.916H106.097V67.452ZM118.074 70H119.852V66.864C119.852 66.542 119.866 66.22 119.936 65.954C120.16 65.044 120.762 64.316 121.686 64.316C122.526 64.316 122.652 64.974 122.652 65.744V70H124.43V66.864C124.43 66.528 124.444 66.22 124.514 65.94C124.724 65.044 125.326 64.316 126.236 64.316C127.062 64.316 127.216 64.932 127.216 65.744V70H128.994V65.408C128.994 63.532 128.14 62.692 126.656 62.692C125.536 62.692 124.612 63.392 124.22 64.162H124.192C123.898 63.196 123.198 62.692 122.106 62.692C120.986 62.692 120.132 63.476 119.782 64.176H119.754C119.754 64.176 119.782 63.952 119.782 63.686V62.86H118.074V70ZM130.759 67.452C130.759 69.398 131.711 70.168 133.237 70.168C134.455 70.168 135.365 69.426 135.715 68.684H135.743C135.743 68.684 135.715 68.908 135.715 69.188V70H137.423V62.86H135.645V66.136C135.645 67.41 134.931 68.544 133.643 68.544C132.761 68.544 132.537 67.956 132.537 67.088V62.86H130.759V67.452ZM139.29 67.774C139.29 69.818 140.508 70.07 141.488 70.07C141.782 70.07 142.048 70.028 142.048 70.028V68.474C142.048 68.474 141.922 68.488 141.782 68.488C141.32 68.488 141.054 68.292 141.054 67.508V60.06H139.29V67.774ZM143.634 67.382C143.634 69.776 145.608 70.07 146.602 70.07C146.938 70.07 147.148 70.028 147.148 70.028V68.474C147.148 68.474 147.022 68.502 146.826 68.502C146.336 68.502 145.412 68.334 145.412 67.158V64.386H147.036V62.972H145.412V60.914H143.676V62.972H142.71V64.386H143.634V67.382ZM148.603 61.642H150.367V60.06H148.603V61.642ZM148.603 70H150.381V62.86H148.603V70ZM152.237 67.774C152.237 69.818 153.455 70.07 154.435 70.07C154.729 70.07 154.995 70.028 154.995 70.028V68.474C154.995 68.474 154.869 68.488 154.729 68.488C154.267 68.488 154.001 68.292 154.001 67.508V60.06H152.237V67.774ZM155.712 67.942C155.712 69.37 156.86 70.168 158.134 70.168C159.758 70.168 160.318 68.908 160.304 68.908H160.332C160.332 68.908 160.304 69.132 160.304 69.412V70H161.942V65.534C161.942 63.728 160.85 62.692 158.974 62.692C157.28 62.692 156.174 63.574 156.174 63.574L156.846 64.848C156.846 64.848 157.784 64.162 158.806 64.162C159.59 64.162 160.178 64.484 160.178 65.422V65.52H159.94C158.778 65.52 155.712 65.674 155.712 67.942ZM157.504 67.858C157.504 66.864 158.974 66.738 159.884 66.738H160.192V66.906C160.192 67.774 159.52 68.782 158.582 68.782C157.854 68.782 157.504 68.334 157.504 67.858ZM164.059 67.382C164.059 69.776 166.033 70.07 167.027 70.07C167.363 70.07 167.573 70.028 167.573 70.028V68.474C167.573 68.474 167.447 68.502 167.251 68.502C166.761 68.502 165.837 68.334 165.837 67.158V64.386H167.461V62.972H165.837V60.914H164.101V62.972H163.135V64.386H164.059V67.382ZM168.525 66.43C168.525 68.46 169.995 70.168 172.361 70.168C174.139 70.168 175.231 69.146 175.231 69.146L174.545 67.872C174.545 67.872 173.635 68.656 172.487 68.656C171.423 68.656 170.457 68.012 170.345 66.766H175.273C175.273 66.766 175.315 66.29 175.315 66.08C175.315 64.19 174.209 62.692 172.151 62.692C170.023 62.692 168.525 64.232 168.525 66.43ZM170.401 65.548C170.569 64.624 171.199 64.064 172.109 64.064C172.893 64.064 173.495 64.582 173.523 65.548H170.401ZM176.781 70H178.559V67.172C178.559 66.752 178.601 66.36 178.713 66.01C179.049 64.946 179.903 64.512 180.659 64.512C180.897 64.512 181.079 64.54 181.079 64.54V62.79C181.079 62.79 180.925 62.762 180.757 62.762C179.665 62.762 178.811 63.574 178.489 64.596H178.461C178.461 64.596 178.489 64.358 178.489 64.092V62.86H176.781V70ZM181.675 67.942C181.675 69.37 182.823 70.168 184.097 70.168C185.721 70.168 186.281 68.908 186.267 68.908H186.295C186.295 68.908 186.267 69.132 186.267 69.412V70H187.905V65.534C187.905 63.728 186.813 62.692 184.937 62.692C183.243 62.692 182.137 63.574 182.137 63.574L182.809 64.848C182.809 64.848 183.747 64.162 184.769 64.162C185.553 64.162 186.141 64.484 186.141 65.422V65.52H185.903C184.741 65.52 181.675 65.674 181.675 67.942ZM183.467 67.858C183.467 66.864 184.937 66.738 185.847 66.738H186.155V66.906C186.155 67.774 185.483 68.782 184.545 68.782C183.817 68.782 183.467 68.334 183.467 67.858ZM189.657 67.774C189.657 69.818 190.875 70.07 191.855 70.07C192.149 70.07 192.415 70.028 192.415 70.028V68.474C192.415 68.474 192.289 68.488 192.149 68.488C191.687 68.488 191.421 68.292 191.421 67.508V60.06H189.657V67.774ZM197.414 72.8H198.772V69.622C198.772 69.258 198.744 69.006 198.744 69.006H198.772C198.772 69.006 199.388 70.168 200.942 70.168C202.79 70.168 204.148 68.712 204.148 66.458C204.148 64.26 202.944 62.748 201.04 62.748C199.262 62.748 198.66 64.036 198.66 64.036H198.632C198.632 64.036 198.66 63.798 198.66 63.518V62.916H197.414V72.8ZM198.73 66.486C198.73 64.68 199.71 63.938 200.774 63.938C201.95 63.938 202.776 64.932 202.776 66.472C202.776 68.082 201.852 69.006 200.732 69.006C199.43 69.006 198.73 67.746 198.73 66.486ZM205.29 66.444C205.29 68.6 206.998 70.168 209.112 70.168C211.226 70.168 212.934 68.6 212.934 66.444C212.934 64.302 211.226 62.748 209.112 62.748C206.998 62.748 205.29 64.302 205.29 66.444ZM206.676 66.444C206.676 64.974 207.782 63.924 209.112 63.924C210.456 63.924 211.548 64.974 211.548 66.444C211.548 67.928 210.456 68.992 209.112 68.992C207.782 68.992 206.676 67.928 206.676 66.444ZM213.97 69.132C213.97 69.132 214.922 70.168 216.658 70.168C218.212 70.168 219.22 69.286 219.22 68.11C219.22 65.786 215.58 66.066 215.58 64.792C215.58 64.176 216.154 63.924 216.742 63.924C217.862 63.924 218.492 64.554 218.492 64.554L219.038 63.532C219.038 63.532 218.31 62.748 216.756 62.748C215.342 62.748 214.194 63.476 214.194 64.764C214.194 67.074 217.834 66.808 217.834 68.11C217.834 68.684 217.246 68.992 216.658 68.992C215.426 68.992 214.628 68.166 214.628 68.166L213.97 69.132ZM220.246 69.132C220.246 69.132 221.198 70.168 222.934 70.168C224.488 70.168 225.496 69.286 225.496 68.11C225.496 65.786 221.856 66.066 221.856 64.792C221.856 64.176 222.43 63.924 223.018 63.924C224.138 63.924 224.768 64.554 224.768 64.554L225.314 63.532C225.314 63.532 224.586 62.748 223.032 62.748C221.618 62.748 220.47 63.476 220.47 64.764C220.47 67.074 224.11 66.808 224.11 68.11C224.11 68.684 223.522 68.992 222.934 68.992C221.702 68.992 220.904 68.166 220.904 68.166L220.246 69.132ZM226.521 68.012C226.521 69.426 227.711 70.168 228.929 70.168C230.623 70.168 231.197 68.768 231.197 68.768H231.225C231.225 68.768 231.197 69.006 231.197 69.328V70H232.457V65.52C232.457 63.728 231.449 62.748 229.657 62.748C228.033 62.748 227.011 63.588 227.011 63.588L227.571 64.582C227.571 64.582 228.453 63.896 229.545 63.896C230.441 63.896 231.099 64.288 231.099 65.45V65.576H230.791C229.601 65.576 226.521 65.674 226.521 68.012ZM227.893 67.942C227.893 66.668 229.741 66.598 230.763 66.598H231.113V66.822C231.113 67.872 230.371 69.076 229.223 69.076C228.341 69.076 227.893 68.516 227.893 67.942ZM234.492 70H235.85V66.766C235.85 66.444 235.864 66.122 235.934 65.842C236.2 64.834 236.928 63.98 237.964 63.98C239.056 63.98 239.196 64.834 239.196 65.758V70H240.554V66.766C240.554 66.402 240.582 66.08 240.652 65.786C240.904 64.82 241.646 63.98 242.64 63.98C243.704 63.98 243.9 64.764 243.9 65.758V70H245.258V65.464C245.258 63.658 244.516 62.748 242.92 62.748C241.772 62.748 240.792 63.504 240.4 64.358H240.372C240.134 63.294 239.434 62.748 238.244 62.748C237.138 62.748 236.144 63.546 235.808 64.372H235.78C235.78 64.372 235.808 64.134 235.808 63.854V62.916H234.492V70ZM12.064 87H13.422V84.102C13.422 83.668 13.464 83.234 13.59 82.828C13.912 81.778 14.71 81.162 15.578 81.162C15.788 81.162 15.97 81.204 15.97 81.204V79.86C15.97 79.86 15.802 79.832 15.62 79.832C14.528 79.832 13.702 80.644 13.38 81.68H13.352C13.352 81.68 13.38 81.442 13.38 81.148V79.916H12.064V87ZM16.783 83.458C16.783 85.558 18.309 87.168 20.535 87.168C22.229 87.168 23.279 86.16 23.279 86.16L22.719 85.166C22.719 85.166 21.837 85.992 20.619 85.992C19.359 85.992 18.253 85.208 18.183 83.654H23.349C23.349 83.654 23.391 83.248 23.391 83.066C23.391 81.232 22.327 79.748 20.325 79.748C18.309 79.748 16.783 81.204 16.783 83.458ZM18.225 82.632C18.421 81.47 19.261 80.826 20.297 80.826C21.207 80.826 21.963 81.414 22.005 82.632H18.225ZM24.4646 85.012C24.4646 86.426 25.6546 87.168 26.8726 87.168C28.5666 87.168 29.1406 85.768 29.1406 85.768H29.1686C29.1686 85.768 29.1406 86.006 29.1406 86.328V87H30.4006V82.52C30.4006 80.728 29.3926 79.748 27.6006 79.748C25.9766 79.748 24.9546 80.588 24.9546 80.588L25.5146 81.582C25.5146 81.582 26.3966 80.896 27.4886 80.896C28.3846 80.896 29.0426 81.288 29.0426 82.45V82.576H28.7346C27.5446 82.576 24.4646 82.674 24.4646 85.012ZM25.8366 84.942C25.8366 83.668 27.6846 83.598 28.7066 83.598H29.0566V83.822C29.0566 84.872 28.3146 86.076 27.1666 86.076C26.2846 86.076 25.8366 85.516 25.8366 84.942ZM32.3511 85.068C32.3511 86.846 33.4851 87.056 34.2551 87.056C34.4931 87.056 34.7031 87.028 34.7031 87.028V85.824C34.7031 85.824 34.5911 85.838 34.4651 85.838C34.0451 85.838 33.7091 85.684 33.7091 84.83V77.116H32.3511V85.068ZM36.1262 78.502H37.4982V77.116H36.1262V78.502ZM36.1402 87H37.4982V79.916H36.1402V87ZM39.1085 87H45.2265V85.838H41.6285C41.1665 85.838 40.9285 85.866 40.9285 85.866V85.838C40.9285 85.838 41.2365 85.558 41.5305 85.194L45.1005 80.7V79.916H39.2625V81.078H42.5805C43.0425 81.078 43.2665 81.05 43.2665 81.05V81.078C43.2665 81.078 42.9865 81.358 42.6785 81.736L39.1085 86.216V87ZM46.2849 85.012C46.2849 86.426 47.4749 87.168 48.6929 87.168C50.3869 87.168 50.9609 85.768 50.9609 85.768H50.9889C50.9889 85.768 50.9609 86.006 50.9609 86.328V87H52.2209V82.52C52.2209 80.728 51.2129 79.748 49.4209 79.748C47.7969 79.748 46.7749 80.588 46.7749 80.588L47.3349 81.582C47.3349 81.582 48.2169 80.896 49.3089 80.896C50.2049 80.896 50.8629 81.288 50.8629 82.45V82.576H50.5549C49.3649 82.576 46.2849 82.674 46.2849 85.012ZM47.6569 84.942C47.6569 83.668 49.5049 83.598 50.5269 83.598H50.8769V83.822C50.8769 84.872 50.1349 86.076 48.9869 86.076C48.1049 86.076 47.6569 85.516 47.6569 84.942ZM54.2554 87H55.6134V84.102C55.6134 83.668 55.6554 83.234 55.7814 82.828C56.1034 81.778 56.9014 81.162 57.7694 81.162C57.9794 81.162 58.1614 81.204 58.1614 81.204V79.86C58.1614 79.86 57.9934 79.832 57.8114 79.832C56.7194 79.832 55.8934 80.644 55.5714 81.68H55.5434C55.5434 81.68 55.5714 81.442 55.5714 81.148V79.916H54.2554V87ZM62.5271 85.012C62.5271 86.426 63.7171 87.168 64.9351 87.168C66.6291 87.168 67.2031 85.768 67.2031 85.768H67.2311C67.2311 85.768 67.2031 86.006 67.2031 86.328V87H68.4631V82.52C68.4631 80.728 67.4551 79.748 65.6631 79.748C64.0391 79.748 63.0171 80.588 63.0171 80.588L63.5771 81.582C63.5771 81.582 64.4591 80.896 65.5511 80.896C66.4471 80.896 67.1051 81.288 67.1051 82.45V82.576H66.7971C65.6071 82.576 62.5271 82.674 62.5271 85.012ZM63.8991 84.942C63.8991 83.668 65.7471 83.598 66.7691 83.598H67.1191V83.822C67.1191 84.872 66.3771 86.076 65.2291 86.076C64.3471 86.076 63.8991 85.516 63.8991 84.942ZM73.5193 83.43C73.5193 85.642 74.7513 87.168 76.6833 87.168C78.3213 87.168 78.9233 85.95 78.9233 85.95H78.9513C78.9513 85.95 78.9233 86.146 78.9233 86.412V87H80.6033V77.06H78.8253V80.196C78.8253 80.42 78.8393 80.602 78.8393 80.602H78.8113C78.8113 80.602 78.3213 79.692 76.7533 79.692C74.8633 79.692 73.5193 81.162 73.5193 83.43ZM75.3113 83.43C75.3113 82.016 76.1233 81.218 77.1033 81.218C78.2933 81.218 78.8813 82.31 78.8813 83.416C78.8813 84.998 78.0133 85.67 77.0893 85.67C76.0393 85.67 75.3113 84.788 75.3113 83.43ZM82.5679 78.642H84.3319V77.06H82.5679V78.642ZM82.5679 87H84.3459V79.86H82.5679V87ZM87.9103 87H90.0103L92.5723 79.86H90.6963L89.2123 84.284C89.0723 84.704 88.9743 85.362 88.9603 85.362H88.9323C88.9183 85.362 88.8203 84.704 88.6803 84.284L87.1963 79.86H85.3203L87.9103 87ZM93.5601 78.642H95.3241V77.06H93.5601V78.642ZM93.5601 87H95.3381V79.86H93.5601V87ZM96.6905 86.118C96.6905 86.118 97.6845 87.168 99.4625 87.168C101.157 87.168 102.193 86.216 102.193 85.026C102.193 82.73 98.7205 82.856 98.7205 81.848C98.7205 81.4 99.1685 81.204 99.6305 81.204C100.723 81.204 101.381 81.82 101.381 81.82L102.039 80.504C102.039 80.504 101.255 79.692 99.6445 79.692C98.1045 79.692 96.9145 80.462 96.9145 81.792C96.9145 84.088 100.387 83.948 100.387 85.012C100.387 85.432 99.9525 85.656 99.4485 85.656C98.2865 85.656 97.5025 84.872 97.5025 84.872L96.6905 86.118ZM103.021 84.942C103.021 86.37 104.169 87.168 105.443 87.168C107.067 87.168 107.627 85.908 107.613 85.908H107.641C107.641 85.908 107.613 86.132 107.613 86.412V87H109.251V82.534C109.251 80.728 108.159 79.692 106.283 79.692C104.589 79.692 103.483 80.574 103.483 80.574L104.155 81.848C104.155 81.848 105.093 81.162 106.115 81.162C106.899 81.162 107.487 81.484 107.487 82.422V82.52H107.249C106.087 82.52 103.021 82.674 103.021 84.942ZM104.813 84.858C104.813 83.864 106.283 83.738 107.193 83.738H107.501V83.906C107.501 84.774 106.829 85.782 105.891 85.782C105.163 85.782 104.813 85.334 104.813 84.858ZM103.805 78.964H105.023C105.023 78.502 105.163 78.096 105.555 78.096C106.129 78.096 106.381 79.006 107.319 79.006C108.383 79.006 108.887 78.348 108.887 77.088H107.683C107.683 77.536 107.529 77.956 107.137 77.956C106.563 77.956 106.311 77.046 105.373 77.046C104.323 77.046 103.805 77.69 103.805 78.964ZM110.569 83.43C110.569 85.628 112.319 87.168 114.503 87.168C116.673 87.168 118.423 85.628 118.423 83.43C118.423 81.246 116.673 79.692 114.489 79.692C112.319 79.692 110.569 81.246 110.569 83.43ZM112.375 83.43C112.375 82.114 113.341 81.204 114.503 81.204C115.651 81.204 116.617 82.114 116.617 83.43C116.617 84.76 115.651 85.656 114.503 85.656C113.341 85.656 112.375 84.76 112.375 83.43ZM122.765 83.43C122.765 85.642 123.997 87.168 125.929 87.168C127.567 87.168 128.169 85.95 128.169 85.95H128.197C128.197 85.95 128.169 86.146 128.169 86.412V87H129.849V77.06H128.071V80.196C128.071 80.42 128.085 80.602 128.085 80.602H128.057C128.057 80.602 127.567 79.692 125.999 79.692C124.109 79.692 122.765 81.162 122.765 83.43ZM124.557 83.43C124.557 82.016 125.369 81.218 126.349 81.218C127.539 81.218 128.127 82.31 128.127 83.416C128.127 84.998 127.259 85.67 126.335 85.67C125.285 85.67 124.557 84.788 124.557 83.43ZM131.31 83.43C131.31 85.46 132.78 87.168 135.146 87.168C136.924 87.168 138.016 86.146 138.016 86.146L137.33 84.872C137.33 84.872 136.42 85.656 135.272 85.656C134.208 85.656 133.242 85.012 133.13 83.766H138.058C138.058 83.766 138.1 83.29 138.1 83.08C138.1 81.19 136.994 79.692 134.936 79.692C132.808 79.692 131.31 81.232 131.31 83.43ZM133.186 82.548C133.354 81.624 133.984 81.064 134.894 81.064C135.678 81.064 136.28 81.582 136.308 82.548H133.186ZM142.97 89.8H144.748V86.804C144.748 86.44 144.72 86.188 144.72 86.188H144.748C144.748 86.188 145.378 87.168 146.792 87.168C148.668 87.168 150.054 85.698 150.054 83.43C150.054 81.218 148.822 79.692 146.89 79.692C145.21 79.692 144.594 80.868 144.594 80.868H144.566C144.566 80.868 144.594 80.644 144.594 80.378V79.86H142.97V89.8ZM144.692 83.472C144.692 81.89 145.56 81.218 146.484 81.218C147.534 81.218 148.262 82.1 148.262 83.458C148.262 84.872 147.45 85.67 146.47 85.67C145.294 85.67 144.692 84.578 144.692 83.472ZM150.927 84.942C150.927 86.37 152.075 87.168 153.349 87.168C154.973 87.168 155.533 85.908 155.519 85.908H155.547C155.547 85.908 155.519 86.132 155.519 86.412V87H157.157V82.534C157.157 80.728 156.065 79.692 154.189 79.692C152.495 79.692 151.389 80.574 151.389 80.574L152.061 81.848C152.061 81.848 152.999 81.162 154.021 81.162C154.805 81.162 155.393 81.484 155.393 82.422V82.52H155.155C153.993 82.52 150.927 82.674 150.927 84.942ZM152.719 84.858C152.719 83.864 154.189 83.738 155.099 83.738H155.407V83.906C155.407 84.774 154.735 85.782 153.797 85.782C153.069 85.782 152.719 85.334 152.719 84.858ZM159.735 87.966L159.203 89.324C159.889 89.688 160.841 89.94 161.737 89.94C163.599 89.94 165.503 89.016 165.503 86.566V79.86H163.837V80.406C163.837 80.518 163.851 80.602 163.851 80.602H163.809C163.809 80.602 163.249 79.692 161.695 79.692C159.637 79.692 158.531 81.288 158.531 83.248C158.531 85.208 159.693 86.86 161.737 86.86C162.689 86.86 163.305 86.524 163.725 85.894H163.753C163.753 85.894 163.725 86.104 163.725 86.272V86.692C163.725 87.966 162.801 88.428 161.709 88.428C160.631 88.428 159.735 87.966 159.735 87.966ZM162.115 85.362C160.967 85.362 160.323 84.438 160.323 83.192C160.323 81.988 160.925 81.204 162.003 81.204C162.969 81.204 163.767 81.638 163.767 83.262C163.767 84.872 162.969 85.362 162.115 85.362ZM166.855 84.942C166.855 86.37 168.003 87.168 169.277 87.168C170.901 87.168 171.461 85.908 171.447 85.908H171.475C171.475 85.908 171.447 86.132 171.447 86.412V87H173.085V82.534C173.085 80.728 171.993 79.692 170.117 79.692C168.423 79.692 167.317 80.574 167.317 80.574L167.989 81.848C167.989 81.848 168.927 81.162 169.949 81.162C170.733 81.162 171.321 81.484 171.321 82.422V82.52H171.083C169.921 82.52 166.855 82.674 166.855 84.942ZM168.647 84.858C168.647 83.864 170.117 83.738 171.027 83.738H171.335V83.906C171.335 84.774 170.663 85.782 169.725 85.782C168.997 85.782 168.647 85.334 168.647 84.858ZM174.935 87H176.713V83.864C176.713 83.542 176.727 83.22 176.797 82.954C177.021 82.044 177.623 81.316 178.547 81.316C179.387 81.316 179.513 81.974 179.513 82.744V87H181.291V83.864C181.291 83.528 181.305 83.22 181.375 82.94C181.585 82.044 182.187 81.316 183.097 81.316C183.923 81.316 184.077 81.932 184.077 82.744V87H185.855V82.408C185.855 80.532 185.001 79.692 183.517 79.692C182.397 79.692 181.473 80.392 181.081 81.162H181.053C180.759 80.196 180.059 79.692 178.967 79.692C177.847 79.692 176.993 80.476 176.643 81.176H176.615C176.615 81.176 176.643 80.952 176.643 80.686V79.86H174.935V87ZM187.214 83.43C187.214 85.46 188.684 87.168 191.05 87.168C192.828 87.168 193.92 86.146 193.92 86.146L193.234 84.872C193.234 84.872 192.324 85.656 191.176 85.656C190.112 85.656 189.146 85.012 189.034 83.766H193.962C193.962 83.766 194.004 83.29 194.004 83.08C194.004 81.19 192.898 79.692 190.84 79.692C188.712 79.692 187.214 81.232 187.214 83.43ZM189.09 82.548C189.258 81.624 189.888 81.064 190.798 81.064C191.582 81.064 192.184 81.582 192.212 82.548H189.09ZM195.47 87H197.248V83.724C197.248 83.388 197.276 83.066 197.374 82.772C197.64 81.918 198.34 81.316 199.292 81.316C200.202 81.316 200.426 81.904 200.426 82.772V87H202.19V82.408C202.19 80.518 201.294 79.692 199.712 79.692C198.27 79.692 197.486 80.574 197.178 81.176H197.15C197.15 81.176 197.178 80.952 197.178 80.686V79.86H195.47V87ZM204.364 84.382C204.364 86.776 206.338 87.07 207.332 87.07C207.668 87.07 207.878 87.028 207.878 87.028V85.474C207.878 85.474 207.752 85.502 207.556 85.502C207.066 85.502 206.142 85.334 206.142 84.158V81.386H207.766V79.972H206.142V77.914H204.406V79.972H203.44V81.386H204.364V84.382ZM208.802 83.43C208.802 85.628 210.552 87.168 212.736 87.168C214.906 87.168 216.656 85.628 216.656 83.43C216.656 81.246 214.906 79.692 212.722 79.692C210.552 79.692 208.802 81.246 208.802 83.43ZM210.608 83.43C210.608 82.114 211.574 81.204 212.736 81.204C213.884 81.204 214.85 82.114 214.85 83.43C214.85 84.76 213.884 85.656 212.736 85.656C211.574 85.656 210.608 84.76 210.608 83.43ZM217.482 86.118C217.482 86.118 218.476 87.168 220.254 87.168C221.948 87.168 222.984 86.216 222.984 85.026C222.984 82.73 219.512 82.856 219.512 81.848C219.512 81.4 219.96 81.204 220.422 81.204C221.514 81.204 222.172 81.82 222.172 81.82L222.83 80.504C222.83 80.504 222.046 79.692 220.436 79.692C218.896 79.692 217.706 80.462 217.706 81.792C217.706 84.088 221.178 83.948 221.178 85.012C221.178 85.432 220.744 85.656 220.24 85.656C219.078 85.656 218.294 84.872 218.294 84.872L217.482 86.118ZM227.314 83.43C227.314 85.46 228.784 87.168 231.15 87.168C232.928 87.168 234.02 86.146 234.02 86.146L233.334 84.872C233.334 84.872 232.424 85.656 231.276 85.656C230.212 85.656 229.246 85.012 229.134 83.766H234.062C234.062 83.766 234.104 83.29 234.104 83.08C234.104 81.19 232.998 79.692 230.94 79.692C228.812 79.692 227.314 81.232 227.314 83.43ZM229.19 82.548C229.358 81.624 229.988 81.064 230.898 81.064C231.682 81.064 232.284 81.582 232.312 82.548H229.19ZM235.57 87H237.348V83.724C237.348 83.388 237.376 83.066 237.474 82.772C237.74 81.918 238.44 81.316 239.392 81.316C240.302 81.316 240.526 81.904 240.526 82.772V87H242.29V82.408C242.29 80.518 241.394 79.692 239.812 79.692C238.37 79.692 237.586 80.574 237.278 81.176H237.25C237.25 81.176 237.278 80.952 237.278 80.686V79.86H235.57V87ZM244.464 84.382C244.464 86.776 246.438 87.07 247.432 87.07C247.768 87.07 247.978 87.028 247.978 87.028V85.474C247.978 85.474 247.852 85.502 247.656 85.502C247.166 85.502 246.242 85.334 246.242 84.158V81.386H247.866V79.972H246.242V77.914H244.506V79.972H243.54V81.386H244.464V84.382ZM249.433 87H251.211V84.172C251.211 83.752 251.253 83.36 251.365 83.01C251.701 81.946 252.555 81.512 253.311 81.512C253.549 81.512 253.731 81.54 253.731 81.54V79.79C253.731 79.79 253.577 79.762 253.409 79.762C252.317 79.762 251.463 80.574 251.141 81.596H251.113C251.113 81.596 251.141 81.358 251.141 81.092V79.86H249.433V87ZM254.425 83.43C254.425 85.46 255.895 87.168 258.261 87.168C260.039 87.168 261.131 86.146 261.131 86.146L260.445 84.872C260.445 84.872 259.535 85.656 258.387 85.656C257.323 85.656 256.357 85.012 256.245 83.766H261.173C261.173 83.766 261.215 83.29 261.215 83.08C261.215 81.19 260.109 79.692 258.051 79.692C255.923 79.692 254.425 81.232 254.425 83.43ZM256.301 82.548C256.469 81.624 257.099 81.064 258.009 81.064C258.793 81.064 259.395 81.582 259.423 82.548H256.301ZM11.378 103.118C11.378 103.118 12.372 104.168 14.15 104.168C15.844 104.168 16.88 103.216 16.88 102.026C16.88 99.73 13.408 99.856 13.408 98.848C13.408 98.4 13.856 98.204 14.318 98.204C15.41 98.204 16.068 98.82 16.068 98.82L16.726 97.504C16.726 97.504 15.942 96.692 14.332 96.692C12.792 96.692 11.602 97.462 11.602 98.792C11.602 101.088 15.074 100.948 15.074 102.012C15.074 102.432 14.64 102.656 14.136 102.656C12.974 102.656 12.19 101.872 12.19 101.872L11.378 103.118ZM17.8061 100.43C17.8061 102.46 19.2761 104.168 21.6421 104.168C23.4201 104.168 24.5121 103.146 24.5121 103.146L23.8261 101.872C23.8261 101.872 22.9161 102.656 21.7681 102.656C20.7041 102.656 19.7381 102.012 19.6261 100.766H24.5541C24.5541 100.766 24.5961 100.29 24.5961 100.08C24.5961 98.19 23.4901 96.692 21.4321 96.692C19.3041 96.692 17.8061 98.232 17.8061 100.43ZM19.6821 99.548C19.8501 98.624 20.4801 98.064 21.3901 98.064C22.1741 98.064 22.7761 98.582 22.8041 99.548H19.6821ZM25.964 101.452C25.964 103.398 26.916 104.168 28.442 104.168C29.66 104.168 30.57 103.426 30.92 102.684H30.948C30.948 102.684 30.92 102.908 30.92 103.188V104H32.628V96.86H30.85V100.136C30.85 101.41 30.136 102.544 28.848 102.544C27.966 102.544 27.742 101.956 27.742 101.088V96.86H25.964V101.452ZM33.9913 103.118C33.9913 103.118 34.9853 104.168 36.7633 104.168C38.4573 104.168 39.4933 103.216 39.4933 102.026C39.4933 99.73 36.0213 99.856 36.0213 98.848C36.0213 98.4 36.4693 98.204 36.9313 98.204C38.0233 98.204 38.6813 98.82 38.6813 98.82L39.3393 97.504C39.3393 97.504 38.5553 96.692 36.9453 96.692C35.4053 96.692 34.2153 97.462 34.2153 98.792C34.2153 101.088 37.6873 100.948 37.6873 102.012C37.6873 102.432 37.2533 102.656 36.7493 102.656C35.5873 102.656 34.8033 101.872 34.8033 101.872L33.9913 103.118ZM44.3277 106.8H46.1057V103.804C46.1057 103.44 46.0777 103.188 46.0777 103.188H46.1057C46.1057 103.188 46.7357 104.168 48.1497 104.168C50.0257 104.168 51.4117 102.698 51.4117 100.43C51.4117 98.218 50.1797 96.692 48.2477 96.692C46.5677 96.692 45.9517 97.868 45.9517 97.868H45.9237C45.9237 97.868 45.9517 97.644 45.9517 97.378V96.86H44.3277V106.8ZM46.0497 100.472C46.0497 98.89 46.9177 98.218 47.8417 98.218C48.8917 98.218 49.6197 99.1 49.6197 100.458C49.6197 101.872 48.8077 102.67 47.8277 102.67C46.6517 102.67 46.0497 101.578 46.0497 100.472ZM52.2843 101.942C52.2843 103.37 53.4323 104.168 54.7063 104.168C56.3303 104.168 56.8903 102.908 56.8763 102.908H56.9043C56.9043 102.908 56.8763 103.132 56.8763 103.412V104H58.5143V99.534C58.5143 97.728 57.4223 96.692 55.5463 96.692C53.8523 96.692 52.7463 97.574 52.7463 97.574L53.4183 98.848C53.4183 98.848 54.3563 98.162 55.3783 98.162C56.1623 98.162 56.7503 98.484 56.7503 99.422V99.52H56.5123C55.3503 99.52 52.2843 99.674 52.2843 101.942ZM54.0763 101.858C54.0763 100.864 55.5463 100.738 56.4563 100.738H56.7643V100.906C56.7643 101.774 56.0923 102.782 55.1543 102.782C54.4263 102.782 54.0763 102.334 54.0763 101.858ZM60.3648 104H62.1428V101.172C62.1428 100.752 62.1848 100.36 62.2968 100.01C62.6328 98.946 63.4868 98.512 64.2428 98.512C64.4808 98.512 64.6628 98.54 64.6628 98.54V96.79C64.6628 96.79 64.5088 96.762 64.3408 96.762C63.2488 96.762 62.3948 97.574 62.0728 98.596H62.0448C62.0448 98.596 62.0728 98.358 62.0728 98.092V96.86H60.3648V104ZM65.3429 100.43C65.3429 102.502 66.8549 104.168 69.2209 104.168C71.1389 104.168 72.1609 103.006 72.1609 103.006L71.4749 101.746C71.4749 101.746 70.5789 102.656 69.3749 102.656C68.0169 102.656 67.1489 101.62 67.1489 100.416C67.1489 99.198 68.0029 98.204 69.3189 98.204C70.4389 98.204 71.1809 98.974 71.1809 98.974L71.9649 97.756C71.9649 97.756 71.0829 96.692 69.2209 96.692C66.8549 96.692 65.3429 98.4 65.3429 100.43ZM72.9858 100.43C72.9858 102.46 74.4558 104.168 76.8218 104.168C78.5998 104.168 79.6918 103.146 79.6918 103.146L79.0058 101.872C79.0058 101.872 78.0958 102.656 76.9478 102.656C75.8838 102.656 74.9178 102.012 74.8058 100.766H79.7338C79.7338 100.766 79.7758 100.29 79.7758 100.08C79.7758 98.19 78.6698 96.692 76.6118 96.692C74.4838 96.692 72.9858 98.232 72.9858 100.43ZM74.8618 99.548C75.0298 98.624 75.6598 98.064 76.5698 98.064C77.3538 98.064 77.9558 98.582 77.9838 99.548H74.8618ZM81.2417 95.642H83.0057V94.06H81.2417V95.642ZM81.2417 104H83.0197V96.86H81.2417V104ZM84.9741 104H86.7521V101.172C86.7521 100.752 86.7941 100.36 86.9061 100.01C87.2421 98.946 88.0961 98.512 88.8521 98.512C89.0901 98.512 89.2721 98.54 89.2721 98.54V96.79C89.2721 96.79 89.1181 96.762 88.9501 96.762C87.8581 96.762 87.0041 97.574 86.6821 98.596H86.6541C86.6541 98.596 86.6821 98.358 86.6821 98.092V96.86H84.9741V104ZM89.9382 100.43C89.9382 102.628 91.6882 104.168 93.8722 104.168C96.0422 104.168 97.7922 102.628 97.7922 100.43C97.7922 98.246 96.0422 96.692 93.8582 96.692C91.6882 96.692 89.9382 98.246 89.9382 100.43ZM91.7442 100.43C91.7442 99.114 92.7102 98.204 93.8722 98.204C95.0202 98.204 95.9862 99.114 95.9862 100.43C95.9862 101.76 95.0202 102.656 93.8722 102.656C92.7102 102.656 91.7442 101.76 91.7442 100.43ZM98.6182 103.118C98.6182 103.118 99.6122 104.168 101.39 104.168C103.084 104.168 104.12 103.216 104.12 102.026C104.12 99.73 100.648 99.856 100.648 98.848C100.648 98.4 101.096 98.204 101.558 98.204C102.65 98.204 103.308 98.82 103.308 98.82L103.966 97.504C103.966 97.504 103.182 96.692 101.572 96.692C100.032 96.692 98.8422 97.462 98.8422 98.792C98.8422 101.088 102.314 100.948 102.314 102.012C102.314 102.432 101.88 102.656 101.376 102.656C100.214 102.656 99.4302 101.872 99.4302 101.872L98.6182 103.118ZM108.465 100.43C108.465 102.642 109.697 104.168 111.629 104.168C113.267 104.168 113.869 102.95 113.869 102.95H113.897C113.897 102.95 113.869 103.146 113.869 103.412V104H115.549V94.06H113.771V97.196C113.771 97.42 113.785 97.602 113.785 97.602H113.757C113.757 97.602 113.267 96.692 111.699 96.692C109.809 96.692 108.465 98.162 108.465 100.43ZM110.257 100.43C110.257 99.016 111.069 98.218 112.049 98.218C113.239 98.218 113.827 99.31 113.827 100.416C113.827 101.998 112.959 102.67 112.035 102.67C110.985 102.67 110.257 101.788 110.257 100.43ZM117.009 100.43C117.009 102.46 118.479 104.168 120.845 104.168C122.623 104.168 123.715 103.146 123.715 103.146L123.029 101.872C123.029 101.872 122.119 102.656 120.971 102.656C119.907 102.656 118.941 102.012 118.829 100.766H123.757C123.757 100.766 123.799 100.29 123.799 100.08C123.799 98.19 122.693 96.692 120.635 96.692C118.507 96.692 117.009 98.232 117.009 100.43ZM118.885 99.548C119.053 98.624 119.683 98.064 120.593 98.064C121.377 98.064 121.979 98.582 122.007 99.548H118.885ZM130.279 104H132.379L134.941 96.86H133.065L131.581 101.284C131.441 101.704 131.343 102.362 131.329 102.362H131.301C131.287 102.362 131.189 101.704 131.049 101.284L129.565 96.86H127.689L130.279 104ZM135.425 100.43C135.425 102.46 136.895 104.168 139.261 104.168C141.039 104.168 142.131 103.146 142.131 103.146L141.445 101.872C141.445 101.872 140.535 102.656 139.387 102.656C138.323 102.656 137.357 102.012 137.245 100.766H142.173C142.173 100.766 142.215 100.29 142.215 100.08C142.215 98.19 141.109 96.692 139.051 96.692C136.923 96.692 135.425 98.232 135.425 100.43ZM137.301 99.548C137.469 98.624 138.099 98.064 139.009 98.064C139.793 98.064 140.395 98.582 140.423 99.548H137.301ZM143.681 104H145.459V100.724C145.459 100.388 145.487 100.066 145.585 99.772C145.851 98.918 146.551 98.316 147.503 98.316C148.413 98.316 148.637 98.904 148.637 99.772V104H150.401V99.408C150.401 97.518 149.505 96.692 147.923 96.692C146.481 96.692 145.697 97.574 145.389 98.176H145.361C145.361 98.176 145.389 97.952 145.389 97.686V96.86H143.681V104ZM151.777 100.43C151.777 102.642 153.009 104.168 154.941 104.168C156.579 104.168 157.181 102.95 157.181 102.95H157.209C157.209 102.95 157.181 103.146 157.181 103.412V104H158.861V94.06H157.083V97.196C157.083 97.42 157.097 97.602 157.097 97.602H157.069C157.069 97.602 156.579 96.692 155.011 96.692C153.121 96.692 151.777 98.162 151.777 100.43ZM153.569 100.43C153.569 99.016 154.381 98.218 155.361 98.218C156.551 98.218 157.139 99.31 157.139 100.416C157.139 101.998 156.271 102.67 155.347 102.67C154.297 102.67 153.569 101.788 153.569 100.43ZM160.224 101.942C160.224 103.37 161.372 104.168 162.646 104.168C164.27 104.168 164.83 102.908 164.816 102.908H164.844C164.844 102.908 164.816 103.132 164.816 103.412V104H166.454V99.534C166.454 97.728 165.362 96.692 163.486 96.692C161.792 96.692 160.686 97.574 160.686 97.574L161.358 98.848C161.358 98.848 162.296 98.162 163.318 98.162C164.102 98.162 164.69 98.484 164.69 99.422V99.52H164.452C163.29 99.52 160.224 99.674 160.224 101.942ZM162.016 101.858C162.016 100.864 163.486 100.738 164.396 100.738H164.704V100.906C164.704 101.774 164.032 102.782 163.094 102.782C162.366 102.782 162.016 102.334 162.016 101.858ZM167.702 103.118C167.702 103.118 168.696 104.168 170.474 104.168C172.168 104.168 173.204 103.216 173.204 102.026C173.204 99.73 169.732 99.856 169.732 98.848C169.732 98.4 170.18 98.204 170.642 98.204C171.734 98.204 172.392 98.82 172.392 98.82L173.05 97.504C173.05 97.504 172.266 96.692 170.656 96.692C169.116 96.692 167.926 97.462 167.926 98.792C167.926 101.088 171.398 100.948 171.398 102.012C171.398 102.432 170.964 102.656 170.46 102.656C169.298 102.656 168.514 101.872 168.514 101.872L167.702 103.118ZM177.852 100.458C177.852 102.656 179.056 104.168 180.974 104.168C182.724 104.168 183.298 102.852 183.298 102.852H183.326C183.326 102.852 183.312 103.048 183.312 103.328V104H184.6V94.116H183.242V97.392C183.242 97.658 183.27 97.868 183.27 97.868H183.242C183.242 97.868 182.696 96.748 181.058 96.748C179.182 96.748 177.852 98.204 177.852 100.458ZM179.238 100.458C179.238 98.848 180.162 97.924 181.282 97.924C182.626 97.924 183.284 99.184 183.284 100.444C183.284 102.25 182.29 102.992 181.24 102.992C180.064 102.992 179.238 101.998 179.238 100.458ZM186.232 100.458C186.232 102.558 187.758 104.168 189.984 104.168C191.678 104.168 192.728 103.16 192.728 103.16L192.168 102.166C192.168 102.166 191.286 102.992 190.068 102.992C188.808 102.992 187.702 102.208 187.632 100.654H192.798C192.798 100.654 192.84 100.248 192.84 100.066C192.84 98.232 191.776 96.748 189.774 96.748C187.758 96.748 186.232 98.204 186.232 100.458ZM187.674 99.632C187.87 98.47 188.71 97.826 189.746 97.826C190.656 97.826 191.412 98.414 191.454 99.632H187.674ZM198.462 104H199.806V98.106H201.486V97.014H199.806V96.706C199.806 95.39 200.772 95.222 201.29 95.222C201.5 95.222 201.64 95.25 201.64 95.25V94.088C201.64 94.088 201.43 94.046 201.122 94.046C200.226 94.046 198.462 94.34 198.462 96.678V97.014H197.58V98.106H198.462V104ZM202.269 100.444C202.269 102.6 203.977 104.168 206.091 104.168C208.205 104.168 209.913 102.6 209.913 100.444C209.913 98.302 208.205 96.748 206.091 96.748C203.977 96.748 202.269 98.302 202.269 100.444ZM203.655 100.444C203.655 98.974 204.761 97.924 206.091 97.924C207.435 97.924 208.527 98.974 208.527 100.444C208.527 101.928 207.435 102.992 206.091 102.992C204.761 102.992 203.655 101.928 203.655 100.444ZM211.523 104H212.881V101.102C212.881 100.668 212.923 100.234 213.049 99.828C213.371 98.778 214.169 98.162 215.037 98.162C215.247 98.162 215.429 98.204 215.429 98.204V96.86C215.429 96.86 215.261 96.832 215.079 96.832C213.987 96.832 213.161 97.644 212.839 98.68H212.811C212.811 98.68 212.839 98.442 212.839 98.148V96.916H211.523V104ZM216.773 104H218.131V100.766C218.131 100.444 218.145 100.122 218.215 99.842C218.481 98.834 219.209 97.98 220.245 97.98C221.337 97.98 221.477 98.834 221.477 99.758V104H222.835V100.766C222.835 100.402 222.863 100.08 222.933 99.786C223.185 98.82 223.927 97.98 224.921 97.98C225.985 97.98 226.181 98.764 226.181 99.758V104H227.539V99.464C227.539 97.658 226.797 96.748 225.201 96.748C224.053 96.748 223.073 97.504 222.681 98.358H222.653C222.415 97.294 221.715 96.748 220.525 96.748C219.419 96.748 218.425 97.546 218.089 98.372H218.061C218.061 98.372 218.089 98.134 218.089 97.854V96.916H216.773V104ZM228.996 102.012C228.996 103.426 230.186 104.168 231.404 104.168C233.098 104.168 233.672 102.768 233.672 102.768H233.7C233.7 102.768 233.672 103.006 233.672 103.328V104H234.932V99.52C234.932 97.728 233.924 96.748 232.132 96.748C230.508 96.748 229.486 97.588 229.486 97.588L230.046 98.582C230.046 98.582 230.928 97.896 232.02 97.896C232.916 97.896 233.574 98.288 233.574 99.45V99.576H233.266C232.076 99.576 228.996 99.674 228.996 102.012ZM230.368 101.942C230.368 100.668 232.216 100.598 233.238 100.598H233.588V100.822C233.588 101.872 232.846 103.076 231.698 103.076C230.816 103.076 230.368 102.516 230.368 101.942ZM11.49 119.012C11.49 120.426 12.68 121.168 13.898 121.168C15.592 121.168 16.166 119.768 16.166 119.768H16.194C16.194 119.768 16.166 120.006 16.166 120.328V121H17.426V116.52C17.426 114.728 16.418 113.748 14.626 113.748C13.002 113.748 11.98 114.588 11.98 114.588L12.54 115.582C12.54 115.582 13.422 114.896 14.514 114.896C15.41 114.896 16.068 115.288 16.068 116.45V116.576H15.76C14.57 116.576 11.49 116.674 11.49 119.012ZM12.862 118.942C12.862 117.668 14.71 117.598 15.732 117.598H16.082V117.822C16.082 118.872 15.34 120.076 14.192 120.076C13.31 120.076 12.862 119.516 12.862 118.942ZM14.052 112.894H15.186L16.53 111.116H15.074L14.052 112.894ZM20.0905 122.288L19.6425 123.352C20.3285 123.702 21.2105 123.94 22.0645 123.94C23.8565 123.94 25.6345 123.044 25.6345 120.706V113.916H24.3325V114.574C24.3325 114.7 24.3465 114.798 24.3465 114.798H24.3185C24.3185 114.798 23.8005 113.748 22.0925 113.748C20.1325 113.748 18.9985 115.26 18.9985 117.29C18.9985 119.334 20.1885 120.916 22.1625 120.916C23.1845 120.916 23.8425 120.51 24.2625 119.81H24.2905C24.2905 119.81 24.2765 120.034 24.2765 120.258V120.776C24.2765 122.218 23.2685 122.764 22.0365 122.764C20.9725 122.764 20.0905 122.288 20.0905 122.288ZM22.4285 119.74C21.1545 119.74 20.3705 118.732 20.3705 117.262C20.3705 115.82 21.0705 114.924 22.3025 114.924C23.4085 114.924 24.3045 115.456 24.3045 117.304C24.3045 119.152 23.4085 119.74 22.4285 119.74ZM27.7453 112.502H29.1173V111.116H27.7453V112.502ZM27.7593 121H29.1173V113.916H27.7593V121ZM31.1616 119.068C31.1616 120.846 32.2956 121.056 33.0656 121.056C33.3036 121.056 33.5136 121.028 33.5136 121.028V119.824C33.5136 119.824 33.4016 119.838 33.2756 119.838C32.8556 119.838 32.5196 119.684 32.5196 118.83V111.116H31.1616V119.068ZM34.2647 122.414H35.3427L36.5187 119.53H35.1327L34.2647 122.414ZM42.4928 121H43.8368V115.106H45.5168V114.014H43.8368V113.706C43.8368 112.39 44.8028 112.222 45.3208 112.222C45.5308 112.222 45.6708 112.25 45.6708 112.25V111.088C45.6708 111.088 45.4608 111.046 45.1528 111.046C44.2568 111.046 42.4928 111.34 42.4928 113.678V114.014H41.6108V115.106H42.4928V121ZM46.2439 119.012C46.2439 120.426 47.4339 121.168 48.6519 121.168C50.3459 121.168 50.9199 119.768 50.9199 119.768H50.9479C50.9479 119.768 50.9199 120.006 50.9199 120.328V121H52.1799V116.52C52.1799 114.728 51.1719 113.748 49.3799 113.748C47.7559 113.748 46.7339 114.588 46.7339 114.588L47.2939 115.582C47.2939 115.582 48.1759 114.896 49.2679 114.896C50.1639 114.896 50.8219 115.288 50.8219 116.45V116.576H50.5139C49.3239 116.576 46.2439 116.674 46.2439 119.012ZM47.6159 118.942C47.6159 117.668 49.4639 117.598 50.4859 117.598H50.8359V117.822C50.8359 118.872 50.0939 120.076 48.9459 120.076C48.0639 120.076 47.6159 119.516 47.6159 118.942ZM48.8059 112.894H49.9399L51.2839 111.116H49.8279L48.8059 112.894ZM53.7104 117.458C53.7104 119.586 55.2784 121.168 57.5044 121.168C59.3524 121.168 60.3324 120.034 60.3324 120.034L59.7864 119.04C59.7864 119.04 58.9184 119.992 57.6024 119.992C56.1324 119.992 55.0964 118.886 55.0964 117.444C55.0964 115.988 56.1324 114.924 57.5604 114.924C58.7644 114.924 59.5204 115.736 59.5204 115.736L60.1644 114.784C60.1644 114.784 59.2824 113.748 57.5044 113.748C55.2784 113.748 53.7104 115.358 53.7104 117.458ZM61.8566 112.502H63.2286V111.116H61.8566V112.502ZM61.8706 121H63.2286V113.916H61.8706V121ZM65.273 119.068C65.273 120.846 66.407 121.056 67.177 121.056C67.415 121.056 67.625 121.028 67.625 121.028V119.824C67.625 119.824 67.513 119.838 67.387 119.838C66.967 119.838 66.631 119.684 66.631 118.83V111.116H65.273V119.068ZM72.1678 117.458C72.1678 119.558 73.6938 121.168 75.9198 121.168C77.6138 121.168 78.6637 120.16 78.6637 120.16L78.1038 119.166C78.1038 119.166 77.2218 119.992 76.0038 119.992C74.7438 119.992 73.6378 119.208 73.5678 117.654H78.7338C78.7338 117.654 78.7758 117.248 78.7758 117.066C78.7758 115.232 77.7118 113.748 75.7097 113.748C73.6938 113.748 72.1678 115.204 72.1678 117.458ZM73.6098 116.632C73.8058 115.47 74.6458 114.826 75.6818 114.826C76.5918 114.826 77.3478 115.414 77.3898 116.632H73.6098ZM83.4451 120.132C83.4451 120.132 84.3971 121.168 86.1331 121.168C87.6871 121.168 88.6951 120.286 88.6951 119.11C88.6951 116.786 85.0551 117.066 85.0551 115.792C85.0551 115.176 85.6291 114.924 86.2171 114.924C87.3371 114.924 87.9671 115.554 87.9671 115.554L88.5131 114.532C88.5131 114.532 87.7851 113.748 86.2311 113.748C84.8171 113.748 83.6691 114.476 83.6691 115.764C83.6691 118.074 87.3091 117.808 87.3091 119.11C87.3091 119.684 86.7211 119.992 86.1331 119.992C84.9011 119.992 84.1031 119.166 84.1031 119.166L83.4451 120.132ZM89.8045 117.458C89.8045 119.558 91.3305 121.168 93.5565 121.168C95.2505 121.168 96.3005 120.16 96.3005 120.16L95.7405 119.166C95.7405 119.166 94.8585 119.992 93.6405 119.992C92.3805 119.992 91.2745 119.208 91.2045 117.654H96.3705C96.3705 117.654 96.4125 117.248 96.4125 117.066C96.4125 115.232 95.3485 113.748 93.3465 113.748C91.3305 113.748 89.8045 115.204 89.8045 117.458ZM91.2465 116.632C91.4425 115.47 92.2825 114.826 93.3185 114.826C94.2285 114.826 94.9845 115.414 95.0265 116.632H91.2465ZM98.6901 122.288L98.2421 123.352C98.9281 123.702 99.8101 123.94 100.664 123.94C102.456 123.94 104.234 123.044 104.234 120.706V113.916H102.932V114.574C102.932 114.7 102.946 114.798 102.946 114.798H102.918C102.918 114.798 102.4 113.748 100.692 113.748C98.7321 113.748 97.5981 115.26 97.5981 117.29C97.5981 119.334 98.7881 120.916 100.762 120.916C101.784 120.916 102.442 120.51 102.862 119.81H102.89C102.89 119.81 102.876 120.034 102.876 120.258V120.776C102.876 122.218 101.868 122.764 100.636 122.764C99.5721 122.764 98.6901 122.288 98.6901 122.288ZM101.028 119.74C99.7541 119.74 98.9701 118.732 98.9701 117.262C98.9701 115.82 99.6701 114.924 100.902 114.924C102.008 114.924 102.904 115.456 102.904 117.304C102.904 119.152 102.008 119.74 101.028 119.74ZM106.261 118.452C106.261 120.328 107.087 121.168 108.683 121.168C110.069 121.168 110.993 120.244 111.287 119.544H111.315C111.315 119.544 111.287 119.768 111.287 120.062V121H112.603V113.916H111.245V117.234C111.245 118.634 110.391 119.908 108.949 119.908C107.815 119.908 107.619 119.124 107.619 118.144V113.916H106.261V118.452ZM114.726 121H116.084V118.102C116.084 117.668 116.126 117.234 116.252 116.828C116.574 115.778 117.372 115.162 118.24 115.162C118.45 115.162 118.632 115.204 118.632 115.204V113.86C118.632 113.86 118.464 113.832 118.282 113.832C117.19 113.832 116.364 114.644 116.042 115.68H116.014C116.014 115.68 116.042 115.442 116.042 115.148V113.916H114.726V121ZM119.402 119.012C119.402 120.426 120.592 121.168 121.81 121.168C123.504 121.168 124.078 119.768 124.078 119.768H124.106C124.106 119.768 124.078 120.006 124.078 120.328V121H125.338V116.52C125.338 114.728 124.33 113.748 122.538 113.748C120.914 113.748 119.892 114.588 119.892 114.588L120.452 115.582C120.452 115.582 121.334 114.896 122.426 114.896C123.322 114.896 123.98 115.288 123.98 116.45V116.576H123.672C122.482 116.576 119.402 116.674 119.402 119.012ZM120.774 118.942C120.774 117.668 122.622 117.598 123.644 117.598H123.994V117.822C123.994 118.872 123.252 120.076 122.104 120.076C121.222 120.076 120.774 119.516 120.774 118.942ZM127.373 121H128.801V119.558H127.373V121Z" fill="#585858"/>
<defs>
<filter id="filter0_d_227_146" x="0" y="0" width="281" height="143" filterUnits="userSpaceOnUse" color-interpolation-filters="sRGB">
<feFlood flood-opacity="0" result="BackgroundImageFix"/>
<feColorMatrix in="SourceAlpha" type="matrix" values="0 0 0 0 0 0 0 0 0 0 0 0 0 0 0 0 0 0 127 0" result="hardAlpha"/>
<feOffset dx="4" dy="4"/>
<feGaussianBlur stdDeviation="2.5"/>
<feComposite in2="hardAlpha" operator="out"/>
<feColorMatrix type="matrix" values="0 0 0 0 0 0 0 0 0 0 0 0 0 0 0 0 0 0 0.15 0"/>
<feBlend mode="normal" in2="BackgroundImageFix" result="effect1_dropShadow_227_146"/>
<feBlend mode="normal" in="SourceGraphic" in2="effect1_dropShadow_227_146" result="shape"/>
</filter>
</defs>
</svg>
