<svg width="36" height="38" viewBox="0 0 36 38" fill="none" xmlns="http://www.w3.org/2000/svg">
                <path d="M15.1206 12.5991C15.2422 12.4773 15.4518 12.4773 15.5735 12.5991L17.3087 14.3363C17.6287 14.6566 18.0546 14.8326 18.5053 14.8326H18.8455L16.6574 17.0233C15.9746 17.6888 14.8659 17.6888 14.1831 17.0233L11.986 14.8259H12.1956C12.6463 14.8259 13.0722 14.6499 13.3922 14.3295L15.1206 12.5991ZM15.5735 10.9386C15.4293 11.0627 15.2445 11.0649 15.1206 10.9386L13.3922 9.20816C13.0722 8.86749 12.6463 8.71182 12.1956 8.71182H11.986L14.1809 6.51348C14.8659 5.82884 15.9746 5.82884 16.6574 6.51348L18.8478 8.70505H18.5053C18.0546 8.70505 17.6287 8.88103 17.3087 9.2014L15.5735 10.9386ZM12.1956 9.21944C12.5066 9.21944 12.7927 9.34579 13.0316 9.56688L14.76 11.2973C14.9223 11.4394 15.1341 11.541 15.3482 11.541C15.56 11.541 15.7718 11.4394 15.9341 11.2973L17.6692 9.56012C17.8901 9.34127 18.1943 9.21493 18.5053 9.21493H19.3548L20.6686 10.5302C21.3514 11.2138 21.3514 12.3238 20.6686 13.0074L19.3548 14.3227H18.5053C18.1943 14.3227 17.8901 14.1964 17.6692 13.9753L15.9341 12.2381C15.6208 11.9245 15.0732 11.9245 14.76 12.2404L13.0316 13.9685C12.7927 14.1896 12.5066 14.316 12.1956 14.316H11.4785L10.1711 13.0074C9.48724 12.3238 9.48724 11.2138 10.1711 10.5302L11.4785 9.21944H12.1956Z" fill="#FF8A00"/>
                <path d="M4.09477 12.4949L6.53744 13.1385C6.6204 13.1579 6.69463 13.2042 6.74859 13.2701C6.80255 13.336 6.83323 13.4179 6.83585 13.5031C6.83585 13.7101 6.65176 13.8812 6.42536 13.8812H4.82302C4.65035 13.8807 4.47938 13.8471 4.31937 13.7822C4.08352 13.6831 3.81166 13.7056 3.63072 13.8722L2.77554 14.6598C2.73598 14.6945 2.70185 14.7348 2.67426 14.7796C2.63896 14.8375 2.61546 14.9018 2.60513 14.9689C2.5948 15.0359 2.59784 15.1043 2.61407 15.1702C2.63031 15.236 2.65942 15.298 2.69972 15.3526C2.74002 15.4071 2.79072 15.4532 2.8489 15.488C3.3225 15.7723 3.85276 15.949 4.40218 16.0056V16.8023C4.40218 17.1984 4.75461 17.5225 5.184 17.5225H5.96582C6.39566 17.5225 6.74809 17.1984 6.74809 16.8023V16.0101C8.23025 15.8481 9.35144 14.6148 9.1561 13.1745C9.01432 12.1393 8.14518 11.3156 7.06045 11.0276L4.61778 10.3839C4.53482 10.3645 4.46059 10.3183 4.40663 10.2524C4.35266 10.1864 4.32199 10.1045 4.31937 10.0194C4.31937 9.81231 4.50346 9.64128 4.72985 9.64128H6.33219C6.50547 9.64155 6.67708 9.67517 6.83765 9.7403C7.07305 9.83932 7.34536 9.81681 7.5263 9.65028L8.38148 8.86261C8.41973 8.82873 8.45265 8.78928 8.47915 8.74559C8.51476 8.68769 8.53854 8.62332 8.54913 8.55618C8.55971 8.48904 8.55689 8.42047 8.54081 8.35443C8.52474 8.28839 8.49575 8.22618 8.4555 8.17141C8.41525 8.11665 8.36454 8.07039 8.30632 8.03534C7.83255 7.75111 7.30215 7.57442 6.75258 7.51772V6.72015C6.75258 6.32407 6.40061 6 5.97077 6H5.18895C4.75911 6 4.40713 6.32407 4.40713 6.72015V7.51232C2.92677 7.67436 1.80333 8.90762 1.99867 10.3479C2.14 11.3831 3.01184 12.2068 4.09477 12.4949Z" fill="#FF8A00"/>
                <path d="M32.9434 6.95996H23.3414C22.6794 6.95996 22.1411 7.49828 22.1411 8.16022V9.36047H34.1437V8.16022C34.1437 7.49828 33.6054 6.95996 32.9434 6.95996ZM22.1411 15.3618C22.1411 16.0237 22.6794 16.562 23.3414 16.562H32.9434C33.6054 16.562 34.1437 16.0237 34.1437 15.3618V11.761H22.1411V15.3618ZM23.9415 13.5614H27.5423V14.7616H23.9415V13.5614Z" fill="#FF8A00"/>
                <path d="M34.639 20.8894C33.9309 20.2473 32.8267 20.2893 32.0825 20.8894L26.5375 25.3244C25.8568 25.8705 25.0096 26.167 24.137 26.1645H17.0394C16.7848 26.1645 16.5406 26.0634 16.3605 25.8833C16.1804 25.7032 16.0793 25.459 16.0793 25.2043C16.0793 24.9497 16.1804 24.7055 16.3605 24.5254C16.5406 24.3453 16.7848 24.2441 17.0394 24.2441H21.7378C22.6919 24.2441 23.5807 23.59 23.7331 22.6478C23.7519 22.5396 23.7612 22.43 23.7607 22.3201C23.7598 21.8114 23.557 21.3239 23.197 20.9645C22.837 20.6052 22.3491 20.4033 21.8404 20.4033H12.2385C10.6192 20.4037 9.04918 20.9608 7.79167 21.9811L5.00113 24.2441H1.67649C1.42184 24.2441 1.17761 24.3453 0.997539 24.5254C0.81747 24.7055 0.716309 24.9497 0.716309 25.2043V30.9656C0.716309 31.2202 0.81747 31.4645 0.997539 31.6445C1.17761 31.8246 1.42184 31.9258 1.67649 31.9258H23.0868C23.9592 31.9265 24.8057 31.6301 25.4873 31.0856L34.5628 23.8241C34.7811 23.6494 34.9587 23.4293 35.0831 23.1789C35.2075 22.9285 35.2757 22.654 35.283 22.3746C35.2903 22.0951 35.2366 21.8174 35.1254 21.5609C35.0143 21.3044 34.8479 21.0752 34.639 20.8894Z" fill="#004986"/>
            </svg>