            <svg width="36" height="38" viewBox="0 0 36 38" fill="none" xmlns="http://www.w3.org/2000/svg">
                <path d="M17.2269 34.7681C16.747 34.2905 16.27 33.8098 15.7832 33.3399C15.7028 33.2625 15.5819 33.2021 15.473 33.1882C14.5333 33.0705 14.1757 32.3816 14.7286 31.5905C15.1079 31.0479 15.6202 30.599 16.0987 30.1361C16.3684 29.8752 16.6891 29.6716 17.0264 29.4123C16.638 29.0013 16.4502 28.5554 16.4683 28.0283C16.4705 27.9648 16.4119 27.892 16.3684 27.8348C16.1032 27.4826 15.8433 27.1257 15.5609 26.7882C15.4535 26.6597 15.3062 26.5467 15.1552 26.4809C13.894 25.9352 13.5117 25.2308 13.7408 23.8414C13.8054 23.4481 13.87 23.0557 13.9331 22.6625C13.9744 22.4031 13.8715 22.2468 13.6229 22.1802C13.3457 22.1059 13.0648 22.0362 12.7966 21.9341C11.9568 21.6159 11.6068 21.0284 11.6916 20.1111C11.7607 19.3626 11.6849 19.2403 10.9803 19.0662C10.7024 18.9973 10.4162 18.9562 10.1307 18.933C8.94238 18.8347 8.373 18.3269 8.12888 17.1279C8.09582 16.9653 8.06503 16.8028 8.01996 16.5752C7.68268 16.73 7.37471 16.8895 7.05321 17.0149C6.48608 17.2363 5.92346 17.5025 5.33455 17.6194C4.98526 17.6891 4.54959 17.59 4.22509 17.4197C3.95091 17.2757 3.7819 16.9204 3.50547 16.5853C3.32595 16.5613 2.99468 16.5675 2.69497 16.4692C1.62531 16.117 1.14382 15.2748 1.02814 14.181C0.946264 13.4039 1.04392 12.6406 1.30983 11.9037C1.58701 11.1343 2.12634 10.6598 2.8745 10.4206C3.22003 10.3099 3.57533 10.2294 3.9126 10.0986C4.30771 9.94534 4.44142 9.71002 4.3603 9.28351C4.30321 8.98627 4.18227 8.70064 4.07485 8.41501C3.94941 8.08139 3.78791 7.76092 3.67974 7.42188C3.55505 7.03175 3.69401 6.69426 3.94641 6.39083C4.01701 6.30568 4.08312 6.17719 4.07936 6.07114C4.05983 5.46969 4.2987 5.06872 4.8816 4.89301C5.83332 4.60506 6.72946 4.70104 7.5317 5.36984C8.02221 5.77854 8.28737 5.76151 8.80943 5.32649C8.63666 5.00912 8.43685 4.69717 8.29113 4.36045C7.96061 3.59645 8.38202 2.77362 9.16773 2.73956C9.49674 2.72485 9.87758 2.89515 10.1593 3.09486C10.4838 3.32398 10.6776 3.24193 10.9375 3.02596C11.3326 2.69776 11.7254 2.34247 12.1739 2.11102C12.7515 1.81223 13.2818 2.14043 13.3712 2.80923C13.4524 3.41996 13.4711 4.03922 13.5237 4.6546C13.5763 5.27153 13.6462 5.35048 14.2381 5.23437C14.5979 5.16393 14.9675 5.03699 15.2822 4.84734C15.9838 4.4247 16.7019 4.22577 17.5019 4.45721C17.7888 4.54004 17.9413 4.43399 18.084 4.15533C18.2493 3.83254 18.4679 3.5144 18.7323 3.27444C19.3212 2.73956 20.1317 2.83013 20.5569 3.50898C21.115 4.39993 21.3921 5.39151 21.3028 6.42334C21.6265 6.65788 21.9495 6.89242 22.3499 7.18347C23.0455 6.89087 23.8206 7.13161 24.5898 7.41182C25.042 7.5767 25.4033 7.8662 25.6084 8.32289C25.6993 8.5257 25.8172 8.56518 26.0358 8.58453C27.0521 8.67355 28.073 8.75792 29.0758 8.93983C29.893 9.08767 30.5315 9.61868 30.8455 10.409C31.1835 11.2597 31.7477 11.6251 32.607 11.7605C33.6954 11.9324 34.1469 12.7196 33.9583 13.8435C33.8021 14.7747 33.3589 15.5565 32.7888 16.2679C32.3043 16.8732 31.8085 17.4723 31.2827 18.039C31.0371 18.3037 30.7238 18.5135 30.4128 18.6969C30.0388 18.9168 29.8735 19.2078 29.9441 19.6452C29.9787 19.8603 29.9899 20.0809 30.035 20.2938C30.2423 21.2583 30.0373 22.1539 29.6331 23.0239C29.2838 23.7771 28.9624 24.5434 28.6078 25.2935C28.4283 25.6728 28.2285 26.0474 27.9934 26.3927C27.6088 26.9577 27.0604 27.1667 26.3874 27.2217C25.5739 27.2875 24.7626 27.4485 23.9656 27.6358C23.2798 27.7976 22.8659 28.3642 22.4806 28.9246C22.4242 29.0067 22.4363 29.1708 22.4693 29.2799C22.7916 30.3543 22.5279 31.2631 21.8083 32.0875C20.9482 33.0729 20.1242 34.0908 19.2814 35.0924C19.1176 35.2867 18.9434 35.4717 18.7676 35.6551C18.5182 35.9152 18.238 36.0964 17.8654 35.9446C17.4959 35.7937 17.2855 35.4415 17.2885 34.9941C17.2885 34.9059 17.3058 34.8176 17.3156 34.7294C17.2848 34.7433 17.254 34.7572 17.2232 34.7712L17.2269 34.7681ZM5.09493 16.1742C5.46075 16.0125 5.78525 15.8538 6.12027 15.7245C6.76026 15.4776 7.39349 15.192 8.05376 15.0248C8.8222 14.8297 9.39458 15.3104 9.49449 16.1232C9.52228 16.3531 9.56435 16.5806 9.59589 16.8097C9.64848 17.1976 9.84002 17.3485 10.2404 17.3903C10.818 17.4514 11.4039 17.5722 11.9485 17.7758C12.6832 18.0498 13.2518 18.6698 13.1834 19.4501C13.1016 20.3952 13.547 20.5926 14.2448 20.7892C14.9427 20.9851 15.3964 21.5192 15.4166 22.2731C15.4332 22.8784 15.3085 23.4915 15.2123 24.0953C15.1139 24.7114 15.1312 24.8012 15.6916 25.0218C16.2677 25.2486 16.6959 25.6271 16.9783 26.193C17.0444 26.3253 17.1346 26.4716 17.2532 26.5436C17.7708 26.8594 17.9766 27.3301 17.9864 27.9277C17.9886 28.0577 18.0209 28.2233 18.1021 28.3108C18.6812 28.9339 18.6534 29.9247 17.9233 30.6183C17.5762 30.9481 17.1759 31.2182 16.8033 31.5193C16.6816 31.6176 16.5682 31.7268 16.4795 31.8057C17.0647 32.5705 17.6641 33.2555 18.558 33.5946C19.3272 32.6812 20.1272 31.7461 20.9091 30.7948C21.1555 30.4952 21.2306 30.1546 21.0451 29.7591C20.828 29.297 20.8235 28.7985 21.0691 28.3449C21.5409 27.474 22.1598 26.7379 23.0687 26.3308C24.04 25.8957 25.0683 25.6511 26.123 25.6666C26.615 25.6736 26.8568 25.4847 27.0341 25.0737C27.3286 24.3933 27.5847 23.6889 27.9408 23.0441C28.4876 22.0533 28.7272 21.0625 28.4786 19.9114C28.2683 18.9392 28.559 18.0746 29.4416 17.5126C30.6194 16.7618 31.4187 15.6417 32.154 14.4759C32.3599 14.1501 32.429 13.7328 32.5739 13.3195C32.2983 13.2669 32.1285 13.2312 31.958 13.2034C30.8665 13.0261 30.05 12.4804 29.6422 11.3805C29.6114 11.2969 29.5663 11.2187 29.534 11.1351C29.3372 10.6242 28.9751 10.385 28.4403 10.354C27.9182 10.3239 27.3999 10.2271 26.8779 10.1853C26.5338 10.1582 26.1831 10.1474 25.8405 10.1814C25.2802 10.2372 24.7619 10.0684 24.5786 9.56682C24.3269 8.881 23.8191 8.69445 23.216 8.63562C23.0304 8.61781 22.7998 8.67897 22.6466 8.78811C22.2192 9.09309 21.7963 9.07993 21.441 8.68206C21.3005 8.52415 21.1788 8.34766 21.0346 8.16112C20.9114 8.26252 20.804 8.34767 20.7003 8.43668C20.5944 8.52725 20.496 8.62633 20.3878 8.7138C20.0145 9.01568 19.6953 9.04742 19.3565 8.82217C19.0192 8.59846 18.8622 8.2122 19.0065 7.7764C19.1131 7.45285 19.2626 7.12309 19.4692 6.86069C20.0108 6.17254 19.7967 5.5053 19.5052 4.80245C19.4647 4.84657 19.4316 4.86979 19.4158 4.9023C18.9238 5.94187 18.1073 6.21124 17.073 5.94264C16.7582 5.86059 16.5028 5.9589 16.2196 6.09281C15.6796 6.34748 15.1312 6.6246 14.5573 6.74999C13.0332 7.08362 12.1453 6.35522 12.0267 4.76297C12.0131 4.58106 11.9898 4.40071 11.9711 4.21416C11.6503 4.40071 11.3957 4.60583 11.1072 4.70027C10.8135 4.79625 10.486 4.78309 10.172 4.8187C10.4162 5.65701 10.1946 6.27317 9.47421 6.77012C8.54502 7.41105 7.64137 7.3855 6.73247 6.69426C6.48608 6.50694 6.26074 6.25769 5.87839 6.36374C5.88816 6.83282 5.70262 7.20282 5.35258 7.38937C5.51934 7.91883 5.71614 8.39488 5.8168 8.89183C6.06618 10.1172 5.52535 11.1235 4.39635 11.5755C4.04931 11.7141 3.67148 11.769 3.32219 11.9022C3.1359 11.9734 2.90079 12.0887 2.82342 12.2528C2.4869 12.9681 2.38774 13.7266 2.64539 14.4984C2.80764 14.9837 3.16369 15.1339 3.61514 14.9373C3.69552 14.9025 3.77439 14.8637 3.85627 14.832C4.35729 14.6408 4.82752 14.8754 4.97099 15.4056C5.03033 15.6254 5.04536 15.8584 5.09418 16.1758L5.09493 16.1742Z" fill="#004986"/>
                <path d="M5.09493 16.1742C5.46075 16.0125 5.78525 15.8538 6.12027 15.7245C6.76026 15.4776 7.39349 15.192 8.05376 15.0248C8.8222 14.8297 9.39458 15.3104 9.49449 16.1232C9.52228 16.3531 9.56435 16.5806 9.59589 16.8097C9.64848 17.1976 9.84002 17.3485 10.2404 17.3903C10.818 17.4514 11.4039 17.5722 11.9485 17.7758C12.6832 18.0498 13.2518 18.6698 13.1834 19.4501C13.1016 20.3952 13.547 20.5926 14.2448 20.7892C14.9427 20.9851 15.3964 21.5192 15.4166 22.2731C15.4332 22.8784 15.3085 23.4915 15.2123 24.0953C15.1139 24.7114 15.1312 24.8012 15.6916 25.0218C16.2677 25.2486 16.6959 25.6271 16.9783 26.193C17.0444 26.3253 17.1346 26.4716 17.2532 26.5436C17.7708 26.8594 17.9766 27.3301 17.9864 27.9277C17.9886 28.0577 18.0209 28.2233 18.1021 28.3108C18.6812 28.9339 18.6534 29.9247 17.9233 30.6183C17.5762 30.9481 17.1759 31.2182 16.8033 31.5193C16.6816 31.6176 16.5682 31.7268 16.4795 31.8057C17.0647 32.5705 17.6641 33.2555 18.558 33.5946C19.3272 32.6812 20.1272 31.7461 20.9091 30.7948C21.1555 30.4952 21.2306 30.1546 21.0451 29.7591C20.828 29.297 20.8235 28.7985 21.0691 28.3449C21.5409 27.474 22.1598 26.7379 23.0687 26.3308C24.04 25.8957 25.0683 25.6511 26.123 25.6666C26.615 25.6736 26.8568 25.4847 27.0341 25.0737C27.3286 24.3933 27.5847 23.6889 27.9408 23.0441C28.4876 22.0533 28.7272 21.0625 28.4786 19.9114C28.2683 18.9392 28.559 18.0746 29.4416 17.5126C30.6194 16.7618 31.4187 15.6417 32.154 14.4759C32.3599 14.1501 32.429 13.7328 32.5739 13.3195C32.2983 13.2669 32.1285 13.2312 31.958 13.2034C30.8665 13.0261 30.05 12.4804 29.6422 11.3805C29.6114 11.2969 29.5663 11.2187 29.534 11.1351C29.3372 10.6242 28.9751 10.385 28.4403 10.354C27.9182 10.3239 27.3999 10.2271 26.8779 10.1853C26.5338 10.1582 26.1831 10.1474 25.8405 10.1814C25.2802 10.2372 24.7619 10.0684 24.5786 9.56682C24.3269 8.881 23.8191 8.69445 23.216 8.63562C23.0304 8.61781 22.7998 8.67897 22.6466 8.78811C22.2192 9.09309 21.7963 9.07993 21.441 8.68206C21.3005 8.52415 21.1788 8.34766 21.0346 8.16112C20.9114 8.26252 20.804 8.34767 20.7003 8.43668C20.5944 8.52725 20.496 8.62633 20.3878 8.7138C20.0145 9.01568 19.6953 9.04742 19.3565 8.82217C19.0192 8.59846 18.8622 8.2122 19.0065 7.7764C19.1131 7.45285 19.2626 7.12309 19.4692 6.86069C20.0108 6.17254 19.7967 5.5053 19.5052 4.80245C19.4647 4.84657 19.4316 4.86979 19.4158 4.9023C18.9238 5.94187 18.1073 6.21124 17.073 5.94264C16.7582 5.86059 16.5028 5.9589 16.2196 6.09281C15.6796 6.34748 15.1312 6.6246 14.5573 6.74999C13.0332 7.08362 12.1453 6.35522 12.0267 4.76297C12.0131 4.58106 11.9898 4.40071 11.9711 4.21416C11.6503 4.40071 11.3957 4.60583 11.1072 4.70027C10.8135 4.79625 10.486 4.78309 10.172 4.8187C10.4162 5.65701 10.1946 6.27317 9.47421 6.77012C8.54502 7.41105 7.64137 7.3855 6.73247 6.69426C6.48608 6.50694 6.26074 6.25769 5.87839 6.36374C5.88816 6.83282 5.70262 7.20282 5.35258 7.38937C5.51934 7.91883 5.71614 8.39488 5.8168 8.89183C6.06618 10.1172 5.52535 11.1235 4.39635 11.5755C4.04931 11.7141 3.67148 11.769 3.32219 11.9022C3.1359 11.9734 2.90079 12.0887 2.82342 12.2528C2.4869 12.9681 2.38774 13.7266 2.64539 14.4984C2.80764 14.9837 3.16369 15.1339 3.61514 14.9373C3.69552 14.9025 3.77439 14.8637 3.85627 14.832C4.35729 14.6408 4.82752 14.8754 4.97099 15.4056C5.03033 15.6254 5.04536 15.8584 5.09418 16.1758L5.09493 16.1742Z" fill="#004986"/>
                <path fill-rule="evenodd" clip-rule="evenodd" d="M24.2258 10.878C22.3055 9.89523 19.7976 8.93413 18.589 8.44444C16.7401 7.69519 16.3259 7.99753 15.6686 8.72227L15.6631 8.72839L20.597 12.2911L24.2258 10.878Z" fill="#388BF7"/>
                <path fill-rule="evenodd" clip-rule="evenodd" d="M24.1011 23.3957C24.7308 22.1115 26.2264 18.1366 26.9438 16.2052L34.3495 13.7627C35.4834 13.3601 36.3176 12.2101 35.8824 11.1612C35.4469 10.1122 33.1568 9.94969 32.0229 10.3524L16.0417 16.4665L13.4502 14.2169C12.5864 13.5773 11.8591 13.8295 11.3818 13.9991C11.3818 13.9991 11.3818 13.9962 11.7156 14.7948C11.7177 14.7997 13.5302 19.1703 13.5302 19.1703C13.8158 19.7501 14.543 20.0327 15.1937 19.8016L22.8582 17.4555L21.554 25.0722C22.6486 25.2324 23.2126 25.2079 24.1011 23.3957Z" fill="#388BF7"/>
                <path d="M3.34867 17.7215C3.34867 18.3529 3.40336 18.8252 3.51273 19.1385C3.62708 19.4467 3.80854 19.6008 4.05712 19.6008C4.53439 19.6008 4.77303 18.9744 4.77303 17.7215C4.77303 16.4786 4.53439 15.8572 4.05712 15.8572C3.80854 15.8572 3.62708 16.0113 3.51273 16.3196C3.40336 16.6228 3.34867 17.0902 3.34867 17.7215ZM6.65229 17.7066C6.65229 18.8501 6.43106 19.7102 5.98858 20.2869C5.54611 20.8586 4.89732 21.1445 4.04221 21.1445C3.22189 21.1445 2.58802 20.8512 2.14057 20.2645C1.69313 19.6729 1.46941 18.8203 1.46941 17.7066C1.46941 15.4346 2.32701 14.2986 4.04221 14.2986C4.8824 14.2986 5.52623 14.5944 5.97367 15.186C6.42608 15.7727 6.65229 16.6129 6.65229 17.7066ZM11.783 14.4552L5.73503 25.3579H3.94526L9.9932 14.4552H11.783ZM10.985 22.0767C10.985 22.7081 11.0397 23.1804 11.1491 23.4936C11.2634 23.8018 11.4449 23.9559 11.6935 23.9559C12.1708 23.9559 12.4094 23.3295 12.4094 22.0767C12.4094 20.8338 12.1708 20.2123 11.6935 20.2123C11.4449 20.2123 11.2634 20.3664 11.1491 20.6747C11.0397 20.9779 10.985 21.4453 10.985 22.0767ZM14.2887 22.0617C14.2887 23.2002 14.0674 24.0578 13.6249 24.6345C13.1825 25.2063 12.5337 25.4921 11.6786 25.4921C10.8583 25.4921 10.2244 25.1988 9.77694 24.6122C9.32949 24.0206 9.10577 23.1704 9.10577 22.0617C9.10577 19.7897 9.96337 18.6537 11.6786 18.6537C12.5188 18.6537 13.1626 18.9495 13.61 19.5411C14.0624 20.1278 14.2887 20.968 14.2887 22.0617Z" fill="#FA7800"/>
            </svg>