<svg width="32" height="38" viewBox="0 0 32 38" fill="none" xmlns="http://www.w3.org/2000/svg">
                <path fill-rule="evenodd" clip-rule="evenodd" d="M23.2357 12.313C23.2357 12.313 23.6375 12.709 23.7779 12.6893C23.9183 12.6698 24.1338 12.771 24.2629 12.7776C24.392 12.7842 24.7502 12.6776 24.8785 12.7327C24.931 12.7552 25.1996 13.0189 25.311 13.0533C25.4223 13.0876 25.6563 13.1299 25.6257 13.2245C25.5942 13.3189 25.3755 13.338 25.3755 13.338C25.3755 13.338 25.4562 13.3848 25.4546 13.4766C25.4522 13.6553 25.357 13.6906 25.357 13.6906C25.357 13.6906 25.4473 13.7965 25.428 13.8702C25.3836 14.0329 25.2755 14.0704 25.2755 14.0704C25.2755 14.0704 25.3102 14.1686 25.2561 14.2697C25.1875 14.399 25.035 14.3908 25.035 14.3908C25.035 14.3908 24.9931 14.5558 24.8874 14.5646C24.7809 14.5734 24.697 14.5466 24.613 14.5311C24.5283 14.5154 23.8425 14.1503 23.4705 13.7052C23.0985 13.2602 22.6338 12.9607 22.6338 12.9607L23.2357 12.313Z" fill="#F5DFB9"/>
                <path fill-rule="evenodd" clip-rule="evenodd" d="M19.479 14.3071L23.1696 7.91455C25.285 9.13602 26.0098 11.8411 24.7885 13.9565L23.3092 16.5187L19.479 14.3071Z" fill="#004986"/>
                <path fill-rule="evenodd" clip-rule="evenodd" d="M25.3248 13.2848C25.3248 13.2848 24.7326 12.9827 24.5293 13.0708C24.3259 13.1587 24.5341 13.2793 24.5341 13.2793C24.5341 13.2793 24.3308 13.1565 24.2186 13.3057C24.1073 13.4548 24.3574 13.5835 24.3574 13.5835C24.3574 13.5835 24.1791 13.5312 24.1266 13.7185C24.0734 13.906 24.3041 13.9661 24.3041 13.9661C24.3041 13.9661 24.0153 14.0306 24.1597 14.2317C24.4034 14.5711 24.8859 14.5879 24.8859 14.5879C24.8859 14.5879 25.0021 14.581 25.04 14.3968C25.04 14.3968 25.3281 14.3991 25.2845 14.0754C25.2845 14.0754 25.5564 13.8954 25.37 13.6929C25.37 13.6929 25.6476 13.4841 25.3248 13.2848Z" fill="#F5DFB9"/>
                <path fill-rule="evenodd" clip-rule="evenodd" d="M3.87451 35.6514L13.2258 17.5317L13.5986 17.7263L4.24809 35.846L3.87451 35.6514Z" fill="#004986"/>
                <path fill-rule="evenodd" clip-rule="evenodd" d="M13.5849 15.9219C13.5849 15.9219 13.0943 16.3775 12.8579 16.5067C12.6215 16.6358 12.1632 16.852 12.1946 17.2818C12.2261 17.7117 12.0453 18.6861 12.3818 18.7617C12.7183 18.8373 13.5623 17.2138 13.7462 16.854C13.9302 16.4942 14.1464 16.2187 14.1464 16.2187L13.5849 15.9219Z" fill="#F5DFB9"/>
                <path fill-rule="evenodd" clip-rule="evenodd" d="M12.9042 17.987C13.114 18.152 13.4182 18.1157 13.5836 17.9059C13.7482 17.6959 13.7119 17.392 13.5021 17.227C13.2923 17.062 12.9881 17.0983 12.8235 17.3082C12.6581 17.5181 12.6944 17.822 12.9042 17.987Z" fill="#004986"/>
                <path fill-rule="evenodd" clip-rule="evenodd" d="M12.5825 33.1705C12.5825 33.1705 12.6826 33.8875 12.7487 34.7675C12.8141 35.6475 13.4773 36.3589 13.5677 36.5226C13.6573 36.6864 14.068 37.3492 13.6444 37.3793C13.2199 37.4094 11.6336 36.0885 11.235 35.3839C11.235 35.3839 11.022 34.734 10.9873 34.6934C10.9534 34.6528 10.696 34.8123 10.696 34.8123L10.291 34.4645C10.291 34.4645 10.1208 34.3062 10.0618 34.2202C10.0029 34.1341 10.2079 33.7098 10.2369 33.6706C10.2692 33.6255 11.1447 32.6556 11.6619 32.4808C12.1791 32.3061 12.5825 33.1705 12.5825 33.1705Z" fill="#004986"/>
                <path fill-rule="evenodd" clip-rule="evenodd" d="M28.2074 35.1006C28.2074 35.1006 28.7988 35.458 29.4911 35.9386C30.1826 36.4192 31.1008 36.3607 31.2759 36.3933C31.4502 36.426 32.1836 36.5234 31.9569 36.8518C31.7294 37.1802 29.8155 37.5484 29.0586 37.4166C29.0586 37.4166 28.451 37.1824 28.4002 37.183C28.3502 37.1835 28.3171 37.4682 28.3171 37.4682L27.8209 37.5556C27.8209 37.5556 27.603 37.585 27.5046 37.5765C27.4062 37.5681 27.2206 37.1706 27.1996 37.1183C27.1794 37.0692 26.9801 35.8438 27.1544 35.3602C27.3287 34.8767 28.2074 35.1006 28.2074 35.1006Z" fill="#004986"/>
                <path fill-rule="evenodd" clip-rule="evenodd" d="M20.0883 21.7214C20.0883 21.7214 20.0778 21.7469 20.0584 21.7942C20.0108 21.9106 19.9083 22.1592 19.7744 22.4841V22.4843C19.2572 23.7385 18.2688 26.1274 18.1155 26.4248C17.9073 26.8304 17.0189 27.9896 16.8979 28.0488C16.7769 28.1079 13.3694 33.4775 13.2525 33.7095C13.2525 33.7095 11.842 32.9102 11.6621 32.4808C11.6621 32.4808 14.4345 26.6073 15.3616 25.7048C16.254 24.835 16.9858 19.2248 17.8863 17.5833C18.7868 15.942 20.6837 20.2763 20.0883 21.7214Z" fill="#004986"/>
                <path fill-rule="evenodd" clip-rule="evenodd" d="M25.2889 23.9068C25.5778 24.773 25.4382 25.5139 25.5963 25.8744C25.7545 26.2348 28.5059 35.0457 28.5059 35.0457C28.5059 35.0457 27.0325 35.7591 26.4814 35.4903C26.4814 35.4903 24.202 29.3927 23.7615 28.5233C23.3476 27.7066 23.4153 25.3154 22.7771 24.7897C22.1389 24.2639 17.565 20.4022 17.5247 18.3207C17.4843 16.2392 22.4923 17.2515 22.4923 17.2515C22.4923 17.2515 25 23.0405 25.2889 23.9068Z" fill="#004986"/>
                <path fill-rule="evenodd" clip-rule="evenodd" d="M20.6834 0.564344C21.3103 0.510767 22.7143 0.775018 22.9911 2.4312C22.9911 2.4312 22.9572 2.88176 22.8611 3.23831C22.7651 3.59479 23.1193 4.62242 23.0395 4.6768C22.9588 4.73103 22.6207 4.80913 22.6207 4.80913C22.6207 4.80913 22.2963 5.9582 21.8969 5.9632C21.4983 5.9682 19.9782 5.7125 19.2149 4.32622C18.4524 2.93993 18.1522 0.780908 20.6834 0.564344Z" fill="#F5DFB9"/>
                <path fill-rule="evenodd" clip-rule="evenodd" d="M22.9913 2.43076C22.9913 2.43076 21.9973 3.1634 20.9911 3.34123C19.9841 3.51899 19.3765 4.5872 19.3765 4.5872C19.3765 4.5872 17.7652 2.71115 18.9489 1.10208C20.1326 -0.506898 23.1398 0.483052 22.9913 2.43076Z" fill="#0E2D3D"/>
                <path fill-rule="evenodd" clip-rule="evenodd" d="M19.8283 1.797C19.4531 2.44718 18.7511 2.74475 18.2605 2.46162C17.7708 2.17857 17.6772 1.42197 18.0524 0.771709C18.4276 0.121613 19.1295 -0.176042 19.6201 0.107089C20.1107 0.39014 20.2035 1.14674 19.8283 1.797Z" fill="#0E2D3D"/>
                <path fill-rule="evenodd" clip-rule="evenodd" d="M22.9654 16.3206C22.9848 17.257 22.988 18.0922 22.9348 18.2789C22.8565 18.5574 21.2589 18.9718 19.7259 18.8964C19.3127 18.8763 18.9037 18.8202 18.5309 18.7168C18.175 18.6181 17.8515 18.4756 17.5868 18.2794C17.5239 18.2323 17.4642 18.1823 17.4077 18.129C17.4077 18.129 18.3413 15.3793 18.7278 14.8636C19.0295 14.4612 18.731 12.3005 18.4437 11.0279C18.3776 10.7349 18.3114 10.4892 18.2541 10.3226V10.3224C18.2412 10.2858 18.2291 10.2528 18.217 10.224C18.0161 9.73975 18.0597 8.20718 18.593 7.14582C18.8052 6.7235 19.0949 6.37542 19.4781 6.19855C19.537 6.17152 19.5976 6.14845 19.6597 6.12989C19.696 6.11908 19.7323 6.10972 19.7694 6.10205C19.7694 6.10205 20.6521 6.85405 21.1831 7.34721C21.267 7.42516 21.342 7.49689 21.4033 7.55789C21.522 7.67585 21.7124 7.87483 21.9318 8.11326L21.9367 8.11786V8.1181C22.1481 8.34814 22.3861 8.61433 22.6112 8.87954C23.0356 9.37876 23.4157 9.87442 23.4915 10.1179C23.6513 10.6258 23.2019 11.4037 22.8856 11.7826C22.6992 12.0067 22.7589 12.394 22.8218 12.7578C22.8452 12.8918 22.8686 13.0224 22.8799 13.1406C22.8864 13.2008 22.8888 13.2573 22.8872 13.3098C22.8791 13.5615 22.9388 15.0361 22.9654 16.3206Z" fill="#008BFF"/>
                <path fill-rule="evenodd" clip-rule="evenodd" d="M19.658 6.10976C19.7217 5.58666 19.5757 4.84668 19.5757 4.84668C19.5757 4.84668 21.5202 5.59594 21.2088 5.8539C21.1273 5.92103 21.0765 6.04343 21.045 6.18794C20.9562 6.59807 21.0272 7.18572 21.0272 7.18572L21.7026 7.89092C21.9592 8.14339 19.6273 6.36392 19.658 6.10976Z" fill="#F5DFB9"/>
                <path fill-rule="evenodd" clip-rule="evenodd" d="M20.568 3.31081C20.5559 3.11506 20.3267 2.82935 20.0161 3.10877C19.7046 3.38827 20.171 4.3035 20.43 4.20256C20.6898 4.10154 20.5817 3.51293 20.568 3.31081Z" fill="#F5DFB9"/>
                <path fill-rule="evenodd" clip-rule="evenodd" d="M21.2085 5.8531C21.1271 5.92023 21.0762 6.04263 21.0448 6.18715C20.2847 5.79589 19.8812 5.16129 19.8691 5.1416C20.3008 5.6083 21.2085 5.8531 21.2085 5.8531Z" fill="#A77860"/>
                <path fill-rule="evenodd" clip-rule="evenodd" d="M20.9239 3.35513C20.9239 3.35513 20.4801 3.79762 20.6019 4.05243C20.7238 4.30724 20.4632 4.76869 20.1162 4.84623C20.1162 4.84623 20.5616 4.31539 20.393 4.1006C20.2243 3.88581 20.6019 3.39588 20.6019 3.39588C20.6019 3.39588 20.8198 3.14776 20.9239 3.35513Z" fill="#0E2D3D"/>
                <path fill-rule="evenodd" clip-rule="evenodd" d="M19.671 5.96338L21.263 6.91395L21.221 7.3161L21.9375 8.11869C21.9375 8.11869 20.3601 6.88862 19.479 6.19899L19.671 5.96338Z" fill="#B3DCFF"/>
                <path fill-rule="evenodd" clip-rule="evenodd" d="M20.5044 7.07733C20.5044 7.07733 20.6707 7.92043 20.2761 8.51606C19.8823 9.11161 19.1037 9.54853 18.8625 9.7375C18.6212 9.92655 16.4919 12.095 16.4572 12.1989C16.4225 12.3025 15.8383 13.8235 15.3235 14.7107C14.8079 15.5976 14.2689 16.9519 14.2689 16.9519L12.9497 16.3206C12.9497 16.3206 14.3036 12.4225 14.9564 11.6338C15.6527 10.7914 17.5868 8.14611 17.5868 8.14611C17.5868 8.14611 19.2385 5.87719 20.5044 7.07733Z" fill="#008BFF"/>
                <path fill-rule="evenodd" clip-rule="evenodd" d="M4.0378 36.5981L0.486391 34.7352C0.0438714 34.5027 -0.128636 33.9528 0.102937 33.5069L5.89413 22.3218C6.1257 21.8759 6.67135 21.7029 7.11481 21.9353L10.6653 23.7984C11.1078 24.0308 11.2803 24.5805 11.0497 25.0264L5.25754 36.2116C5.0269 36.6574 4.48032 36.8305 4.0378 36.5981Z" fill="#FA7800"/>
                <circle cx="2.9207" cy="36.908" r="0.531047" fill="#004986"/>
            </svg>