<svg id="Camada_1" data-name="Camada 1" xmlns="http://www.w3.org/2000/svg" viewBox="0 0 1834.02 438.02"><title>zaxy_logo_new</title><path d="M118.5,61.28C49.64,125-79.59,122.9-151.9,62.17-217.06,7.43-245-85.77-219.79-173.26c23.42-81.31,93.29-139.3,179-149.83,46-5.64,91-2.61,133.62,15.55,86.68,36.94,132.49,103.35,135.44,197.63,1.63,52.13.49,104.35.59,156.53,0,1.45-.08,2.9-.13,4.35-1.87,52.15-39.19,74.86-87.62,53.3C125.74,97.42,120.43,87.64,118.5,61.28Z" transform="translate(654.95 325.65)" style="fill:#2e2925"/><path d="M319.24,38.1c-1.75-55.74,11.61-102.13,51.7-138,4.91-4.4,3.18-6.5-.66-10-49.23-44.37-55.42-102.3-51.2-163.46a11.4,11.4,0,0,1,.25-1.42c4.78-26.25,29.4-39.45,68-36.49,28.83,2.22,45.4,17.76,46.33,43.61.63,17.36-.78,34.78,1.87,52.09,6,38.94,37.64,65.08,77.31,63.51,41.54-1.65,71.92-30.44,74-70.65.69-13.5,0-27.07.33-40.59.75-28.65,15.43-44.62,43.69-48.18,15.54-2,30.94-1.41,45.8,3.68,14.38,4.93,24.79,15.19,25.68,30.33,2.06,34.67,3.51,69.51-9.7,102.94-9.78,24.74-24.29,46.07-44.4,63.37-5.34,4.59-6,6.75-.32,11.82,39,34.49,56.48,78.31,55.4,130-.26,12.08.26,24.18-.27,36.24-.89,20.59-10.88,33-30.79,36.07-16.65,2.6-33.58,4.19-50.51,1.16-17.66-3.15-28.29-13.27-32-30.91S588,37.55,587.48,19.71C586-32.76,547.25-64.8,495.57-56.12,463-50.64,438.94-25.68,436,7.59c-1.54,17.27-.64,34.74-1.15,52.12-.86,29.23-13.06,42.17-42,44.52-14.94,1.21-29.93,1.76-44.55-2.68-19.21-5.83-28-16.68-28.91-36.67C318.84,54.76,319.24,44.59,319.24,38.1Z" transform="translate(654.95 325.65)" style="fill:#2e2925"/><path d="M-512.48,3.71c29.33,0,54.68.07,80,0,40.61-.13,81.22-.5,121.83-.48,32.21,0,44.31,12.6,44.15,45.22-.18,36.6-13.46,50-49.65,50.11q-124.72.23-249.47.35c-9.66,0-19.35-.17-29-.82-45.37-3.1-71.76-44.62-55.6-87.23,5.43-14.33,14.38-26,25.86-36.1q95.46-83.61,190.73-167.42c3.08-2.7,7.42-4.51,8.71-10.47-44.19,0-87.94,0-131.69,0-19.82,0-39.66.42-59.46-.31-24.94-.92-36.88-13.06-38.51-37.83a132.15,132.15,0,0,1,0-14.49c1.48-31.8,13.06-43.76,44.77-43.91,86.06-.42,172.12-.68,258.18-.2,45.78.25,75.38,30.4,70.82,70.91-2.19,19.4-11.74,35.39-25.75,49-57.33,55.55-120.43,104.59-179.12,158.6C-493.65-14-501.54-6.53-512.48,3.71Z" transform="translate(654.95 325.65)" style="fill:#2e2925"/><path d="M1178.61-195.18c-1,19.47,2.37,45.17-1.35,70.63-5.86,40-28.08,70.21-58.92,94.75-22.48,17.88-47.64,31.14-74.72,40.47-7.64,2.63-10.59,5.89-10.13,14.2.8,14.45.29,29,.21,43.48-.13,21.76-8,32.82-28.82,37-20,4-40.4,4.4-60.24-1.51-14.84-4.42-23.87-14.69-24.76-30.41-.87-15.42-1.13-30.93-.61-46.36.3-9-2.15-13.45-11.3-16.66A210,210,0,0,1,836.33-32.3c-35.54-32.06-54.76-71.69-54.92-120-.12-36.73-.27-73.46-.08-110.19.17-31.07,11.61-43.66,42.67-47.17a110.74,110.74,0,0,1,21.69-.44c30,2.56,42.14,15.38,42.48,45.64.39,34.31-.06,68.63.18,102.94.4,54.9,36.71,88.84,94.27,88.45,53.81-.38,88.55-35.37,88.6-89.34,0-34.8-.24-69.59,0-104.39.17-27.66,10.9-39.57,38.21-43.06,13.11-1.69,26.14-.27,38.78,3.07,20.14,5.33,29.9,17.76,30.34,38.77C1179-245.75,1178.61-223.51,1178.61-195.18Z" transform="translate(654.95 325.65)" style="fill:#2e2925"/><path d="M-122.13-107.39c.59-74,50.78-126,120.86-125.32,68.71.71,121.92,57.17,121.16,128.56C119.16-36.41,64.2,16.79-4.41,16.16S-122.69-36.47-122.13-107.39Z" transform="translate(654.95 325.65)" style="fill:#fefefe"/></svg>