<svg width="39" height="35" viewBox="0 0 39 35" fill="none" xmlns="http://www.w3.org/2000/svg">
<path d="M9.125 34.625C11.7083 34.625 13.7917 33.8333 15.375 32.25C16.9583 30.5833 17.75 28.5417 17.75 26.125C17.75 23.4583 16.9583 21.2917 15.375 19.625C13.875 17.9583 11.9167 17.125 9.5 17.125C8.83333 17.125 8.16667 17.2083 7.5 17.375C7.41667 13.2917 10.25 8.70833 16 3.62501L12.125 0C8.04167 3.33334 5 7.04167 3 11.125C1 15.125 0 19.25 0 23.5C0 27.0833 0.833333 29.8333 2.5 31.75C4.16667 33.6667 6.375 34.625 9.125 34.625ZM30.375 34.625C32.9583 34.625 35.0417 33.8333 36.625 32.25C38.2083 30.5833 39 28.5417 39 26.125C39 23.4583 38.2083 21.2917 36.625 19.625C35.125 17.9583 33.1667 17.125 30.75 17.125C30.0833 17.125 29.4167 17.2083 28.75 17.375C28.6667 13.2917 31.5 8.70833 37.25 3.62501L33.375 0C29.2917 3.33334 26.25 7.04167 24.25 11.125C22.25 15.125 21.25 19.25 21.25 23.5C21.25 27.0833 22.0833 29.8333 23.75 31.75C25.4167 33.6667 27.625 34.625 30.375 34.625Z" fill="#FF8070"/>
</svg>
