<svg width="70" height="70" viewBox="0 0 70 70" fill="none" xmlns="http://www.w3.org/2000/svg">
<g clip-path="url(#clip0_1_2)">
<path id="bluePlay" d="M69 35C69 16.2223 53.7777 1 35 1C16.2223 1 1 16.2223 1 35C1 53.7777 16.2223 69 35 69C53.7777 69 69 53.7777 69 35Z" fill="#3d4ed700"/>
<path d="M44 35L30.5 42.7942V27.2058L44 35Z" fill="white"/>
<path d="M69 35C69 16.2223 53.7777 1 35 1C16.2223 1 1 16.2223 1 35C1 53.7777 16.2223 69 35 69C53.7777 69 69 53.7777 69 35Z" stroke="white" stroke-width="2"/>
</g>
<defs>
<clipPath id="clip0_1_2">
<rect width="70" height="70" fill="white"/>
</clipPath>
</defs>
</svg>
